<svg xmlns="http://www.w3.org/2000/svg" xmlns:xlink="http://www.w3.org/1999/xlink" width="42" height="42" viewBox="0 0 42 42"><defs><linearGradient id="b" x1="868.253" x2="937.656" y1="521.354" y2="588.736" gradientTransform="translate(-1161.097 316.47) scale(1.34562)" gradientUnits="userSpaceOnUse" xlink:href="#a"/><linearGradient id="a"><stop offset="0" stop-color="#24f3d2"/><stop offset=".394" stop-color="#0674f0"/><stop offset=".507" stop-color="#6961b5"/><stop offset=".813" stop-color="#f34660"/><stop offset="1" stop-color="#ee078d"/></linearGradient></defs><g transform="translate(0 -1010.362)"><rect width="42" height="42" y="1010.362" fill="url(#b)" rx="8.876" ry="8.876"/><path style="line-height:normal;text-indent:0;text-align:start;text-decoration-line:none;text-decoration-style:solid;text-decoration-color:#000;text-transform:none;block-progression:tb;isolation:auto;mix-blend-mode:normal" fill="#fff" d="m 22.00005,1018.3622 c -1.376355,0 -2.5,1.1237 -2.5,2.5 0,1.2044 0.862877,2.2134 2,2.4473 l 0,2.0527 -7,0 a 0.50005,0.50005 0 0 0 -0.5,0.5 l 0,2.5508 c 0,0 -0.002,0 -0.002,0 -1.137124,0.2339 -1.99805,1.2449 -1.99805,2.4492 0,1.2044 0.862879,2.2134 2,2.4473 l 0,2.0527 -4.5,0 a 0.50005,0.50005 0 0 0 -0.5,0.5 l 0,2.5508 c -1.138052,0.2332 -2,1.2443 -2,2.4492 0,1.3764 1.123649,2.5 2.5,2.5 1.376351,0 2.5,-1.1236 2.5,-2.5 0,-1.2049 -0.861948,-2.216 -2,-2.4492 l 0,-2.0508 4.507812,0 4.492188,0 0,2.0508 c -1.138051,0.2332 -2,1.2443 -2,2.4492 0,1.3764 1.123649,2.5 2.5,2.5 1.376351,0 2.5,-1.1236 2.5,-2.5 0,-1.2049 -0.861949,-2.216 -2,-2.4492 l 0,-2.5508 a 0.50005,0.50005 0 0 0 -0.5,-0.5 l -4.5,0 0,-2.0527 c 0,0 0.002,0 0.002,0 1.137074,-0.2339 1.998,-1.2429 1.998,-2.4473 0,-1.2043 -0.862879,-2.2153 -2,-2.4492 l 0,-2.0508 14,0 0,2.0508 c 0,0 -0.002,0 -0.002,0 -1.137074,0.2339 -1.998,1.2449 -1.998,2.4492 0,1.2044 0.860926,2.2134 1.998047,2.4473 l 0,2.5527 a 0.50005,0.50005 0 0 0 0.5,0.5 l 2.501953,0 0,2.0508 c 0,0 -0.002,0 -0.002,0 -1.137074,0.2339 -1.998,1.2449 -1.998,2.4492 0,1.3764 1.123649,2.5 2.5,2.5 1.376351,0 2.5,-1.1236 2.5,-2.5 0,-1.2043 -0.862879,-2.2153 -2,-2.4492 l 0,-2.5508 a 0.50005,0.50005 0 0 0 -0.5,-0.5 l -2.501953,0 0,-2.0527 c 1.13903,-0.2325 2.002003,-1.2416 2.002003,-2.4473 0,-1.2043 -0.862879,-2.2153 -2,-2.4492 l 0,-2.5508 a 0.50005,0.50005 0 0 0 -0.5,-0.5 l -7,0 0,-2.0527 c 0,0 0.002,0 0.002,0 1.137076,-0.2339 1.998,-1.2429 1.998,-2.4473 0,-1.3763 -1.123645,-2.5 -2.5,-2.5 z m 0,1 c 0.839655,0 1.5,0.6604 1.5,1.5 0,0.8135 -0.621724,1.4527 -1.423828,1.4922 a 0.50005,0.50005 0 0 0 -0.08398,-0.01 0.50005,0.50005 0 0 0 -0.07227,0.01 c -0.800194,-0.042 -1.419922,-0.6801 -1.419922,-1.4922 0,-0.8396 0.660345,-1.5 1.5,-1.5 z m -7.542969,10.0039 c 0,0 0.002,0 0.002,0 a 0.50005,0.50005 0 0 0 0.07813,0 c 0.821367,0.02 1.462894,0.6693 1.462894,1.4961 0,0.8135 -0.621729,1.4527 -1.423828,1.4922 a 0.50005,0.50005 0 0 0 -0.08398,-0.01 0.50005,0.50005 0 0 0 -0.07227,0.01 c -0.800243,-0.041 -1.419977,-0.6801 -1.419977,-1.4922 0,-0.8248 0.63853,-1.4734 1.457031,-1.4961 z m 15,0 c 0,0 0.002,0 0.002,0 a 0.50005,0.50005 0 0 0 0.07813,0 c 0.821312,0.02 1.462839,0.6693 1.462839,1.4961 0,0.8236 -0.636516,1.4714 -1.453125,1.4961 a 0.50005,0.50005 0 0 0 -0.05664,0 0.50005,0.50005 0 0 0 -0.03516,0 c -0.817559,-0.024 -1.455075,-0.6719 -1.455075,-1.4961 0,-0.8248 0.63853,-1.4734 1.457031,-1.4961 z m -20,10 c 6.62e-4,0 0.0013,0 0.002,0 a 0.50005,0.50005 0 0 0 0.07813,0 c 0.821367,0.02 1.462894,0.6693 1.462894,1.4961 0,0.8397 -0.660351,1.5 -1.5,1.5 -0.839649,0 -1.5,-0.6603 -1.5,-1.5 0,-0.8248 0.63853,-1.4734 1.457031,-1.4961 z m 10,0 c 6.62e-4,0 0.0013,0 0.002,0 a 0.50005,0.50005 0 0 0 0.07813,0 c 0.821312,0.02 1.462839,0.6693 1.462839,1.4961 0,0.8397 -0.660351,1.5 -1.5,1.5 -0.839649,0 -1.5,-0.6603 -1.5,-1.5 0,-0.8248 0.63853,-1.4734 1.457031,-1.4961 z m 13,0 c 0,0 0.002,0 0.002,0 a 0.50005,0.50005 0 0 0 0.07813,0 c 0.821312,0.02 1.462839,0.6693 1.462839,1.4961 0,0.8397 -0.660351,1.5 -1.5,1.5 -0.839649,0 -1.5,-0.6603 -1.5,-1.5 0,-0.8248 0.63853,-1.4734 1.457031,-1.4961 z" color="#000" font-family="sans-serif" font-weight="400" overflow="visible" white-space="normal"/></g></svg>