<svg xmlns="http://www.w3.org/2000/svg" xmlns:xlink="http://www.w3.org/1999/xlink" width="42" height="42" viewBox="0 0 42 42"><defs><linearGradient id="b" x1="906.952" x2="931.379" y1="515.915" y2="546.094" gradientTransform="translate(-1215.129 316.47) scale(1.34562)" gradientUnits="userSpaceOnUse" xlink:href="#a"/><linearGradient id="a"><stop offset="0" stop-color="#ffd800"/><stop offset="1" stop-color="#ff6100"/></linearGradient></defs><g transform="translate(0 -1010.362)"><rect width="42" height="42" y="1010.362" fill="url(#b)" rx="8.876" ry="8.876"/><path style="line-height:normal;text-indent:0;text-align:start;text-decoration-line:none;text-decoration-style:solid;text-decoration-color:#000;text-transform:none;block-progression:tb;isolation:auto;mix-blend-mode:normal" fill="#fff" d="m 19.99993,1018.3622 a 0.50005,0.50005 0 0 0 -0.5,0.5 l 0,4 a 0.50005,0.50005 0 0 0 0.345703,0.4746 0.50005,0.50005 0 0 0 0.04883,0.014 0.50005,0.50005 0 0 0 0.09961,0.012 0.50005,0.50005 0 0 0 0.0059,0 l 1.5,0 0,2 -7,0 a 0.50005,0.50005 0 0 0 -0.5,0.5 l 0,2.5 -1.5,0 a 0.50005,0.50005 0 0 0 -0.5,0.5 l 0,4 a 0.50005,0.50005 0 0 0 0.002,0.043 0.50005,0.50005 0 0 0 0.49805,0.457 l 1.5,0 0,2 -4.5,0 a 0.50005,0.50005 0 0 0 -0.5,0.5 l 0,2.5 -1.5,0 a 0.50005,0.50005 0 0 0 -0.5,0.5 l 0,4 a 0.50005,0.50005 0 0 0 0.00195,0.043 0.50005,0.50005 0 0 0 0.49805,0.457 l 4,0 a 0.50005,0.50005 0 0 0 0.498047,-0.457 0.50005,0.50005 0 0 0 0.002,-0.043 l 0,-4 -0.0078,0.01 a 0.50005,0.50005 0 0 0 -0.49234,-0.5106 l -1.5,0 0,-2 4.507813,0 4.492187,0 0,2 -1.5,0 a 0.50005,0.50005 0 0 0 -0.5,0.5 l 0,4 a 0.50005,0.50005 0 0 0 0.002,0.041 0.50005,0.50005 0 0 0 0.498,0.459 l 4,0 a 0.50005,0.50005 0 0 0 0.498047,-0.459 0.50005,0.50005 0 0 0 0.002,-0.041 l 0,-4 -0.0078,0.01 a 0.50005,0.50005 0 0 0 -0.492247,-0.51 l -1.5,0 0,-2.5 a 0.50005,0.50005 0 0 0 -0.5,-0.5 l -4.5,0 0,-2 1.5,0 a 0.50005,0.50005 0 0 0 0.498047,-0.459 0.50005,0.50005 0 0 0 0.002,-0.041 l 0,-4 -0.0078,0.01 a 0.50005,0.50005 0 0 0 -0.492247,-0.51 l -1.5,0 0,-2 14,0 0,2 -1.5,0 a 0.50005,0.50005 0 0 0 -0.5,0.5 l 0,4 a 0.50005,0.50005 0 0 0 0.002,0.041 0.50005,0.50005 0 0 0 0.498,0.459 l 1.498047,0 0,2.5 a 0.50005,0.50005 0 0 0 0.5,0.5 l 2.501953,0 0,2 -1.5,0 a 0.50005,0.50005 0 0 0 -0.5,0.5 l 0,4 a 0.50005,0.50005 0 0 0 0.002,0.041 0.50005,0.50005 0 0 0 0.498,0.459 l 4,0 a 0.50005,0.50005 0 0 0 0.498047,-0.459 0.50005,0.50005 0 0 0 0.002,-0.041 l 0,-4 -0.0078,0.01 a 0.50005,0.50005 0 0 0 -0.492247,-0.51 l -1.5,0 0,-2.5 a 0.50005,0.50005 0 0 0 -0.5,-0.5 l -2.501953,0 0,-2 1.501953,0 a 0.50005,0.50005 0 0 0 0.498047,-0.459 0.50005,0.50005 0 0 0 0.002,-0.041 l 0,-4 -0.0078,0.01 a 0.50005,0.50005 0 0 0 -0.492247,-0.51 l -1.5,0 0,-2.5 a 0.50005,0.50005 0 0 0 -0.5,-0.5 l -7,0 0,-2 1.464844,0 0.03516,0 a 0.50005,0.50005 0 0 0 0.05078,0 0.50005,0.50005 0 0 0 0.04883,-0.01 0.50005,0.50005 0 0 0 0.40039,-0.4902 l 0,-4 -0.0078,0.01 a 0.50005,0.50005 0 0 0 -0.492204,-0.5098 l -4,0 z m 0.5,1 3,0 0,3 -1.382812,0 a 0.50005,0.50005 0 0 0 -0.125,-0.014 0.50005,0.50005 0 0 0 -0.113282,0.014 l -1.378906,0 0,-3 z m -7.5,10 1.423828,0 a 0.50005,0.50005 0 0 0 0.146485,0 l 1.429687,0 0,3 -1.382812,0 a 0.50005,0.50005 0 0 0 -0.125,-0.014 0.50005,0.50005 0 0 0 -0.113282,0.014 l -1.378906,0 0,-3 z m 15,0 1.423828,0 a 0.50005,0.50005 0 0 0 0.146484,0 l 1.429688,0 0,3 -1.423828,0 a 0.50005,0.50005 0 0 0 -0.08594,-0.01 0.50005,0.50005 0 0 0 -0.07617,0.01 l -1.414062,0 0,-3 z m -20,10 1.4238281,0 a 0.50005,0.50005 0 0 0 0.1464844,0 l 1.4296875,0 0,3 -3,0 0,-3 z m 10,0 1.423828,0 a 0.50005,0.50005 0 0 0 0.146484,0 l 1.429688,0 0,3 -3,0 0,-3 z m 13,0 1.423828,0 a 0.50005,0.50005 0 0 0 0.146484,0 l 1.429688,0 0,3 -3,0 0,-3 z" color="#000" font-family="sans-serif" font-weight="400" overflow="visible" white-space="normal"/></g></svg>