<svg xmlns="http://www.w3.org/2000/svg" xmlns:xlink="http://www.w3.org/1999/xlink" width="42" height="42" viewBox="0 0 42 42"><defs><linearGradient id="b" x1="992.183" x2="1019.298" y1="516.081" y2="545.959" gradientTransform="translate(-1332.367 316.47) scale(1.34562)" gradientUnits="userSpaceOnUse" xlink:href="#a"/><linearGradient id="a"><stop offset="0" stop-color="#ff1679"/><stop offset="1" stop-color="#ff770b"/></linearGradient></defs><g transform="translate(0 -1010.362)"><rect width="42" height="42" y="1010.362" fill="url(#b)" rx="8.876" ry="8.876"/><path fill="#fff" style="line-height:normal;text-indent:0;text-align:start;text-decoration-line:none;text-decoration-style:solid;text-decoration-color:#000;text-transform:none;block-progression:tb;isolation:auto;mix-blend-mode:normal" d="m 22.926351,1017.1869 c -1.520378,-0.01 -3.38716,0.2671 -4.888672,1.1308 -2.751397,1.4336 -4.79679,4.1068 -5.33789,7.3965 l -3.6464848,7.2442 a 0.50005,0.50005 0 0 0 0.4472656,0.7265 l 1.4335942,0 0,5.043 a 0.50005,0.50005 0 0 0 0.5,0.5 l 3.980468,0 0.638672,5.8633 a 0.50007117,0.50007117 0 1 0 0.994141,-0.1094 l -0.6875,-6.3066 a 0.50005,0.50005 0 0 0 -0.496094,-0.4473 l -3.929687,0 0,-5.043 a 0.50005,0.50005 0 0 0 -0.5,-0.5 l -1.121094,0 3.296875,-6.5547 a 0.50005,0.50005 0 0 0 0.04687,-0.1484 c 0.461982,-3.0298 2.334443,-5.4752 4.851562,-6.7832 a 0.50005,0.50005 0 0 0 0.01953,-0.012 c 1.675652,-0.9675 4.221822,-1.1082 5.634765,-0.918 1.102652,0.1674 2.125904,0.5203 3.046875,1.0215 1.264535,0.7307 2.162286,1.4902 3.017578,2.6367 1.332407,1.8176 1.997939,4.1198 1.707032,6.5274 -0.008,0.066 -0.02265,0.166 -0.03125,0.2265 l -4.40625,9.6211 a 0.50005,0.50005 0 0 0 -0.04297,0.252 l 0.5625,6.5078 a 0.50005,0.50005 0 1 0 0.996094,-0.086 l -0.550781,-6.3769 4.380859,-9.5703 a 0.50005,0.50005 0 0 0 0.04102,-0.1367 c 0,0 0.02879,-0.201 0.04297,-0.3184 0.322017,-2.6651 -0.415518,-5.2247 -1.894531,-7.2402 a 0.50005,0.50005 0 0 0 -0.002,0 c -0.93274,-1.2504 -1.970856,-2.1288 -3.324219,-2.9102 a 0.50005,0.50005 0 0 0 -0.01172,-0.01 c -1.023078,-0.5576 -2.160641,-0.9495 -3.380816,-1.1347 a 0.50005,0.50005 0 0 0 -0.0078,0 l 0,0 c -0.40329,-0.055 -0.872126,-0.091 -1.378919,-0.094 z m 0.658203,3.3515 c -0.826168,0.037 -1.588847,0.6821 -1.669922,1.5762 -0.04693,0.2738 0.107977,0.3891 0.181641,0.5996 l -2.417969,0 a 0.50004997,0.50004997 0 0 0 -0.5,0.5 l 0,2.4649 c -0.782633,-0.2035 -1.62737,-0.047 -1.984375,0.7558 -0.531297,1.0454 0.151551,2.3567 1.320313,2.502 0.244925,0.038 0.431854,-0.1592 0.664062,-0.2227 l 0,2.461 a 0.50004997,0.50004997 0 0 0 0.5,0.5 l 3.087891,0 a 0.50004997,0.50004997 0 0 0 0.335937,-0.8711 c -0.336538,-0.3039 -0.228378,-1.0181 0.183594,-1.209 a 0.50004997,0.50004997 0 0 0 0.03516,-0.02 c 0.378556,-0.2132 0.990827,0.077 1.070313,0.5039 a 0.50004997,0.50004997 0 0 0 0.0039,0.021 c 0.05582,0.2407 -0.03274,0.5383 -0.208984,0.7071 a 0.50004997,0.50004997 0 0 0 0.345703,0.8613 l 2.996094,0 a 0.50004997,0.50004997 0 0 0 0.416015,-0.1191 l 0.0078,-0.01 a 0.50004997,0.50004997 0 0 0 0.160156,-0.461 l 0,-3.0039 a 0.50004997,0.50004997 0 0 0 -0.859375,-0.3457 c -0.159431,0.166 -0.430054,0.2571 -0.65625,0.2207 a 0.50004997,0.50004997 0 0 0 -0.02148,0 c -0.444079,-0.052 -0.768148,-0.6755 -0.560547,-1.0703 a 0.50004997,0.50004997 0 0 0 0.01758,-0.037 c 0.182672,-0.4278 0.902832,-0.5365 1.210938,-0.1973 a 0.50004997,0.50004997 0 0 0 0.86914,-0.3379 l 0,-2.9199 -0.09961,0.127 a 0.50004997,0.50004997 0 0 0 -0.390615,-0.8105 l -2.458985,0 c 0.204009,-0.783 0.04864,-1.6288 -0.753906,-1.9883 l 0,0 c -0.266715,-0.1355 -0.548829,-0.192 -0.824219,-0.1797 z m 0.04687,1.0079 c 0.116812,-0.011 0.232557,0.01 0.332032,0.059 l 0,0 a 0.50004997,0.50004997 0 0 0 0.03516,0.018 c 0.428151,0.1843 0.536699,0.9076 0.197265,1.2168 a 0.50004997,0.50004997 0 0 0 0.335938,0.8691 l 2.580078,0 0,1.9746 c -0.782132,-0.2023 -1.625749,-0.045 -1.982422,0.7578 -0.52931,1.0447 0.152964,2.3541 1.320313,2.5 0.24413,0.037 0.430654,-0.1577 0.662109,-0.2207 l 0,1.9532 -1.976562,0 c 0.07399,-0.2718 0.293847,-0.5004 0.230468,-0.7832 -0.218382,-1.1218 -1.506197,-1.7278 -2.511718,-1.1817 -0.774758,0.3719 -0.924641,1.1994 -0.72461,1.9688 l -1.951172,0 0,-2.5957 a 0.50004997,0.50004997 0 0 0 -0.861328,-0.3477 c -0.159408,0.1664 -0.428151,0.2572 -0.654297,0.2207 a 0.50004997,0.50004997 0 0 0 -0.02148,0 c -0.44412,-0.052 -0.770101,-0.6775 -0.5625,-1.0723 a 0.50004997,0.50004997 0 0 0 0.01758,-0.037 c 0.182672,-0.4278 0.902863,-0.5363 1.210938,-0.1972 a 0.50004997,0.50004997 0 0 0 0.871093,-0.336 l 0,-2.5937 2.556641,0 a 0.50004997,0.50004997 0 0 0 0.398437,-0.8047 c -0.115104,-0.1509 -0.268823,-0.5475 -0.251953,-0.6289 a 0.50004997,0.50004997 0 0 0 0.0098,-0.068 c 0.0227,-0.345 0.3898,-0.6338 0.740234,-0.6679 z" color="#000" font-family="sans-serif" font-weight="400" overflow="visible" white-space="normal"/></g></svg>