<svg xmlns="http://www.w3.org/2000/svg" xmlns:xlink="http://www.w3.org/1999/xlink" width="42" height="42" viewBox="0 0 42 42"><defs><linearGradient id="b" x1="1073.403" x2="1097.116" y1="516.451" y2="544.308" gradientTransform="translate(-1438.388 316.47) scale(1.34562)" gradientUnits="userSpaceOnUse" xlink:href="#a"/><linearGradient id="a"><stop offset="0" stop-color="#16ff6a"/><stop offset="1" stop-color="#0090a5"/></linearGradient></defs><g transform="translate(0 -1010.362)"><rect width="42" height="42" y="1010.362" fill="url(#b)" rx="8.876" ry="8.876"/><path style="line-height:normal;text-indent:0;text-align:start;text-decoration-line:none;text-decoration-style:solid;text-decoration-color:#000;text-transform:none;block-progression:tb;isolation:auto;mix-blend-mode:normal" fill="#fff" d="m 10.5,1015.3622 a 0.50005,0.50005 0 0 0 -0.455078,0.709 L 18,1033.4989 l 0,2.666 c -1.790344,1.0402 -2.999991,2.9773 -3,5.1934 1.3e-5,3.31 2.692006,6.0039 6,6.0039 3.307994,0 5.999987,-2.6939 6,-6.0039 -9e-6,-2.2161 -1.209656,-4.1532 -3,-5.1934 l 0,-2.6699 7.955078,-17.4238 A 0.50005,0.50005 0 0 0 31.5,1015.3622 l -4.363281,0 a 0.50005,0.50005 0 0 0 -0.455078,0.293 L 21,1028.1044 15.318359,1015.6552 a 0.50005,0.50005 0 0 0 -0.455078,-0.293 l -4.363281,0 z m 0.775391,1 3.265625,0 5.910156,12.9453 -1.632813,3.5781 -7.542968,-16.5234 z m 16.183593,0 3.265625,0 -7.863281,17.2246 -3.265625,0 7.863281,-17.2246 z M 19,1034.5868 l 4,0 0,1.1172 c -0.626704,-0.2228 -1.297966,-0.3496 -2,-0.3496 -0.702034,0 -1.373296,0.1268 -2,0.3496 l 0,-1.1172 z m 2,1.7676 c 2.767121,0 4.999989,2.2339 5,5.0039 -1.1e-5,2.77 -2.232879,5.0039 -5,5.0039 -2.767121,0 -4.999989,-2.2339 -5,-5.0039 1.1e-5,-2.77 2.232879,-5.0039 5,-5.0039 z m 0,1.0019 c -2.203422,0 -3.999981,1.7975 -4,4.002 1.9e-5,2.2046 1.796578,4.0039 4,4.0039 2.203422,0 3.999981,-1.7993 4,-4.0039 -1.9e-5,-2.2045 -1.796578,-4.002 -4,-4.002 z m 0,1 c 1.662548,0 2.999986,1.3375 3,3.002 -1.4e-5,1.6646 -1.337452,3.0039 -3,3.0039 -1.662548,0 -2.999986,-1.3393 -3,-3.0039 1.4e-5,-1.6645 1.337452,-3.002 3,-3.002 z m 0.150391,0.7383 c -0.109271,0.3039 -0.230991,0.5684 -0.777344,0.5684 l 0,0.5039 0.546875,0 0,3.4551 0.707031,0 0,-4.5274 -0.476562,0 z" color="#000" font-family="sans-serif" font-weight="400" overflow="visible" white-space="normal"/></g></svg>