<svg xmlns="http://www.w3.org/2000/svg" xmlns:xlink="http://www.w3.org/1999/xlink" width="42" height="42" viewBox="0 0 42 42"><defs><linearGradient id="b" x1="868.253" x2="937.656" y1="521.354" y2="588.736" gradientTransform="translate(-1161.097 316.47) scale(1.34562)" gradientUnits="userSpaceOnUse" xlink:href="#a"/><linearGradient id="a"><stop offset="0" stop-color="#24f3d2"/><stop offset=".394" stop-color="#0674f0"/><stop offset=".507" stop-color="#6961b5"/><stop offset=".813" stop-color="#f34660"/><stop offset="1" stop-color="#ee078d"/></linearGradient></defs><g transform="translate(0 -1010.362)"><rect width="42" height="42" y="1010.362" fill="url(#b)" rx="8.876" ry="8.876"/><path style="line-height:normal;text-indent:0;text-align:start;text-decoration-line:none;text-decoration-style:solid;text-decoration-color:#000;text-transform:none;block-progression:tb;isolation:auto;mix-blend-mode:normal" fill="#fff" d="m 16.998514,1017.3598 c -1.098647,0 -2,0.9014 -2,2 0,1.0987 0.901353,2 2,2 0.155991,0 0.307104,-0.022 0.453125,-0.057 l 3.882812,5.9532 c -0.211041,0.3167 -0.335937,0.6971 -0.335937,1.1035 0,1.0987 0.901353,2 2,2 1.098647,0 2,-0.9013 2,-2 0,-0.5602 -0.235981,-1.0674 -0.611328,-1.4317 l 3.205078,-5.6113 c 0.131122,0.027 0.267405,0.043 0.40625,0.043 1.098647,0 2,-0.9013 2,-2 0,-1.0986 -0.901353,-2 -2,-2 -1.098647,0 -2,0.9014 -2,2 0,0.6027 0.276882,1.1381 0.703125,1.5058 l -3.183594,5.5704 c -0.166729,-0.046 -0.339028,-0.076 -0.519531,-0.076 -0.327681,0 -0.632351,0.087 -0.90625,0.2285 l -3.753906,-5.7578 c 0.4023,-0.3667 0.660156,-0.8878 0.660156,-1.4707 0,-1.0986 -0.901353,-2 -2,-2 z m 0,1 c 0.558207,0 1,0.4418 1,1 0,0.5582 -0.441793,1 -1,1 -0.558207,0 -1,-0.4418 -1,-1 0,-0.5582 0.441793,-1 1,-1 z m 11,0 c 0.558207,0 1,0.4418 1,1 0,0.5582 -0.441793,1 -1,1 -0.558207,0 -1,-0.4418 -1,-1 0,-0.5582 0.441793,-1 1,-1 z m -5.771485,4.9922 0,0 c -0.214256,0 -0.425622,0.01 -0.632812,0.022 -0.672733,0.04 -0.601446,1.0523 0.07031,0.9981 0.185647,-0.013 0.373938,-0.019 0.564454,-0.021 0.182642,0 0.379037,0.01 0.58789,0.016 0.19931,0.011 0.401773,0.028 0.607422,0.051 0.696461,0.1194 0.816935,-0.9543 0.111328,-0.9922 -0.222997,-0.025 -0.442295,-0.044 -0.660156,-0.057 l -0.01367,0 c -0.203643,-0.01 -0.413647,-0.018 -0.632812,-0.018 z m -3.873046,1.1426 c -0.09585,9e-4 -0.189407,0.029 -0.269532,0.082 -0.06251,0.04 -0.12578,0.082 -0.189453,0.125 -0.252612,0.1712 -0.495159,0.3557 -0.726562,0.5547 -0.231397,0.1991 -0.450575,0.4117 -0.658203,0.6367 -0.207622,0.2252 -0.402718,0.4637 -0.583985,0.7129 l -0.002,0 c -0.181174,0.2493 -0.347641,0.5094 -0.5,0.7812 -0.152372,0.2716 -0.2895,0.5539 -0.410156,0.8457 -0.120668,0.2919 -0.224105,0.5942 -0.310547,0.9043 -0.07776,0.2789 -0.135522,0.5674 -0.183594,0.8594 l -2.78125,5.5371 c -0.164788,0.3315 0.07516,0.7209 0.445313,0.7227 l 0.982422,0 0,3.7597 c 2.7e-5,0.2762 0.223869,0.5 0.5,0.5 l 2.947265,0 0.476563,4.3907 c 0.0604,0.6765 1.079663,0.5664 0.99414,-0.1075 l -0.52539,-4.8378 c -0.02795,-0.2539 -0.242678,-0.4459 -0.498047,-0.4454 l -2.894531,0 0,-3.7597 c -2.8e-5,-0.2762 -0.22387,-0.5 -0.5,-0.5 l -0.671875,0 2.445312,-4.8653 c 0.02328,-0.047 0.03909,-0.097 0.04687,-0.1484 0.04356,-0.2862 0.104047,-0.5646 0.179688,-0.8359 0.07564,-0.2713 0.166026,-0.536 0.271484,-0.7911 0.10547,-0.2551 0.226431,-0.5012 0.359375,-0.7382 0.132957,-0.2372 0.279022,-0.4655 0.4375,-0.6836 0.158385,-0.2178 0.328251,-0.4242 0.509766,-0.6211 0.181507,-0.1967 0.3738,-0.3826 0.576171,-0.5567 0.202364,-0.174 0.413832,-0.3366 0.634766,-0.4863 0.05471,-0.037 0.111753,-0.074 0.169922,-0.1113 0.42832,-0.2682 0.233843,-0.93 -0.271484,-0.9238 z m 8.349609,0.2558 0,0.01 c -0.47359,0.029 -0.643956,0.64 -0.253906,0.9102 0.221613,0.1588 0.415894,0.3159 0.59375,0.4765 0.355749,0.3212 0.644279,0.6557 0.935547,1.0411 1.003022,1.3725 1.502464,3.1074 1.283203,4.9257 -0.0051,0.042 -0.01218,0.098 -0.01953,0.1504 l -3.371094,7.3789 c -0.03557,0.078 -0.05037,0.1644 -0.04297,0.25 l 0.431641,5.0039 c 0.04186,0.6822 1.071687,0.5934 0.996093,-0.086 l -0.419921,-4.873 3.345703,-7.3223 c 0.01947,-0.043 0.03262,-0.09 0.03906,-0.1367 0,0 0.02388,-0.1525 0.03516,-0.2461 0.250361,-2.0762 -0.324238,-4.0737 -1.474609,-5.6446 l -0.0039,-0.012 c -0.315909,-0.418 -0.652007,-0.8073 -1.064453,-1.1797 -0.206251,-0.1862 -0.430988,-0.3672 -0.681649,-0.5468 -0.09448,-0.07 -0.210667,-0.1048 -0.328125,-0.098 z m -3.714844,2.6113 c 0.523392,0.1 0.236429,-0.036 0.576172,0.1914 0.32488,0.2179 0.433594,0.4648 0.433594,0.8067 0,0.5582 -0.441793,1 -1,1 -0.558207,0 -1,-0.4418 -1,-1 0,-0.5547 0.436956,-0.9926 0.990234,-0.9981 z" color="#000" font-family="sans-serif" font-weight="400" overflow="visible" white-space="normal"/></g></svg>