<svg xmlns="http://www.w3.org/2000/svg" xmlns:xlink="http://www.w3.org/1999/xlink" width="42" height="42" viewBox="0 0 42 42"><defs><linearGradient id="b" x1="1056.035" x2="1031.176" y1="544.13" y2="517.701" gradientTransform="translate(-1384.051 316.298) scale(1.34562)" gradientUnits="userSpaceOnUse" xlink:href="#a"/><linearGradient id="a"><stop offset="0" stop-color="#5a5a5a"/><stop offset="1" stop-color="#656e85"/></linearGradient></defs><g transform="translate(0 -1010.362)"><rect width="42" height="42" x="-.031" y="1010.19" fill="url(#b)" rx="8.876" ry="8.876"/><path style="line-height:normal;text-indent:0;text-align:start;text-decoration-line:none;text-decoration-style:solid;text-decoration-color:#000;text-transform:none;block-progression:tb;isolation:auto;mix-blend-mode:normal" fill="#fff" d="m 12.458041,1017.3622 a 0.50005,0.50005 0 0 0 -0.06055,0.01 c -1.289744,0.055 -2.325666,1.0916 -2.382813,2.3808 a 0.50005,0.50005 0 0 0 -0.01172,0.1114 l 0,17.498 -3.4238282,0 a 0.50005,0.50005 0 0 0 -0.4042969,0.1172 0.50005,0.50005 0 0 0 -0.029297,0.029 0.50005,0.50005 0 0 0 -0.050781,0.061 0.50005,0.50005 0 0 0 -0.011719,0.016 0.50005,0.50005 0 0 0 -0.00391,0.01 0.50005,0.50005 0 0 0 -0.025391,0.041 0.50005,0.50005 0 0 0 -0.00195,0 0.50005,0.50005 0 0 0 -0.03125,0.084 0.50005,0.50005 0 0 0 -0.00195,0.01 0.50005,0.50005 0 0 0 -0.015625,0.1894 l 0,1.9453 c 0,1.3475 1.0792182,2.4446 2.4160156,2.4903 a 0.50005,0.50005 0 0 0 0.048828,0.01 c 0.012018,10e-5 0.023099,0 0.035156,0 0.00669,0 0.012853,0 0.019531,0 l 13.4785165,0 0,2.6914 a 0.50004997,0.50004997 0 0 0 0.751953,0.4316 l 1.808594,-1.0586 1.673828,1.0508 a 0.50004997,0.50004997 0 0 0 0.767578,-0.4238 l 0,-2.6895 2.5,0 c 1.339503,0 2.430334,-1.0669 2.488281,-2.3925 a 0.50005,0.50005 0 0 0 0.01172,-0.1095 l 0,-7.998 0,-9.502 3.423828,0 a 0.50005,0.50005 0 0 0 0.400391,-0.1133 0.50005,0.50005 0 0 0 0.0039,0 0.50005,0.50005 0 0 0 0.0332,-0.031 0.50005,0.50005 0 0 0 0.002,0 0.50005,0.50005 0 0 0 0.002,0 0.50005,0.50005 0 0 0 0.134766,-0.4297 l 0,-1.918 c 0,-1.3381 -1.064774,-2.4283 -2.388672,-2.4883 a 0.50005,0.50005 0 0 0 -0.111413,-0.012 l -0.05078,0 -20.94336,0 a 0.50005,0.50005 0 0 0 -0.0059,0 0.50005,0.50005 0 0 0 -0.04492,0 z m 0.04492,1 a 0.50005,0.50005 0 0 0 0.0059,0 c 0.836794,0 1.49414,0.6624 1.49414,1.5 l 0,1.957 a 0.50005,0.50005 0 0 0 0.0059,0.1231 0.50005,0.50005 0 0 0 0.0019,0.018 0.50005,0.50005 0 0 0 0.002,0.01 0.50005,0.50005 0 0 0 0.558599,0.3945 l 16.431641,0 0,9.4649 a 0.50005,0.50005 0 0 0 0,0.037 l 0,7.998 0,0 c 0,0.8396 -0.660352,1.5 -1.5,1.5 l -2.5,0 0,-2.3301 c 0.116067,10e-5 0.261322,6e-4 0.417969,0.01 0.170547,0 0.345805,0.01 0.507812,0 0.081,0 0.157229,-0.012 0.244141,-0.029 0.08691,-0.018 0.195006,-0.013 0.355469,-0.1757 0.160602,-0.1624 0.155292,-0.2704 0.171874,-0.3575 0.01658,-0.087 0.02219,-0.163 0.02539,-0.2441 0.0064,-0.1621 3.41e-4,-0.3355 -0.0059,-0.5059 -0.0062,-0.1705 -0.01189,-0.3379 -0.01172,-0.457 1.3e-5,-0.01 -1.09e-4,-0.011 0,-0.02 0.007,0 0.0081,-0.01 0.01563,-0.01 0.102402,-0.061 0.248658,-0.1411 0.398438,-0.2227 0.149778,-0.082 0.303285,-0.1638 0.439453,-0.2519 0.06808,-0.044 0.132734,-0.088 0.199218,-0.1465 0.06648,-0.059 0.158956,-0.1092 0.216797,-0.3301 0.05778,-0.2208 -1.57e-4,-0.3108 -0.0293,-0.3945 -0.02919,-0.084 -0.06186,-0.1549 -0.09961,-0.2266 -0.0755,-0.1437 -0.167243,-0.2909 -0.257812,-0.4355 -0.09057,-0.1445 -0.180818,-0.2854 -0.240235,-0.3887 -0.0041,-0.01 -0.0039,-0.01 -0.0078,-0.016 0.0041,-0.01 0.0033,-0.012 0.0078,-0.02 0.05824,-0.104 0.147412,-0.245 0.236328,-0.3906 0.08892,-0.1456 0.178094,-0.2932 0.251953,-0.4375 0.03693,-0.072 0.06943,-0.1445 0.09766,-0.2285 0.02824,-0.084 0.08379,-0.1743 0.02344,-0.3945 -0.06035,-0.2202 -0.153562,-0.2702 -0.220703,-0.3282 -0.06714,-0.058 -0.13064,-0.099 -0.199219,-0.1426 -0.137157,-0.087 -0.290708,-0.17 -0.441406,-0.25 -0.150697,-0.08 -0.299252,-0.157 -0.402344,-0.2167 -0.0076,0 -0.0085,-0.01 -0.01563,-0.01 -2.11e-4,-0.01 1.19e-4,-0.011 0,-0.02 -0.0015,-0.1191 0.0016,-0.2864 0.0059,-0.457 0.0042,-0.1705 0.0083,-0.3439 0,-0.5059 -0.0041,-0.081 -0.0098,-0.1572 -0.02734,-0.2441 -0.01757,-0.087 -0.01545,-0.193 -0.177735,-0.3535 -0.162407,-0.1604 -0.268415,-0.1573 -0.355468,-0.1739 -0.08705,-0.017 -0.163119,-0.022 -0.244141,-0.025 -0.162045,-0.01 -0.337336,4e-4 -0.507812,0.01 -0.170477,0.01 -0.335821,0.012 -0.455079,0.012 -0.01007,0 -0.01213,0 -0.02148,0 -0.0046,-0.01 -0.005,-0.012 -0.0098,-0.02 -0.0609,-0.1023 -0.139104,-0.2486 -0.220703,-0.3984 -0.0816,-0.1499 -0.165745,-0.3033 -0.253906,-0.4394 -0.04408,-0.068 -0.08772,-0.1309 -0.146484,-0.1973 -0.05876,-0.066 -0.110459,-0.1593 -0.332031,-0.2168 -0.220906,-0.058 -0.310798,0 -0.394532,0.027 -0.08373,0.029 -0.15283,0.062 -0.224609,0.1 -0.143557,0.075 -0.291016,0.1673 -0.435547,0.2579 -0.144532,0.091 -0.28345,0.1808 -0.386719,0.2402 -0.0081,0 -0.01188,0.01 -0.01953,0.01 -0.0077,0 -0.0094,-0.01 -0.01758,-0.01 -0.10393,-0.058 -0.243142,-0.1436 -0.388672,-0.2324 -0.145529,-0.089 -0.297093,-0.182 -0.441406,-0.2559 -0.07216,-0.037 -0.140705,-0.07 -0.22461,-0.098 -0.0839,-0.028 -0.174511,-0.08 -0.394531,-0.021 -0.220223,0.06 -0.272151,0.1515 -0.330078,0.2187 -0.05793,0.067 -0.10124,0.1306 -0.144531,0.1992 -0.08658,0.1372 -0.168155,0.2927 -0.248047,0.4434 -0.07989,0.1506 -0.155092,0.2973 -0.214844,0.4004 -0.0047,0.01 -0.0053,0.01 -0.0098,0.018 -0.0094,3e-4 -0.01142,-2e-4 -0.02148,0 -0.119248,0 -0.284536,2e-4 -0.455078,-0.01 -0.170541,0 -0.34583,-0.01 -0.507813,0 -0.08099,0 -0.157254,0.012 -0.24414,0.029 -0.08689,0.017 -0.192999,0.015 -0.353516,0.1777 -0.160444,0.1623 -0.15725,0.2684 -0.173828,0.3555 -0.01658,0.087 -0.02219,0.1631 -0.02539,0.2441 -0.0064,0.1621 -3.41e-4,0.3354 0.0059,0.5059 0.0062,0.1705 0.0119,0.3378 0.01172,0.457 -1.4e-5,0.01 1.13e-4,0.011 0,0.02 -0.007,0 -0.0081,0.01 -0.01563,0.01 -0.102405,0.061 -0.248658,0.1392 -0.398438,0.2207 -0.149779,0.082 -0.303289,0.1658 -0.439453,0.2539 -0.06808,0.044 -0.132741,0.088 -0.199219,0.1465 -0.06648,0.059 -0.158957,0.1092 -0.216797,0.3301 -0.05785,0.2209 1.57e-4,0.3108 0.0293,0.3945 0.02919,0.084 0.06186,0.1548 0.09961,0.2266 0.0755,0.1435 0.167245,0.291 0.257812,0.4355 0.09057,0.1446 0.180817,0.2854 0.240235,0.3887 0.0045,0.01 0.0036,0.01 0.0078,0.018 -0.0037,0.01 -0.0037,0.012 -0.0078,0.018 -0.05824,0.104 -0.147411,0.245 -0.236329,0.3906 -0.08892,0.1455 -0.178091,0.293 -0.251953,0.4375 -0.03693,0.072 -0.06943,0.1445 -0.09766,0.2285 -0.02824,0.084 -0.08372,0.1744 -0.02344,0.3945 0.06035,0.2202 0.153558,0.2703 0.220704,0.3282 0.06714,0.058 0.130639,0.099 0.199218,0.1426 0.13716,0.086 0.292662,0.1701 0.44336,0.25 0.150697,0.08 0.297301,0.157 0.40039,0.2167 0.0076,0 0.0085,0.01 0.01563,0.01 2.07e-4,0.01 -1.17e-4,0.011 0,0.02 0.0015,0.1191 -0.0016,0.2864 -0.0059,0.457 -0.0042,0.1705 -0.0083,0.3438 0,0.5059 0.0041,0.081 0.0098,0.1572 0.02734,0.2441 0.01757,0.087 0.01529,0.193 0.177734,0.3535 a 0.50005,0.50005 0 0 0 0.002,0 c 0.162517,0.1605 0.26643,0.1574 0.353516,0.1739 0.08709,0.017 0.163122,0.023 0.244141,0.027 0.162037,0.01 0.339353,-5e-4 0.509765,-0.01 0.138834,-0.01 0.259482,-0.011 0.369141,-0.012 l 0,2.2988 -11.511719,0 c 0.296924,-0.392 0.479156,-0.8688 0.50197,-1.3907 a 0.50005,0.50005 0 0 0 0.01172,-0.1094 l 0,-1.959 a 0.50005,0.50005 0 0 0 0,-0.074 l 0,-17.9648 0,0 c 0,-0.8396 0.660351,-1.5 1.5,-1.5 z m 1.986328,0 19.013672,0 c 0.839648,0 1.5,0.6604 1.5,1.5 l 0,1.5 -3.421875,0 a 0.50005,0.50005 0 0 0 -0.08594,-0.01 0.50005,0.50005 0 0 0 -0.07617,0.01 l -16.416015,0 0,-1.5 c 0,-0.5642 -0.19602,-1.0807 -0.513672,-1.5 z m -1.53711,6 a 0.50064427,0.50064427 0 0 0 0.05078,1 l 16.000001,0 a 0.50005,0.50005 0 1 0 0,-1 l -16,0 a 0.50005,0.50005 0 0 0 -0.05078,0 z m 0,3 a 0.50064427,0.50064427 0 0 0 0.05078,1 l 16.000001,0 a 0.50005,0.50005 0 1 0 0,-1 l -16,0 a 0.50005,0.50005 0 0 0 -0.05078,0 z m 0,3 a 0.50064427,0.50064427 0 0 0 0.05078,1 l 6.000001,0 a 0.50005,0.50005 0 1 0 0,-1 l -6.000001,0 a 0.50005,0.50005 0 0 0 -0.05078,0 z m 12.699219,0.1172 c 0.04483,0.077 0.08575,0.1467 0.136719,0.2402 0.07925,0.1456 0.160526,0.2976 0.240235,0.4317 0.03985,0.067 0.07894,0.1309 0.125,0.1933 0.04606,0.062 0.0732,0.1252 0.230468,0.2149 a 0.50005,0.50005 0 0 0 0.002,0 c 0.157127,0.089 0.225744,0.078 0.302735,0.086 0.07699,0.01 0.150588,0.011 0.228515,0.012 0.15585,2e-4 0.328598,-0.011 0.494141,-0.016 l 0.275391,0 c 5.07e-4,0.089 0.0026,0.1724 0,0.2793 -0.0041,0.1657 -0.0079,0.3362 -0.0059,0.4922 0.001,0.078 0.001,0.1514 0.0098,0.2285 0.0087,0.077 3.88e-4,0.1465 0.0918,0.3027 0.0914,0.1563 0.157818,0.1852 0.220703,0.2305 0.06289,0.045 0.123929,0.082 0.191406,0.1211 0.134954,0.078 0.289165,0.1568 0.435547,0.2344 0.09426,0.05 0.164932,0.092 0.242188,0.1367 -0.04398,0.077 -0.08512,0.1493 -0.140626,0.2402 -0.08637,0.1413 -0.175715,0.2879 -0.251953,0.4239 -0.03812,0.068 -0.07254,0.1321 -0.103515,0.2031 -0.03097,0.071 -0.0733,0.1276 -0.07227,0.3086 10e-4,0.1811 0.04244,0.2379 0.07422,0.3086 0.03178,0.071 0.06853,0.1335 0.107422,0.2011 0.07778,0.1352 0.169842,0.2815 0.257812,0.4219 0.05676,0.091 0.09762,0.1614 0.142578,0.2383 -0.07675,0.045 -0.14655,0.088 -0.240234,0.1387 -0.14549,0.079 -0.299534,0.1605 -0.433594,0.2402 -0.06703,0.04 -0.127083,0.078 -0.189453,0.1231 -0.06237,0.046 -0.12913,0.073 -0.21875,0.2304 -0.08963,0.1573 -0.08005,0.2296 -0.08789,0.3067 -0.0078,0.077 -0.0076,0.1505 -0.0078,0.2285 -2.33e-4,0.1559 0.0058,0.3265 0.01172,0.4922 0.0039,0.1068 0.0034,0.1902 0.0039,0.2793 -0.08886,5e-4 -0.170785,4e-4 -0.277344,0 -0.165588,0 -0.338302,-0.013 -0.49414,-0.012 -0.07792,10e-4 -0.149659,7e-4 -0.226563,0.014 -0.0769,0.01 -0.146597,9e-4 -0.302734,0.09 a 0.50005,0.50005 0 0 0 -0.002,0 c -0.107247,0.063 -0.148456,0.1105 -0.181641,0.1562 a 0.50004997,0.50004997 0 0 0 -0.234377,0.3768 c -0.05705,0.1029 -0.114032,0.2071 -0.169922,0.3125 -0.0499,0.094 -0.0908,0.1651 -0.134766,0.2422 -0.07737,-0.044 -0.150893,-0.083 -0.242187,-0.1387 -0.141359,-0.086 -0.285817,-0.1776 -0.421875,-0.2539 -0.06803,-0.038 -0.132036,-0.074 -0.203125,-0.1055 -0.07109,-0.031 -0.127472,-0.073 -0.308594,-0.072 -0.181014,10e-4 -0.237869,0.045 -0.308593,0.076 -0.07073,0.032 -0.135532,0.067 -0.203126,0.1055 -0.135189,0.078 -0.279531,0.1718 -0.419921,0.2597 -0.09067,0.057 -0.163341,0.096 -0.240235,0.1407 -0.04483,-0.077 -0.08575,-0.1467 -0.136718,-0.2403 -0.07925,-0.1455 -0.160519,-0.2956 -0.240235,-0.4297 -0.03986,-0.067 -0.07892,-0.131 -0.125,-0.1933 -0.04608,-0.062 -0.07303,-0.1271 -0.230469,-0.2168 -0.157387,-0.09 -0.225469,-0.08 -0.302734,-0.088 -0.07727,-0.01 -0.152433,-0.01 -0.230469,-0.01 -0.15607,-2e-4 -0.328533,0.01 -0.49414,0.012 l -0.275391,0 c -4.71e-4,-0.089 -0.0026,-0.1693 0,-0.2754 0.0041,-0.1657 0.0079,-0.3363 0.0059,-0.4922 -0.001,-0.078 -0.001,-0.1533 -0.0098,-0.2304 -0.0087,-0.077 -3.85e-4,-0.1484 -0.0918,-0.3047 -0.0914,-0.1563 -0.157814,-0.1813 -0.220703,-0.2266 -0.06289,-0.045 -0.123927,-0.083 -0.191406,-0.123 -0.134957,-0.078 -0.289165,-0.1568 -0.435547,-0.2344 -0.09426,-0.05 -0.164935,-0.093 -0.242188,-0.1367 0.04407,-0.077 0.0849,-0.149 0.140625,-0.2403 0.08637,-0.1414 0.175714,-0.2878 0.251953,-0.4238 0.03812,-0.068 0.07254,-0.132 0.103516,-0.2031 0.03098,-0.071 0.0733,-0.1275 0.07226,-0.3086 -9.99e-4,-0.1809 -0.04244,-0.2358 -0.07422,-0.3066 -0.03178,-0.071 -0.06853,-0.1356 -0.107422,-0.2032 -0.07778,-0.1351 -0.169841,-0.2796 -0.257813,-0.4199 -0.05654,-0.09 -0.09772,-0.1617 -0.142578,-0.2383 0.07675,-0.045 0.146551,-0.088 0.240235,-0.1386 0.14549,-0.079 0.299536,-0.1605 0.433593,-0.2403 0.06703,-0.04 0.127088,-0.078 0.189453,-0.125 0.06236,-0.046 0.129135,-0.075 0.21875,-0.2324 0.08962,-0.1572 0.08005,-0.2257 0.08789,-0.3027 0.0078,-0.077 0.0076,-0.1507 0.0078,-0.2286 2.34e-4,-0.156 -0.0058,-0.3265 -0.01172,-0.4921 -0.0039,-0.1068 -0.0034,-0.1902 -0.0039,-0.2793 0.08886,-5e-4 0.17078,-5e-4 0.277343,0 0.165594,0 0.338303,0.011 0.494141,0.01 0.07792,0 0.149661,0 0.226563,-0.012 0.0769,-0.01 0.148566,0 0.304687,-0.092 0.15551,-0.091 0.181264,-0.154 0.226563,-0.2168 0.0453,-0.063 0.08397,-0.1279 0.123046,-0.1953 0.07816,-0.1349 0.15874,-0.2873 0.236328,-0.4336 0.0499,-0.094 0.0908,-0.1649 0.134766,-0.2421 l 0,0 c 0.07743,0.044 0.150866,0.082 0.242188,0.1386 0.141403,0.086 0.285805,0.1778 0.421875,0.2539 0.06804,0.038 0.132048,0.071 0.203125,0.1016 0.07108,0.031 0.127688,0.075 0.308593,0.074 0.181013,0 0.237868,-0.045 0.308594,-0.076 0.07073,-0.032 0.135531,-0.067 0.203125,-0.1054 0.135189,-0.078 0.279533,-0.1719 0.419922,-0.2598 0.09067,-0.057 0.163341,-0.096 0.240234,-0.1406 z m -1.162109,2.0566 c -0.271063,0 -0.368146,0.1371 -0.433594,0.209 -0.06545,0.072 -0.103444,0.1354 -0.142578,0.2012 -0.07826,0.1316 -0.145701,0.2731 -0.210937,0.4141 -0.06524,0.141 -0.127759,0.279 -0.175782,0.3769 -0.0029,0.01 -0.0031,0.011 -0.0059,0.014 -0.0059,9e-4 -0.0075,0 -0.01367,0 -0.106614,0.017 -0.255842,0.036 -0.408203,0.057 -0.152359,0.021 -0.30571,0.043 -0.453125,0.08 -0.07371,0.018 -0.145125,0.038 -0.232422,0.08 -0.0873,0.042 -0.242046,0.096 -0.324219,0.3574 -0.08217,0.2615 0.0132,0.3971 0.06055,0.4824 0.04736,0.085 0.09284,0.1432 0.142578,0.2012 0.09948,0.1161 0.213886,0.2237 0.326172,0.3301 0.112286,0.1064 0.223651,0.2085 0.300781,0.2851 0.0045,0 0.0035,0.01 0.0078,0.01 -8.9e-4,0.01 9.39e-4,0.01 0,0.014 -0.01667,0.108 -0.047,0.2569 -0.07422,0.4102 -0.02721,0.1532 -0.05321,0.3095 -0.06445,0.4628 -0.0056,0.077 -0.0085,0.1511 0.0039,0.2481 0.01236,0.097 0.01412,0.2639 0.234375,0.4238 a 0.49696473,0.50315447 0 0 0 0.002,0 c 0.220289,0.1599 0.375997,0.1095 0.470703,0.09 0.09471,-0.019 0.162553,-0.048 0.232421,-0.078 0.139743,-0.06 0.277479,-0.1338 0.41211,-0.209 0.134632,-0.075 0.26369,-0.1525 0.359375,-0.2031 0.0055,0 0.0084,3e-4 0.01367,-0.01 0.0054,0 0.0061,-2e-4 0.01172,0.01 0.09631,0.05 0.227737,0.1237 0.363281,0.1973 0.135541,0.073 0.273596,0.1469 0.414062,0.2051 0.07024,0.029 0.139435,0.056 0.234375,0.074 0.09494,0.018 0.250451,0.067 0.46875,-0.096 0.218299,-0.1626 0.21929,-0.3287 0.230469,-0.4258 0.01118,-0.097 0.0065,-0.1714 0,-0.248 -0.01311,-0.1531 -0.04123,-0.3081 -0.07031,-0.461 -0.02908,-0.1529 -0.05818,-0.3023 -0.07617,-0.4101 -0.001,-0.01 -0.0011,-0.01 -0.002,-0.014 0.0042,0 0.0033,-0.01 0.0078,-0.01 0.07619,-0.077 0.185895,-0.1813 0.296875,-0.2891 0.110981,-0.1078 0.222254,-0.2168 0.320313,-0.334 0.04903,-0.059 0.09627,-0.1173 0.142578,-0.2031 0.04631,-0.086 0.14005,-0.2219 0.05469,-0.4824 -0.08536,-0.2605 -0.240326,-0.3127 -0.328125,-0.3535 -0.0878,-0.041 -0.160449,-0.06 -0.234375,-0.078 -0.147845,-0.035 -0.300523,-0.055 -0.453125,-0.074 -0.152605,-0.019 -0.303343,-0.035 -0.410156,-0.051 -0.0063,-9e-4 -0.0076,0 -0.01367,0 -0.0027,-0.01 -0.0031,-0.01 -0.0059,-0.012 -0.04922,-0.097 -0.112738,-0.2348 -0.179688,-0.375 -0.06695,-0.1401 -0.134988,-0.2814 -0.214844,-0.4121 -0.03993,-0.065 -0.08018,-0.1281 -0.146484,-0.1992 -0.0663,-0.071 -0.166474,-0.2047 -0.4375,-0.2031 l 0,0 z m -11.53711,0.8262 a 0.50064427,0.50064427 0 0 0 0.05078,1 l 5.000001,0 a 0.50005,0.50005 0 1 0 0,-1 l -5.000001,0 a 0.50005,0.50005 0 0 0 -0.05078,0 z m 11.546876,0.6465 c 0.02827,0.059 0.05583,0.1202 0.08398,0.1758 0.0316,0.062 0.06274,0.1203 0.09961,0.1797 0.03687,0.06 0.05353,0.1172 0.19336,0.2187 0.139818,0.1015 0.198186,0.099 0.265625,0.1152 0.06744,0.016 0.132596,0.027 0.201172,0.037 0.061,0.01 0.126814,0.017 0.191406,0.025 -0.04709,0.046 -0.09512,0.091 -0.138672,0.1348 -0.04892,0.05 -0.09422,0.098 -0.138672,0.1524 -0.04445,0.054 -0.09433,0.086 -0.146484,0.2519 -0.05216,0.166 -0.03093,0.2231 -0.02539,0.293 0.0055,0.07 0.01579,0.1359 0.02734,0.2051 0.01029,0.062 0.02467,0.1266 0.03711,0.1914 -0.05742,-0.031 -0.11677,-0.064 -0.171875,-0.092 -0.06183,-0.032 -0.121216,-0.06 -0.185547,-0.086 -0.06433,-0.026 -0.109218,-0.064 -0.28125,-0.062 -0.17212,0 -0.219183,0.039 -0.283203,0.066 -0.06402,0.027 -0.122149,0.056 -0.183594,0.088 -0.0546,0.029 -0.113057,0.062 -0.169921,0.094 0.01161,-0.065 0.02369,-0.1298 0.0332,-0.1914 0.0107,-0.069 0.0207,-0.1351 0.02539,-0.2051 0.0047,-0.07 0.02489,-0.1256 -0.0293,-0.291 -0.05417,-0.1653 -0.103334,-0.1987 -0.148438,-0.252 -0.0451,-0.053 -0.0911,-0.1013 -0.140625,-0.1504 -0.04406,-0.044 -0.09301,-0.089 -0.140625,-0.1347 0.06459,-0.01 0.130435,-0.015 0.191406,-0.025 0.06845,-0.011 0.131994,-0.024 0.199219,-0.041 0.06723,-0.017 0.127056,-0.014 0.265625,-0.1172 0.138565,-0.1032 0.153319,-0.1608 0.189453,-0.2207 0.03614,-0.06 0.06683,-0.1208 0.09766,-0.1836 0.02745,-0.056 0.05449,-0.116 0.08203,-0.1758 z m -17.4960945,4.3535 2.9999995,0 0,1.5 0,0 c 0,0.8329 -0.6504261,1.4876 -1.4804683,1.4981 l -0.019531,0 a 0.50005,0.50005 0 0 0 -0.019531,0 c -0.8300427,-0.011 -1.4804692,-0.6653 -1.4804692,-1.4981 l 0,-1.502 z m 5.9492185,0 a 0.50064427,0.50064427 0 0 0 0.05078,1 l 6.000001,0 a 0.50005,0.50005 0 1 0 0,-1 l -6.000001,0 a 0.50005,0.50005 0 0 0 -0.05078,0 z m 12.050782,1.6172 c 0.124428,0.076 0.25236,0.1522 0.375,0.2148 0.07225,0.037 0.140393,0.07 0.224609,0.098 0.08422,0.028 0.176043,0.084 0.396485,0.023 0.0019,-5e-4 0.002,0 0.0039,0 l 0,3.8399 -1.166016,-0.7305 a 0.50004997,0.50004997 0 0 0 -0.519525,-0.012 l -1.316406,0.7715 0,-3.8828 c 0.0261,0.01 0.03527,0.023 0.06836,0.031 0.220907,0.058 0.310796,6e-4 0.394531,-0.025 0.08373,-0.029 0.152831,-0.064 0.22461,-0.1016 0.103638,-0.054 0.208941,-0.122 0.314453,-0.1875 l 0,1.8457 a 0.50005006,0.50005006 0 1 0 1,0 l 0,-1.8828 z" color="#000" font-family="sans-serif" font-weight="400" overflow="visible" white-space="normal"/></g></svg>