<svg xmlns="http://www.w3.org/2000/svg" xmlns:xlink="http://www.w3.org/1999/xlink" width="42" height="42" viewBox="0 0 42 42"><defs><linearGradient id="b" x1="906.952" x2="931.379" y1="515.915" y2="546.094" gradientTransform="translate(-1215.129 316.47) scale(1.34562)" gradientUnits="userSpaceOnUse" xlink:href="#a"/><linearGradient id="a"><stop offset="0" stop-color="#ffd800"/><stop offset="1" stop-color="#ff6100"/></linearGradient></defs><g transform="translate(0 -1010.362)"><rect width="42" height="42" y="1010.362" fill="url(#b)" rx="8.876" ry="8.876"/><path fill="#fff" fill-rule="evenodd" style="line-height:normal;text-indent:0;text-align:start;text-decoration-line:none;text-decoration-style:solid;text-decoration-color:#000;text-transform:none;block-progression:tb;isolation:auto;mix-blend-mode:normal" d="m 17,1018.361 c -1.957906,0 -3.613835,1.2665 -4.230469,3.0175 -1.719498,0.089 -3.2528523,1.1474 -3.9218746,2.75 -0.3298853,0.7902 -0.4118709,1.6365 -0.28125,2.4473 -1.5939753,1.2778 -2.3588174,3.3357 -1.9628906,5.3477 0.2554902,1.2982 0.9641835,2.432 1.9609375,3.2304 -0.2309666,1.4491 0.2513512,2.9287 1.3183594,3.9531 0.7916283,0.7601 1.8225573,1.1834 2.8886723,1.2383 0.698837,1.9897 2.695692,3.2577 4.816406,2.9785 1.514669,-0.1994 2.758263,-1.1523 3.412109,-2.4414 0.653846,1.2891 1.89744,2.242 3.412109,2.4414 2.120715,0.2792 4.117569,-0.9888 4.816407,-2.9785 1.066114,-0.055 2.097043,-0.4782 2.888672,-1.2383 1.067007,-1.0244 1.549325,-2.504 1.318359,-3.9531 0.996754,-0.7984 1.705448,-1.9322 1.960937,-3.2304 0.395927,-2.012 -0.368914,-4.0699 -1.96289,-5.3477 0.130621,-0.8108 0.04864,-1.6571 -0.28125,-2.4473 -0.669023,-1.6026 -2.202377,-2.6607 -3.921875,-2.75 -0.616634,-1.751 -2.272563,-3.0175 -4.230469,-3.0175 -1.750195,0 -3.256382,1.0161 -4,2.4804 -0.743618,-1.4643 -2.249805,-2.4804 -4,-2.4804 z m 0,1 c 1.938919,0 3.5,1.5611 3.5,3.5 a 0.50004997,0.50004997 0 0 0 0,0.033 l 0,15.9668 c 9e-6,1.7603 -1.297749,3.2409 -3.042969,3.4707 -1.561404,0.2055 -3.028819,-0.653 -3.648437,-2.0528 0.118656,-0.022 0.237787,-0.039 0.355469,-0.07 a 0.50034067,0.50034067 0 0 0 -0.257813,-0.9669 c -1.18398,0.3173 -2.445885,-0.01 -3.330078,-0.8555 -0.7227268,-0.6938 -1.0976429,-1.6558 -1.0664062,-2.6367 0.3384295,0.1726 0.6904932,0.3251 1.0664062,0.4258 a 0.50054486,0.50054486 0 0 0 0.259766,-0.9668 c -1.6592651,-0.4446 -2.9202715,-1.793 -3.2519534,-3.4785 -0.2971694,-1.51 0.203466,-3.0472 1.2929687,-4.0996 0.2211955,0.5165 0.5290035,1.0016 0.9414063,1.414 a 0.50004997,0.50004997 0 1 0 0.7070314,-0.707 c -1.0045168,-1.0045 -1.303133,-2.5132 -0.7558596,-3.8242 0.4857336,-1.1635 1.5508236,-1.9614 2.7773436,-2.1211 -0.01647,0.156 -0.04687,0.3085 -0.04687,0.4688 a 0.50004997,0.50004997 0 1 0 1,0 c 0,-1.9389 1.561081,-3.5 3.5,-3.5 z m 8,0 c 1.938919,0 3.5,1.5611 3.5,3.5 a 0.50004997,0.50004997 0 1 0 1,0 c 0,-0.1603 -0.03041,-0.3128 -0.04687,-0.4688 1.22652,0.1597 2.29161,0.9576 2.777344,2.1211 0.547273,1.311 0.248657,2.8197 -0.75586,3.8242 a 0.50004997,0.50004997 0 1 0 0.707032,0.707 c 0.412402,-0.4124 0.72021,-0.8975 0.941406,-1.414 1.089503,1.0524 1.590138,2.5896 1.292969,4.0996 -0.331682,1.6855 -1.592688,3.0339 -3.251954,3.4785 a 0.50054486,0.50054486 0 0 0 0.259766,0.9668 c 0.375913,-0.1007 0.727977,-0.2532 1.066406,-0.4258 0.03124,0.9809 -0.343679,1.9429 -1.066406,2.6367 -0.884193,0.8454 -2.146098,1.1728 -3.330078,0.8555 a 0.50029223,0.50029223 0 1 0 -0.257812,0.9668 c 0.117681,0.032 0.236813,0.049 0.355468,0.07 -0.619617,1.3998 -2.087033,2.2583 -3.648437,2.0528 -1.74522,-0.2298 -3.042978,-1.7104 -3.042969,-3.4707 l 0,-16 c 0,-1.9389 1.561081,-3.5 3.5,-3.5 z m -8.050781,1 a 0.50064426,0.50064426 0 0 0 0.05078,1 c 0.834352,0 1.499996,0.6656 1.5,1.5 a 0.50004997,0.50004997 0 1 0 1,0 c -6e-6,-1.3748 -1.12521,-2.5 -2.5,-2.5 a 0.50004997,0.50004997 0 0 0 -0.05078,0 z m 8.050781,0 c -1.37479,0 -2.499994,1.1252 -2.5,2.5 a 0.50004997,0.50004997 0 1 0 1,0 c 4e-6,-0.8344 0.665649,-1.5 1.5,-1.5 a 0.50004997,0.50004997 0 1 0 0,-1 z m -11.707031,3.8496 a 0.50028124,0.50028124 0 0 0 -0.478516,0.6601 c 0.104043,0.3122 0.251225,0.6023 0.417969,0.8809 -0.572146,-0.077 -1.155779,-0.079 -1.732422,0.027 a 0.50048019,0.50048019 0 0 0 0.179688,0.9844 c 1.051689,-0.1933 2.138407,-0.01 3.064453,0.5273 a 0.50004997,0.50004997 0 0 0 0.02734,0.016 0.50004997,0.50004997 0 0 0 0.0098,0 0.50004997,0.50004997 0 0 0 0.02734,0.014 0.50004997,0.50004997 0 0 0 0.01172,0 0.50004997,0.50004997 0 0 0 0.04102,0.014 0.50004997,0.50004997 0 0 0 0.0078,0 0.50004997,0.50004997 0 0 0 0.03516,0.01 0.50004997,0.50004997 0 0 0 0.0625,0.01 0.50004997,0.50004997 0 0 0 0.183593,-0.023 0.50004997,0.50004997 0 0 0 0.01367,0 0.50004997,0.50004997 0 0 0 0.07813,-0.035 0.50004997,0.50004997 0 0 0 0.01172,-0.01 0.50004997,0.50004997 0 0 0 0.07031,-0.051 0.50004997,0.50004997 0 0 0 0.01172,-0.01 0.50004997,0.50004997 0 0 0 0.02539,-0.025 0.50004997,0.50004997 0 0 0 0.0098,-0.01 0.50004997,0.50004997 0 0 0 0.05078,-0.068 0.50004997,0.50004997 0 0 0 0.0078,-0.012 0.50004997,0.50004997 0 0 0 0.01758,-0.031 0.50004997,0.50004997 0 0 0 0.0059,-0.012 0.50004997,0.50004997 0 0 0 0.0293,-0.082 0.50004997,0.50004997 0 0 0 0.0039,-0.012 0.50004997,0.50004997 0 0 0 0.0078,-0.037 0.50004997,0.50004997 0 0 0 0.002,-0.014 0.50004997,0.50004997 0 0 0 0.0039,-0.086 0.50004997,0.50004997 0 0 0 0,-0.014 0.50004997,0.50004997 0 0 0 -0.0039,-0.037 0.50004997,0.50004997 0 0 0 -0.002,-0.012 0.50004997,0.50004997 0 0 0 -0.04102,-0.1308 0.50004997,0.50004997 0 0 0 -0.0059,-0.012 0.50004997,0.50004997 0 0 0 -0.01758,-0.033 0.50004997,0.50004997 0 0 0 -0.0059,-0.01 0.50004997,0.50004997 0 0 0 -0.02148,-0.031 0.50004997,0.50004997 0 0 0 -0.0078,-0.01 0.50004997,0.50004997 0 0 0 -0.02344,-0.029 0.50004997,0.50004997 0 0 0 -0.0078,-0.01 0.50004997,0.50004997 0 0 0 -0.02734,-0.025 0.50004997,0.50004997 0 0 0 -0.0098,-0.01 0.50004997,0.50004997 0 0 0 -0.0293,-0.023 0.50004997,0.50004997 0 0 0 -0.0098,-0.01 0.50004997,0.50004997 0 0 0 -0.03125,-0.02 c -0.703154,-0.4305 -1.231446,-1.0945 -1.49219,-1.8768 a 0.50028124,0.50028124 0 0 0 -0.470703,-0.3437 z m 15.414062,0 a 0.50028134,0.50028134 0 0 0 -0.470703,0.3437 c -0.260744,0.7823 -0.789036,1.4463 -1.492187,1.877 a 0.50004997,0.50004997 0 0 0 -0.01367,0.01 0.50004997,0.50004997 0 0 0 -0.01758,0.01 0.50004997,0.50004997 0 0 0 -0.0098,0.01 0.50004997,0.50004997 0 0 0 -0.0293,0.023 0.50004997,0.50004997 0 0 0 -0.01758,0.016 0.50004997,0.50004997 0 0 0 -0.01953,0.018 0.50004997,0.50004997 0 0 0 -0.0078,0.01 0.50004997,0.50004997 0 0 0 -0.02344,0.029 0.50004997,0.50004997 0 0 0 -0.01953,0.027 0.50004997,0.50004997 0 0 0 -0.01172,0.019 0.50004997,0.50004997 0 0 0 -0.01563,0.025 0.50004997,0.50004997 0 0 0 -0.0078,0.018 0.50004997,0.50004997 0 0 0 -0.0059,0.01 0.50004997,0.50004997 0 0 0 -0.03906,0.1328 0.50004997,0.50004997 0 0 0 -0.002,0.02 0.50004997,0.50004997 0 0 0 -0.0038,0.023 0.50004997,0.50004997 0 0 0 0,0.014 0.50004997,0.50004997 0 0 0 0.0059,0.094 0.50004997,0.50004997 0 0 0 0.0039,0.02 0.50004997,0.50004997 0 0 0 0.0039,0.023 0.50004997,0.50004997 0 0 0 0.0039,0.012 0.50004997,0.50004997 0 0 0 0.0332,0.09 0.50004997,0.50004997 0 0 0 0.0098,0.016 0.50004997,0.50004997 0 0 0 0.0098,0.02 0.50004997,0.50004997 0 0 0 0.0078,0.012 0.50004997,0.50004997 0 0 0 0.05078,0.068 0.50004997,0.50004997 0 0 0 0.0098,0.01 0.50004997,0.50004997 0 0 0 0.02539,0.025 0.50004997,0.50004997 0 0 0 0.01172,0.01 0.50004997,0.50004997 0 0 0 0.07031,0.051 0.50004997,0.50004997 0 0 0 0.01172,0.01 0.50004997,0.50004997 0 0 0 0.09375,0.039 0.50004997,0.50004997 0 0 0 0.181641,0.024 0.50004997,0.50004997 0 0 0 0.0625,-0.01 0.50004997,0.50004997 0 0 0 0.03516,-0.01 0.50004997,0.50004997 0 0 0 0.01367,0 0.50004997,0.50004997 0 0 0 0.03516,-0.012 0.50004997,0.50004997 0 0 0 0.01172,0 0.50004997,0.50004997 0 0 0 0.0332,-0.016 0.50004997,0.50004997 0 0 0 0.01172,-0.01 0.50004997,0.50004997 0 0 0 0.01953,-0.012 c 0.0025,0 0.0053,0 0.0078,0 a 0.50004997,0.50004997 0 0 0 0.0039,0 c 0.923547,-0.5296 2.005376,-0.714 3.052734,-0.5215 A 0.50785187,0.50785187 0 1 0 30.5,1025.7789 c -0.576643,-0.106 -1.160276,-0.1046 -1.732422,-0.027 0.166744,-0.2786 0.313926,-0.5687 0.417969,-0.8809 a 0.50028134,0.50028134 0 0 0 -0.478516,-0.6601 z m -11.199219,1.8945 a 0.50004997,0.50004997 0 0 0 -0.410156,0.7559 c 0.680131,1.178 0.485281,2.6612 -0.476562,3.623 a 0.50004997,0.50004997 0 1 0 0.707031,0.707 c 1.278472,-1.2785 1.540742,-3.2642 0.636719,-4.83 a 0.50004997,0.50004997 0 0 0 -0.457032,-0.2559 z m 6.933594,0 a 0.50004997,0.50004997 0 0 0 -0.40625,0.2559 c -0.904023,1.5658 -0.641753,3.5515 0.636719,4.83 a 0.50004997,0.50004997 0 1 0 0.707031,-0.707 c -0.961843,-0.9618 -1.156693,-2.445 -0.476562,-3.623 a 0.50004997,0.50004997 0 0 0 -0.410156,-0.7559 0.50004997,0.50004997 0 0 0 -0.05078,0 z m -15.3124996,4.6543 a 0.50004997,0.50004997 0 0 0 -0.050781,0 0.50004997,0.50004997 0 0 0 -0.4414062,0.6348 c 0.1817224,0.6782 0.5386832,1.2984 1.0351562,1.7949 a 0.50004997,0.50004997 0 1 0 0.7070306,-0.7071 c -0.372386,-0.3724 -0.64104,-0.837 -0.7773433,-1.3457 a 0.50004997,0.50004997 0 0 0 -0.4726563,-0.3769 z m 23.7421876,0 a 0.50004997,0.50004997 0 0 0 -0.472656,0.3789 c -0.136304,0.5087 -0.404958,0.9733 -0.777344,1.3457 a 0.50004997,0.50004997 0 1 0 0.707031,0.707 c 0.496473,-0.4965 0.853434,-1.1167 1.035156,-1.7949 a 0.50004997,0.50004997 0 0 0 -0.441406,-0.6348 0.50004997,0.50004997 0 0 0 -0.05078,0 z m -16.867188,4.6016 a 0.50004997,0.50004997 0 0 0 -0.134765,0.018 0.50004997,0.50004997 0 0 0 -0.002,0 0.50004997,0.50004997 0 0 0 -0.01172,0 0.50004997,0.50004997 0 0 0 -0.03516,0.012 0.50004997,0.50004997 0 0 0 -0.07226,0.035 0.50004997,0.50004997 0 0 0 -0.0039,0 c -0.926046,0.5347 -2.012764,0.7207 -3.064453,0.5274 A 0.50382181,0.50382181 0 1 0 12.5,1036.9449 c 0.576643,0.106 1.160276,0.1027 1.732422,0.025 -0.166744,0.2786 -0.313926,0.5707 -0.417969,0.8828 a 0.50028219,0.50028219 0 0 0 0.949219,0.3164 c 0.259248,-0.7778 0.78335,-1.4402 1.480469,-1.871 a 0.50004997,0.50004997 0 0 0 0.0078,-0.01 c 0.0012,-8e-4 0.0027,0 0.0039,0 a 0.50004997,0.50004997 0 0 0 0.03125,-0.02 0.50004997,0.50004997 0 0 0 0.0098,-0.01 0.50004997,0.50004997 0 0 0 0.0293,-0.023 0.50004997,0.50004997 0 0 0 0.0098,-0.01 0.50004997,0.50004997 0 0 0 0.02734,-0.025 0.50004997,0.50004997 0 0 0 0.002,0 0.50004997,0.50004997 0 0 0 -0.361328,-0.8438 z m 9.970703,0 a 0.50004997,0.50004997 0 0 0 -0.339843,0.8437 0.50004997,0.50004997 0 0 1 0.002,0 0.50004997,0.50004997 0 0 0 0.0098,0.01 0.50004997,0.50004997 0 0 0 0.05664,0.049 0.50004997,0.50004997 0 0 0 0.04492,0.029 c 0.701305,0.4308 1.227995,1.0961 1.488281,1.877 a 0.50028229,0.50028229 0 1 0 0.949219,-0.3164 c -0.104043,-0.3122 -0.251225,-0.6042 -0.417969,-0.8828 0.572146,0.077 1.155779,0.081 1.732422,-0.025 a 0.50131645,0.50131645 0 0 0 -0.179688,-0.9864 c -1.051688,0.1933 -2.138407,0.01 -3.064453,-0.5273 a 0.50004997,0.50004997 0 0 0 -0.0039,0 0.50004997,0.50004997 0 0 0 -0.07227,-0.035 0.50004997,0.50004997 0 0 0 -0.03516,-0.012 0.50004997,0.50004997 0 0 0 -0.01367,0 0.50004997,0.50004997 0 0 1 -0.002,0 0.50004997,0.50004997 0 0 0 -0.0957,-0.016 0.50004997,0.50004997 0 0 0 -0.05859,0 z m -6.982421,2.9941 A 0.50004997,0.50004997 0 0 0 18.5,1038.861 c 0,0.8343 -0.665651,1.5 -1.5,1.5 a 0.50004997,0.50004997 0 1 0 0,1 c 1.37479,0 2.5,-1.1252 2.5,-2.5 a 0.50004997,0.50004997 0 0 0 -0.507812,-0.5059 z m 3.966796,0 A 0.50004997,0.50004997 0 0 0 22.5,1038.861 c 0,1.3748 1.12521,2.5 2.5,2.5 a 0.50004997,0.50004997 0 1 0 0,-1 c -0.834349,0 -1.5,-0.6657 -1.5,-1.5 a 0.50004997,0.50004997 0 0 0 -0.492188,-0.5059 0.50004997,0.50004997 0 0 0 -0.04883,0 z" color="#000" font-family="sans-serif" font-weight="400" overflow="visible" white-space="normal"/></g></svg>