<svg xmlns="http://www.w3.org/2000/svg" xmlns:xlink="http://www.w3.org/1999/xlink" width="42" height="42" viewBox="0 0 42 42"><defs><linearGradient id="b" x1="992.183" x2="1019.298" y1="516.081" y2="545.959" gradientTransform="translate(-1332.367 316.47) scale(1.34562)" gradientUnits="userSpaceOnUse" xlink:href="#a"/><linearGradient id="a"><stop offset="0" stop-color="#ff1679"/><stop offset="1" stop-color="#ff770b"/></linearGradient></defs><g transform="translate(0 -1010.362)"><rect width="42" height="42" y="1010.362" fill="url(#b)" rx="8.876" ry="8.876"/><path fill="#fff" fill-rule="evenodd" style="line-height:normal;text-indent:0;text-align:start;text-decoration-line:none;text-decoration-style:solid;text-decoration-color:#000;text-transform:none;block-progression:tb;isolation:auto;mix-blend-mode:normal" d="m 21,1017.3622 c -1.37479,0 -2.5,1.1252 -2.5,2.5 0,1.203 0.863626,2.2131 2,2.4473 l 0,4.1015 c -0.953304,0.095 -1.88516,0.4388 -2.666016,1.0782 l -2.878906,-2.8809 c 0.637956,-0.9691 0.530296,-2.2939 -0.320312,-3.1445 -0.972124,-0.9721 -2.563033,-0.9721 -3.535157,0 -0.972123,0.9722 -0.972123,2.563 0,3.5351 0.850608,0.8506 2.177365,0.9544 3.146485,0.3164 l 2.880859,2.8809 c -0.639046,0.7806 -0.982572,1.713 -1.078125,2.666 l -4.099609,0 c -0.232717,-1.1382 -1.244959,-2 -2.449219,-2 -1.3747896,0 -2.5,1.1252 -2.5,2.5 0,1.3748 1.1252104,2.5 2.5,2.5 1.202941,0 2.21505,-0.8636 2.449219,-2 l 4.097656,0 c 0.09495,0.9543 0.439857,1.8866 1.080078,2.668 l -2.878906,2.8789 c -0.969428,-0.6405 -2.296805,-0.5333 -3.148438,0.3183 -0.972123,0.9721 -0.972123,2.5631 0,3.5352 0.972124,0.9722 2.563033,0.9722 3.535157,0 0.850608,-0.8506 0.958268,-2.1754 0.320312,-3.1445 -2.72e-4,-5e-4 2.73e-4,0 0,0 l 2.876953,-2.877 c 0.780962,0.639 1.714497,0.9812 2.667969,1.0762 l 0,4.0976 c 0,0 -0.002,0 -0.002,0 -1.136327,0.2342 -1.998,1.2464 -1.998,2.4493 0,1.3748 1.12521,2.5 2.5,2.5 1.37479,0 2.5,-1.1252 2.5,-2.5 0,-1.2029 -0.863626,-2.2151 -2,-2.4492 l 0,-4.0977 c 0.952883,-0.095 1.885631,-0.4393 2.666016,-1.0781 l 2.878906,2.8789 c 0,0 0,0 0,0 -0.637957,0.9691 -0.532249,2.294 0.318359,3.1445 0.972123,0.9722 2.563032,0.9722 3.535157,0 0.972122,-0.9721 0.972122,-2.563 0,-3.5351 -0.850609,-0.8506 -2.177365,-0.9563 -3.146485,-0.3184 l -2.878906,-2.8789 c 0.639418,-0.7813 0.983132,-1.714 1.078125,-2.668 l 4.099609,0 c 0,0 0,0 0,0 0.234168,1.1363 1.246278,1.998 2.449219,1.998 1.37479,0 2.5,-1.1252 2.5,-2.5 0,-1.3748 -1.12521,-2.5 -2.5,-2.5 -1.20426,0 -2.216502,0.8618 -2.449219,2 l -4.099609,0 c -0.09544,-0.953 -0.439347,-1.8856 -1.078125,-2.666 l 2.878906,-2.8789 c 0,0 0.002,0 0.002,0 0.96912,0.6379 2.293923,0.5322 3.144532,-0.3184 0.972123,-0.9721 0.972122,-2.5629 0,-3.5351 -0.972124,-0.9721 -2.563034,-0.9721 -3.535157,0 -0.850608,0.8506 -0.956316,2.1773 -0.318359,3.1464 l -2.878953,2.879 c -0.780577,-0.6395 -1.713066,-0.983 -2.666016,-1.0782 l 0,-4.1015 c 0,0 0.002,0 0.002,0 1.136327,-0.2342 1.998,-1.2443 1.998,-2.4473 0,-1.3748 -1.12521,-2.5 -2.5,-2.5 z m 0,1 c 0.834349,0 1.5,0.6657 1.5,1.5 0,0.8344 -0.665651,1.5 -1.5,1.5 -0.834349,0 -1.5,-0.6656 -1.5,-1.5 0,-0.8343 0.665651,-1.5 1.5,-1.5 z m -8.132813,3.3652 c 0.382837,0 0.76556,0.1484 1.060547,0.4434 0.589975,0.5899 0.589975,1.5311 0,2.1211 -0.589974,0.5899 -1.531119,0.5899 -2.121093,0 -0.589975,-0.59 -0.589975,-1.5312 0,-2.1211 0.294987,-0.295 0.67771,-0.4434 1.060546,-0.4434 z m 16.263672,0 c 0.382837,0 0.76556,0.1484 1.060547,0.4434 0.589974,0.5899 0.589974,1.5311 0,2.1211 -0.589975,0.5899 -1.531119,0.5899 -2.121094,0 -0.589974,-0.59 -0.589974,-1.5312 0,-2.1211 0.294988,-0.295 0.677711,-0.4434 1.060547,-0.4434 z M 21,1027.3544 c 1.023294,-2e-4 2.046286,0.3919 2.830078,1.1758 1.567591,1.5677 1.567591,4.0944 0,5.6621 -1.567584,1.5677 -4.094519,1.5678 -5.662109,0 -1.567569,-1.5677 -1.56563,-4.0944 0.002,-5.6621 0.783748,-0.7832 1.806737,-1.1756 2.830031,-1.1758 z m -11.5,2.5078 c 0.834349,0 1.5,0.6657 1.5,1.5 0,0.8344 -0.665651,1.5 -1.5,1.5 -0.8343494,0 -1.5,-0.6656 -1.5,-1.5 0,-0.8343 0.6656506,-1.5 1.5,-1.5 z m 23,0 c 0.834349,0 1.5,0.6657 1.5,1.5 0,0.8344 -0.665651,1.5 -1.5,1.5 -0.834349,0 -1.5,-0.6656 -1.5,-1.5 0,-0.8343 0.665651,-1.5 1.5,-1.5 z m -19.632813,8.1289 c 0.382837,0 0.76556,0.1484 1.060547,0.4434 0.589975,0.59 0.589975,1.5312 0,2.1211 -0.589974,0.59 -1.531119,0.59 -2.121093,0 -0.589975,-0.5899 -0.589975,-1.5311 0,-2.1211 0.294987,-0.295 0.67771,-0.4434 1.060546,-0.4434 z m 16.263672,0 c 0.382837,0 0.76556,0.1484 1.060547,0.4434 0.589974,0.59 0.589974,1.5312 0,2.1211 -0.589975,0.59 -1.531119,0.59 -2.121094,0 -0.589974,-0.5899 -0.589975,-1.5311 0,-2.1211 0.294987,-0.295 0.677711,-0.4434 1.060547,-0.4434 z M 21,1041.3622 c 0.834349,0 1.5,0.6657 1.5,1.5 0,0.8344 -0.665651,1.5 -1.5,1.5 -0.834349,0 -1.5,-0.6656 -1.5,-1.5 0,-0.8343 0.665651,-1.5 1.5,-1.5 z" color="#000" font-family="sans-serif" font-weight="400" overflow="visible" white-space="normal"/></g></svg>