<svg xmlns="http://www.w3.org/2000/svg" xmlns:xlink="http://www.w3.org/1999/xlink" width="42" height="42" viewBox="0 0 42 42"><defs><linearGradient id="b" x1="868.253" x2="937.656" y1="521.354" y2="588.736" gradientTransform="translate(-1161.097 316.47) scale(1.34562)" gradientUnits="userSpaceOnUse" xlink:href="#a"/><linearGradient id="a"><stop offset="0" stop-color="#24f3d2"/><stop offset=".394" stop-color="#0674f0"/><stop offset=".507" stop-color="#6961b5"/><stop offset=".813" stop-color="#f34660"/><stop offset="1" stop-color="#ee078d"/></linearGradient></defs><g transform="translate(0 -1010.362)"><rect width="42" height="42" y="1010.362" fill="url(#b)" rx="8.876" ry="8.876"/><path style="line-height:normal;text-indent:0;text-align:start;text-decoration-line:none;text-decoration-style:solid;text-decoration-color:#000;text-transform:none;block-progression:tb;isolation:auto;mix-blend-mode:normal" fill="#fff" d="m 26,1018.3622 c -1.37479,0 -2.5,1.1252 -2.5,2.5 0,0.6944 0.288729,1.3231 0.75,1.7773 l -2.306641,3.8457 c -0.30394,-0.074 -0.617075,-0.123 -0.943359,-0.123 -1.197206,0 -2.261984,0.5409 -2.996094,1.3789 L 17.5,1027.3622 l -0.599609,0.8008 0.542968,0.4082 C 17.169035,1029.1126 17,1029.7157 17,1030.3622 c 0,0.6409 0.165654,1.2375 0.435547,1.7754 l -5.693359,3.7949 c -0.492853,-0.3552 -1.091347,-0.5703 -1.742188,-0.5703 -1.650932,0 -3,1.3491 -3,3 0,1.651 1.349068,3 3,3 1.650932,0 3,-1.349 3,-3 0,-0.6335 -0.200916,-1.2216 -0.539062,-1.707 l 5.53125,-3.6875 c 0.734353,0.8462 1.803804,1.3945 3.007812,1.3945 0.644158,0 1.245231,-0.169 1.785156,-0.4414 l 0.388672,0.5469 0.814453,-0.5821 -0.375,-0.5214 C 24.45554,1032.6299 25,1031.5629 25,1030.3622 c 0,-0.021 -0.0055,-0.04 -0.0059,-0.061 l 6.33789,-0.8458 c 0.358826,0.5437 0.972671,0.9063 1.66801,0.9063 1.098654,0 2,-0.9013 2,-2 0,-1.0986 -0.901346,-2 -2,-2 -1.098654,0 -2,0.9014 -2,2 0,0.044 0.0108,0.085 0.01367,0.1289 l -6.171875,0.8223 c -0.291547,-1.0621 -1.005265,-1.9406 -1.955076,-2.4551 l 2.205078,-3.6738 c 0.282464,0.1113 0.587446,0.1777 0.908203,0.1777 1.37479,0 2.5,-1.1252 2.5,-2.5 0,-1.3748 -1.12521,-2.5 -2.5,-2.5 z m 0,1 c 0.83435,0 1.5,0.6657 1.5,1.5 0,0.8344 -0.66565,1.5 -1.5,1.5 -0.83435,0 -1.5,-0.6656 -1.5,-1.5 0,-0.8343 0.66565,-1.5 1.5,-1.5 z m -13,3 c -1.098654,0 -2,0.9014 -2,2 0,1.0987 0.901346,2 2,2 0.394635,0 0.761174,-0.1204 1.072266,-0.3203 l 0.427734,0.3203 0.599609,-0.7988 -0.347656,-0.2617 C 14.904572,1025.0197 15,1024.7032 15,1024.3622 c 0,-1.0986 -0.901346,-2 -2,-2 z m 0,1 c 0.558214,0 1,0.4418 1,1 0,0.5582 -0.441786,1 -1,1 -0.558214,0 -1,-0.4418 -1,-1 0,-0.5582 0.441786,-1 1,-1 z m 2.900391,2.8008 -0.59961,0.8008 0.798828,0.5996 0.59961,-0.8008 -0.798828,-0.5996 z M 21,1027.3622 c 1.662771,0 3,1.3373 3,3 0,1.6628 -1.337229,3 -3,3 -1.662771,0 -3,-1.3372 -3,-3 0,-1.6627 1.337229,-3 3,-3 z m 12,0 c 0.558214,0 1,0.4418 1,1 0,0.5582 -0.441786,1 -1,1 -0.558214,0 -1,-0.4418 -1,-1 0,-0.5582 0.441786,-1 1,-1 z m -8.429688,7.3379 -0.814453,0.582 0.580079,0.8125 0.814453,-0.5801 -0.580079,-0.8144 z m 1.16211,1.6269 -0.814453,0.5821 0.582031,0.8125 0.8125,-0.5801 -0.580078,-0.8145 z M 10,1036.3622 c 1.110492,0 2,0.8895 2,2 0,1.1105 -0.889508,2 -2,2 -1.110492,0 -2,-0.8895 -2,-2 0,-1.1105 0.889508,-2 2,-2 z m 16.894531,1.5918 -0.814453,0.582 0.582031,0.8145 0.8125,-0.582 -0.580078,-0.8145 z M 29.5,1039.3622 c -0.486897,0 -0.93883,0.1453 -1.324219,0.3887 l -0.11914,-0.168 -0.814453,0.5801 0.203124,0.2832 C 27.165948,1040.8496 27,1041.3372 27,1041.8622 c 0,1.3748 1.125206,2.5 2.5,2.5 1.374794,0 2.5,-1.1252 2.5,-2.5 0,-1.3748 -1.125206,-2.5 -2.5,-2.5 z m 0,1 c 0.834354,0 1.5,0.6657 1.5,1.5 0,0.8344 -0.665646,1.5 -1.5,1.5 -0.834354,0 -1.5,-0.6656 -1.5,-1.5 0,-0.8343 0.665646,-1.5 1.5,-1.5 z" color="#000" font-family="sans-serif" font-weight="400" overflow="visible" white-space="normal"/></g></svg>