<svg xmlns="http://www.w3.org/2000/svg" xmlns:xlink="http://www.w3.org/1999/xlink" width="42" height="42" viewBox="0 0 42 42"><defs><linearGradient id="b" x1="868.253" x2="937.656" y1="521.354" y2="588.736" gradientTransform="translate(-1161.097 316.47) scale(1.34562)" gradientUnits="userSpaceOnUse" xlink:href="#a"/><linearGradient id="a"><stop offset="0" stop-color="#24f3d2"/><stop offset=".394" stop-color="#0674f0"/><stop offset=".507" stop-color="#6961b5"/><stop offset=".813" stop-color="#f34660"/><stop offset="1" stop-color="#ee078d"/></linearGradient></defs><g transform="translate(0 -1010.362)"><rect width="42" height="42" y="1010.362" fill="url(#b)" rx="8.876" ry="8.876"/><path fill="#fff" style="line-height:normal;text-indent:0;text-align:start;text-decoration-line:none;text-decoration-style:solid;text-decoration-color:#000;text-transform:none;block-progression:tb;isolation:auto;mix-blend-mode:normal" d="m 22,1016.3622 c -1.650933,0 -2.999991,1.3491 -3,3 0,0.051 0.01309,0.098 0.01563,0.1484 l -7.468755,5.0899 c -0.319768,-0.1493 -0.672361,-0.2383 -1.046875,-0.2383 -1.3747907,0 -2.4999897,1.1252 -2.5,2.5 7.7e-6,1.024 0.6251282,1.9077 1.5117188,2.293 l -0.5839844,8.2793 C 7.8274333,1037.6959 7.0000088,1038.685 7,1039.8622 c 1.03e-5,1.3748 1.1252093,2.5 2.5,2.5 0.679968,0 1.298085,-0.2761 1.75,-0.7207 l 3.753906,2.25 c 0.01631,1.3611 1.131365,2.4707 2.496094,2.4707 1.161279,0 2.136677,-0.8068 2.414062,-1.8848 l 10.453126,-2.332 c 0.439152,0.7244 1.228586,1.2168 2.132812,1.2168 1.374791,0 2.49999,-1.1252 2.5,-2.5 -1e-5,-1.3541 -1.092988,-2.4609 -2.439453,-2.4941 l -0.857422,-7.3301 c 0.768062,-0.4279 1.296868,-1.2389 1.296875,-2.1758 -1e-5,-1.3748 -1.125209,-2.5 -2.5,-2.5 -0.141067,0 -0.277244,0.018 -0.412109,0.041 l -5.195313,-6.289 c 0.06355,-0.2423 0.107421,-0.4905 0.107422,-0.752 -9e-6,-1.6509 -1.349067,-3 -3,-3 z m 0,1 c 1.110495,0 1.999994,0.8895 2,2 -6e-6,1.1105 -0.889505,2 -2,2 -1.110495,0 -1.999994,-0.8895 -2,-2 6e-6,-1.1105 0.889505,-2 2,-2 z m -2.746094,3.1953 c 0.27522,0.627 0.763601,1.1324 1.367188,1.4492 l -2.353516,6.8789 c -0.698555,0.066 -1.311767,0.417 -1.724609,0.9414 l -3.742188,-1.9921 c 0.128055,-0.2999 0.199216,-0.6275 0.199219,-0.9727 -5e-6,-0.6209 -0.236921,-1.1846 -0.615234,-1.623 l 6.86914,-4.6817 z m 5.167969,0.5567 4.6875,5.6738 c -0.667313,0.4501 -1.109369,1.2134 -1.109375,2.0742 1e-6,0.1297 0.01975,0.2543 0.03906,0.3789 l -7.066406,1.8574 c -0.10534,-0.9825 -0.777564,-1.7923 -1.6875,-2.0976 l 2.28711,-6.6836 c 0.140815,0.02 0.281454,0.045 0.427736,0.045 0.995621,0 1.875505,-0.4965 2.421875,-1.248 z M 10.5,1025.3622 c 0.834353,0 1.499994,0.6657 1.5,1.5 -6e-6,0.8344 -0.665647,1.5 -1.5,1.5 -0.8343532,0 -1.4999937,-0.6656 -1.5,-1.5 6.3e-6,-0.8343 0.6656468,-1.5 1.5,-1.5 z m 20,2 c 0.834353,0 1.499994,0.6657 1.5,1.5 -6e-6,0.8344 -0.665647,1.5 -1.5,1.5 -0.834353,0 -1.499994,-0.6656 -1.5,-1.5 6e-6,-0.8343 0.665647,-1.5 1.5,-1.5 z m -18.275391,1.2988 3.869141,2.0586 c -0.0554,0.206 -0.09375,0.4198 -0.09375,0.6426 7e-6,1.0168 0.617396,1.8937 1.494141,2.2832 l -0.171875,7.7344 c -0.938833,0.068 -1.738966,0.6511 -2.105469,1.4746 l -3.408203,-2.043 c 0.122007,-0.2938 0.191403,-0.6127 0.191406,-0.9492 -9e-6,-1.227 -0.898231,-2.2502 -2.0683594,-2.457 l 0.5664064,-8.043 c 0,0 0.002,0 0.002,0 0.668509,0 1.274806,-0.2697 1.724609,-0.7012 z M 18.5,1029.8622 c 0.834353,0 1.499994,0.6657 1.5,1.5 -6e-6,0.8344 -0.665647,1.5 -1.5,1.5 -0.834353,0 -1.499994,-0.6656 -1.5,-1.5 6e-6,-0.8343 0.665647,-1.5 1.5,-1.5 z m 9.888672,0.3223 c 0.443672,0.7034 1.222926,1.1777 2.111328,1.1777 0.07961,0 0.154659,-0.018 0.232422,-0.025 l 0.84375,7.209 c -0.920079,0.3699 -1.576164,1.2682 -1.576172,2.3164 1e-6,0.1143 0.01814,0.2236 0.0332,0.334 l -10.076172,2.2461 c -0.1543,-0.9008 -0.792065,-1.6322 -1.636719,-1.9297 l 0.169925,-7.6504 c 0.0033,0 0.0065,0 0.0098,0 1.092933,0 2.017938,-0.7169 2.355469,-1.6992 l 7.533203,-1.9785 z M 9.5,1038.3622 c 0.834353,0 1.499994,0.6657 1.5,1.5 -6e-6,0.8344 -0.665647,1.5 -1.5,1.5 -0.8343532,0 -1.4999937,-0.6656 -1.5,-1.5 6.3e-6,-0.8343 0.6656468,-1.5 1.5,-1.5 z m 23,1 c 0.834353,0 1.499994,0.6657 1.5,1.5 -6e-6,0.8344 -0.665647,1.5 -1.5,1.5 -0.834353,0 -1.499994,-0.6656 -1.5,-1.5 6e-6,-0.8343 0.665647,-1.5 1.5,-1.5 z m -15,3 c 0.834353,0 1.499994,0.6657 1.5,1.5 -6e-6,0.8344 -0.665647,1.5 -1.5,1.5 -0.834353,0 -1.499994,-0.6656 -1.5,-1.5 6e-6,-0.8343 0.665647,-1.5 1.5,-1.5 z" color="#000" font-family="sans-serif" font-weight="400" overflow="visible" white-space="normal"/></g></svg>