<svg xmlns="http://www.w3.org/2000/svg" xmlns:xlink="http://www.w3.org/1999/xlink" width="42" height="42" viewBox="0 0 42 42"><defs><linearGradient id="b" x1="949.87" x2="974.39" y1="518.014" y2="544.657" gradientTransform="translate(-1272.559 316.47) scale(1.34562)" gradientUnits="userSpaceOnUse" xlink:href="#a"/><linearGradient id="a"><stop offset="0" stop-color="#24f7bc"/><stop offset="1" stop-color="#24c4fc"/></linearGradient></defs><g transform="translate(0 -1010.362)"><rect width="42" height="42" y="1010.362" fill="url(#b)" rx="8.876" ry="8.876"/><path style="line-height:normal;text-indent:0;text-align:start;text-decoration-line:none;text-decoration-style:solid;text-decoration-color:#000;text-transform:none;block-progression:tb;isolation:auto;mix-blend-mode:normal" fill="#fff" d="m 11.499931,1017.365 a 0.50005,0.50005 0 0 0 -0.5,0.5 l 0,27.002 a 0.50005,0.50005 0 0 0 0.5,0.5 l 4.1875,0 5.310547,0 9.501953,0 a 0.50005,0.50005 0 0 0 0.5,-0.5 l 0,-10.7188 0,-9.2891 0,-2.9609 a 0.50005,0.50005 0 0 0 0,-0.023 0.50005,0.50005 0 0 0 -0.146484,-0.3614 l -4,-4 a 0.50005,0.50005 0 0 0 -0.361328,-0.1464 0.50005,0.50005 0 0 0 -0.06445,0 0.50005,0.50005 0 0 0 -0.08398,-0.01 l -14.84375,0 z m 0.5,1 14,0 0,3.502 a 0.50005,0.50005 0 0 0 0.5,0.5 l 3.5,0 0,2.4921 0,9.2891 0,10.2188 -9.001953,0 -5.310547,0 -3.6875,0 0,-26.002 z m 15,0.709 2.292969,2.293 -2.292969,0 0,-2.293 z m -11,0.293 c -1.65099,0 -2.999997,1.349 -3,3 a 0.50005,0.50005 0 0 0 0.5,0.5 l 2.5,0 a 0.50005,0.50005 0 0 0 0.5,-0.5 l 0,-2.5 a 0.50005,0.50005 0 0 0 -0.5,-0.5 z m 7.455078,0 a 0.50064426,0.50064426 0 0 0 0.05078,1 l 0.988282,0 a 0.50005,0.50005 0 1 0 0,-1 l -0.988282,0 a 0.50005,0.50005 0 0 0 -0.05078,0 z m -5.955078,0.5 a 0.50005,0.50005 0 0 0 -0.5,0.5 l 0,3 -3,0 a 0.50005,0.50005 0 0 0 -0.5,0.5 c 4e-6,1.6164 0.975368,3.0767 2.46875,3.6953 1.493383,0.6186 3.216384,0.2776 4.359375,-0.8653 1.142988,-1.143 1.485767,-2.8659 0.867187,-4.3593 -0.618591,-1.4934 -2.078891,-2.4707 -3.695312,-2.4707 z m -2,0.707 0,1.293 -1.292968,0 c 0.189756,-0.6542 0.63877,-1.1032 1.292968,-1.293 z m 2.5,0.4453 c 0.991716,0.1796 1.876287,0.7471 2.271484,1.7012 0.464898,1.1224 0.20863,2.4085 -0.65039,3.2675 -0.859023,0.859 -2.147167,1.1153 -3.269532,0.6504 -0.954072,-0.3952 -1.519663,-1.2797 -1.699218,-2.2714 l 2.847656,0 a 0.50005,0.50005 0 0 0 0.5,-0.5 l 0,-2.8477 z m 5.455078,0.3477 a 0.50064426,0.50064426 0 0 0 0.05078,1 l 0.988282,0 a 0.50005,0.50005 0 1 0 0,-1 l -0.988282,0 a 0.50005,0.50005 0 0 0 -0.05078,0 z m 0.121094,2 a 0.50064426,0.50064426 0 0 0 0.05078,1 l 4.857422,0 a 0.50005006,0.50005006 0 1 0 0,-1 l -4.857422,0 a 0.50005006,0.50005006 0 0 0 -0.05078,0 z m 0,2 a 0.50064426,0.50064426 0 0 0 0.05078,1 l 4.857422,0 a 0.50005006,0.50005006 0 1 0 0,-1 l -4.857422,0 a 0.50005006,0.50005006 0 0 0 -0.05078,0 z m -2.039063,2 a 0.50064429,0.50064429 0 0 0 0.05078,1 l 6.90039,0 a 0.50005006,0.50005006 0 1 0 0,-1 l -6.90039,0 a 0.50005006,0.50005006 0 0 0 -0.05078,0 z m -8.058593,2 a 0.50064427,0.50064427 0 0 0 0.05078,1 l 14.941406,0 a 0.50005006,0.50005006 0 1 0 0,-1 l -14.941406,0 a 0.50005006,0.50005006 0 0 0 -0.05078,0 z m 0,2 a 0.50064427,0.50064427 0 0 0 0.05078,1 l 14.941406,0 a 0.50005006,0.50005006 0 1 0 0,-1 l -14.941406,0 a 0.50005006,0.50005006 0 0 0 -0.05078,0 z m 0.01367,1.9941 a 0.50004997,0.50004997 0 0 0 -0.492188,0.5059 l 0,9 a 0.50004997,0.50004997 0 0 0 0.5,0.5 l 13,0 a 0.50004997,0.50004997 0 1 0 0,-1 l -0.5,0 0,-3.5 a 0.50004997,0.50004997 0 0 0 -0.5,-0.5 l -2,0 a 0.50004997,0.50004997 0 0 0 -0.5,0.5 l 0,3.5 -1,0 0,-5.5137 a 0.50005,0.50005 0 0 0 -0.5,-0.5 l -2,0 a 0.50005,0.50005 0 0 0 -0.5,0.5 l 0,5.5137 -1,0 0,-3.5137 a 0.50005,0.50005 0 0 0 -0.5,-0.5 l -2,0 a 0.50005,0.50005 0 0 0 -0.5,0.5 l 0,3.5137 -1,0 0,-8.5 a 0.50004997,0.50004997 0 0 0 -0.507812,-0.5059 z m 6.507812,3.9922 1,0 0,5 -1,0 0,-5 z m -4,2 1,0 0,3 -1,0 0,-3 z m 8,0.014 1,0 0,2.9863 -1,0 0,-2.9863 z" color="#000" font-family="sans-serif" font-weight="400" overflow="visible" white-space="normal"/></g></svg>