<svg xmlns="http://www.w3.org/2000/svg" xmlns:xlink="http://www.w3.org/1999/xlink" width="42" height="42" viewBox="0 0 42 42"><defs><linearGradient id="b" x1="1056.035" x2="1031.176" y1="544.13" y2="517.701" gradientTransform="translate(-1384.02 316.47) scale(1.34562)" gradientUnits="userSpaceOnUse" xlink:href="#a"/><linearGradient id="a"><stop offset="0" stop-color="#5a5a5a"/><stop offset="1" stop-color="#656e85"/></linearGradient></defs><g transform="translate(0 -1010.362)"><rect width="42" height="42" y="1010.362" fill="url(#b)" rx="8.876" ry="8.876"/><path fill="#fff" fill-rule="evenodd" style="line-height:normal;text-indent:0;text-align:start;text-decoration-line:none;text-decoration-style:solid;text-decoration-color:#000;text-transform:none;block-progression:tb;isolation:auto;mix-blend-mode:normal" d="m 20.990234,1016.8232 c -1.511556,0 -2.74024,1.2492 -2.740234,2.7695 -3e-6,0.7058 0.272047,1.3449 0.707031,1.8359 C 17.280681,1021.7429 16,1023.171 16,1024.8993 l 0,1.9492 a 0.50004994,0.50004994 0 0 0 0.5,0.5 l 1.882812,0 a 0.50004994,0.50004994 0 0 0 0.230469,0 l 4.769531,0 a 0.50004994,0.50004994 0 0 0 0.230469,0 l 1.886719,0 a 0.50004994,0.50004994 0 0 0 0.5,-0.5 l 0,-1.9492 c 0,-1.7342 -1.289845,-3.1649 -2.974609,-3.4726 0.434492,-0.4909 0.707034,-1.1291 0.707031,-1.834 6e-6,-1.5203 -1.230631,-2.7695 -2.742188,-2.7695 z m 0,1 c 0.964342,0 1.742192,0.7829 1.742188,1.7695 4e-6,0.9866 -0.777846,1.7695 -1.742188,1.7695 -0.964342,0 -1.740238,-0.7829 -1.740234,-1.7695 -4e-6,-0.9866 0.775892,-1.7695 1.740234,-1.7695 z m 3.402344,1 -0.25,0.9687 0.417969,0.1074 1.113281,0.4063 0.25586,0.125 0.435546,-0.9024 -0.283203,-0.1347 -0.04492,-0.02 -1.148437,-0.4199 -0.04687,-0.016 -0.449219,-0.1152 z m -7.175781,0.1152 -0.517578,0.1523 -0.03711,0.014 -0.894531,0.3555 -0.03711,0.016 -0.445313,0.2188 0.439453,0.8984 0.427735,-0.2109 0.839844,-0.334 0.01172,0 0.505859,-0.1543 -0.292969,-0.9551 z m 10.085937,1.0586 -0.519531,0.8515 0.931641,0.5665 0.691406,0.5175 0.597656,-0.8007 -0.714844,-0.5372 -0.04102,-0.023 -0.945313,-0.5742 z m -12.929687,0.1875 -0.355469,0.209 -0.0332,0.021 -0.779297,0.541 -0.0293,0.023 -0.496093,0.4024 0.630859,0.7753 0.480469,-0.3906 0.732421,-0.5097 0.01563,-0.01 0.339844,-0.2012 -0.505859,-0.8613 z m 15.427734,1.6289 -0.673828,0.7383 0.357422,0.3242 0.78125,0.8613 0.154297,0.2071 0.802734,-0.5997 -0.175781,-0.2343 -0.03125,-0.037 -0.806641,-0.8848 -0.0332,-0.033 -0.375,-0.3418 z m -17.890625,0.2676 -0.185547,0.1718 -0.02539,0.027 -0.636718,0.6992 -0.02539,0.029 -0.490235,0.6309 0.789063,0.6132 0.466797,-0.5996 0.0039,0 0.623047,-0.6875 0.0098,-0.01 0.158195,-0.1485 -0.6875,-0.7265 z m 7.740235,0.2812 2.699218,0 c 1.486874,0 2.650391,1.1338 2.650391,2.5371 l 0,1.4492 -1.001953,0 0,-1.5527 a 0.50004994,0.50004994 0 0 0 -0.505859,-0.5078 0.50004994,0.50004994 0 0 0 -0.494141,0.5078 l 0,1.5527 -4,0 0,-1.5527 a 0.50004994,0.50004994 0 0 0 -0.505859,-0.5078 0.50004994,0.50004994 0 0 0 -0.494141,0.5078 l 0,1.5527 -0.998047,0 0,-1.4492 c 0,-1.4033 1.163518,-2.5371 2.650391,-2.5371 z m 12.189453,1.8281 -0.853516,0.5196 0.564453,0.9316 0.375,0.7774 0.900391,-0.4356 -0.384766,-0.7969 -0.02344,-0.043 -0.578125,-0.9532 z m -21.8769534,0.3028 -0.054687,0.086 -0.019531,0.033 -0.4667969,0.8321 -0.017578,0.033 -0.3964844,0.8593 0.90625,0.4199 0.3808597,-0.8242 0.0078,-0.014 0.4375,-0.7871 0.0059,-0.01 0.05078,-0.074 -0.8339847,-0.5547 z m 23.2558594,2.4629 -0.939453,0.3437 0.177734,0.4824 0.298828,1.1602 0.02734,0.1855 0.990235,-0.1503 -0.0332,-0.211 -0.0098,-0.049 -0.308594,-1.1973 -0.01367,-0.049 -0.189453,-0.5156 z m -24.5859375,0.3925 -0.2597656,0.9122 -0.00977,0.037 -0.1933593,0.9648 -0.00781,0.039 -0.00781,0.066 0.9941399,0.1191 0.00781,-0.064 0.1835938,-0.9102 0.2539062,-0.8887 -0.9609375,-0.2754 z m 12.3593755,0.9708 A 0.50005,0.50005 0 0 0 20.5,1028.8271 l 0,3.7597 -4.271484,2.8575 a 0.50005,0.50005 0 1 0 0.554687,0.83 l 4.228516,-2.8281 4.203125,2.8281 a 0.50026412,0.50026412 0 0 0 0.558594,-0.83 l -4.273438,-2.875 0,-3.7422 a 0.50005,0.50005 0 0 0 -0.507812,-0.5078 z m 12.93164,1.6425 -0.912109,0.1426 -0.07617,0 0,0.012 0.0625,1.2403 -0.05859,1.1738 1,0.051 0.06054,-1.1992 -0.5,-0.024 0.5,-0.025 -0.06445,-1.2793 -0.0059,-0.051 -0.0059,-0.041 z M 8.0371094,1030.4013 8,1031.3407 l 0,0.045 0.054687,1.0586 0.9980469,-0.051 -0.050781,-1.0371 0.035156,-0.9141 -1,-0.041 z m 1.1386718,2.9355 -0.9882812,0.1485 0.072266,0.4707 0.00977,0.051 0.3085938,1.1953 0.013672,0.051 0.099609,0.2696 0.9394532,-0.3438 -0.087891,-0.2383 -0.2988282,-1.1601 -0.068359,-0.4434 z m 23.6269528,0.1367 -0.04687,0.3047 -0.298828,1.1621 -0.134765,0.3672 0.9375,0.3438 0.148437,-0.4004 0.01367,-0.049 0.308594,-1.1973 0.0098,-0.049 0.05078,-0.3321 -0.988282,-0.1504 z m -20.810546,1.3497 c -1.511557,0 -2.7421938,1.2492 -2.742188,2.7695 -2.7e-6,0.7059 0.2734099,1.3448 0.7089844,1.8359 C 8.2817088,1039.7422 7,1041.1703 7,1042.8993 l 0,1.9492 a 0.50004994,0.50004994 0 0 0 0.5,0.5 l 1.8828125,0 a 0.50004994,0.50004994 0 0 0 0.2324219,0 l 4.7675786,0 a 0.50004994,0.50004994 0 0 0 0.232421,0 l 1.886719,0 a 0.50004994,0.50004994 0 0 0 0.5,-0.5 l 0,-1.9492 c 0,-1.7342 -1.289845,-3.1649 -2.974609,-3.4726 0.434492,-0.4909 0.707034,-1.1291 0.707031,-1.834 6e-6,-1.5203 -1.230631,-2.7695 -2.742187,-2.7695 z m 17.998046,0 c -1.511556,0 -2.742193,1.2492 -2.742187,2.7695 -3e-6,0.7059 0.27341,1.3448 0.708984,1.8359 -1.677276,0.3136 -2.958984,1.7417 -2.958984,3.4707 l 0,1.9492 a 0.50004994,0.50004994 0 0 0 0.5,0.5 l 1.884765,0 a 0.50004994,0.50004994 0 0 0 0.230469,0 l 4.769531,0 a 0.50004994,0.50004994 0 0 0 0.230469,0 l 1.886719,0 a 0.50004994,0.50004994 0 0 0 0.5,-0.5 l 0,-1.9492 c 0,-1.7342 -1.289845,-3.1649 -2.974609,-3.4726 0.434492,-0.4909 0.707034,-1.1291 0.707031,-1.834 6e-6,-1.5203 -1.230631,-2.7695 -2.742188,-2.7695 z m -17.998046,1 c 0.964342,0 1.742191,0.7829 1.742187,1.7695 4e-6,0.9866 -0.777845,1.7695 -1.742187,1.7695 -0.964342,0 -1.742192,-0.7829 -1.742188,-1.7695 -4e-6,-0.9866 0.777846,-1.7695 1.742188,-1.7695 z m 17.998046,0 c 0.964343,0 1.742192,0.7829 1.742188,1.7695 4e-6,0.9866 -0.777845,1.7695 -1.742188,1.7695 -0.964342,0 -1.742191,-0.7829 -1.742187,-1.7695 -4e-6,-0.9866 0.777845,-1.7695 1.742187,-1.7695 z m -19.339843,4.539 2.701172,0 c 1.486873,0 2.65039,1.1338 2.65039,2.5371 l 0,1.4492 -1.001953,0 0,-1.5527 A 0.50004994,0.50004994 0 0 0 14.492188,1042.29 0.50004994,0.50004994 0 0 0 14,1042.7958 l 0,1.5527 -4,0 0,-1.5527 A 0.50004994,0.50004994 0 0 0 9.4921875,1042.29 0.50004994,0.50004994 0 0 0 9,1042.7958 l 0,1.5527 -1,0 0,-1.4492 c 0,-1.4033 1.1635175,-2.5371 2.650391,-2.5371 z m 17.998047,0 2.701171,0 c 1.486873,0 2.650391,1.1338 2.650391,2.5371 l 0,1.4492 -1.001953,0 0,-1.5527 a 0.50004994,0.50004994 0 0 0 -0.507813,-0.5078 0.50004994,0.50004994 0 0 0 -0.492187,0.5078 l 0,1.5527 -4,0 0,-1.5527 a 0.50004994,0.50004994 0 0 0 -0.507813,-0.5078 0.50004994,0.50004994 0 0 0 -0.492187,0.5078 l 0,1.5527 -1,0 0,-1.4492 c 0,-1.4033 1.163517,-2.5371 2.650391,-2.5371 z m -11.230469,1.8594 -0.177735,0.9883 0.632813,0.1816 0.03711,0.01 0.964844,0.1953 0.03906,0.01 0.06641,0.01 0.121093,-0.9941 -0.06445,-0.01 -0.910156,-0.1856 -0.708984,-0.205 z m 7.136719,0.014 -1.16211,0.2949 -0.443359,0.068 0.148437,0.9903 0.470703,-0.072 0.04883,-0.01 1.199218,-0.3066 0.04883,-0.014 -0.310546,-0.9512 z m -2.546876,0.4843 -1.037109,0.049 -0.914062,-0.037 -0.04297,1 0.939453,0.039 0.04492,0 1.058594,-0.053 -0.04883,-0.9981 z" color="#000" font-family="sans-serif" font-weight="400" overflow="visible" white-space="normal"/></g></svg>