<svg xmlns="http://www.w3.org/2000/svg" xmlns:xlink="http://www.w3.org/1999/xlink" width="42" height="42" viewBox="0 0 42 42"><defs><linearGradient id="b" x1="992.183" x2="1019.298" y1="516.081" y2="545.959" gradientTransform="translate(-1332.367 316.47) scale(1.34562)" gradientUnits="userSpaceOnUse" xlink:href="#a"/><linearGradient id="a"><stop offset="0" stop-color="#ff1679"/><stop offset="1" stop-color="#ff770b"/></linearGradient></defs><g transform="translate(0 -1010.362)"><rect width="42" height="42" y="1010.362" fill="url(#b)" rx="8.876" ry="8.876"/><path style="line-height:normal;text-indent:0;text-align:start;text-decoration-line:none;text-decoration-style:solid;text-decoration-color:#000;text-transform:none;block-progression:tb;isolation:auto;mix-blend-mode:normal" fill="#fff" d="m 9.5,1017.3603 a 0.50005,0.50005 0 0 0 -0.5,0.5 l 0,27.0019 a 0.50005,0.50005 0 0 0 0.5,0.5 l 4.1875,0 5.310546,0 9.501954,0 a 0.50005,0.50005 0 0 0 0.5,-0.5 l 0,-3.0019 a 0.50005,0.50005 0 1 0 -1,0 l 0,2.5019 -9.001954,0 -5.310546,0 -3.6875,0 0,-26.0019 14,0 0,3.5019 a 0.50005,0.50005 0 0 0 0.5,0.5 l 3.5,0 0,2.4922 0,0.096 a 0.50005,0.50005 0 1 0 1,0 l 0,-0.096 0,-2.9609 a 0.50005,0.50005 0 0 0 0,-0.024 0.50005,0.50005 0 0 0 -0.146485,-0.3613 l -4,-4 a 0.50005,0.50005 0 0 0 -0.361328,-0.1465 0.50005,0.50005 0 0 0 -0.06445,0 0.50005,0.50005 0 0 0 -0.08398,-0.01 l -14.843749,0 z m 15.5,1.7089 2.292968,2.293 -2.292968,0 0,-2.293 z m -12.550782,1.293 a 0.50064427,0.50064427 0 0 0 0.05078,1 l 1,0 a 0.50005,0.50005 0 1 0 0,-1 l -1,0 a 0.50005,0.50005 0 0 0 -0.05078,0 z m 3.015625,0 a 0.50064426,0.50064426 0 1 0 0.05078,1 l 3.976563,0 a 0.50005,0.50005 0 1 0 0,-1 l -3.976563,0 a 0.50005,0.50005 0 0 0 -0.05078,0 z m -3.015625,2 a 0.50064427,0.50064427 0 0 0 0.05078,1 l 1,0 a 0.50005,0.50005 0 1 0 0,-1 l -1,0 a 0.50005,0.50005 0 0 0 -0.05078,0 z m 3.015625,0 a 0.50064426,0.50064426 0 1 0 0.05078,1 l 3.976563,0 a 0.50005,0.50005 0 1 0 0,-1 l -3.976563,0 a 0.50005,0.50005 0 0 0 -0.05078,0 z m 14.994141,1.3984 a 0.50064429,0.50064429 0 0 0 0.05078,1 l 0.269531,0 -3.404294,3.5137 -3.695313,-1.4355 a 0.50005,0.50005 0 0 0 -0.470704,0.059 l -4.998046,3.5566 a 0.50005,0.50005 0 1 0 0.578124,0.8145 l 4.779297,-3.3985 3.753907,1.457 a 0.50005,0.50005 0 0 0 0.541016,-0.1171 l 3.640625,-3.7579 0,0.3028 a 0.50005,0.50005 0 1 0 1,0 l 0,-1.4942 a 0.50005,0.50005 0 0 0 -0.5,-0.5 l -1.494141,0 a 0.50005,0.50005 0 0 0 -0.05078,0 z m -13.966797,0.5938 A 0.50004997,0.50004997 0 0 0 16,1024.8603 l 0,13 a 0.50004997,0.50004997 0 0 0 0.5,0.5 l 17,0 a 0.50004997,0.50004997 0 1 0 0,-1 l -0.5,0 0,-9.5 a 0.50005,0.50005 0 0 0 -0.5,-0.5 l -2,0 a 0.50005,0.50005 0 0 0 -0.5,0.5 l 0,9.5 -1,0 0,-6.5 a 0.50004997,0.50004997 0 0 0 -0.5,-0.5 l -2,0 a 0.50004997,0.50004997 0 0 0 -0.5,0.5 l 0,6.5 -1,0 0,-7.502 a 0.50005,0.50005 0 0 0 -0.5,-0.5 l -2,0 a 0.50005,0.50005 0 0 0 -0.5,0.5 l 0,7.502 -1,0 0,-4.5 a 0.50005,0.50005 0 0 0 -0.5,-0.5 l -2,0 a 0.50005,0.50005 0 0 0 -0.5,0.5 l 0,4.5 -1,0 0,-12.5 a 0.50004997,0.50004997 0 0 0 -0.507813,-0.5059 z M 31,1028.3603 l 1,0 0,8.9863 -1,0 0,-8.9863 z m -8,1.998 1,0 0,6.9883 -1,0 0,-6.9883 z m 4,1.002 1,0 0,5.9863 -1,0 0,-5.9863 z m -8,2 1,0 0,3.9863 -1,0 0,-3.9863 z m 0.451171,6.0019 a 0.50059574,0.50059574 0 0 0 0.04883,1 l 10.996094,0 a 0.50005,0.50005 0 1 0 0,-1 l -10.996094,0 a 0.50005,0.50005 0 0 0 -0.04883,0 z" color="#000" font-family="sans-serif" font-weight="400" overflow="visible" white-space="normal"/></g></svg>