<svg xmlns="http://www.w3.org/2000/svg" xmlns:xlink="http://www.w3.org/1999/xlink" width="42" height="42" viewBox="0 0 42 42"><defs><linearGradient id="b" x1="1056.035" x2="1031.176" y1="544.13" y2="517.701" gradientTransform="translate(-1384.02 316.47) scale(1.34562)" gradientUnits="userSpaceOnUse" xlink:href="#a"/><linearGradient id="a"><stop offset="0" stop-color="#5a5a5a"/><stop offset="1" stop-color="#656e85"/></linearGradient></defs><g transform="translate(0 -1010.362)"><rect width="42" height="42" y="1010.362" fill="url(#b)" rx="8.876" ry="8.876"/><path fill="#fff" style="line-height:normal;text-indent:0;text-align:start;text-decoration-line:none;text-decoration-style:solid;text-decoration-color:#000;text-transform:none;block-progression:tb;isolation:auto;mix-blend-mode:normal" d="m 21.000004,1016.3622 c -1.058866,0 -2,0.756 -2,1.7793 0,0.076 0.01692,0.1471 0.02734,0.2207 l -2.527344,0 a 0.50004997,0.50004997 0 0 0 -0.5,0.5 l 0,0.5 -5.5,0 a 0.50005,0.50005 0 0 0 -0.5,0.5 l 0,26 a 0.50005,0.50005 0 0 0 0.5,0.5 l 21,0 a 0.50005,0.50005 0 0 0 0.5,-0.5 l 0,-26 a 0.50005,0.50005 0 0 0 -0.5,-0.5 l -5.5,0 0,-0.5 a 0.50004997,0.50004997 0 0 0 -0.5,-0.5 l -2.527344,0 c 0.01043,-0.074 0.02734,-0.145 0.02734,-0.2207 0,-1.0233 -0.941141,-1.7793 -2,-1.7793 z m 0,1 c 0.597981,0 1,0.3897 1,0.7793 0,0.097 -0.02274,0.1892 -0.06641,0.2773 -0.02164,0.044 -0.04901,0.087 -0.08203,0.1289 a 0.50005,0.50005 0 0 0 0.464846,0.8145 l 2.683594,0 0,3 -8,0 0,-3 2.681641,0 a 0.50005,0.50005 0 0 0 0.466797,-0.8145 c -0.03298,-0.042 -0.06027,-0.085 -0.08203,-0.1289 -0.04364,-0.088 -0.06641,-0.1799 -0.06641,-0.2773 0,-0.3896 0.402006,-0.7793 1,-0.7793 z m -10,3 5,0 0,1 -3.5,0 a 0.50005,0.50005 0 0 0 -0.5,0.5 l 0,22 a 0.50005,0.50005 0 0 0 0.5,0.5 l 13.873047,0 a 0.50005,0.50005 0 0 0 0.06055,0 0.50005,0.50005 0 0 0 0.419922,-0.1406 l 3,-3.002 a 0.50005,0.50005 0 0 0 0.144528,-0.3887 0.50005,0.50005 0 0 0 0.002,-0.053 l 0,-18.9121 a 0.50005,0.50005 0 0 0 -0.5,-0.5 l -3.5,0 0,-1 5,0 0,25 -20,0 0,-25 z m 2,2 3,0 0,0.5 a 0.50004997,0.50004997 0 0 0 0.5,0.5 l 9,0 a 0.50004997,0.50004997 0 0 0 0.5,-0.5 l 0,-0.5 3,0 0,18 -2.5,0 a 0.50005,0.50005 0 0 0 -0.5,0.5 l 0,2.5 -13,0 0,-21 z m 6.441406,2 a 0.50064429,0.50064429 0 0 0 0.05078,1 l 8,0 a 0.50005,0.50005 0 1 0 0,-1 l -8,0 a 0.50005,0.50005 0 0 0 -0.05078,0 z m -2.083984,0 a 0.50005,0.50005 0 0 0 -0.339844,0.1582 l -1.554687,1.6191 -0.595704,-0.6211 a 0.50075835,0.50075835 0 1 0 -0.722656,0.6934 l 0.957031,0.998 a 0.50005,0.50005 0 0 0 0.722657,0 l 1.914062,-1.998 a 0.50005,0.50005 0 0 0 -0.380859,-0.8496 z m 2.091797,1.998 a 0.50064426,0.50064426 0 1 0 0.05078,1 l 4,0 a 0.50004997,0.50004997 0 1 0 0,-1 l -4,0 a 0.50004997,0.50004997 0 0 0 -0.05078,0 z m -0.0078,3 a 0.50064429,0.50064429 0 0 0 0.05078,1 l 8,0 a 0.50005,0.50005 0 1 0 0,-1 l -8,0 a 0.50005,0.50005 0 0 0 -0.05078,0 z m -2.083984,0 a 0.50005,0.50005 0 0 0 -0.339844,0.1582 l -1.554687,1.6191 -0.595704,-0.621 a 0.50075835,0.50075835 0 1 0 -0.722656,0.6933 l 0.957031,0.9981 a 0.50005,0.50005 0 0 0 0.722657,0 l 1.914062,-1.9981 a 0.50005,0.50005 0 0 0 -0.380872,-0.8496 z m 2.242174,1.998 a 0.50064429,0.50064429 0 0 0 0.05078,1 l 5.349611,0 a 0.50005,0.50005 0 1 0 0,-1 l -5.349609,0 a 0.50005,0.50005 0 0 0 -0.05078,0 z m -4.099609,3 c -0.822357,0 -1.5,0.6777 -1.5,1.5 0,0.8224 0.677643,1.5 1.5,1.5 0.822351,0 1.5,-0.6776 1.5,-1.5 0,-0.8223 -0.677649,-1.5 -1.5,-1.5 z m 3.941406,0 a 0.50064429,0.50064429 0 0 0 0.05078,1 l 8,0 a 0.50005,0.50005 0 1 0 0,-1 l -8,0 a 0.50005,0.50005 0 0 0 -0.05078,0 z m -3.941406,1 c 0.285649,0 0.5,0.2144 0.5,0.5 0,0.2857 -0.214351,0.5 -0.5,0.5 -0.285663,0 -0.5,-0.2143 -0.5,-0.5 0,-0.2856 0.214337,-0.5 0.5,-0.5 z m 3.949219,1 a 0.50064426,0.50064426 0 1 0 0.05078,1 l 2,0 a 0.50004997,0.50004997 0 1 0 0,-1 l -2,0 a 0.50004997,0.50004997 0 0 0 -0.05078,0 z m -3.949219,3 c -0.822357,0 -1.5,0.6777 -1.5,1.5 0,0.8224 0.677643,1.5 1.5,1.5 0.822351,0 1.5,-0.6776 1.5,-1.5 0,-0.8223 -0.677649,-1.5 -1.5,-1.5 z m 3.949219,0 a 0.50064426,0.50064426 0 1 0 0.05078,1 l 5,0 a 0.50004997,0.50004997 0 1 0 0,-1 l -5,0 a 0.50004997,0.50004997 0 0 0 -0.05078,0 z m -3.949219,1 c 0.285649,0 0.5,0.2144 0.5,0.5 0,0.2857 -0.214351,0.5 -0.5,0.5 -0.285663,0 -0.5,-0.2143 -0.5,-0.5 0,-0.2856 0.214337,-0.5 0.5,-0.5 z m 3.949219,1 a 0.50064426,0.50064426 0 1 0 0.05078,1 l 3,0 a 0.50004997,0.50004997 0 1 0 0,-1 l -3,0 a 0.50004997,0.50004997 0 0 0 -0.05078,0 z m 7.550781,0 1.292969,0 -1.292969,1.293 0,-1.293 z" color="#000" font-family="sans-serif" font-weight="400" overflow="visible" white-space="normal"/></g></svg>