<svg xmlns="http://www.w3.org/2000/svg" xmlns:xlink="http://www.w3.org/1999/xlink" width="42" height="42" viewBox="0 0 42 42"><defs><linearGradient id="b" x1="906.952" x2="931.379" y1="515.915" y2="546.094" gradientTransform="translate(-1215.129 316.47) scale(1.34562)" gradientUnits="userSpaceOnUse" xlink:href="#a"/><linearGradient id="a"><stop offset="0" stop-color="#ffd800"/><stop offset="1" stop-color="#ff6100"/></linearGradient></defs><g transform="translate(0 -1010.362)"><rect width="42" height="42" y="1010.362" fill="url(#b)" rx="8.876" ry="8.876"/><path style="line-height:normal;text-indent:0;text-align:start;text-decoration-line:none;text-decoration-style:solid;text-decoration-color:#000;text-transform:none;block-progression:tb;isolation:auto;mix-blend-mode:normal" fill="#fff" d="m 11.5,1018.3622 a 0.50005,0.50005 0 0 0 -0.5,0.5 l 0,25 a 0.50005,0.50005 0 0 0 0.5,0.5 l 16,0 a 0.50005,0.50005 0 0 0 0.353516,-0.1465 l 4,-4 A 0.50005,0.50005 0 0 0 32,1039.8622 l 0,-21 a 0.50005,0.50005 0 0 0 -0.5,-0.5 l -20,0 z m 0.5,1 19,0 0,20 a 0.50005,0.50005 0 0 0 -0.0078,0 l -3.4922,0 a 0.50005,0.50005 0 0 0 -0.5,0.5 l 0,3.4941 a 0.50005,0.50005 0 0 0 0,0.01 l -15,0 0,-24 z m 2.707031,2 -0.707031,0.709 0.792969,0.791 -0.792969,0.793 0.707031,0.707 0.792969,-0.793 0.792969,0.793 0.707031,-0.707 -0.792969,-0.793 0.792969,-0.791 -0.707031,-0.709 -0.792969,0.793 -0.792969,-0.793 z m 4.292969,0 0,1 10,0 0,-1 -10,0 z m 0,2 0,1 10,0 0,-1 -10,0 z m 0,2 0,1 4,0 0,-1 -4,0 z m -4.292969,3 -0.707031,0.709 0.792969,0.791 -0.792969,0.793 0.707031,0.707 0.792969,-0.793 0.792969,0.793 0.707031,-0.707 -0.792969,-0.793 0.792969,-0.791 -0.707031,-0.709 -0.792969,0.793 -0.792969,-0.793 z m 4.292969,0 0,1 10,0 0,-1 -10,0 z m 0,2 0,1 10,0 0,-1 -10,0 z m 0,2 0,1 6,0 0,-1 -6,0 z m -4.292969,3 -0.707031,0.709 0.792969,0.791 -0.792969,0.793 0.707031,0.707 0.792969,-0.793 0.792969,0.793 0.707031,-0.707 -0.792969,-0.793 0.792969,-0.791 -0.707031,-0.709 -0.792969,0.793 -0.792969,-0.793 z m 4.292969,0 0,1 10,0 0,-1 -10,0 z m 0,2 0,1 10,0 0,-1 -10,0 z m 0,2 0,1 2,0 0,-1 -2,0 z m 9,1 2.292969,0 -2.292969,2.293 0,-2.293 z" color="#000" font-family="sans-serif" font-weight="400" overflow="visible" white-space="normal"/></g></svg>