<svg xmlns="http://www.w3.org/2000/svg" xmlns:xlink="http://www.w3.org/1999/xlink" width="42" height="42" viewBox="0 0 42 42"><defs><linearGradient id="b" x1="992.183" x2="1019.298" y1="516.081" y2="545.959" gradientTransform="translate(-1332.367 316.47) scale(1.34562)" gradientUnits="userSpaceOnUse" xlink:href="#a"/><linearGradient id="a"><stop offset="0" stop-color="#ff1679"/><stop offset="1" stop-color="#ff770b"/></linearGradient></defs><g transform="translate(0 -1010.362)"><rect width="42" height="42" y="1010.362" fill="url(#b)" rx="8.876" ry="8.876"/><path style="line-height:normal;text-indent:0;text-align:start;text-decoration-line:none;text-decoration-style:solid;text-decoration-color:#000;text-transform:none;block-progression:tb;isolation:auto;mix-blend-mode:normal" fill="#fff" d="m 21.000004,1016.3622 c -1.058866,0 -2,0.756 -2,1.7793 0,0.076 0.01692,0.1471 0.02734,0.2207 l -2.527344,0 a 0.50004997,0.50004997 0 0 0 -0.5,0.5 l 0,0.5 -5.5,0 a 0.50005,0.50005 0 0 0 -0.5,0.5 l 0,26 a 0.50005,0.50005 0 0 0 0.5,0.5 l 21,0 a 0.50005,0.50005 0 0 0 0.5,-0.5 l 0,-3.6816 c 0.260244,-0.092 0.49742,-0.2541 0.675781,-0.4864 0.488844,-0.6427 0.370577,-1.5735 -0.267578,-2.0683 l -0.408199,-0.3164 0,-12.9473 0,-6.5 a 0.50005,0.50005 0 0 0 -0.5,-0.5 l -5.5,0 0,-0.5 a 0.50004997,0.50004997 0 0 0 -0.5,-0.5 l -2.527344,0 c 0.01043,-0.074 0.02734,-0.145 0.02734,-0.2207 0,-1.0233 -0.941141,-1.7793 -2,-1.7793 z m 0,1 c 0.597981,0 1,0.3897 1,0.7793 0,0.097 -0.02274,0.1892 -0.06641,0.2773 -0.02164,0.044 -0.04901,0.087 -0.08203,0.1289 a 0.50005,0.50005 0 0 0 0.464846,0.8145 l 2.683594,0 0,3 -8,0 0,-3 2.681641,0 a 0.50005,0.50005 0 0 0 0.466797,-0.8145 c -0.03298,-0.042 -0.06027,-0.085 -0.08203,-0.1289 -0.04364,-0.088 -0.06641,-0.1799 -0.06641,-0.2773 0,-0.3896 0.402006,-0.7793 1,-0.7793 z m -10,3 5,0 0,1 -3.5,0 a 0.50005,0.50005 0 0 0 -0.5,0.5 l 0,22 a 0.50005,0.50005 0 0 0 0.5,0.5 l 13.873047,0 a 0.50005,0.50005 0 0 0 0.06055,0 0.50005,0.50005 0 0 0 0.419922,-0.1406 l 2.908203,-2.9102 0.851562,0.6602 c 0.119313,0.092 0.25155,0.1555 0.386716,0.205 l 0,3.1895 -20,0 0,-25 z m 15,0 5,0 0,6 0,12.1719 -0.376953,-0.293 -0.623047,-0.4824 0,-11.168 0,-4.7285 a 0.50005,0.50005 0 0 0 -0.5,-0.5 l -3.5,0 0,-1 z m -13,2 3,0 0,0.5 a 0.50004997,0.50004997 0 0 0 0.5,0.5 l 9,0 a 0.50004997,0.50004997 0 0 0 0.5,-0.5 l 0,-0.5 3,0 0,4.2285 0,10.3926 -0.689453,-0.5332 a 0.50005006,0.50005006 0 0 0 -0.0918,-0.6973 l -1.357422,-1.0547 c 0.446628,-1.8769 -0.202989,-3.9384 -1.822266,-5.1933 -2.187205,-1.6952 -5.326946,-1.2938 -6.996093,0.9004 -1.669142,2.1942 -1.243847,5.3635 0.943359,7.0586 1.634957,1.2671 3.801993,1.3592 5.490234,0.4101 l 1.330079,1.0332 a 0.50005006,0.50005006 0 0 0 0.705078,-0.096 l 0.01172,-0.016 2.019533,1.5664 -2.042969,0 a 0.50005,0.50005 0 0 0 -0.5,0.5 l 0,2.5 -13,0 0,-21 z m 2.5,2 c -0.822297,0 -1.5,0.6776 -1.5,1.5 0,0.8224 0.677643,1.5 1.5,1.5 0.822351,0 1.5,-0.6776 1.5,-1.5 0,-0.8224 -0.677709,-1.5 -1.5,-1.5 z m 3.941406,0 a 0.50064429,0.50064429 0 0 0 0.05078,1 l 8,0 a 0.50005,0.50005 0 1 0 0,-1 l -8,0 a 0.50005,0.50005 0 0 0 -0.05078,0 z m -3.941406,1 c 0.285709,0 0.5,0.2142 0.5,0.5 0,0.2857 -0.214351,0.5 -0.5,0.5 -0.285663,0 -0.5,-0.2143 -0.5,-0.5 0,-0.2858 0.214276,-0.5 0.5,-0.5 z m 3.949219,1 a 0.50064426,0.50064426 0 1 0 0.05078,1 l 4,0 a 0.50004997,0.50004997 0 1 0 0,-1 l -4,0 a 0.50004997,0.50004997 0 0 0 -0.05078,0 z m -3.949219,3 c -0.822297,0 -1.5,0.6776 -1.5,1.5 0,0.8224 0.677643,1.5 1.5,1.5 0.822351,0 1.5,-0.6776 1.5,-1.5 0,-0.8224 -0.677709,-1.5 -1.5,-1.5 z m 6.740234,0.1 c 0.768171,0.05 1.532509,0.3257 2.19336,0.8379 1.762275,1.3658 2.10194,3.8886 0.761718,5.6504 -1.014472,1.3336 -2.694009,1.8361 -4.214843,1.4121 l 0.519531,0 a 0.50004997,0.50004997 0 1 0 0,-1 l -2,0 a 0.50004997,0.50004997 0 0 0 -0.193359,0.035 c -1.494976,-1.4077 -1.734448,-3.7228 -0.47461,-5.3789 0.837633,-1.1012 2.12792,-1.6407 3.408203,-1.5567 z m -6.740234,0.9 c 0.285709,0 0.5,0.2142 0.5,0.5 0,0.2857 -0.214351,0.5 -0.5,0.5 -0.285663,0 -0.5,-0.2143 -0.5,-0.5 0,-0.2858 0.214276,-0.5 0.5,-0.5 z m 4.099609,1 a 0.50064429,0.50064429 0 0 0 0.05078,1 l 5.349611,0 a 0.50005,0.50005 0 1 0 0,-1 l -5.349609,0 a 0.50005,0.50005 0 0 0 -0.05078,0 z m -4.099609,3 c -0.822357,0 -1.5,0.6777 -1.5,1.5 0,0.8224 0.677643,1.5 1.5,1.5 0.822351,0 1.5,-0.6776 1.5,-1.5 0,-0.8223 -0.677649,-1.5 -1.5,-1.5 z m 3.941406,0 a 0.50064429,0.50064429 0 0 0 0.05078,1 l 4.8125,0 a 0.50005,0.50005 0 1 0 0,-1 l -4.8125,0 a 0.50005,0.50005 0 0 0 -0.05078,0 z m -3.941406,1 c 0.285649,0 0.5,0.2144 0.5,0.5 0,0.2857 -0.214351,0.5 -0.5,0.5 -0.285663,0 -0.5,-0.2143 -0.5,-0.5 0,-0.2856 0.214337,-0.5 0.5,-0.5 z m 11.013672,0.3359 0.701172,0.543 -1.19336,1.5645 -0.693359,-0.5371 c 0.236957,-0.2103 0.45712,-0.4453 0.65625,-0.7071 0.208644,-0.2743 0.385497,-0.5633 0.529297,-0.8633 z m 1.191406,1.545 0.736328,0.5703 0.84961,0.6582 0.71875,0.5586 0.613281,0.4726 1.173828,0.9102 c 0.210991,0.1636 0.248225,0.454 0.08398,0.6719 -0.168552,0.2176 -0.44345,0.255 -0.654297,0.092 l -4.097656,-3.1758 0.576172,-0.7578 z m -12.205078,2.1191 c -0.822357,0 -1.5,0.6777 -1.5,1.5 0,0.8224 0.677643,1.5 1.5,1.5 0.822351,0 1.5,-0.6776 1.5,-1.5 0,-0.8223 -0.677649,-1.5 -1.5,-1.5 z m 3.949219,0 a 0.50064426,0.50064426 0 1 0 0.05078,1 l 5,0 a 0.50004997,0.50004997 0 1 0 0,-1 l -5,0 a 0.50004997,0.50004997 0 0 0 -0.05078,0 z m -3.949219,1 c 0.285649,0 0.5,0.2144 0.5,0.5 0,0.2857 -0.214351,0.5 -0.5,0.5 -0.285663,0 -0.5,-0.2143 -0.5,-0.5 0,-0.2856 0.214337,-0.5 0.5,-0.5 z m 3.949219,1 a 0.50064426,0.50064426 0 1 0 0.05078,1 l 3,0 a 0.50004997,0.50004997 0 1 0 0,-1 l -3,0 a 0.50004997,0.50004997 0 0 0 -0.05078,0 z m 7.550781,0 1.292969,0 -1.292969,1.293 0,-1.293 z" color="#000" font-family="sans-serif" font-weight="400" overflow="visible" white-space="normal"/></g></svg>