<svg xmlns="http://www.w3.org/2000/svg" xmlns:xlink="http://www.w3.org/1999/xlink" width="42" height="42" viewBox="0 0 42 42"><defs><linearGradient id="b" x1="949.87" x2="974.39" y1="518.014" y2="544.657" gradientTransform="translate(-1272.559 316.47) scale(1.34562)" gradientUnits="userSpaceOnUse" xlink:href="#a"/><linearGradient id="a"><stop offset="0" stop-color="#24f7bc"/><stop offset="1" stop-color="#24c4fc"/></linearGradient></defs><g transform="translate(0 -1010.362)"><rect width="42" height="42" y="1010.362" fill="url(#b)" rx="8.876" ry="8.876"/><path style="line-height:normal;text-indent:0;text-align:start;text-decoration-line:none;text-decoration-style:solid;text-decoration-color:#000;text-transform:none;block-progression:tb;isolation:auto;mix-blend-mode:normal" fill="#fff" d="m 10.5,1018.3622 a 0.50005,0.50005 0 0 0 -0.5,0.5 l 0,25 a 0.50005,0.50005 0 0 0 0.5,0.5 l 16,0 a 0.50005,0.50005 0 0 0 0.353516,-0.1465 l 4,-4 A 0.50005,0.50005 0 0 0 31,1039.8622 l 0,-21 a 0.50005,0.50005 0 0 0 -0.5,-0.5 l -20,0 z m 0.5,1 19,0 0,20 a 0.50005,0.50005 0 0 0 -0.0078,0 l -3.4922,0 a 0.50005,0.50005 0 0 0 -0.5,0.5 l 0,3.4941 a 0.50005,0.50005 0 0 0 0,0.01 l -15,0 0,-24 z m 3.5,2 c -0.822505,0 -1.499993,0.6775 -1.5,1.5 7e-6,0.8225 0.677495,1.5 1.5,1.5 0.822505,0 1.499993,-0.6775 1.5,-1.5 -7e-6,-0.8225 -0.677495,-1.5 -1.5,-1.5 z m 3.5,0 0,1 10,0 0,-1 -10,0 z m -3.5,1 c 0.282068,0 0.499997,0.218 0.5,0.5 -3e-6,0.2821 -0.217932,0.5 -0.5,0.5 -0.282068,0 -0.499997,-0.2179 -0.5,-0.5 3e-6,-0.282 0.217932,-0.5 0.5,-0.5 z m 3.5,1 0,1 4,0 0,-1 -4,0 z m -3.5,3 c -0.822505,0 -1.499993,0.6775 -1.5,1.5 7e-6,0.8225 0.677495,1.5 1.5,1.5 0.822505,0 1.499993,-0.6775 1.5,-1.5 -7e-6,-0.8225 -0.677495,-1.5 -1.5,-1.5 z m 3.5,0 0,1 10,0 0,-1 -10,0 z m -3.5,1 c 0.282068,0 0.499997,0.218 0.5,0.5 -3e-6,0.2821 -0.217932,0.5 -0.5,0.5 -0.282068,0 -0.499997,-0.2179 -0.5,-0.5 3e-6,-0.282 0.217932,-0.5 0.5,-0.5 z m 3.5,1 0,1 2,0 0,-1 -2,0 z m -3.5,3 c -0.822505,0 -1.499993,0.6775 -1.5,1.5 7e-6,0.8225 0.677495,1.5 1.5,1.5 0.822505,0 1.499993,-0.6775 1.5,-1.5 -7e-6,-0.8225 -0.677495,-1.5 -1.5,-1.5 z m 3.5,0 0,1 10,0 0,-1 -10,0 z m -3.5,1 c 0.282068,0 0.499997,0.218 0.5,0.5 -3e-6,0.2821 -0.217932,0.5 -0.5,0.5 -0.282068,0 -0.499997,-0.2179 -0.5,-0.5 3e-6,-0.282 0.217932,-0.5 0.5,-0.5 z m 3.5,1 0,1 6,0 0,-1 -6,0 z m -3.5,3 c -0.822505,0 -1.499993,0.6775 -1.5,1.5 7e-6,0.8225 0.677495,1.5 1.5,1.5 0.822505,0 1.499993,-0.6775 1.5,-1.5 -7e-6,-0.8225 -0.677495,-1.5 -1.5,-1.5 z m 3.5,0 0,1 10,0 0,-1 -10,0 z m -3.5,1 c 0.282068,0 0.499997,0.218 0.5,0.5 -3e-6,0.2821 -0.217932,0.5 -0.5,0.5 -0.282068,0 -0.499997,-0.2179 -0.5,-0.5 3e-6,-0.282 0.217932,-0.5 0.5,-0.5 z m 3.5,1 0,1 4,0 0,-1 -4,0 z m 9,2 2.292969,0 -2.292969,2.293 0,-2.293 z" color="#000" font-family="sans-serif" font-weight="400" overflow="visible" white-space="normal"/></g></svg>