<svg xmlns="http://www.w3.org/2000/svg" xmlns:xlink="http://www.w3.org/1999/xlink" width="42" height="42" viewBox="0 0 42 42"><defs><linearGradient id="b" x1="906.952" x2="931.379" y1="515.915" y2="546.094" gradientTransform="translate(-1215.129 316.47) scale(1.34562)" gradientUnits="userSpaceOnUse" xlink:href="#a"/><linearGradient id="a"><stop offset="0" stop-color="#ffd800"/><stop offset="1" stop-color="#ff6100"/></linearGradient></defs><g transform="translate(0 -1010.362)"><rect width="42" height="42" y="1010.362" fill="url(#b)" rx="8.876" ry="8.876"/><path style="line-height:normal;text-indent:0;text-align:start;text-decoration-line:none;text-decoration-style:solid;text-decoration-color:#000;text-transform:none;block-progression:tb;isolation:auto;mix-blend-mode:normal" fill="#fff" fill-rule="evenodd" d="m 9.5,1018.3688 a 0.50005,0.50005 0 0 0 -0.5,0.5 l 0,24.0039 a 0.50005,0.50005 0 0 0 0.5,0.5 l 4.1875,0 5.310547,0 9.501953,0 a 0.50005,0.50005 0 0 0 0.5,-0.5 l 0,-2.9629 3.492188,3.5235 c 0.567529,0.5764 1.509577,0.5706 2.078124,0 a 0.50004997,0.50004997 0 0 0 0.002,0 c 0.56834,-0.5736 0.572224,-1.5124 0.0039,-2.086 l -1.046915,-1.0547 -0.542969,-0.5508 -0.642578,-0.6464 -0.755859,-0.7637 -0.660157,-0.6641 a 0.50005006,0.50005006 0 0 0 -0.002,-0.6992 l -1.212843,-1.2246 c 0.616617,-1.6144 0.37988,-3.4863 -0.712891,-4.9062 l 0,-4.9727 0,-2.9609 a 0.50005,0.50005 0 0 0 0,-0.024 0.50005,0.50005 0 0 0 -0.146484,-0.3613 l -4,-4 a 0.50005,0.50005 0 0 0 -0.361328,-0.1465 0.50005,0.50005 0 0 0 -0.05859,0 0.50005,0.50005 0 0 0 -0.08984,-0.01 l -14.84375,0 z m 0.5,1 14,0 0,3.5039 a 0.50005,0.50005 0 0 0 0.5,0.5 l 3.5,0 0,2.4922 0,3.9922 c -1.95259,-1.4434 -4.71209,-1.2879 -6.46875,0.4844 -0.0099,0.01 -0.01758,0.021 -0.02734,0.031 l -9.503906,0 a 0.50005,0.50005 0 1 0 0,1 l 8.767578,0 c -0.35814,0.6228 -0.566348,1.3021 -0.636719,2 l -8.130859,0 a 0.50005,0.50005 0 1 0 0,1 l 8.128906,0 c 0.108042,1.1263 0.566248,2.2265 1.419922,3.0879 1.456246,1.4694 3.593425,1.8429 5.390625,1.1211 L 28,1039.6538 l 0,2.7187 -9.001953,0 -5.310547,0 -3.6875,0 0,-23.0039 z m 15,0.7109 2.292969,2.293 -2.292969,0 0,-2.293 z m -13.082031,1.293 a 0.50064427,0.50064427 0 0 0 0.05078,1 l 11.03125,0 a 0.50005,0.50005 0 1 0 0,-1 l -11.03125,0 a 0.50005,0.50005 0 0 0 -0.05078,0 z m 0.08398,3 a 0.50064424,0.50064424 0 0 0 0.05078,1 l 13.947265,0 a 0.50005,0.50005 0 1 0 0,-1 l -13.947265,0 a 0.50005,0.50005 0 0 0 -0.05078,0 z m -0.05273,3 a 0.50064427,0.50064427 0 0 0 0.05078,1 l 14,0 a 0.50005,0.50005 0 1 0 0,-1 l -14,0 a 0.50005,0.50005 0 0 0 -0.05078,0 z m 13.105469,2.5039 c 1.021,0 2.043402,0.3994 2.828124,1.1914 1.569453,1.5836 1.575764,4.1269 0.01758,5.6992 -1.558181,1.5723 -4.078985,1.5665 -5.648438,-0.018 -0.402637,-0.4063 -0.697776,-0.877 -0.894531,-1.377 l 4.642578,0 a 0.50005,0.50005 0 0 0 0.203125,-0.041 c 0.452542,-0.096 0.796874,-0.477 0.796874,-0.959 0,-0.482 -0.344332,-0.863 -0.796875,-0.959 A 0.50005,0.50005 0 0 0 26,1033.3722 l -4.880859,0 c 0.04343,-0.3411 0.115671,-0.6772 0.246093,-1 l 4.634766,0 a 0.50005,0.50005 0 0 0 0.203125,-0.041 c 0.452543,-0.096 0.796875,-0.477 0.796875,-0.959 0,-0.482 -0.344332,-0.863 -0.796875,-0.959 A 0.50005,0.50005 0 0 0 26,1030.3722 l -2.832031,0 c 0.589233,-0.3209 1.233811,-0.4979 1.886719,-0.4961 z m -13.105469,6.4961 a 0.50064427,0.50064427 0 0 0 0.05078,1 l 7.109375,0 a 0.50005,0.50005 0 1 0 0,-1 l -7.109375,0 a 0.50005,0.50005 0 0 0 -0.05078,0 z m 17.291015,0.3164 0.625,0.6289 -1.386718,1.3985 -0.617188,-0.625 c 0.262126,-0.1776 0.510792,-0.3818 0.742188,-0.6153 0.242577,-0.2448 0.455054,-0.5084 0.636718,-0.7871 z m 0.982422,1.6895 0.654297,0.6601 0.755859,0.7617 0.642579,0.6485 0.544921,0.5488 1.044922,1.0547 c 0.187893,0.1897 0.187254,0.483 -0.0039,0.6777 -0.195418,0.1938 -0.469405,0.1963 -0.658203,0 a 0.50004997,0.50004997 0 0 0 -0.002,0 l -3.644531,-3.6797 0.666015,-0.6718 z" color="#000" font-family="sans-serif" font-weight="400" overflow="visible" white-space="normal"/></g></svg>