<svg xmlns="http://www.w3.org/2000/svg" xmlns:xlink="http://www.w3.org/1999/xlink" width="42" height="42" viewBox="0 0 42 42"><defs><linearGradient id="b" x1="1073.403" x2="1097.116" y1="516.451" y2="544.308" gradientTransform="translate(-1438.388 316.47) scale(1.34562)" gradientUnits="userSpaceOnUse" xlink:href="#a"/><linearGradient id="a"><stop offset="0" stop-color="#16ff6a"/><stop offset="1" stop-color="#0090a5"/></linearGradient></defs><g transform="translate(0 -1010.362)"><rect width="42" height="42" y="1010.362" fill="url(#b)" rx="8.876" ry="8.876"/><path style="line-height:normal;text-indent:0;text-align:start;text-decoration-line:none;text-decoration-style:solid;text-decoration-color:#000;text-transform:none;block-progression:tb;isolation:auto;mix-blend-mode:normal" fill="#fff" d="m 6.5,1019.3622 c -0.2761309,0 -0.4999724,0.2239 -0.5,0.5 l 0,22 c 2.76e-5,0.2761 0.2238691,0.5 0.5,0.5 l 4.25,0 0,-1 -3.75,0 0,-17 24,0 0,10.2363 c 0.0092,0.048 0.03423,0.09 0.03906,0.1387 0.27806,-0.2266 0.620422,-0.3409 0.96094,-0.3477 l 0,-14.5273 c -2.8e-5,-0.2761 -0.223869,-0.5 -0.5,-0.5 l -25,0 z m 0.5,1 24,0 0,3 -24,0 0,-3 z m 1.5,1 a 0.5,0.5 0 0 0 -0.5,0.5 0.5,0.5 0 0 0 0.5,0.5 0.5,0.5 0 0 0 0.5,-0.5 0.5,0.5 0 0 0 -0.5,-0.5 z m 2,0 a 0.5,0.5 0 0 0 -0.5,0.5 0.5,0.5 0 0 0 0.5,0.5 0.5,0.5 0 0 0 0.5,-0.5 0.5,0.5 0 0 0 -0.5,-0.5 z m 2,0 a 0.5,0.5 0 0 0 -0.5,0.5 0.5,0.5 0 0 0 0.5,0.5 0.5,0.5 0 0 0 0.5,-0.5 0.5,0.5 0 0 0 -0.5,-0.5 z m 10.142578,3.6289 0,0 a 0.50005,0.50005 0 0 0 -0.421875,0.2421 l -0.896484,1.4942 a 0.50005,0.50005 0 0 0 -0.07813,0.041 l -5.705078,3.7246 a 0.50005,0.50005 0 0 0 -0.226563,0.416 l -0.01172,4.4238 c -0.773218,-0.055 -1.25487,-0.1999 -1.546869,-0.371 -0.369123,-0.2163 -0.51154,-0.4667 -0.6875,-0.8223 -0.17596,-0.3556 -0.364275,-0.8319 -0.83789,-1.2031 C 11.756854,1032.5672 11.0625,1032.3622 10,1032.3622 a 0.50005,0.50005 0 1 0 0,1 c 0.9375,0 1.369123,0.172 1.613281,0.3633 0.244159,0.1913 0.365414,0.465 0.560547,0.8594 0.195134,0.3944 0.485334,0.894 1.076172,1.2402 0.546586,0.3203 1.319666,0.4991 2.453125,0.5254 a 0.50005,0.50005 0 0 0 0.09766,0.012 l 4.962891,0 a 0.50005,0.50005 0 0 0 0.419922,-0.2266 l 3.722656,-5.7031 a 0.50005,0.50005 0 0 0 0.04297,-0.082 l 1.49414,-0.8965 a 0.50005,0.50005 0 0 0 0.0957,-0.7813 l -3.535154,-3.5371 a 0.50005,0.50005 0 0 0 -0.361328,-0.1445 z m 0.105469,1.3066 2.630859,2.6309 -0.882812,0.5293 -2.277344,-2.2754 0,0 0.529297,-0.8828 z m -1.296875,1.5313 2.396484,2.3965 -3.353515,5.1367 -3.472657,0 1.804688,-1.8047 c 0.556825,0.2619 1.245788,0.1702 1.703125,-0.2871 0.581602,-0.5816 0.581595,-1.5395 0,-2.1211 -0.581602,-0.5816 -1.539492,-0.5816 -2.121094,0 -0.456968,0.457 -0.550189,1.1446 -0.289062,1.7012 l -1.814453,1.8144 0.0098,-3.4804 5.136719,-3.3555 z m -1.982422,3.877 c 0.126913,0 0.253789,0.051 0.353516,0.1503 0.199447,0.1994 0.199454,0.5076 0,0.7071 -0.199446,0.1994 -0.507585,0.1994 -0.707032,0 -0.199453,-0.1995 -0.199446,-0.5077 0,-0.7071 0.09973,-0.1 0.226603,-0.1503 0.353516,-0.1503 z m 7.939453,2.6562 a 0.50004997,0.50004997 0 0 0 -0.5,0.5 l 0,0.8945 c -0.310038,0.096 -0.60858,0.2175 -0.896484,0.3672 l -0.628907,-0.6269 a 0.50004997,0.50004997 0 0 0 -0.707031,0 l -1.542969,1.541 a 0.50004997,0.50004997 0 0 0 0,0.707 l 0.63086,0.6309 c -0.150806,0.288 -0.276298,0.5861 -0.373047,0.8965 l -0.890625,0 a 0.50004997,0.50004997 0 0 0 -0.5,0.5 l 0,2.1816 a 0.50004997,0.50004997 0 0 0 0.5,0.5 l 0.892578,0 c 0.09604,0.3109 0.218902,0.6098 0.369141,0.8984 l -0.628907,0.6289 a 0.50004997,0.50004997 0 0 0 0,0.7071 l 1.542969,1.541 a 0.50004997,0.50004997 0 0 0 0.707031,0 l 0.63086,-0.6289 c 0.287051,0.1503 0.585257,0.2725 0.894531,0.3691 l 0,0.8926 a 0.50004997,0.50004997 0 0 0 0.5,0.5 l 2.183594,0 a 0.50004997,0.50004997 0 0 0 0.5,-0.5 l 0,-0.8926 c 0.310018,-0.096 0.608599,-0.2175 0.896484,-0.3672 l 0.628907,0.627 a 0.50004997,0.50004997 0 0 0 0.707031,0 l 1.542969,-1.541 a 0.50004997,0.50004997 0 0 0 0,-0.7071 l -0.63086,-0.6308 c 0.150827,-0.288 0.276279,-0.5861 0.373047,-0.8965 l 0.890625,0 a 0.50004997,0.50004997 0 0 0 0.5,-0.5 l 0,-2.1816 a 0.50004997,0.50004997 0 0 0 -0.5,-0.5 l -0.892578,0 c -0.09599,-0.3107 -0.218994,-0.61 -0.369141,-0.8985 l 0.628907,-0.6289 a 0.50004997,0.50004997 0 0 0 0,-0.707 l -1.542969,-1.541 a 0.50004997,0.50004997 0 0 0 -0.707031,0 l -0.63086,0.6289 c -0.287135,-0.1504 -0.585153,-0.2726 -0.894531,-0.3692 l 0,-0.8945 a 0.50004997,0.50004997 0 0 0 -0.5,-0.5 l -2.183594,0 z m 0.5,1 1.183594,0 0,0.7188 a 0.50004997,0.50004997 0 0 0 0.388672,0.4882 c 0.483297,0.1101 0.943456,0.301 1.363281,0.5645 a 0.50004997,0.50004997 0 0 0 0.619141,-0.07 l 0.507812,-0.5059 0.835938,0.834 -0.50586,0.5059 a 0.50004997,0.50004997 0 0 0 -0.07031,0.6171 c 0.262401,0.4207 0.451796,0.8834 0.560547,1.3672 a 0.50004997,0.50004997 0 0 0 0.488281,0.3907 l 0.720703,0 0,1.1816 -0.71875,0 a 0.50004997,0.50004997 0 0 0 -0.488281,0.3887 c -0.11015,0.4833 -0.300894,0.9454 -0.564453,1.3652 a 0.50004997,0.50004997 0 0 0 0.07031,0.6191 l 0.507813,0.5079 -0.835938,0.8339 -0.505859,-0.5039 a 0.50004997,0.50004997 0 0 0 -0.617188,-0.07 c -0.420659,0.2623 -0.883478,0.4518 -1.367187,0.5606 a 0.50004997,0.50004997 0 0 0 -0.388672,0.4863 l 0,0.7207 -1.183594,0 0,-0.7187 a 0.50004997,0.50004997 0 0 0 -0.388672,-0.4864 c -0.483329,-0.1101 -0.943428,-0.3008 -1.363281,-0.5644 a 0.50004997,0.50004997 0 0 0 -0.619141,0.07 l -0.507812,0.5058 -0.835938,-0.8339 0.50586,-0.5059 a 0.50004997,0.50004997 0 0 0 0.07031,-0.6191 c -0.262401,-0.4207 -0.451796,-0.8816 -0.560547,-1.3653 a 0.50004997,0.50004997 0 0 0 -0.488281,-0.3906 l -0.720703,0 0,-1.1816 0.71875,0 a 0.50004997,0.50004997 0 0 0 0.488281,-0.3887 c 0.110123,-0.4833 0.300925,-0.9454 0.564453,-1.3652 a 0.50004997,0.50004997 0 0 0 -0.07031,-0.6192 l -0.507813,-0.5078 0.835938,-0.834 0.505859,0.5039 a 0.50004997,0.50004997 0 0 0 0.617188,0.07 c 0.420687,-0.2624 0.883447,-0.4537 1.367187,-0.5625 a 0.50004997,0.50004997 0 0 0 0.388672,-0.4843 l 0,-0.7227 z M 15.625,1037.0927 a 0.50005,0.50005 0 0 0 -0.5,0.5 l 0,0.5117 c -0.144187,0.05 -0.284516,0.1058 -0.421875,0.1719 l -0.361328,-0.3594 a 0.50005,0.50005 0 0 0 -0.707031,0 l -1.060547,1.0605 a 0.50005,0.50005 0 0 0 0,0.7071 l 0.361328,0.3613 c -0.06673,0.1376 -0.125773,0.2774 -0.175781,0.4219 l -0.509766,0 a 0.50005,0.50005 0 0 0 -0.5,0.5 l 0,1.5 a 0.50005,0.50005 0 0 0 0.5,0.5 l 0.511719,0 c 0.04949,0.1442 0.105755,0.2844 0.171875,0.4218 l -0.359375,0.3614 a 0.50005,0.50005 0 0 0 0,0.707 l 1.060547,1.0606 a 0.50005,0.50005 0 0 0 0.707031,0 l 0.361328,-0.3614 c 0.137418,0.067 0.277561,0.1239 0.421875,0.1739 l 0,0.5117 a 0.50005,0.50005 0 0 0 0.5,0.5 l 1.5,0 a 0.50005,0.50005 0 0 0 0.5,-0.5 l 0,-0.5117 c 0.144342,-0.05 0.284375,-0.1077 0.421875,-0.1739 l 0.361328,0.3614 a 0.50005,0.50005 0 0 0 0.707031,0 l 1.060547,-1.0606 a 0.50005,0.50005 0 0 0 0,-0.709 l -0.359375,-0.3594 c 0.0666,-0.1374 0.123888,-0.2775 0.173828,-0.4218 l 0.509766,0 a 0.50005,0.50005 0 0 0 0.5,-0.5 l 0,-1.5 a 0.50005,0.50005 0 0 0 -0.5,-0.5 l -0.511719,0 c -0.04957,-0.1444 -0.107574,-0.2843 -0.173828,-0.4219 l 0.361328,-0.3613 a 0.50005,0.50005 0 0 0 0,-0.7071 l -1.060547,-1.0605 a 0.50005,0.50005 0 0 0 -0.707031,0 l -0.361328,0.3613 c -0.137617,-0.067 -0.277339,-0.1258 -0.421875,-0.1758 l 0,-0.5097 a 0.50005,0.50005 0 0 0 -0.5,-0.5 l -1.5,0 z m 0.5,1 0.5,0 0,0.3379 a 0.50005,0.50005 0 0 0 0.388672,0.4863 c 0.315149,0.072 0.616869,0.1972 0.890625,0.3691 a 0.50005,0.50005 0 0 0 0.619141,-0.07 l 0.238281,-0.2383 0.353515,0.3536 -0.238281,0.2363 a 0.50005,0.50005 0 0 0 -0.07031,0.6191 c 0.171092,0.2743 0.296267,0.5752 0.367187,0.8906 a 0.50005,0.50005 0 0 0 0.486328,0.3907 l 0.339844,0 0,0.5 -0.337891,0 a 0.50005,0.50005 0 0 0 -0.488281,0.3886 c -0.07184,0.3151 -0.195323,0.615 -0.367187,0.8887 a 0.50005,0.50005 0 0 0 0.07031,0.6211 l 0.238281,0.2383 -0.353515,0.3516 -0.236328,-0.2364 a 0.50005,0.50005 0 0 0 -0.619141,-0.07 c -0.274317,0.1711 -0.575194,0.2943 -0.890625,0.3652 a 0.50005,0.50005 0 0 0 -0.390625,0.4883 l 0,0.3399 -0.5,0 0,-0.3379 a 0.50005,0.50005 0 0 0 -0.388672,-0.4883 c -0.315178,-0.072 -0.616843,-0.1953 -0.890625,-0.3672 a 0.50005,0.50005 0 0 0 -0.619141,0.068 l -0.238281,0.2383 -0.353515,-0.3536 0.238281,-0.2382 a 0.50005,0.50005 0 0 0 0.07031,-0.6172 c -0.171092,-0.2742 -0.296267,-0.5753 -0.367187,-0.8907 a 0.50005,0.50005 0 0 0 -0.486328,-0.3906 l -0.339844,0 0,-0.5 0.337891,0 a 0.50005,0.50005 0 0 0 0.488281,-0.3887 c 0.07181,-0.3151 0.195353,-0.6168 0.367187,-0.8906 a 0.50005,0.50005 0 0 0 -0.07031,-0.6191 l -0.238281,-0.2383 0.353516,-0.3535 0.236328,0.2363 a 0.50005,0.50005 0 0 0 0.619141,0.07 c 0.274317,-0.1711 0.575194,-0.2943 0.890625,-0.3652 a 0.50005,0.50005 0 0 0 0.390624,-0.4863 l 0,-0.3379 z m 12.375,0.2715 c -1.372127,0 -2.5,1.1256 -2.5,2.498 0,1.3725 1.127903,2.5 2.5,2.5 1.372247,0 2.5,-1.1278 2.5,-2.5 0,-1.372 -1.127723,-2.498 -2.5,-2.498 z m 0,1 c 0.826123,0 1.5,0.6721 1.5,1.498 0,0.8261 -0.673847,1.5 -1.5,1.5 -0.825903,0 -1.5,-0.6743 -1.5,-1.5 0,-0.8255 0.674127,-1.498 1.5,-1.498 z m -12.125,0.707 c -0.902903,0 -1.646484,0.7433 -1.646484,1.6465 0,0.9032 0.743581,1.6445 1.646484,1.6445 0.902959,0 1.646484,-0.7416 1.646484,-1.6445 0,-0.903 -0.743525,-1.6465 -1.646484,-1.6465 z m 0,1 c 0.356841,0 0.646484,0.2897 0.646484,0.6465 0,0.3567 -0.289643,0.6445 -0.646484,0.6445 -0.356697,0 -0.646484,-0.2881 -0.646484,-0.6445 0,-0.3566 0.289787,-0.6465 0.646484,-0.6465 z" color="#000" font-family="sans-serif" font-weight="400" overflow="visible" white-space="normal"/></g></svg>