<svg xmlns="http://www.w3.org/2000/svg" xmlns:xlink="http://www.w3.org/1999/xlink" width="42" height="42" viewBox="0 0 42 42"><defs><linearGradient id="b" x1="906.952" x2="931.379" y1="515.915" y2="546.094" gradientTransform="translate(-1215.129 316.47) scale(1.34562)" gradientUnits="userSpaceOnUse" xlink:href="#a"/><linearGradient id="a"><stop offset="0" stop-color="#ffd800"/><stop offset="1" stop-color="#ff6100"/></linearGradient></defs><g transform="translate(0 -1010.362)"><rect width="42" height="42" y="1010.362" fill="url(#b)" rx="8.876" ry="8.876"/><path style="line-height:normal;text-indent:0;text-align:start;text-decoration-line:none;text-decoration-style:solid;text-decoration-color:#000;text-transform:none;block-progression:tb;isolation:auto;mix-blend-mode:normal" fill="#fff" d="m 20.962952,1017.7595 c -0.827839,0.034 -1.643052,0.37 -2.269532,0.9961 -0.0878,0.01 -0.176853,0.01 -0.263672,0.025 -0.726872,0.1311 -1.405045,0.5053 -1.925781,1.084 a 0.50005,0.50005 0 0 0 -0.234375,0.416 0.50005,0.50005 0 0 0 0,0.012 0.50005,0.50005 0 0 0 0,0.012 0.50005,0.50005 0 0 0 0.197266,0.3984 c 0.692181,0.7304 1.16,1.6681 1.378906,2.6602 l -0.378906,0 a 0.50004994,0.50004994 0 1 0 0,1 0.50004994,0.50004994 0 1 0 0,1 0.50004994,0.50004994 0 0 0 -0.132813,0.9824 c -0.216308,0.4236 -0.470029,0.8137 -0.783203,1.1875 -0.832316,0.9937 -2.000703,1.9601 -3.078125,3.6074 -2.210504,3.3797 -1.996019,8.6237 1.097657,11.6192 2.908084,2.9672 7.814669,3.451 11.267578,1.1738 3.579394,-2.2246 5.121328,-7.0322 3.548828,-10.9375 -0.96184,-2.6489 -3.245566,-4.2951 -4.544922,-5.9961 -0.184695,-0.2418 -0.342837,-0.4844 -0.484375,-0.7265 a 0.50004994,0.50004994 0 0 0 -0.292969,-0.9102 0.50004994,0.50004994 0 1 0 0,-1 0.50004994,0.50004994 0 1 0 0,-1 l -0.125,0 c 0.203735,-0.7824 0.642377,-1.6812 1.470703,-2.7656 a 0.50020889,0.50020889 0 0 0 0.05274,-0.086 0.50146332,0.49897524 60.000619 0 0 0.183593,-0.7734 c -0.425047,-0.5304 -0.989228,-0.9103 -1.607422,-1.1133 -0.282422,-0.093 -0.576403,-0.1436 -0.875,-0.1601 -0.650124,-0.4963 -1.428447,-0.7371 -2.201171,-0.7051 z m 0.04101,0.9922 c 0.256368,-0.011 0.512124,0.027 0.761719,0.1 a 0.50188451,0.49939434 60.000619 0 0 -0.002,0 0.50188451,0.49939434 60.000619 0 0 0.59375,0.6875 c 0.187518,-0.051 0.378016,-0.073 0.566406,-0.078 a 0.50005,0.50005 0 0 0 0.173828,0 c 0.540471,0.025 1.059373,0.2294 1.472656,0.5918 -0.925898,1.2262 -1.465163,2.3142 -1.675729,3.3066 l -4.021484,0 c -0.20826,-1.1129 -0.698627,-2.1634 -1.427735,-3.0371 0.770026,-0.6798 1.886494,-0.8043 2.796875,-0.2734 a 0.50005,0.50005 0 1 0 0.503907,-0.8633 c -0.177662,-0.1036 -0.361164,-0.1894 -0.548829,-0.2578 0.25886,-0.1063 0.531446,-0.1682 0.806641,-0.1797 z m 6.962891,5.1386 0,0 c -0.648604,0.027 -1.283741,0.2891 -1.779297,0.7715 -0.05713,0.01 -0.115123,0.01 -0.171875,0.016 -0.161702,0.029 -0.317308,0.085 -0.470703,0.1445 0.0016,0.015 0.01178,0.028 0.01172,0.043 -6.69e-4,0.1705 -0.122075,0.3265 -0.181641,0.4941 0.06359,0.18 0.187873,0.3511 0.183594,0.5332 -3.37e-4,0.016 -0.009,0.031 -0.0098,0.047 0.536189,-0.3637 1.228375,-0.4152 1.8125,-0.072 a 0.50029497,0.50029497 0 1 0 0.505859,-0.8632 c -0.05285,-0.031 -0.107975,-0.055 -0.162109,-0.082 0.242385,-0.055 0.492642,-0.05 0.736328,0 a 0.50230641,0.49825859 60.001624 0 0 0.630859,0.5606 c 0.529939,-0.1443 1.075082,-0.017 1.496094,0.3125 -0.689539,0.94 -1.090704,1.7847 -1.240234,2.5605 l -1.894531,0 c 0.303254,0.3194 0.599123,0.6372 0.904297,1 0.264381,0.3143 0.520895,0.6462 0.767578,1 l 0.398437,0 c 0.178902,0.4651 0.434576,0.8941 0.734375,1.2891 1.117922,1.4726 2.731418,2.6643 3.34961,4.3828 0.0018,0.01 0.0038,0.012 0.0059,0.018 1.03806,2.5831 -0.01427,5.8819 -2.363281,7.3476 l -0.01367,0.01 c -1.19854,0.7967 -2.690487,1.065 -4.115235,0.8653 -0.23333,0.1782 -0.476597,0.3467 -0.728515,0.5039 -0.15203,0.1 -0.310381,0.187 -0.466797,0.2773 1.94521,0.5797 4.13259,0.331 5.859375,-0.8144 2.78899,-1.7454 3.982659,-5.4956 2.757812,-8.5547 -0.751592,-2.0761 -2.513695,-3.3524 -3.490234,-4.6387 -0.187044,-0.2464 -0.334533,-0.4877 -0.458984,-0.7324 0.433178,-0.1955 0.356926,-0.9614 -0.230469,-0.9531 a 0.50004994,0.50004994 0 1 0 0.01367,-1 c 0.148487,-0.5872 0.476655,-1.2701 1.109375,-2.1036 0.0081,-0.01 0.0065,-0.021 0.01367,-0.031 a 0.50207713,0.49803115 60.001624 0 0 0.164062,-0.7676 c -0.339484,-0.4263 -0.788638,-0.7312 -1.283204,-0.8945 -0.213102,-0.07 -0.435227,-0.1075 -0.660156,-0.1231 -0.514147,-0.3846 -1.126423,-0.5722 -1.734375,-0.5469 z m -13.998047,0 c -0.648603,0.027 -1.285592,0.2891 -1.78125,0.7715 -0.05728,0.01 -0.115122,0.01 -0.171875,0.016 -0.575598,0.1044 -1.113254,0.4012 -1.527344,0.8574 -0.137379,0.092 -0.2207,0.2451 -0.222656,0.4102 l 0,0.01 0,0.01 c -0.0014,0.1543 0.06851,0.3006 0.189458,0.3964 0.51346,0.5483 0.856785,1.256 1.017578,2.002 l -0.171875,0 c -0.01692,-9e-4 -0.03387,-9e-4 -0.05078,0 -0.638822,0.045 -0.611079,0.9922 0.0293,1 -0.0098,-3e-4 -0.01953,-3e-4 -0.0293,0 -0.598652,0.033 -0.64459,0.8985 -0.05273,0.9941 -0.172769,0.4079 -0.402512,0.7548 -0.689453,1.0996 -0.6266909,0.7529 -1.5278154,1.5048 -2.3613276,2.7871 -1.7222967,2.6498 -1.5571188,6.7301 0.8554682,9.082 1.8077094,1.855 4.5971654,2.4663 7.0175774,1.7325 -0.409487,-0.2315 -0.802268,-0.4952 -1.177734,-0.7871 -1.845737,0.2562 -3.820779,-0.3011 -5.1289059,-1.6465 l -0.00977,-0.01 c -2.0048887,-1.9496 -2.1616318,-5.6063 -0.71875,-7.8262 0.7496973,-1.1534 1.5820619,-1.8394 2.2929679,-2.6934 0.40228,-0.4832 0.736107,-1.0472 0.962891,-1.7324 l 0.5625,0 c 0.243889,-0.3567 0.488826,-0.6997 0.732422,-1 0.300187,-0.3701 0.589632,-0.6977 0.871094,-1 l -1.900391,0 c -0.149974,-0.859 -0.513749,-1.6759 -1.056641,-2.3633 0.546446,-0.4267 1.293113,-0.492 1.91211,-0.1289 0.575489,0.3371 1.081261,-0.5259 0.505859,-0.8632 -0.05489,-0.032 -0.113676,-0.052 -0.169922,-0.08 0.239603,-0.056 0.487091,-0.053 0.728516,0 -0.06072,0.37 0.290858,0.6759 0.646484,0.5625 0.34155,-0.093 0.688068,-0.066 1.00586,0.047 0.02708,-0.058 0.05506,-0.1164 0.07617,-0.1757 -0.05961,-0.1697 -0.180364,-0.3294 -0.179688,-0.502 4.85e-4,-0.1238 0.06125,-0.241 0.119141,-0.3594 -0.127249,-0.028 -0.256742,-0.043 -0.386719,-0.055 -0.514993,-0.3876 -1.128095,-0.5761 -1.738281,-0.5507 l 0,0 z m 4.462896,2.4707 4.855468,0 c 0.211092,0.4356 0.464458,0.8531 0.761719,1.2422 1.440881,1.8862 3.574416,3.4491 4.402344,5.7363 a 0.50005,0.50005 0 0 0 0.0059,0.018 c 1.386248,3.4282 -0.0114,7.7829 -3.152344,9.7305 a 0.50005,0.50005 0 0 0 -0.01172,0.01 c -3.031288,2.0024 -7.465426,1.5635 -10.013672,-1.0411 a 0.50005,0.50005 0 0 0 -0.0098,-0.01 c -2.684818,-2.5947 -2.890088,-7.4078 -0.960942,-10.3574 0.993027,-1.5182 2.092831,-2.4189 3.009765,-3.5136 0.442694,-0.5285 0.828847,-1.1145 1.113282,-1.8145 z m 0.773437,6.8398 c -0.384805,0 -0.769649,0.1458 -1.060547,0.4375 -0.581794,0.5834 -0.581787,1.5435 0,2.127 0.581802,0.5835 1.539299,0.5835 2.121094,0 0.581815,-0.5835 0.581801,-1.5436 0,-2.127 -0.290905,-0.2917 -0.675742,-0.4375 -1.060547,-0.4375 z m 4.775391,0 a 0.50004991,0.50004991 0 0 0 -0.34375,0.1524 l -5.976563,5.9941 a 0.50004991,0.50004991 0 1 0 0.707031,0.7071 l 5.978516,-5.9961 a 0.50004991,0.50004991 0 0 0 -0.365234,-0.8575 z m -4.775391,0.9942 c 0.12716,0 0.25341,0.05 0.353516,0.1504 0.200204,0.2008 0.200204,0.5101 0,0.7109 -0.200197,0.2007 -0.506828,0.2008 -0.707032,0 -0.200197,-0.2008 -0.200197,-0.5101 0,-0.7109 0.100102,-0.1004 0.226356,-0.1504 0.353516,-0.1504 z m 3.792969,3.0098 c -0.384803,0 -0.769646,0.1457 -1.060547,0.4375 -0.580706,0.5836 -0.581412,1.5439 0,2.1269 0.581802,0.5835 1.539285,0.5821 2.121094,0 0.581801,-0.5835 0.581801,-1.5434 0,-2.1269 -0.290901,-0.2918 -0.675744,-0.4375 -1.060547,-0.4375 z m 0,0.9941 c 0.127159,0 0.255366,0.05 0.355468,0.1504 0.200204,0.2008 0.200205,0.5101 0,0.7109 -0.20021,0.2008 -0.510733,0.2022 -0.710937,0 -0.199796,-0.2004 -0.197074,-0.5101 0.002,-0.7109 0.100102,-0.1004 0.226356,-0.1504 0.353516,-0.1504 z" color="#000" font-family="sans-serif" font-weight="400" overflow="visible" white-space="normal"/></g></svg>