<svg xmlns="http://www.w3.org/2000/svg" xmlns:xlink="http://www.w3.org/1999/xlink" width="42" height="42" viewBox="0 0 42 42"><defs><linearGradient id="b" x1="992.183" x2="1019.298" y1="516.081" y2="545.959" gradientTransform="translate(-1332.367 316.47) scale(1.34562)" gradientUnits="userSpaceOnUse" xlink:href="#a"/><linearGradient id="a"><stop offset="0" stop-color="#ff1679"/><stop offset="1" stop-color="#ff770b"/></linearGradient></defs><g transform="translate(0 -1010.362)"><rect width="42" height="42" y="1010.362" fill="url(#b)" rx="8.876" ry="8.876"/><path style="line-height:normal;text-indent:0;text-align:start;text-decoration-line:none;text-decoration-style:solid;text-decoration-color:#000;text-transform:none;block-progression:tb;isolation:auto;mix-blend-mode:normal" fill="#fff" d="m 14.497534,1016.3642 c -0.822356,0 -1.5,0.6777 -1.5,1.5 l 0,4 c 0,0.8224 0.677644,1.5 1.5,1.5 l 17,0 c 0.822356,0 1.5,-0.6776 1.5,-1.5 l 0,-1.9141 c 0.0033,-0.011 0.01239,-0.046 0.04102,-0.086 0.05987,-0.088 0.165726,-0.2161 0.296875,-0.3594 0.262296,-0.2865 0.629295,-0.638 0.998047,-0.9727 0.7375,-0.6694 1.480468,-1.2753 1.480468,-1.2753 a 0.50005,0.50005 0 0 0 -0.31641,-0.8925 l -21,0 z m 0,1 19.65625,0 c -0.220257,0.19 -0.245376,0.1997 -0.492188,0.4238 -0.381244,0.346 -0.764252,0.7091 -1.064453,1.0371 -0.1501,0.1639 -0.278618,0.3165 -0.382812,0.4688 -0.104194,0.1523 -0.216797,0.2754 -0.216797,0.5703 l 0,2 c 0,0.2857 -0.214338,0.5 -0.5,0.5 l -17,0 c -0.285663,0 -0.5,-0.2143 -0.5,-0.5 l 0,-4 c 0,-0.2856 0.214337,-0.5 0.5,-0.5 z m 6,2 a 0.5,0.5 0 0 0 -0.5,0.5 0.5,0.5 0 0 0 0.5,0.5 0.5,0.5 0 0 0 0.5,-0.5 0.5,0.5 0 0 0 -0.5,-0.5 z m 2,0 a 0.5,0.5 0 0 0 -0.5,0.5 0.5,0.5 0 0 0 0.5,0.5 0.5,0.5 0 0 0 0.5,-0.5 0.5,0.5 0 0 0 -0.5,-0.5 z m 2,0 a 0.5,0.5 0 0 0 -0.5,0.5 0.5,0.5 0 0 0 0.5,0.5 0.5,0.5 0 0 0 0.5,-0.5 0.5,0.5 0 0 0 -0.5,-0.5 z m -17.9999996,4.9961 0,0 a 0.50005,0.50005 0 0 0 -0.3164062,0.8886 c 0,0 0.7429683,0.606 1.4804687,1.2754 0.3687502,0.3347 0.7357503,0.6862 0.9980469,0.9727 0.1311483,0.1433 0.2370074,0.2719 0.296875,0.3594 0.028644,0.042 0.037726,0.077 0.041016,0.088 l 0,1.9121 c 0,0.8224 0.677644,1.5 1.5000002,1.5 l 16.999999,0 c 0.822357,0 1.5,-0.6776 1.5,-1.5 l 0,-4 c 0,-0.8223 -0.677643,-1.5 -1.5,-1.5 l -20.9999996,0 z m 1.34375,1.0039 19.6562496,0 c 0.285663,0 0.5,0.2144 0.5,0.5 l 0,4 c 0,0.2857 -0.214337,0.5 -0.5,0.5 l -17,0 c -0.285662,0 -0.4999996,-0.2143 -0.4999996,-0.5 l 0,-2 c 0,-0.2949 -0.1126029,-0.418 -0.2167969,-0.5703 -0.104194,-0.1523 -0.2327124,-0.3049 -0.3828125,-0.4688 -0.3002002,-0.328 -0.6832075,-0.6911 -1.0644531,-1.0371 -0.2468108,-0.2241 -0.2719308,-0.2338 -0.4921875,-0.4238 z m 8.6562496,2 a 0.5,0.5 0 0 0 -0.5,0.5 0.5,0.5 0 0 0 0.5,0.5 0.5,0.5 0 0 0 0.5,-0.5 0.5,0.5 0 0 0 -0.5,-0.5 z m 2,0 a 0.5,0.5 0 0 0 -0.5,0.5 0.5,0.5 0 0 0 0.5,0.5 0.5,0.5 0 0 0 0.5,-0.5 0.5,0.5 0 0 0 -0.5,-0.5 z m 2,0 a 0.5,0.5 0 0 0 -0.5,0.5 0.5,0.5 0 0 0 0.5,0.5 0.5,0.5 0 0 0 0.5,-0.5 0.5,0.5 0 0 0 -0.5,-0.5 z m 2,5 c -0.822357,0 -1.5,0.6777 -1.5,1.5 l 0,3 c 0,0.8224 0.677643,1.5 1.5,1.5 l 9,0 c 0.822356,0 1.5,-0.6776 1.5,-1.5 l 0,-0.9141 c 0.0033,-0.011 0.01239,-0.046 0.04102,-0.086 0.05987,-0.088 0.165726,-0.2161 0.296875,-0.3594 0.262296,-0.2865 0.629295,-0.638 0.998047,-0.9727 0.7375,-0.6694 1.480468,-1.2753 1.480468,-1.2753 a 0.50005,0.50005 0 0 0 -0.31641,-0.8925 l -13,0 z m 0,1 11.65625,0 c -0.220257,0.19 -0.245376,0.1997 -0.492188,0.4238 -0.381244,0.346 -0.764252,0.7091 -1.064453,1.0371 -0.1501,0.1639 -0.278618,0.3165 -0.382812,0.4688 -0.104194,0.1523 -0.216797,0.2754 -0.216797,0.5703 l 0,1 c 0,0.2857 -0.214338,0.5 -0.5,0.5 l -9,0 c -0.285665,0 -0.5,-0.2143 -0.5,-0.5 l 0,-3 c 0,-0.2856 0.214337,-0.5 0.5,-0.5 z m 2.5,1.5 a 0.5,0.5 0 0 0 -0.5,0.5 0.5,0.5 0 0 0 0.5,0.5 0.5,0.5 0 0 0 0.5,-0.5 0.5,0.5 0 0 0 -0.5,-0.5 z m 2,0 a 0.5,0.5 0 0 0 -0.5,0.5 0.5,0.5 0 0 0 0.5,0.5 0.5,0.5 0 0 0 0.5,-0.5 0.5,0.5 0 0 0 -0.5,-0.5 z m 2,0 a 0.5,0.5 0 0 0 -0.5,0.5 0.5,0.5 0 0 0 0.5,0.5 0.5,0.5 0 0 0 0.5,-0.5 0.5,0.5 0 0 0 -0.5,-0.5 z m -22.4999996,4.4961 0,0 a 0.50005,0.50005 0 0 0 -0.3164062,0.8886 c 0,0 0.7429683,0.606 1.4804687,1.2754 0.3687502,0.3347 0.7357503,0.6862 0.9980469,0.9727 0.1311483,0.1433 0.2370074,0.2719 0.296875,0.3594 0.028644,0.042 0.037726,0.077 0.041016,0.088 l 0,1.9121 c 0,0.8224 0.677644,1.5 1.5000002,1.5 l 12.999999,0 c 0.822357,0 1.5,-0.6776 1.5,-1.5 l 0,-4 c 0,-0.8223 -0.677643,-1.5 -1.5,-1.5 l -16.9999992,0 z m 1.34375,1.0039 15.6562496,0 c 0.285663,0 0.5,0.2144 0.5,0.5 l 0,4 c 0,0.2857 -0.214337,0.5 -0.5,0.5 l -13,0 c -0.285662,0 -0.4999996,-0.2143 -0.4999996,-0.5 l 0,-2 c 0,-0.2949 -0.1126029,-0.418 -0.2167969,-0.5703 -0.104194,-0.1523 -0.2327124,-0.3049 -0.3828125,-0.4688 -0.3002002,-0.328 -0.6832075,-0.6911 -1.0644531,-1.0371 -0.2468108,-0.2241 -0.2719308,-0.2338 -0.4921875,-0.4238 z m 7.6562496,2 a 0.5,0.5 0 0 0 -0.5,0.5 0.5,0.5 0 0 0 0.5,0.5 0.5,0.5 0 0 0 0.5,-0.5 0.5,0.5 0 0 0 -0.5,-0.5 z m 2,0 a 0.5,0.5 0 0 0 -0.5,0.5 0.5,0.5 0 0 0 0.5,0.5 0.5,0.5 0 0 0 0.5,-0.5 0.5,0.5 0 0 0 -0.5,-0.5 z m 2,0 a 0.5,0.5 0 0 0 -0.5,0.5 0.5,0.5 0 0 0 0.5,0.5 0.5,0.5 0 0 0 0.5,-0.5 0.5,0.5 0 0 0 -0.5,-0.5 z" color="#000" font-family="sans-serif" font-weight="400" overflow="visible" white-space="normal"/></g></svg>