<svg xmlns="http://www.w3.org/2000/svg" xmlns:xlink="http://www.w3.org/1999/xlink" width="42" height="42" viewBox="0 0 42 42"><defs><linearGradient id="b" x1="992.183" x2="1019.298" y1="516.081" y2="545.959" gradientTransform="translate(-1332.367 316.47) scale(1.34562)" gradientUnits="userSpaceOnUse" xlink:href="#a"/><linearGradient id="a"><stop offset="0" stop-color="#ff1679"/><stop offset="1" stop-color="#ff770b"/></linearGradient></defs><g transform="translate(0 -1010.362)"><rect width="42" height="42" y="1010.362" fill="url(#b)" rx="8.876" ry="8.876"/><path style="line-height:normal;text-indent:0;text-align:start;text-decoration-line:none;text-decoration-style:solid;text-decoration-color:#000;text-transform:none;block-progression:tb;isolation:auto;mix-blend-mode:normal" fill="#fff" d="m 22.527118,1015.3541 a 0.50004997,0.50004997 0 0 0 -0.5,0.5 l 0,3.9472 c -0.292262,-0.1231 -0.536153,-0.3615 -0.859375,-0.3613 -1.321541,0 -2.402345,1.0837 -2.402344,2.4063 -10e-7,1.3227 1.080834,2.4062 2.402344,2.4062 0.323725,0 0.567311,-0.2395 0.859375,-0.3633 l 0,3.9493 a 0.50004997,0.50004997 0 0 0 0.5,0.5 l 4.650391,0 a 0.50004997,0.50004997 0 0 0 0.335937,-0.8711 c 4.47e-4,4e-4 -0.01243,-0.013 -0.02344,-0.024 -0.02759,-0.029 -0.05494,-0.06 -0.08203,-0.094 l 0.002,0 c -0.02955,-0.038 -0.05704,-0.074 -0.08203,-0.1133 a 0.50004997,0.50004997 0 0 0 -0.002,0 c -0.02376,-0.037 -0.04707,-0.075 -0.06836,-0.1172 -0.02131,-0.042 -0.04012,-0.086 -0.05664,-0.1289 a 0.50004997,0.50004997 0 0 0 -0.002,0 c -0.01644,-0.042 -0.03038,-0.086 -0.04297,-0.1309 -0.0125,-0.045 -0.02333,-0.091 -0.03125,-0.1367 -0.008,-0.046 -0.01414,-0.091 -0.01758,-0.1367 -0.0021,-0.033 -0.004,-0.066 -0.0039,-0.098 1.4e-5,-0.048 0.0031,-0.094 0.0078,-0.1406 0.0047,-0.046 0.01213,-0.093 0.02148,-0.1387 0.0093,-0.046 0.02158,-0.092 0.03516,-0.1367 0.0133,-0.044 0.02878,-0.086 0.04687,-0.1289 0.01869,-0.044 0.03885,-0.085 0.06055,-0.125 0.02229,-0.041 0.04741,-0.08 0.07422,-0.1191 0.02696,-0.039 0.05415,-0.076 0.08398,-0.1114 0.03061,-0.036 0.06279,-0.072 0.0957,-0.1035 0.03283,-0.032 0.06835,-0.062 0.103516,-0.09 l 0.0039,0 c 0.03621,-0.028 0.07318,-0.055 0.111328,-0.08 l 0.002,0 c 0.04022,-0.026 0.0818,-0.048 0.121094,-0.068 l 0.002,0 c 0.04058,-0.021 0.08228,-0.04 0.125,-0.057 a 0.50004997,0.50004997 0 0 0 0.002,0 c 0.04342,-0.017 0.08844,-0.032 0.138672,-0.047 0.04282,-0.012 0.08383,-0.021 0.123047,-0.027 a 0.50004997,0.50004997 0 0 0 0.0078,0 c 0.04683,-0.01 0.09499,-0.016 0.142578,-0.02 0.05153,0 0.114016,-0.01 0.09375,-0.01 0.06452,10e-5 0.101742,0 0.113282,0 0.08315,0.013 0.137806,0.018 0.164062,0.023 0.05159,0.011 0.09638,0.023 0.136719,0.035 0.04948,0.016 0.09253,0.032 0.130859,0.049 0.04078,0.018 0.08278,0.039 0.125,0.062 0.04379,0.024 0.08402,0.049 0.121094,0.074 0.04053,0.028 0.07737,0.055 0.111328,0.084 a 0.50004997,0.50004997 0 0 0 0.002,0 c 0.03736,0.031 0.07176,0.063 0.103516,0.096 0.03237,0.034 0.06278,0.069 0.0918,0.1055 0.02915,0.037 0.05548,0.075 0.08008,0.1133 a 0.50004997,0.50004997 0 0 0 0.002,0 c 0.02421,0.037 0.0469,0.079 0.06836,0.1211 0.02121,0.042 0.04001,0.084 0.05664,0.1269 a 0.50004997,0.50004997 0 0 0 0.002,0 c 0.01637,0.042 0.03034,0.086 0.04297,0.1309 0.0125,0.045 0.02333,0.091 0.03125,0.1367 0.0082,0.047 0.01417,0.092 0.01758,0.1387 0.0022,0.033 0.004,0.065 0.0039,0.098 -1.5e-5,0.048 -0.0031,0.094 -0.0078,0.1407 -0.0047,0.047 -0.01219,0.093 -0.02148,0.1386 -0.0093,0.046 -0.02155,0.094 -0.03516,0.1387 -0.01343,0.044 -0.02839,0.087 -0.04687,0.1309 -0.0186,0.043 -0.03898,0.086 -0.06055,0.125 -0.02227,0.041 -0.04738,0.082 -0.07422,0.121 -0.02669,0.039 -0.05472,0.077 -0.08398,0.1114 -0.02693,0.032 -0.05799,0.064 -0.09375,0.1 a 0.50004997,0.50004997 0 0 0 0.351563,0.8555 l 4.648437,0 a 0.50004997,0.50004997 0 0 0 0.5,-0.5 l 0,-4.6602 0,-2.6621 0,-4.6582 a 0.50004997,0.50004997 0 0 0 -0.5,-0.5 l -4.648437,0 a 0.50004997,0.50004997 0 0 0 -0.002,0 l 0,-0.01 -2.658203,0 -4.650391,0 z m 7.310547,1 4.148437,0 0,4.1582 0,2.6621 0,4.1601 -3.238281,0 c 0.01916,-0.05 0.03871,-0.1 0.05469,-0.1523 0.02349,-0.077 0.04307,-0.1535 0.05859,-0.2305 0.01584,-0.078 0.02715,-0.1576 0.03516,-0.2363 0.0081,-0.08 0.01365,-0.1597 0.01367,-0.2402 1.27e-4,-0.057 -0.0021,-0.1119 -0.0059,-0.168 -0.0058,-0.08 -0.01561,-0.1595 -0.0293,-0.2383 -0.01356,-0.079 -0.03149,-0.1555 -0.05273,-0.2324 -0.02136,-0.076 -0.04679,-0.1535 -0.07617,-0.2285 -0.02881,-0.075 -0.06201,-0.1461 -0.09766,-0.2168 -0.0356,-0.07 -0.07551,-0.1392 -0.119141,-0.207 l -0.002,0 c -0.04309,-0.067 -0.08808,-0.1297 -0.136719,-0.1914 a 0.50004997,0.50004997 0 0 0 -0.002,0 c -0.0491,-0.062 -0.101083,-0.1221 -0.15625,-0.1797 a 0.50004997,0.50004997 0 0 0 -0.002,0 c -0.05662,-0.058 -0.116158,-0.112 -0.175781,-0.1621 l -0.002,0 c -0.06197,-0.052 -0.1245,-0.099 -0.1875,-0.1426 a 0.50004997,0.50004997 0 0 0 -0.002,0 c -0.06744,-0.046 -0.133921,-0.088 -0.201172,-0.125 a 0.50004997,0.50004997 0 0 0 -0.0059,0 c -0.06701,-0.036 -0.136879,-0.072 -0.210937,-0.1035 -0.07835,-0.034 -0.155058,-0.06 -0.226563,-0.082 -0.08118,-0.025 -0.159391,-0.044 -0.232422,-0.061 -0.09798,-0.021 -0.167931,-0.028 -0.210937,-0.035 -0.114744,-0.018 -0.205158,-0.015 -0.267578,-0.016 a 0.50004997,0.50004997 0 0 0 -0.002,0 c -0.119081,0 -0.16421,0.01 -0.134765,0.01 a 0.50004997,0.50004997 0 0 0 -0.03906,0 c -0.07652,0.01 -0.152743,0.016 -0.228515,0.029 -0.08332,0.013 -0.163604,0.031 -0.240235,0.053 a 0.50004997,0.50004997 0 0 0 -0.0059,0 c -0.07202,0.021 -0.145899,0.045 -0.220703,0.074 -0.07507,0.029 -0.148584,0.063 -0.220703,0.1 a 0.50004997,0.50004997 0 0 0 -0.002,0 c -0.07201,0.037 -0.13839,0.078 -0.203125,0.1192 a 0.50004997,0.50004997 0 0 0 -0.0039,0 c -0.06649,0.043 -0.130109,0.089 -0.191406,0.1367 a 0.50004997,0.50004997 0 0 0 -0.0039,0 c -0.06227,0.05 -0.121269,0.1034 -0.177734,0.1582 -0.0584,0.057 -0.114626,0.1166 -0.166016,0.1777 -0.05157,0.062 -0.10011,0.1248 -0.144531,0.1895 -0.04511,0.066 -0.08623,0.134 -0.125,0.2051 -0.03889,0.071 -0.07292,0.1431 -0.103516,0.2148 a 0.50004997,0.50004997 0 0 0 -0.002,0 c -0.03069,0.073 -0.05829,0.1468 -0.08203,0.2246 -0.0237,0.077 -0.043,0.1548 -0.05859,0.2324 -0.01599,0.078 -0.02707,0.1568 -0.03516,0.2364 -0.008,0.079 -0.01358,0.1584 -0.01367,0.2382 -1.26e-4,0.057 0.0021,0.114 0.0059,0.17 0.0058,0.08 0.01561,0.1594 0.0293,0.2382 0.01352,0.078 0.03166,0.1562 0.05273,0.2325 0.02046,0.073 0.04653,0.1452 0.07422,0.2168 l -3.238281,0 0,-4.1602 a 0.50004997,0.50004997 0 0 0 -0.856985,-0.3496 c -0.263894,0.2713 -0.625843,0.4258 -1.001953,0.4258 -0.779907,0 -1.402345,-0.6247 -1.402344,-1.4082 -10e-7,-0.7834 0.622469,-1.4043 1.402344,-1.4043 a 0.50004997,0.50004997 0 0 0 0.002,0 c 0.37677,-2e-4 0.735852,0.15 1,0.4199 a 0.50004997,0.50004997 0 0 0 0.857422,-0.3496 l 0,-4.1582 4.150391,0 2.660156,0 0,0 z m -13.390625,14.7344 c -1.137914,0.052 -2.198469,0.9436 -2.298829,2.1621 -0.07637,0.4138 -0.0071,0.7976 0.126954,1.123 l -3.726563,0 a 0.50004997,0.50004997 0 0 0 -0.5,0.5 l 0,3.7676 c -1.1192098,-0.428 -2.5086414,0.01 -3.0234374,1.1914 -0.7202485,1.4109 0.2258225,3.2184 1.8046874,3.4121 0.4191805,0.066 0.8325143,-0.01 1.21875,-0.1562 l 0,3.7695 a 0.50004997,0.50004997 0 0 0 0.5,0.5 l 4.650391,0 a 0.50004997,0.50004997 0 0 0 0.333984,-0.8711 c -0.649164,-0.5863 -0.452367,-1.8686 0.341797,-2.2363 a 0.50004997,0.50004997 0 0 0 0.03516,-0.02 c 0.730105,-0.4111 1.829274,0.1098 1.982422,0.9317 a 0.50004997,0.50004997 0 0 0 0.0039,0.022 c 0.104962,0.4525 -0.05117,0.9871 -0.384766,1.3066 a 0.50004997,0.50004997 0 0 0 0.345703,0.8613 l 4.597656,0 a 0.50004997,0.50004997 0 0 0 0.08398,0.01 l 4.65039,0 a 0.50004997,0.50004997 0 0 0 0.335938,-0.8711 c -0.649164,-0.5862 -0.45432,-1.8706 0.339844,-2.2383 a 0.50004997,0.50004997 0 0 0 0.03516,-0.019 c 0.730104,-0.4111 1.829274,0.1098 1.982422,0.9317 a 0.50004997,0.50004997 0 0 0 0.0059,0.021 c 0.104963,0.4525 -0.05117,0.9872 -0.384766,1.3067 a 0.50004997,0.50004997 0 0 0 0.345703,0.8613 l 4.56836,0 a 0.50004997,0.50004997 0 0 0 0.28125,-0.043 l 0.01367,-0.01 a 0.50004997,0.50004997 0 0 0 0.273437,-0.5566 l 0,-4.5508 a 0.50004997,0.50004997 0 0 0 -0.861328,-0.3457 c -0.299794,0.3125 -0.782514,0.4749 -1.208984,0.4063 a 0.50004997,0.50004997 0 0 0 -0.01953,0 c -0.855692,-0.1 -1.440962,-1.222 -1.041016,-1.9825 a 0.50004997,0.50004997 0 0 0 0.01758,-0.035 c 0.351303,-0.8228 1.648272,-1.0228 2.242188,-0.3692 a 0.50004997,0.50004997 0 0 0 0.871093,-0.3359 l 0,-4.4258 -0.128906,0.1074 a 0.50004997,0.50004997 0 0 0 -0.359413,-0.8499 l -3.757812,0 c 0.428032,-1.119 -0.0065,-2.5078 -1.185547,-3.0273 -0.358377,-0.1838 -0.741211,-0.2651 -1.117188,-0.248 -1.136503,0.051 -2.194241,0.9421 -2.296875,2.1582 -0.0777,0.4154 -0.0095,0.8004 0.125,1.1269 l -3.675781,0 a 0.50004997,0.50004997 0 0 0 -0.08398,-0.01 l -3.757812,0 c 0.42803,-1.119 -0.0045,-2.5078 -1.183594,-3.0273 -0.358881,-0.1844 -0.740594,-0.2652 -1.117187,-0.2481 l 0,0 z m 0.04492,1.0195 c 0.217856,-0.017 0.433935,0.018 0.626953,0.1191 a 0.50004997,0.50004997 0 0 0 0.03516,0.02 c 0.823015,0.3544 1.020954,1.6564 0.367188,2.2519 a 0.50004997,0.50004997 0 0 0 0.335937,0.8692 l 4.181641,0 0,3.2734 c -1.117265,-0.4263 -2.503091,0.01 -3.019532,1.1875 -0.724075,1.4114 0.222373,3.2221 1.802735,3.416 0.418269,0.065 0.831234,0 1.216797,-0.1543 l 0,3.2617 -3.314454,0 c 0.173046,-0.4405 0.253287,-0.9094 0.146485,-1.3808 -0.290862,-1.5197 -2.073049,-2.3636 -3.431641,-1.6172 -1.138087,0.5388 -1.559544,1.901 -1.138674,3.0019 l -3.251953,0 0,-4.1601 a 0.50004997,0.50004997 0 0 0 -0.861328,-0.3457 c -0.299794,0.3125 -0.7825143,0.4748 -1.2089844,0.4062 a 0.50004997,0.50004997 0 0 0 -0.021484,0 c -0.8556901,-0.1 -1.4390077,-1.2219 -1.0390625,-1.9824 a 0.50004997,0.50004997 0 0 0 0.015625,-0.035 c 0.3513037,-0.8228 1.6502259,-1.0227 2.2441409,-0.3691 a 0.50004997,0.50004997 0 0 0 0.871093,-0.3359 l 0,-4.1582 4.103516,0 a 0.50004997,0.50004997 0 0 0 0.398437,-0.8028 c -0.198089,-0.2598 -0.481778,-0.882 -0.425781,-1.1523 a 0.50004997,0.50004997 0 0 0 0.0078,-0.068 c 0.04371,-0.6641 0.705806,-1.1924 1.359375,-1.2441 z m 11.992187,0 c 0.217856,-0.017 0.433935,0.018 0.626953,0.1191 l 0,0 a 0.50004997,0.50004997 0 0 0 0.03516,0.018 c 0.823015,0.3544 1.019001,1.6565 0.365234,2.252 a 0.50004997,0.50004997 0 0 0 0.33789,0.8691 l 4.136719,0 0,3.2773 c -1.117679,-0.4266 -2.505411,0.01 -3.021484,1.1875 -0.723683,1.4114 0.222536,3.2222 1.802734,3.4161 0.419124,0.066 0.832557,-0.01 1.21875,-0.1563 l 0,3.2656 -3.269531,0 c 0.173045,-0.4405 0.253286,-0.9094 0.146484,-1.3808 -0.290862,-1.5198 -2.073049,-2.3637 -3.431641,-1.6173 -1.138568,0.539 -1.560427,1.9028 -1.138672,3.0039 l -3.253906,0 0,-4.1621 a 0.50004997,0.50004997 0 0 0 -0.859375,-0.3457 c -0.299794,0.3125 -0.782514,0.4749 -1.208985,0.4063 a 0.50004997,0.50004997 0 0 0 -0.02148,0 c -0.85569,-0.1 -1.440961,-1.2219 -1.041016,-1.9824 a 0.50004997,0.50004997 0 0 0 0.01758,-0.035 c 0.351304,-0.8228 1.650226,-1.0227 2.244141,-0.3691 a 0.50004997,0.50004997 0 0 0 0.869141,-0.336 l 0,-4.1582 4.105468,0 a 0.50004997,0.50004997 0 0 0 0.396485,-0.8027 c -0.198089,-0.2598 -0.481778,-0.8821 -0.425781,-1.1524 a 0.50004997,0.50004997 0 0 0 0.0098,-0.068 c 0.04371,-0.6641 0.705807,-1.1924 1.359375,-1.2442 z" color="#000" font-family="sans-serif" font-weight="400" overflow="visible" white-space="normal"/></g></svg>