<svg xmlns="http://www.w3.org/2000/svg" xmlns:xlink="http://www.w3.org/1999/xlink" width="42" height="42" viewBox="0 0 42 42"><defs><linearGradient id="b" x1="992.183" x2="1019.298" y1="516.081" y2="545.959" gradientTransform="translate(-1332.367 316.47) scale(1.34562)" gradientUnits="userSpaceOnUse" xlink:href="#a"/><linearGradient id="a"><stop offset="0" stop-color="#ff1679"/><stop offset="1" stop-color="#ff770b"/></linearGradient></defs><g transform="translate(0 -1010.362)"><rect width="42" height="42" y="1010.362" fill="url(#b)" rx="8.876" ry="8.876"/><path style="line-height:normal;text-indent:0;text-align:start;text-decoration-line:none;text-decoration-style:solid;text-decoration-color:#000;text-transform:none;block-progression:tb;isolation:auto;mix-blend-mode:normal" fill="#fff" d="m 8,1021.3613 c -1.0993579,0 -2,0.9007 -2,2 l 0,6 c 0,1.0994 0.9006421,2 2,2 l 1,0 0,2.5 a 0.50005,0.50005 0 0 0 0.8496094,0.3593 l 2.9296876,-2.8593 5.220703,0 c 1.099358,0 2,-0.9006 2,-2 l 0,-6 c 0,-1.0993 -0.900642,-2 -2,-2 l -10,0 z m 0,1 10,0 c 0.562662,0 1,0.4374 1,1 l 0,6 c 0,0.5627 -0.437338,1 -1,1 l -5.425781,0 a 0.50005,0.50005 0 0 0 -0.347656,0.1426 L 10,1032.6757 l 0,-1.8144 a 0.50005,0.50005 0 0 0 -0.5,-0.5 l -1.5,0 c -0.5626613,0 -1,-0.4373 -1,-1 l 0,-6 c 0,-0.5626 0.4373387,-1 1,-1 z m 16.982422,0.5019 a 0.50005,0.50005 0 0 0 -0.341797,0.8614 l 0.646484,0.6386 -3.779297,0 a 0.50004997,0.50004997 0 0 0 -0.05078,0 0.50064426,0.50064426 0 1 0 0.05078,1 l 3.779297,0 -0.646484,0.6387 a 0.50005,0.50005 0 1 0 0.701172,0.7109 l 1.517578,-1.4941 a 0.50005,0.50005 0 0 0 0,-0.7129 l -1.517578,-1.4941 a 0.50005,0.50005 0 0 0 -0.359375,-0.1485 z M 11,1025.8613 a 0.5,0.5 0 0 0 -0.5,0.5 0.5,0.5 0 0 0 0.5,0.5 0.5,0.5 0 0 0 0.5,-0.5 0.5,0.5 0 0 0 -0.5,-0.5 z m 2,0 a 0.5,0.5 0 0 0 -0.5,0.5 0.5,0.5 0 0 0 0.5,0.5 0.5,0.5 0 0 0 0.5,-0.5 0.5,0.5 0 0 0 -0.5,-0.5 z m 2,0 a 0.5,0.5 0 0 0 -0.5,0.5 0.5,0.5 0 0 0 0.5,0.5 0.5,0.5 0 0 0 0.5,-0.5 0.5,0.5 0 0 0 -0.5,-0.5 z m 9,2.5 c -1.099358,0 -2,0.9007 -2,2 l 0,6 c 0,1.0994 0.900642,2 2,2 l 5.220703,0 2.929688,2.8593 A 0.50005,0.50005 0 0 0 33,1040.8613 l 0,-2.5 1,0 c 1.099358,0 2,-0.9006 2,-2 l 0,-6 c 0,-1.0993 -0.900642,-2 -2,-2 l -10,0 z m 0,1 10,0 c 0.562662,0 1,0.4374 1,1 l 0,6 c 0,0.5627 -0.437338,1 -1,1 l -1.5,0 a 0.50005,0.50005 0 0 0 -0.5,0.5 l 0,1.8144 -2.226562,-2.1718 a 0.50005,0.50005 0 0 0 -0.347657,-0.1426 l -5.425781,0 c -0.562662,0 -1,-0.4373 -1,-1 l 0,-6 c 0,-0.5626 0.437338,-1 1,-1 z m 3,3.5 a 0.5,0.5 0 0 0 -0.5,0.5 0.5,0.5 0 0 0 0.5,0.5 0.5,0.5 0 0 0 0.5,-0.5 0.5,0.5 0 0 0 -0.5,-0.5 z m 2,0 a 0.5,0.5 0 0 0 -0.5,0.5 0.5,0.5 0 0 0 0.5,0.5 0.5,0.5 0 0 0 0.5,-0.5 0.5,0.5 0 0 0 -0.5,-0.5 z m 2,0 a 0.5,0.5 0 0 0 -0.5,0.5 0.5,0.5 0 0 0 0.5,0.5 0.5,0.5 0 0 0 0.5,-0.5 0.5,0.5 0 0 0 -0.5,-0.5 z m -13.994141,0 a 0.50005,0.50005 0 0 0 -0.34375,0.1484 l -1.517578,1.4942 a 0.50005,0.50005 0 0 0 0,0.7128 l 1.517578,1.4942 a 0.50005,0.50005 0 1 0 0.701172,-0.711 l -0.65039,-0.6406 3.783203,0 a 0.50004997,0.50004997 0 1 0 0,-1 l -3.779297,0 0.646484,-0.6387 a 0.50005,0.50005 0 0 0 -0.357422,-0.8594 z" color="#000" font-family="sans-serif" font-weight="400" overflow="visible" white-space="normal"/></g></svg>