<svg xmlns="http://www.w3.org/2000/svg" xmlns:xlink="http://www.w3.org/1999/xlink" width="42" height="42" viewBox="0 0 42 42"><defs><linearGradient id="b" x1="1056.035" x2="1031.176" y1="544.13" y2="517.701" gradientTransform="translate(-1384.02 316.47) scale(1.34562)" gradientUnits="userSpaceOnUse" xlink:href="#a"/><linearGradient id="a"><stop offset="0" stop-color="#5a5a5a"/><stop offset="1" stop-color="#656e85"/></linearGradient></defs><g transform="translate(0 -1010.362)"><rect width="42" height="42" y="1010.362" fill="url(#b)" rx="8.876" ry="8.876"/><path style="line-height:normal;text-indent:0;text-align:start;text-decoration-line:none;text-decoration-style:solid;text-decoration-color:#000;text-transform:none;block-progression:tb;isolation:auto;mix-blend-mode:normal" fill="#fff" d="m 18.51753,1018.3637 c -1.214342,0 -2.230382,0.8742 -2.453125,2.0254 l -5.546875,0 0,6.043 0,0.018 -0.5605466,-0.5605 -0.7070312,0.707 1.7343748,1.7344 c -0.12074,0.01 -0.234543,0.059 -0.320312,0.1445 l -3.5351566,3.5352 c -0.1951847,0.1952 -0.1951847,0.5118 0,0.707 l 3.5351566,3.5371 c 0.09087,0.091 0.21327,0.1434 0.341797,0.1465 l -1.7558598,1.7559 0.7070312,0.707 0.5605466,-0.5605 0,0.02 0,4.041 5.550781,0 0,0 c 0.233891,1.1371 1.244912,1.998 2.449219,1.998 l 5,0 c 1.204307,0 2.215328,-0.8629 2.449219,-2 l 5.050781,0 0,-5.5605 0.560547,0.5605 0.707031,-0.707 -1.767578,-1.7676 -1.767578,1.7676 0.707031,0.707 0.560547,-0.5605 0,4.5605 -4.050781,0 c -0.232441,-1.1389 -1.243591,-2 -2.449219,-2 l -5,0 c -1.205627,0 -2.216778,0.8611 -2.449219,2 l -4.550781,0 0,-3.041 0,-0.02 0.560547,0.5605 0.707031,-0.707 -1.755859,-1.7559 c 0.128527,0 0.250931,-0.055 0.341797,-0.1465 l 3.535156,-3.5371 c 0.195185,-0.1952 0.195185,-0.5118 0,-0.707 l -3.535156,-3.5352 c -0.08577,-0.085 -0.199572,-0.1367 -0.320313,-0.1445 l 1.734375,-1.7344 -0.707031,-0.707 -0.560547,0.5605 0,-0.018 0,-5.043 4.558594,0 c 0.243265,1.125 1.245752,1.9746 2.441406,1.9746 l 5,0 c 1.195654,0 2.198141,-0.8496 2.441406,-1.9746 l 4.058594,0 0,5.043 0,1.5175 -0.560547,-0.5605 -0.707031,0.707 1.767578,1.7676 1.767578,-1.7676 -0.707031,-0.707 -0.560547,0.5605 0,-1.5175 0,-6.043 -5.046875,0 c -0.222743,-1.1512 -1.238783,-2.0254 -2.453125,-2.0254 z m 12,11.5 -4,0 c -0.276131,0 -0.499972,0.2239 -0.5,0.5 l 0,4.4883 0.5,0.012 0,0 8,0 c 0.276131,0 0.499972,-0.2239 0.5,-0.5 l 0,-4 c -2.8e-5,-0.2761 -0.223869,-0.5 -0.5,-0.5 z m -12,-10.5 5,0 c 0.839649,0 1.5,0.6604 1.5,1.5 0,0.8397 -0.660351,1.5 -1.5,1.5 l -5,0 c -0.839649,0 -1.5,-0.6603 -1.5,-1.5 0,-0.8396 0.660351,-1.5 1.5,-1.5 z m -7.5,10.1719 2.828125,2.8281 -2.828125,2.8301 -2.8281247,-2.8301 z m 16,1.3281 7,0 0,3 -7,0 z m -8.5,9.5 5,0 c 0.839649,0 1.5,0.6604 1.5,1.5 0,0.8397 -0.660351,1.5 -1.5,1.5 l -5,0 c -0.839649,0 -1.5,-0.6603 -1.5,-1.5 0,-0.8396 0.660351,-1.5 1.5,-1.5 z" color="#000" font-family="sans-serif" font-weight="400" overflow="visible" white-space="normal"/></g></svg>