<svg xmlns="http://www.w3.org/2000/svg" xmlns:xlink="http://www.w3.org/1999/xlink" width="32" height="32" viewBox="0 0 32 32"><defs><linearGradient id="b" x1="1073.403" x2="1097.116" y1="516.451" y2="544.308" gradientTransform="translate(-1443.388 321.47) scale(1.34562)" gradientUnits="userSpaceOnUse" xlink:href="#a"/><linearGradient id="a"><stop offset="0" stop-color="#16ff6a"/><stop offset="1" stop-color="#0090a5"/></linearGradient></defs><g transform="translate(0 -1020.362)"><rect width="42" height="42" x="-5" y="1015.362" fill="url(#b)" rx="8.876" ry="8.876"/><path style="line-height:normal;text-indent:0;text-align:start;text-decoration-line:none;text-decoration-style:solid;text-decoration-color:#000;text-transform:none;block-progression:tb;isolation:auto;mix-blend-mode:normal" fill="#fff" d="m 15,1022.3622 a 0.50005,0.50005 0 0 0 -0.5,0.5 l 0,2.5 -10.0000004,0 a 0.50005,0.50005 0 0 0 -0.3535156,0.1465 l -2,2 a 0.50005,0.50005 0 0 0 0,0.707 l 2,2 a 0.50005,0.50005 0 0 0 0.3535156,0.1465 l 10.0000004,0 0,17 -3,0 a 0.50005,0.50005 0 0 0 -0.5,0.5 l 0,2 a 0.50005,0.50005 0 0 0 0.5,0.5 l 9,0 a 0.50005,0.50005 0 0 0 0.5,-0.5 c 3e-6,-0.6667 1.3e-5,-1.3333 0,-2 a 0.50005,0.50005 0 0 0 -0.5,-0.5 l -3,0 0,-12 10,0 a 0.50005,0.50005 0 0 0 0.353516,-0.1465 l 2,-2 a 0.50005,0.50005 0 0 0 0,-0.707 l -2,-2 A 0.50005,0.50005 0 0 0 27.5,1030.3622 l -10,0 0,-7.5 a 0.50005,0.50005 0 0 0 -0.5,-0.5 l -2,0 z m 0.5,1 1,0 0,7.418 a 0.50005,0.50005 0 0 0 0,0.164 l 0,3.836 a 0.50005,0.50005 0 0 0 0,0.164 l 0,12.418 -1,0 0,-17.4219 a 0.50005,0.50005 0 0 0 0,-0.1601 l 0,-3.8399 a 0.50005,0.50005 0 0 0 0,-0.1601 l 0,-2.418 z m -10.7929692,3 9.7929692,0 0,3 -9.7929692,0 -1.5,-1.5 1.5,-1.5 z m 12.7929692,5 9.792969,0 1.5,1.5 -1.5,1.5 -9.792969,0 0,-3 z m -5.5,17 8,0 0,1 -8,0 0,-1 z" color="#000" font-family="sans-serif" font-weight="400" overflow="visible" white-space="normal"/></g></svg>