<svg xmlns="http://www.w3.org/2000/svg" xmlns:xlink="http://www.w3.org/1999/xlink" width="42" height="42" viewBox="0 0 42 42"><defs><linearGradient id="b" x1="906.952" x2="931.379" y1="515.915" y2="546.094" gradientTransform="translate(-1215.129 316.47) scale(1.34562)" gradientUnits="userSpaceOnUse" xlink:href="#a"/><linearGradient id="a"><stop offset="0" stop-color="#ffd800"/><stop offset="1" stop-color="#ff6100"/></linearGradient></defs><g transform="translate(0 -1010.362)"><rect width="42" height="42" y="1010.362" fill="url(#b)" rx="8.876" ry="8.876"/><path style="line-height:normal;text-indent:0;text-align:start;text-decoration-line:none;text-decoration-style:solid;text-decoration-color:#000;text-transform:none;block-progression:tb;isolation:auto;mix-blend-mode:normal" fill="#fff" fill-rule="evenodd" d="m 22.306639,1016.3202 -0.03125,0.4649 c -0.01033,0.1581 -0.08433,0.2684 -0.246094,0.3828 -0.161767,0.1144 -0.407689,0.1964 -0.625,0.2109 l -2.183594,0 c -1.503041,0 -2.722656,1.2381 -2.722656,2.75 l 0,2 c 0,0.077 0.002,0.099 0.002,0.023 -6.2e-5,-0.044 -0.002,-0.057 -0.002,0.025 l 0,0.8555 c -0.0041,0.037 -0.0041,0.074 0,0.1113 l 0,1.7324 c 0,1.0992 0.401605,2.0955 1.044922,2.8829 l 0,2.1035 -0.03125,0.1152 -4.554687,2.6563 c -1.224977,0.7018 -1.980469,2.0079 -1.980469,3.4199 l 0,9.4531 0.06641,0 c -0.02443,0.2853 -0.04297,0.5736 -0.04297,0.8652 l 1,0 c 3.3e-5,-4.99 4.024192,-9.0234 9,-9.0234 4.975808,0 8.999967,4.0334 9,9.0234 l 1,0 c -2e-6,-0.2929 -0.01832,-0.5825 -0.04297,-0.8691 l 0.06641,0 0,-9.5469 c 0,-1.3542 -0.724325,-2.6054 -1.898438,-3.2793 l -0.0039,0 -4.564453,-2.7168 0,-2.3242 c 0.584292,-0.768 0.945312,-1.7177 0.945312,-2.7598 l 0,-2.6992 c 0,-0.065 -0.0015,-0.06 -0.002,-0.021 1.74e-4,0.033 0.002,0.052 0.002,-0.023 l 0,-2.9629 -0.0039,-0.031 c -0.09894,-0.7599 -0.332251,-1.4533 -0.783203,-1.9785 -0.450953,-0.5252 -1.13509,-0.8418 -1.94336,-0.8379 l 0,0 z m 0.648437,1.0742 c 0.425776,0.043 0.767771,0.1456 1,0.416 0.271679,0.3165 0.463444,0.8178 0.546875,1.4454 l 0,2.875 c 0,-0.071 -0.0012,-0.053 -0.002,0.017 0,0.091 0.002,0.082 0.002,0.025 l 0,0.1094 c -0.208357,-0.1013 -0.424553,-0.1806 -0.642578,-0.2207 -0.59531,-0.1095 -1.202539,-0.063 -1.78125,-0.039 -0.57871,0.024 -1.123763,0.027 -1.5625,-0.094 -0.438737,-0.1212 -0.775456,-0.3301 -1.066406,-0.834 -0.09413,-0.1637 -0.272416,-0.2604 -0.460938,-0.25 -0.215997,0.012 -0.399632,0.162 -0.455078,0.3711 0.01816,-0.068 -0.05777,0.105 -0.193359,0.2656 -0.135592,0.1606 -0.324191,0.3513 -0.521485,0.5274 -0.109581,0.098 -0.212199,0.1654 -0.320312,0.248 l 0,-0.084 c 0,0.073 0.0016,0.05 0.002,-0.023 0,-0.091 -0.002,-0.081 -0.002,-0.024 l 0,-2 c 0,-0.9818 0.763038,-1.75 1.722656,-1.75 l 2.232422,0 0.01758,0 c 0.392689,-0.026 0.793182,-0.1496 1.136719,-0.3925 0.17876,-0.1264 0.227198,-0.3872 0.347654,-0.5899 z m -3.800781,4.6465 c 0.349383,0.3365 0.677798,0.7367 1.09375,0.8516 0.633543,0.1749 1.278294,0.1557 1.873047,0.1308 0.594752,-0.025 1.143464,-0.054 1.55664,0.022 0.378935,0.07 0.621457,0.1941 0.824219,0.4981 l 0,1.33 c 0,1.9791 -1.557424,3.5508 -3.501953,3.5508 -1.944517,0 -3.501953,-1.5717 -3.501953,-3.5508 l 0,-1.4121 c 0.09469,-0.048 0.186416,-0.1 0.28125,-0.1601 0.235809,-0.1499 0.476119,-0.3406 0.705078,-0.5449 0.228959,-0.2044 0.443916,-0.4215 0.619142,-0.629 0.02294,-0.027 0.02902,-0.06 0.05078,-0.086 z m 4.402344,6.5762 0,1.8789 c -0.428099,0.7817 -0.777332,1.6165 -1.712891,2.4141 l -0.832031,0.7753 -0.833985,-0.8144 c -0.665397,-0.7222 -1.296811,-1.5714 -1.634765,-2.3848 l 0,-1.8027 c 0.707037,0.4676 1.548599,0.7441 2.457031,0.7441 0.951449,0 1.830004,-0.3015 2.556641,-0.8105 z m -6.416016,2.7363 -0.638672,2.3652 -0.0039,0.033 c -0.09405,0.7782 0.738824,1.4307 1.457031,1.0899 l 0.0039,0 1.859375,-0.9238 0.681642,0.664 0,1.793 c -1.840227,0.092 -3.550451,0.6739 -4.998047,1.6328 l 0,-0.6269 -1,0 0,1.3867 c -1.058659,0.9099 -1.91942,2.0369 -2.525391,3.3125 l 0,-6.0254 c 0,-1.0562 0.563397,-2.0306 1.480469,-2.5547 l 0.002,0 z m 7.835938,0.024 3.642579,2.166 0.0039,0 c 0.86764,0.4958 1.40039,1.4146 1.400391,2.414 l 0,6.1231 c -0.601761,-1.2668 -1.455251,-2.3864 -2.503907,-3.293 l 0,-1.4062 -1,0 0,0.6406 c -1.449534,-0.9655 -3.16426,-1.5527 -5.009766,-1.6465 l 0,-1.7871 0.728516,-0.6777 1.96875,0.9335 0.0039,0 c 0.728031,0.3299 1.58281,-0.3007 1.482421,-1.0937 l -0.0059,-0.045 -0.01367,-0.045 c 0,0 -0.265381,-0.826 -0.519531,-1.67 -0.06653,-0.2208 -0.117674,-0.4053 -0.177734,-0.6132 z m -6.845704,0.1406 c 0.316986,0.564 0.620091,1.1188 1.037111,1.6035 l -1.642578,0.8164 c -0.03431,0.016 -0.03741,0 -0.03125,-0.061 z m 5.902344,0.1972 c 0.05625,0.1942 0.103347,0.3668 0.164063,0.5684 0.244659,0.8124 0.473514,1.5249 0.498046,1.6016 0.0028,0.054 -0.01335,0.077 -0.07031,0.051 l -1.691406,-0.8007 c 0.457428,-0.5009 0.855112,-0.9674 1.099607,-1.42 z m -3.533203,6.4356 0,1.2402 1,0 0,-1.2402 z m -1.126953,0.1445 -0.964844,0.2598 0.324219,1.1992 0.964844,-0.2617 z m 3.255859,0 -0.326172,1.1973 0.964844,0.2617 0.326172,-1.1992 z m 2.015625,0.7031 -0.626953,1.0743 0.863281,0.5039 0.628908,-1.0743 z m -7.289062,0.021 -0.863281,0.5039 0.626953,1.0742 0.863281,-0.5039 z m 9.058594,1.1465 -0.886718,0.877 0.703125,0.7109 0.886719,-0.877 z m -10.828124,0.039 -0.703126,0.7109 0.886719,0.877 0.703124,-0.711 z m 2.792967,1.0117 c -0.35387,-3e-4 -0.596115,0.3569 -0.464843,0.6855 l 1.626954,4.0743 c 0.01266,0.031 0.02837,0.06 0.04687,0.088 -1.29e-4,7e-4 1.29e-4,0 0,0 -0.01943,0.093 -0.0293,0.1907 -0.0293,0.2891 l 1,0 c 3e-6,-0.2408 0.189141,-0.4317 0.441413,-0.4317 0.252273,0 0.441411,0.1909 0.441406,0.4317 l 1,0 c 1.2e-5,-0.5741 -0.424254,-1.1337 -0.917968,-1.3614 -0.437436,-0.3796 0.07422,0.062 -0.374999,-0.33 l 0.375,0.332 -2.751954,-3.5899 c -0.095,-0.1198 -0.239632,-0.1896 -0.392578,-0.1894 z m 9.435547,0.5195 -1.08789,0.6211 0.496093,0.8672 1.085938,-0.6191 z m -13.626952,0.064 -0.496094,0.8691 1.085937,0.6211 0.496094,-0.8691 z m 14.560546,1.7539 -1.210938,0.3203 0.25586,0.9668 1.210937,-0.3203 z m -15.496093,0.1426 -0.25586,0.9668 1.212891,0.3222 0.255859,-0.9668 z m 6.874999,1.0488 0.253906,0.3223 c -0.03539,0.017 -0.06976,0.037 -0.103514,0.057 z m -7.279296,0.6582 0,1 1.253906,0 0,-1 z m 15.052734,0 0,1 1.253906,0 0,-1 z" color="#000" font-family="sans-serif" font-weight="400" overflow="visible" white-space="normal"/></g></svg>