<svg xmlns="http://www.w3.org/2000/svg" xmlns:xlink="http://www.w3.org/1999/xlink" width="42" height="42" viewBox="0 0 42 42"><defs><linearGradient id="b" x1="949.87" x2="974.39" y1="518.014" y2="544.657" gradientTransform="translate(-1272.559 316.47) scale(1.34562)" gradientUnits="userSpaceOnUse" xlink:href="#a"/><linearGradient id="a"><stop offset="0" stop-color="#24f7bc"/><stop offset="1" stop-color="#24c4fc"/></linearGradient></defs><g transform="translate(0 -1010.362)"><rect width="42" height="42" y="1010.362" fill="url(#b)" rx="8.876" ry="8.876"/><path style="line-height:normal;text-indent:0;text-align:start;text-decoration-line:none;text-decoration-style:solid;text-decoration-color:#000;text-transform:none;block-progression:tb;isolation:auto;mix-blend-mode:normal" fill="#fff" fill-rule="evenodd" d="m 21.078125,1016.3493 c -3.160532,0 -5.720703,2.5597 -5.720703,5.7187 l 0,10.4317 -0.826172,0.4843 c -0.345386,0.2022 -0.902989,0.5118 -1.275391,0.8985 -0.590125,0.6129 -0.966813,1.427 -1.076172,2.3086 -0.0408,0.3281 -0.0332,0.7461 -0.0332,1.0019 l 0,4.5078 c -0.729137,1.3906 -1.146491,2.9707 -1.146484,4.6485 l 1,0 c -6e-6,-1.5987 0.417528,-3.0973 1.142578,-4.3985 l 0.0039,0 0,-0.01 c 1.539013,-2.7567 4.474324,-4.6191 7.853512,-4.6191 3.380147,0 6.316811,1.8631 7.855469,4.6211 l 0,0 c 0.725862,1.3017 1.144537,2.8007 1.144531,4.4004 l 1,0 c 7e-6,-1.6763 -0.416656,-3.2549 -1.144531,-4.6446 l 0,-5.0312 c 0,-0.024 -0.0016,-0.064 -0.002,-0.096 -0.01375,-1.1298 -0.482585,-2.1885 -1.289063,-2.8887 -0.243389,-0.2115 -0.561603,-0.3942 -0.765625,-0.5136 l -1,-0.586 0,-10.5215 c 0,-2.1324 -1.161427,-3.9952 -2.892578,-4.9765 -0.122128,-0.069 -0.248609,-0.1348 -0.376906,-0.1953 l -0.002,0 c -0.109462,-0.051 -0.223519,-0.1018 -0.34175,-0.1485 -0.65222,-0.2569 -1.364121,-0.3984 -2.107422,-0.3984 z m 0,1 c 0.617167,0 1.202665,0.1163 1.740234,0.3281 0.09461,0.037 0.190958,0.08 0.28711,0.125 0.104091,0.049 0.206335,0.1013 0.30664,0.1582 1.427379,0.8091 2.386719,2.3375 2.386719,4.1074 l 0,9.9375 -1.480469,-0.8672 c -0.458649,-0.2685 -0.740234,-0.7562 -0.740234,-1.2871 l 0,-1.3691 c 0.03825,-0.048 0.08472,-0.089 0.121094,-0.1387 0.631252,-0.8677 1.009765,-1.9771 1.009765,-3.0762 l 0,-2.3593 c 0,-0.033 2.44e-4,-0.038 0,-0.02 1.92e-4,0.01 0,0.023 0,-0.021 l -0.0039,-1.0332 c -5.59e-4,-0.2268 -0.153685,-0.4249 -0.373047,-0.4825 -0.607769,-0.1593 -1.143867,-0.3614 -1.52539,-0.6933 -0.09233,-0.08 -0.217966,-0.077 -0.328125,-0.1211 l -0.0059,0 c -0.133183,-0.053 -0.254217,-0.1446 -0.396484,-0.1446 l 0,-0.01 c -0.262259,0 -0.525107,0.089 -0.730469,0.2676 -0.183402,0.1594 -0.748731,0.2957 -1.410156,0.3105 -0.661426,0.015 -1.390298,-0.051 -1.962891,-0.051 -0.258069,-10e-5 -0.47383,0.1962 -0.498047,0.4532 l -0.02734,0.2949 c -0.0014,0.016 -0.0021,0.033 -0.002,0.049 l 0,1.1543 c 1e-6,0.04 0.002,0.062 0.002,0.022 -9.8e-5,-0.016 -0.002,-0.033 -0.002,0.021 l 0,2.3593 c 0,1.0713 0.365977,2.1484 0.96875,3.0059 l 0,1.0996 c 0,0.8298 -0.439518,1.5941 -1.15625,2.0137 l -0.90039,0.5273 0,-9.8457 c 0,-2.6219 2.096527,-4.7187 4.720703,-4.7187 z m 0.998047,4.0195 c 0.02165,0 0.04331,0.014 0.07422,0.041 0.461677,0.4017 1.016461,0.5652 1.55664,0.7305 l 0.002,0.7266 c -1.25e-4,-0.024 2.04e-4,-0.016 0,0.017 l 0,0.022 0,2.3594 c 0,0.8616 -0.317327,1.7995 -0.818359,2.4883 -0.501032,0.6887 -1.149993,1.1054 -1.8125,1.1054 -0.662497,0 -1.311465,-0.4167 -1.8125,-1.1054 -0.501035,-0.6888 -0.820313,-1.6267 -0.820313,-2.4883 l 0,-2.3594 c 0,0.047 0.0018,0.02 0.002,-0.019 0,-0.055 -0.002,-0.037 -0.002,-0.022 l 0,-0.9375 c 0.457797,0.017 0.949085,0.048 1.511719,0.035 0.73855,-0.016 1.490718,-0.073 2.044922,-0.5547 l 0,0 c 0.03093,-0.027 0.05257,-0.041 0.07422,-0.041 z m -2.66211,7.9121 c 0.489699,0.3484 1.046664,0.5801 1.664063,0.5801 0.546136,0 1.051514,-0.1711 1.5,-0.4512 l 0,0.4453 c 0,0.8846 0.470757,1.7034 1.234375,2.1504 l 0.542969,0.3184 c -0.626807,1.2456 -1.905124,2.0431 -3.322266,2.0254 -1.414792,-0.018 -2.670683,-0.8443 -3.267578,-2.1016 1.020225,-0.5985 1.648437,-1.6924 1.648437,-2.875 z m -2.513671,3.4746 c 0.773916,1.5528 2.353304,2.5717 4.11914,2.5938 1.777268,0.022 3.389698,-0.9714 4.197266,-2.5215 l 2.076172,1.2148 c 0.191928,0.1123 0.512549,0.3151 0.615234,0.4043 0.57235,0.497 0.934875,1.2869 0.945313,2.1446 2.19e-4,0.018 0.002,0.058 0.002,0.082 l 0,3.4902 C 27.023547,1037.8308 24.1876,1036.3258 21,1036.3258 c -3.186621,0 -6.021536,1.5043 -7.853516,3.836 l 0,-2.9688 c 0,-0.2639 0.0021,-0.6913 0.02539,-0.8789 0.08383,-0.6758 0.374739,-1.2898 0.804688,-1.7363 0.174174,-0.1809 0.724269,-0.5336 1.060546,-0.7305 z m 3.599609,5.3711 0,1.2403 1,0 0,-1.2403 z m -1.126953,0.1446 -0.964844,0.2617 0.324219,1.1972 0.964844,-0.2617 z m 3.255859,0 -0.326172,1.1972 0.964844,0.2617 0.326172,-1.1972 z m 2.015625,0.7031 -0.626953,1.0742 0.863281,0.5039 0.628907,-1.0742 z m -7.289062,0.021 -0.863281,0.5039 0.626953,1.0761 0.863281,-0.5039 z m 9.058593,1.1464 -0.886718,0.8789 0.703125,0.711 0.886719,-0.8789 z m -10.828124,0.039 -0.703126,0.7109 0.886719,0.877 0.703125,-0.7109 z m 2.792968,1.0117 c -0.35387,-3e-4 -0.596115,0.3569 -0.464844,0.6856 l 1.626954,4.0742 c 0.01266,0.031 0.02837,0.06 0.04687,0.088 -1.3e-4,6e-4 1.28e-4,0 0,0 -0.01943,0.093 -0.0293,0.1907 -0.0293,0.289 l 1,0 c -5e-6,-0.2408 0.189133,-0.4296 0.441406,-0.4296 0.252273,0 0.441411,0.1888 0.441406,0.4296 l 1,0 c 1.1e-5,-0.574 -0.350035,-1.0697 -0.84375,-1.2968 -0.04606,-0.2164 -0.252163,-0.3182 -0.449218,-0.3946 l 0.199219,0.078 -2.576173,-3.336 c -0.095,-0.1198 -0.239632,-0.1896 -0.392578,-0.1894 z m 9.435547,0.5196 -1.087891,0.621 0.496094,0.8692 1.085938,-0.6211 z m -13.626953,0.066 -0.496094,0.8672 1.085938,0.621 0.496094,-0.8691 z m 14.560547,1.7519 -1.210938,0.3223 0.25586,0.9668 1.210937,-0.3223 z m -15.496094,0.1426 -0.255859,0.9668 1.21289,0.3223 0.25586,-0.9668 z m 6.875,1.0488 0.255859,0.3242 c -0.03513,0.017 -0.06999,0.035 -0.103515,0.055 z m -7.279297,0.6602 0,1 1.253906,0 0,-1 z m 15.052735,0 0,1 1.253906,0 0,-1 z" color="#000" font-family="sans-serif" font-weight="400" overflow="visible" white-space="normal"/></g></svg>