<svg xmlns="http://www.w3.org/2000/svg" xmlns:xlink="http://www.w3.org/1999/xlink" width="42" height="42" viewBox="0 0 42 42"><defs><linearGradient id="b" x1="1073.403" x2="1097.116" y1="516.451" y2="544.308" gradientTransform="translate(-1438.388 316.47) scale(1.34562)" gradientUnits="userSpaceOnUse" xlink:href="#a"/><linearGradient id="a"><stop offset="0" stop-color="#16ff6a"/><stop offset="1" stop-color="#0090a5"/></linearGradient></defs><g transform="translate(0 -1010.362)"><rect width="42" height="42" y="1010.362" fill="url(#b)" rx="8.876" ry="8.876"/><path style="line-height:normal;text-indent:0;text-align:start;text-decoration-line:none;text-decoration-style:solid;text-decoration-color:#000;text-transform:none;block-progression:tb;isolation:auto;mix-blend-mode:normal" fill="#fff" d="m 11.495442,1017.3612 c -0.276131,0 -0.499972,0.2239 -0.5,0.5 l 0,5.9922 c -0.0096,0.6762 1.009563,0.6762 1,0 l 0,-5.4922 14.000001,0 0,3.502 a 0.50005,0.50005 0 0 0 0.5,0.5 l 3.5,0 0,2.4922 0,0.096 c -0.0096,0.6762 1.009563,0.6762 1,0 l 0,-0.096 0,-2.961 c 3.2e-5,0 -0.0019,0 -0.002,-0.01 a 0.50005,0.50005 0 0 0 -0.144485,-0.3769 l -4,-4 a 0.50005,0.50005 0 0 0 -0.361328,-0.1465 0.50005,0.50005 0 0 0 -0.08984,0.01 c -0.02075,0 -0.03639,-0.01 -0.0586,-0.01 l -14.843751,0 z m 15.500001,1.709 2.292968,2.293 -2.292968,0 0,-2.293 z m -12.550782,1.293 a 0.50064427,0.50064427 0 1 0 0.05078,1 l 1.000001,0 a 0.50005,0.50005 0 1 0 0,-1 l -1.000001,0 a 0.50005,0.50005 0 0 0 -0.05078,0 z m 3.015626,0 a 0.50064426,0.50064426 0 1 0 0.05078,1 l 3.976562,0 a 0.50005,0.50005 0 1 0 0,-1 l -3.976562,0 a 0.50005,0.50005 0 0 0 -0.05078,0 z m -3.015626,2 a 0.50064427,0.50064427 0 1 0 0.05078,1 l 1.000001,0 a 0.50005,0.50005 0 1 0 0,-1 l -1.000001,0 a 0.50005,0.50005 0 0 0 -0.05078,0 z m 3.015626,0 a 0.50064426,0.50064426 0 1 0 0.05078,1 l 3.976562,0 a 0.50005,0.50005 0 1 0 0,-1 l -3.976562,0 a 0.50005,0.50005 0 0 0 -0.05078,0 z m 14.99414,1.3984 a 0.50064426,0.50064426 0 0 0 0.05078,1 l 0.269532,0 -3.404297,3.5137 -3.695313,-1.4355 a 0.50005,0.50005 0 0 0 -0.472656,0.059 l -4.996094,3.5567 a 0.50005,0.50005 0 1 0 0.578125,0.8144 l 4.779297,-3.3984 3.753906,1.457 a 0.50005,0.50005 0 0 0 0.541016,-0.1172 l 3.640626,-3.7583 0,0.3028 a 0.50005,0.50005 0 1 0 1,0 l 0,-1.4942 a 0.50005,0.50005 0 0 0 -0.5,-0.5 l -1.494141,0 a 0.50005,0.50005 0 0 0 -0.05078,0 z m -13.966797,0.5938 a 0.50004997,0.50004997 0 0 0 -0.492187,0.5058 l 0,13 a 0.50004997,0.50004997 0 0 0 0.345703,0.4746 0.50004997,0.50004997 0 0 0 0.04883,0.014 0.50004997,0.50004997 0 0 0 0.09961,0.012 0.50004997,0.50004997 0 0 0 0.0059,0 l 17,0 a 0.50004997,0.50004997 0 1 0 0,-1 l -0.5,0 0,-9.5 a 0.50005,0.50005 0 0 0 -0.5,-0.5 l -2,0 a 0.50005,0.50005 0 0 0 -0.5,0.5 l 0,9.5 -1,0 0,-6.5 a 0.50004997,0.50004997 0 0 0 -0.5,-0.5 l -2,0 a 0.50004997,0.50004997 0 0 0 -0.5,0.5 l 0,6.5 -1,0 0,-7.5019 a 0.50005,0.50005 0 0 0 -0.5,-0.5 l -2,0 a 0.50005,0.50005 0 0 0 -0.5,0.5 l 0,7.5019 -1,0 0,-4.5 a 0.50005,0.50005 0 0 0 -0.5,-0.5 l -2,0 a 0.50005,0.50005 0 0 0 -0.5,0.5 l 0,4.5 -1,0 0,-12.5 a 0.50004997,0.50004997 0 0 0 -0.507856,-0.5058 z m -6.572266,0.9375 -0.0293,0.4648 c 2.36e-4,0 0.0179,-0.019 -0.01758,0.01 -0.03435,0.024 -0.115965,0.053 -0.179687,0.059 l -1.080078,0 c -0.8883946,0 -1.6132818,0.7391 -1.6132817,1.6289 l 0,1.0039 c -1e-7,0 0.00191,0.01 0.00195,0.012 -1.917e-4,0 -0.00195,0.012 -0.00195,0.012 l 0,0.3984 a 0.50005,0.50005 0 0 0 0,0.1133 l 0,0.8418 c -1e-7,0.5637 0.1908185,1.0812 0.5019531,1.5039 l 0,0.9687 -2.3398438,1.3399 c -0.7182565,0.4118 -1.1601562,1.1792 -1.1601562,2.0078 l 0,2.707 11.0019536,0 0,-2.7539 c 0,-0.7986 -0.428726,-1.5387 -1.121094,-1.9356 l -2.38086,-1.3652 0,-0.9668 c 0.311268,-0.4238 0.501954,-0.9411 0.501954,-1.505 l 0,-1.3535 c 0,0 -0.0019,-0.012 -0.002,-0.014 2.52e-4,0 0.002,-0.014 0.002,-0.014 l 0,-1.5019 -0.0039,-0.033 c -0.05353,-0.4126 -0.179574,-0.806 -0.449215,-1.1211 -0.269642,-0.3152 -0.698988,-0.5101 -1.164063,-0.5078 l -0.466797,0 z m 0.65625,1.0644 0,0.01 c 0.0679,0.026 0.164823,0.028 0.214844,0.086 0.09088,0.1062 0.174523,0.3098 0.212891,0.5879 l 0,1.1464 c -0.0084,0 -0.01708,-0.01 -0.02539,-0.01 -0.343485,-0.063 -0.6619,-0.033 -0.947266,-0.021 -0.285366,0.012 -0.534604,0.01 -0.705078,-0.037 -0.170475,-0.047 -0.26779,-0.1029 -0.382813,-0.3028 a 0.50005,0.50005 0 0 0 -0.458984,-0.25 l 0,0 a 0.50005,0.50005 0 0 0 -0.457031,0.3692 c 0.02707,-0.1014 0.01,-0.05 -0.027344,0.01 l 0,-0.4961 c 0,-0.3616 0.2700944,-0.6289 0.6132814,-0.6289 l 1.125,0 0.01563,0 c 0.240455,-0.016 0.48004,-0.09 0.697265,-0.2442 0.06182,-0.044 0.06983,-0.1532 0.125,-0.2148 z m 20.423829,2.0039 1,0 0,8.9864 -1,0 0,-8.9864 z m -23.988282,0.022 c -0.00174,0.01 -0.00761,0.056 -0.00977,0.08 1.013e-4,-0.011 0.00149,-0.03 0.00586,-0.059 0.0024,-0.016 0.00611,-0.033 0.00391,-0.021 z m 4.990234,0.1016 c -2.44e-4,0.011 -1.68e-4,0.026 -0.0039,0.051 -0.0023,0.015 -0.0061,0.032 -0.0039,0.021 0.0016,-0.01 0.0055,-0.046 0.0078,-0.072 z m -3.378906,0.2539 c 0.153976,0.1052 0.273466,0.2948 0.435547,0.3398 0.365775,0.1014 0.712186,0.087 1.013672,0.074 0.301486,-0.013 0.563748,-0.022 0.724609,0.01 0.112339,0.021 0.162188,0.048 0.207032,0.096 l 0,0.5762 c 0,0.8621 -0.666305,1.5332 -1.501954,1.5332 -0.835642,0 -1.5019528,-0.6711 -1.5019527,-1.5332 l 0,-0.5664 c 0.00818,-0.01 0.017045,-0.01 0.025391,-0.016 0.134467,-0.086 0.262366,-0.1873 0.384766,-0.2969 0.07782,-0.07 0.143905,-0.1438 0.212891,-0.2168 z m 14.376954,1.6211 1,0 0,6.9883 -1,0 0,-6.9883 z m 4,1.0019 1,0 0,5.9864 -1,0 0,-5.9864 z m -18.498048,0.793 c 0.306994,0.1369 0.643522,0.2148 1,0.2148 0.35648,2e-4 0.693006,-0.078 1,-0.2148 l 0,0.4863 c -0.210714,0.3939 -0.441614,0.7856 -0.75,1.0469 l -0.0098,0.01 -0.236323,0.2207 -0.183594,-0.1739 -0.175781,-0.1718 c -0.333933,-0.3559 -0.504351,-0.6377 -0.644532,-1.0274 l 0,-0.3906 z m -0.7539059,1.166 c 0.1751148,0.3348 0.3938809,0.6397 0.6757809,0.9395 l 0.0059,0.01 0.199219,0.1953 0.373047,0.3515 0,2.5469 -3.9999999,0 0,-1.707 c 0,-0.4725 0.2505398,-0.905 0.6582031,-1.1387 l 2.0878906,-1.1972 z m 3.5195309,0.01 2.119141,1.2149 c 0.381663,0.2141 0.617188,0.6212 0.617188,1.0637 l 0,1.7539 -3.996094,0 0,-2.5449 0.390625,-0.3653 c 0.403999,-0.3424 0.657192,-0.7448 0.86914,-1.1269 z m 7.732423,0.035 1,0 0,3.9864 -1,0 0,-3.9864 z m 0.451172,6.002 a 0.50059574,0.50059574 0 0 0 0.04883,1 l 10.996094,0 a 0.50005,0.50005 0 1 0 0,-1 l -10.996094,0 a 0.50005,0.50005 0 0 0 -0.04883,0 z m -9.958985,0.01 c -0.27618,0 -0.496557,0.2317 -0.492188,0.5078 l 0,4.9844 c 2.8e-5,0.2761 0.223869,0.5 0.5,0.5 l 4.187501,0 5.310547,0 9.501953,0 c 0.276131,0 0.499972,-0.2239 0.5,-0.5 l 0,-3.002 c 0.0096,-0.6762 -1.009563,-0.6762 -1,0 l 0,2.502 -9.001953,0 -5.310547,0 -3.687501,0 0,-4.4844 c 0.0045,-0.2823 -0.225511,-0.5122 -0.507812,-0.5078 z" color="#000" font-family="sans-serif" font-weight="400" overflow="visible" white-space="normal"/></g></svg>