<svg xmlns="http://www.w3.org/2000/svg" xmlns:xlink="http://www.w3.org/1999/xlink" width="42" height="42" viewBox="0 0 42 42"><defs><linearGradient id="b" x1="868.253" x2="937.656" y1="521.354" y2="588.736" gradientTransform="translate(-1161.097 316.47) scale(1.34562)" gradientUnits="userSpaceOnUse" xlink:href="#a"/><linearGradient id="a"><stop offset="0" stop-color="#24f3d2"/><stop offset=".394" stop-color="#0674f0"/><stop offset=".507" stop-color="#6961b5"/><stop offset=".813" stop-color="#f34660"/><stop offset="1" stop-color="#ee078d"/></linearGradient></defs><g transform="translate(0 -1010.362)"><rect width="42" height="42" y="1010.362" fill="url(#b)" rx="8.876" ry="8.876"/><path fill="#fff" style="line-height:normal;text-indent:0;text-align:start;text-decoration-line:none;text-decoration-style:solid;text-decoration-color:#000;text-transform:none;block-progression:tb;isolation:auto;mix-blend-mode:normal" d="m 11.494086,1017.3612 c -0.27613,0 -0.499972,0.2239 -0.5,0.5 l 0,3.9883 c -0.0096,0.6762 1.009563,0.6762 1,0 l 0,-3.4883 14.000001,0 0,3.502 a 0.50005,0.50005 0 0 0 0.5,0.5 l 3.5,0 0,2.4922 0,0.096 c -0.0096,0.6762 1.009563,0.6762 1,0 l 0,-0.096 0,-2.961 c 3.2e-5,0 -0.0019,0 -0.002,-0.01 a 0.50005,0.50005 0 0 0 -0.144485,-0.3769 l -4,-4 a 0.50005,0.50005 0 0 0 -0.361328,-0.1465 0.50005,0.50005 0 0 0 -0.08984,0.01 c -0.02075,0 -0.03639,-0.01 -0.0586,-0.01 l -14.843751,0 z m 15.500001,1.709 2.292968,2.293 -2.292968,0 0,-2.293 z m -12.548829,1.293 a 0.50059569,0.50059569 0 0 0 0.04883,1 l 1.000001,0 a 0.50005,0.50005 0 1 0 0,-1 l -1.000001,0 a 0.50005,0.50005 0 0 0 -0.04883,0 z m 3.013672,0 a 0.50064429,0.50064429 0 1 0 0.05078,1 l 3.976562,0 a 0.50005,0.50005 0 1 0 0,-1 l -3.976562,0 a 0.50005,0.50005 0 0 0 -0.05078,0 z m -3.013672,2 a 0.50059569,0.50059569 0 0 0 0.04883,1 l 1.000001,0 a 0.50005,0.50005 0 1 0 0,-1 l -1.000001,0 a 0.50005,0.50005 0 0 0 -0.04883,0 z m 3.013672,0 a 0.50064429,0.50064429 0 1 0 0.05078,1 l 3.976562,0 a 0.50005,0.50005 0 1 0 0,-1 l -3.976562,0 a 0.50005,0.50005 0 0 0 -0.05078,0 z m -5.914062,1.0137 c -2.1535278,0 -3.8984378,1.7628 -3.8984378,3.9277 l 0,6.5547 -0.1230469,0.072 c -0.2086266,0.1236 -0.5446308,0.3029 -0.8066406,0.5782 -0.3847664,0.4042 -0.6269867,0.9346 -0.6972657,1.5078 -0.027969,0.2264 -0.019531,0.478 -0.019531,0.631 l 0,2.7129 10.9980472,0 0,-3.0254 c 0,-0.014 2.62e-4,-0.041 0,-0.062 -0.0089,-0.7362 -0.31064,-1.4277 -0.839844,-1.8925 -0.173417,-0.1524 -0.362893,-0.2599 -0.488281,-0.334 l -0.226563,-0.1348 0,-6.6113 c 0,-1.4603 -0.789674,-2.7406 -1.96875,-3.416 l -0.002,0 c -0.08611,-0.049 -0.171234,-0.091 -0.251953,-0.1309 l -0.0019,0 c -0.07636,-0.036 -0.157508,-0.071 -0.240241,-0.1035 -0.443358,-0.1752 -0.92811,-0.2734 -1.433593,-0.2734 z m 20.910156,0.3847 a 0.50064426,0.50064426 0 0 0 0.05078,1 l 0.267579,0 -3.404297,3.5137 -3.695313,-1.4356 a 0.50005,0.50005 0 0 0 -0.470703,0.059 l -4.998047,3.5567 a 0.50005,0.50005 0 1 0 0.580078,0.8144 l 4.777344,-3.3984 3.753906,1.457 a 0.50005,0.50005 0 0 0 0.541016,-0.1172 l 3.640625,-3.7578 0,0.3028 a 0.50005,0.50005 0 1 0 1,0 l 0,-1.4942 a 0.50005,0.50005 0 0 0 -0.5,-0.5 l -1.492188,0 a 0.50005,0.50005 0 0 0 -0.05078,0 z m -13.96875,0.5938 a 0.50004997,0.50004997 0 0 0 -0.492187,0.5058 l 0,13 a 0.50004997,0.50004997 0 0 0 0.345703,0.4746 0.50004997,0.50004997 0 0 0 0.04883,0.014 0.50004997,0.50004997 0 0 0 0.09961,0.012 0.50004997,0.50004997 0 0 0 0.0059,0 l 17,0 a 0.50004997,0.50004997 0 1 0 0,-1 l -0.5,0 0,-9.5 a 0.50005,0.50005 0 0 0 -0.5,-0.5 l -2,0 a 0.50005,0.50005 0 0 0 -0.5,0.5 l 0,9.5 -1,0 0,-6.5 a 0.50004997,0.50004997 0 0 0 -0.5,-0.5 l -2,0 a 0.50004997,0.50004997 0 0 0 -0.5,0.5 l 0,6.5 -1,0 0,-7.5019 a 0.50005,0.50005 0 0 0 -0.5,-0.5 l -2,0 a 0.50005,0.50005 0 0 0 -0.5,0.5 l 0,7.5019 -1,0 0,-4.5 a 0.50005,0.50005 0 0 0 -0.5,-0.5 l -2,0 a 0.50005,0.50005 0 0 0 -0.5,0.5 l 0,4.5 -1,0 0,-12.5 a 0.50004997,0.50004997 0 0 0 -0.507856,-0.5058 z m -6.941406,0.022 c 0.378847,0 0.738126,0.072 1.068359,0.2031 l 0.0019,0 0.002,0 c 0.05587,0.022 0.112394,0.045 0.169922,0.072 0.06867,0.034 0.132257,0.067 0.189453,0.1 0.875818,0.5009 1.466797,1.4468 1.466797,2.5488 l 0,6.0195 -0.855469,-0.5078 c -0.212922,-0.1261 -0.345697,-0.3576 -0.345697,-0.6113 l 0,-0.7559 c 0.01078,-0.014 0.02464,-0.026 0.03516,-0.041 0.403206,-0.5606 0.642578,-1.2657 0.642578,-1.9766 l 0,-1.4277 c 0,-0.026 1.44e-4,-0.036 0,-0.01 1.02e-4,0.014 0,0.045 0,-0.014 l -0.002,-0.625 a 0.50004997,0.50004997 0 0 0 -0.373049,-0.4824 c -0.352573,-0.093 -0.641604,-0.2074 -0.832032,-0.375 l 0,0 a 0.50004997,0.50004997 0 0 0 -0.171875,-0.1 c -0.308777,-0.1581 -0.703992,-0.133 -0.96875,0.1 -0.03595,0.032 -0.334941,0.1281 -0.714843,0.1368 -0.379903,0.01 -0.810562,-0.029 -1.1699222,-0.029 a 0.50004997,0.50004997 0 0 0 -0.4980469,0.4531 l -0.015625,0.1797 a 0.50004997,0.50004997 0 0 0 -0.00391,0.045 l 0,0.6992 c 0,0.031 0.00195,0.08 0.00195,0.014 -1.2e-4,-0.015 -0.00195,-0.048 -0.00195,0.012 l 0,1.4277 c 0,0.6696 0.2184566,1.3297 0.5800781,1.8731 l 0,0.6133 c 0,0.4346 -0.2263983,0.8332 -0.59375,1.0507 l -0.5097656,0.3028 0,-5.9629 c 0,-1.6327 1.2860849,-2.9277 2.8984376,-2.9277 z m 0.55664,2.8984 0,0 a 0.50004997,0.50004997 0 0 0 0.195313,0.078 c 0.202355,0.1342 0.409007,0.2255 0.621094,0.2988 l 0.0019,0.3223 c -1.19e-4,-0.025 9.7e-5,-0.015 0,0.01 l 0,0.012 0,1.4278 c 0,0.4761 -0.180657,1.0109 -0.455078,1.3925 -0.274422,0.3816 -0.608063,0.586 -0.919922,0.586 -0.311844,0 -0.645496,-0.2044 -0.919922,-0.586 -0.274427,-0.3816 -0.455078,-0.9164 -0.455078,-1.3925 l 0,-1.4278 c 0,0.064 0.0019,0.018 0.002,-0.012 0,-0.072 -0.002,-0.026 -0.002,-0.016 l 0,-0.3653 c 0.234116,0.01 0.436478,0.026 0.708984,0.02 0.413679,-0.01 0.842668,-0.084 1.222656,-0.3496 z m 20.892579,1.0859 1,0 0,8.9864 -1,0 0,-8.9864 z m -8,1.9981 1,0 0,6.9883 -1,0 0,-6.9883 z m 4,1.0019 1,0 0,5.9864 -1,0 0,-5.9864 z m -18.279297,0.8262 c 0.253718,0.1293 0.52825,0.2188 0.830078,0.2187 0.25279,0 0.483454,-0.069 0.703125,-0.1621 0.01501,0.5866 0.324152,1.1301 0.830078,1.4297 l 0.449219,0.2657 c -0.04427,0.6836 -0.412499,1.3028 -1.00586,1.6386 -0.631806,0.3577 -1.401885,0.3415 -2.019531,-0.041 -0.5734475,-0.3552 -0.9162758,-0.9784 -0.9414063,-1.6543 l 0.1054687,-0.062 c 0.5925696,-0.349 0.9642506,-0.9577 1.0488286,-1.6328 z m 10.279297,1.1738 1,0 0,3.9864 -1,0 0,-3.9864 z m -12.3789068,1.0821 c 0.1700503,0.7972 0.6536176,1.5068 1.3613281,1.9453 0.9253957,0.5731 2.0900637,0.5943 3.0371097,0.059 0.744564,-0.4215 1.260758,-1.138 1.449218,-1.9551 l 0.699219,0.414 c 0.111572,0.066 0.302255,0.1931 0.335938,0.2227 l 0.002,0 c 0.295976,0.26 0.492425,0.6871 0.498047,1.1543 9.8e-5,0.01 0,0.033 0,0.049 l 0,2.0254 -8.9980472,0 0,-1.7129 c 0,-0.1615 0.00109,-0.4218 0.011719,-0.5078 l 0.00195,0 c 0.045321,-0.3696 0.2020207,-0.7042 0.4277343,-0.9414 0.06509,-0.068 0.3924635,-0.2901 0.5917969,-0.4082 l 0.5820313,-0.3437 z m 12.8300778,4.9199 a 0.50059574,0.50059574 0 0 0 0.04883,1 l 10.996093,0 a 0.50005,0.50005 0 1 0 0,-1 l -10.996093,0 a 0.50005,0.50005 0 0 0 -0.04883,0 z m -9.958984,1.0039 c -0.275349,0 -0.495388,0.2305 -0.492188,0.5058 l 0,3.9903 c 2.8e-5,0.2761 0.22387,0.5 0.5,0.5 l 4.187501,0 5.3125,0 9.5,0 c 0.276131,0 0.499972,-0.2239 0.5,-0.5 l 0,-3.002 c 0.0096,-0.6762 -1.009563,-0.6762 -1,0 l 0,2.502 -9,0 -5.3125,0 -3.687501,0 0,-3.4903 c 0.0033,-0.2815 -0.226347,-0.5102 -0.507812,-0.5058 z" color="#000" font-family="sans-serif" font-weight="400" overflow="visible" white-space="normal"/></g></svg>