<svg xmlns="http://www.w3.org/2000/svg" xmlns:xlink="http://www.w3.org/1999/xlink" width="42" height="42" viewBox="0 0 42 42"><defs><linearGradient id="b" x1="906.952" x2="931.379" y1="515.915" y2="546.094" gradientTransform="translate(-1215.129 316.47) scale(1.34562)" gradientUnits="userSpaceOnUse" xlink:href="#a"/><linearGradient id="a"><stop offset="0" stop-color="#ffd800"/><stop offset="1" stop-color="#ff6100"/></linearGradient></defs><g transform="translate(0 -1010.362)"><rect width="42" height="42" y="1010.362" fill="url(#b)" rx="8.876" ry="8.876"/><path style="line-height:normal;text-indent:0;text-align:start;text-decoration-line:none;text-decoration-style:solid;text-decoration-color:#000;text-transform:none;block-progression:tb;isolation:auto;mix-blend-mode:normal" fill="#fff" d="m 18.322265,1015.4768 -0.283203,0.018 -0.04492,0 -0.708985,0.096 0.132813,0.9902 0.6875,-0.092 0.261719,-0.014 -0.04492,-0.998 z m 2.082031,0.07 -0.128906,0.9961 0.453125,0.059 0.488281,0.1074 0.212891,-0.9785 -0.511719,-0.1113 -0.04297,-0.01 -0.470703,-0.062 z m -5.177734,0.5742 -0.810548,0.3301 -0.03906,0.019 -0.109375,0.057 0.457032,0.8906 0.0957,-0.049 0.787109,-0.3242 -0.380859,-0.9239 z m 8.183593,0.2539 -0.376953,0.9258 0.105469,0.043 0.751953,0.3808 0.453125,-0.8906 -0.751953,-0.3828 -0.03711,-0.018 -0.144532,-0.059 z m -4.412109,0.9867 c -4.962661,0 -9.0000008,4.0056 -9.0000008,8.9375 0,2.6992 1.3693218,4.5122 2.6347658,6.3964 0.540114,0.8043 1.062308,1.6303 1.490235,2.5586 l -0.484375,0.8067 0.06445,0.039 0.03711,0.02 0.830078,0.4062 0.0293,-0.059 c 0.30644,0.9605 0.498047,2.0439 0.498047,3.3321 l 0,4.0625 a 0.50005006,0.50005006 0 0 0 0.5,0.5 l 6.800782,0 a 0.50005006,0.50005006 0 0 0 0.5,-0.5 l 0,-4.0625 c 0,-1.3205 0.203274,-2.4243 0.523437,-3.4024 l 0.05664,0.1133 0.25,-0.123 -0.175781,-0.3575 c 0.466569,-1.2605 1.125135,-2.3134 1.810546,-3.334 1.265445,-1.8842 2.634767,-3.6972 2.634767,-6.3964 0,-4.932 -4.037347,-8.9375 -9,-8.9375 z m -6.511719,0.2382 -0.417969,0.3106 -0.03125,0.027 -0.359375,0.3184 0.664063,0.748 0.34375,-0.3046 0.398437,-0.2989 -0.597656,-0.8008 z m 13.603516,0.4434 -0.662109,0.75 0.492187,0.4316 0.210937,0.2188 0.720704,-0.6934 -0.222657,-0.2304 -0.0293,-0.027 -0.509765,-0.4492 z m -7.091797,0.3184 c 4.426187,0 8,3.5499 8,7.9375 0,2.3634 -1.180287,3.9252 -2.464844,5.8379 -1.212013,1.8046 -2.401371,3.9897 -2.541015,7.1621 l -2.494141,0 0,-5.4649 a 0.50005006,0.50005006 0 1 0 -1,0 l 0,5.4649 -2.494141,0 c -0.139644,-3.1724 -1.329002,-5.3575 -2.541016,-7.1621 -1.284556,-1.9127 -2.464843,-3.4745 -2.464843,-5.8379 0,-4.3875 3.57382,-7.9375 8,-7.9375 z m -8.736329,1.4179 -0.103515,0.127 -0.02344,0.033 -0.4687506,0.6933 0.8300786,0.5606 0.458984,-0.6816 0.0078,-0.012 0.07813,-0.094 -0.779295,-0.627 z m 7.736329,0.5821 a 0.50004997,0.50004997 0 0 0 -0.5,0.5 l 0,0.791 c -0.265962,0.084 -0.523216,0.1893 -0.771484,0.3164 l -0.556641,-0.5567 a 0.50004997,0.50004997 0 0 0 -0.707031,0 l -1.414063,1.4141 a 0.50004997,0.50004997 0 0 0 0,0.707 l 0.558594,0.5586 c -0.127897,0.248 -0.235529,0.5037 -0.320313,0.7696 l -0.789062,0 a 0.50004997,0.50004997 0 0 0 -0.5,0.5 l 0,2 a 0.50004997,0.50004997 0 0 0 0.5,0.5 l 0.791015,0 c 0.08413,0.2662 0.189075,0.5229 0.316406,0.7714 l -0.55664,0.5567 a 0.50004997,0.50004997 0 0 0 0,0.707 l 1.414063,1.4141 a 0.50004997,0.50004997 0 0 0 0.707031,0 l 0.558594,-0.5586 c 0.248091,0.1279 0.503599,0.2355 0.769531,0.3203 l 0,0.7891 a 0.50004997,0.50004997 0 0 0 0.5,0.5 l 2,0 a 0.50004997,0.50004997 0 0 0 0.5,-0.5 l 0,-0.7911 c 0.26624,-0.084 0.522982,-0.1891 0.771484,-0.3164 l 0.556641,0.5567 a 0.50004997,0.50004997 0 0 0 0.707031,0 l 1.414063,-1.4141 a 0.50004997,0.50004997 0 0 0 0,-0.707 l -0.558594,-0.5586 c 0.127899,-0.2481 0.235531,-0.5036 0.320313,-0.7695 l 0.789062,0 a 0.50004997,0.50004997 0 0 0 0.5,-0.5 l 0,-2 a 0.50004997,0.50004997 0 0 0 -0.5,-0.5 l -0.791016,0 c -0.08414,-0.2662 -0.189078,-0.523 -0.316406,-0.7715 l 0.556641,-0.5567 a 0.50004997,0.50004997 0 0 0 0,-0.707 l -1.414063,-1.4141 a 0.50004997,0.50004997 0 0 0 -0.707031,0 l -0.558594,0.5586 c -0.248091,-0.1279 -0.503599,-0.2355 -0.769531,-0.3203 l 0,-0.789 a 0.50004997,0.50004997 0 0 0 -0.5,-0.5 l -2,0 z m 10.164062,0 -0.826171,0.5625 0.175781,0.2597 0.316406,0.5606 0.871094,-0.4902 -0.328125,-0.5821 -0.02148,-0.035 -0.1875,-0.2754 z m -9.664062,0.9961 1,0 0,0.6172 a 0.50004997,0.50004997 0 0 0 0.388672,0.4882 c 0.438483,0.1 0.857383,0.2727 1.238281,0.5118 a 0.50004997,0.50004997 0 0 0 0.619141,-0.07 l 0.435547,-0.4355 0.707031,0.707 -0.433594,0.4336 a 0.50004997,0.50004997 0 0 0 -0.07031,0.6192 c 0.238049,0.3816 0.409134,0.7993 0.507812,1.2382 a 0.50004997,0.50004997 0 0 0 0.488281,0.3907 l 0.619141,0 0,1 -0.617188,0 a 0.50004997,0.50004997 0 0 0 -0.488281,0.3886 c -0.09992,0.4384 -0.272618,0.8574 -0.511719,1.2383 a 0.50004997,0.50004997 0 0 0 0.07031,0.6192 l 0.435547,0.4355 -0.707031,0.707 -0.433594,-0.4336 a 0.50004997,0.50004997 0 0 0 -0.619141,-0.07 c -0.381651,0.2381 -0.799436,0.4091 -1.238281,0.5078 a 0.50004997,0.50004997 0 0 0 -0.390624,0.4915 l 0,0.6192 -1,0 0,-0.6172 a 0.50004997,0.50004997 0 0 0 -0.388672,-0.4883 c -0.438483,-0.1 -0.857383,-0.2726 -1.238281,-0.5117 a 0.50004997,0.50004997 0 0 0 -0.619141,0.068 l -0.435547,0.4356 -0.707031,-0.707 0.433594,-0.4336 a 0.50004997,0.50004997 0 0 0 0.07031,-0.6192 c -0.238058,-0.3817 -0.409144,-0.7994 -0.507812,-1.2383 a 0.50004997,0.50004997 0 0 0 -0.48828,-0.3906 l -0.61914,0 0,-1 0.617187,0 a 0.50004997,0.50004997 0 0 0 0.488282,-0.3887 c 0.09993,-0.4384 0.272627,-0.8573 0.511719,-1.2382 a 0.50004997,0.50004997 0 0 0 -0.07031,-0.6192 l -0.435547,-0.4355 0.707031,-0.7071 0.433594,0.4336 a 0.50004997,0.50004997 0 0 0 0.617188,0.07 c 0.381651,-0.238 0.801389,-0.4092 1.240234,-0.5078 a 0.50004997,0.50004997 0 0 0 0.390622,-0.4857 l 0,-0.6191 z m -9.7734383,1.1757 -0.25,0.7149 -0.011719,0.041 -0.060547,0.2363 0.96875,0.2481 0.048828,-0.1953 0.00391,-0.014 0.2441374,-0.7012 -0.9433594,-0.3301 z m 20.7851573,0.6407 -0.859375,0.3027 -0.08398,0.023 0.002,0.01 -0.002,0 0.0098,0.027 0.002,0.01 0.208984,0.8106 0.002,0.014 0.0059,0.025 0.002,0 0.02539,-0.01 0.958984,-0.1621 -0.0078,-0.039 -0.0078,-0.043 -0.232422,-0.8945 -0.01172,-0.041 -0.01172,-0.033 z m -10.511719,0.6875 c -1.372104,0 -2.5,1.1277 -2.5,2.5 0,1.3721 1.127532,2.5 2.5,2.5 1.372468,0 2.5,-1.1279 2.5,-2.5 0,-1.3723 -1.127896,-2.5 -2.5,-2.5 z m 0,1 c 0.825996,0 1.5,0.6738 1.5,1.5 0,0.8259 -0.674368,1.5 -1.5,1.5 -0.825632,0 -1.5,-0.6741 -1.5,-1.5 0,-0.8262 0.674004,-1.5 1.5,-1.5 z m -10.9550789,0.7168 -0.039063,0.5175 -0.00195,0.043 0.00586,0.4844 1,-0.012 -0.00586,-0.4414 0,-0.01 0.037109,-0.5079 -0.9960937,-0.074 z m 20.9609379,0.7148 -0.0059,0.6719 -0.02734,0.2851 0.996094,0.094 0.0293,-0.3027 0.002,-0.043 0.0059,-0.6953 -1,-0.01 z m -19.7851567,2.2207 -0.984375,0.1816 0.035156,0.1934 0.00977,0.041 0.2128906,0.7735 0.9648438,-0.2637 -0.2070312,-0.7539 -0.03125,-0.1719 z m 19.4179697,0.6191 -0.08984,0.334 -0.0039,0.014 -0.205078,0.5606 0.941406,0.3417 0.216797,-0.6035 0.01367,-0.039 0.09375,-0.3477 -0.966797,-0.2597 z m -18.455079,2.0254 -0.8691406,0.502 0.3574219,0.625 0.021484,0.033 0.1601562,0.2324 0.8242195,-0.5664 -0.136719,-0.1973 -0.0039,-0.01 -0.353516,-0.6191 z m 17.332032,0.5645 -0.488281,0.7148 -0.0078,0.012 -0.05078,0.061 0.777344,0.6289 0.07617,-0.094 0.02344,-0.033 0.496094,-0.7266 -0.826172,-0.5625 z m -15.632813,1.7461 -0.71875,0.6973 0.257813,0.2656 0.03125,0.027 0.474609,0.4141 0.65625,-0.7559 -0.457031,-0.3965 -0.244141,-0.2519 z m 13.785157,0.4414 -0.388672,0.3418 -0.353516,0.2598 0.591797,0.8066 0.367188,-0.2715 0.03516,-0.025 0.408203,-0.3594 -0.660156,-0.7519 z m 2.957031,1.2012 a 0.50005,0.50005 0 0 0 -0.5,0.5 l 0,0.5117 c -0.144182,0.049 -0.28452,0.1058 -0.421875,0.1719 l -0.361328,-0.3594 a 0.50005,0.50005 0 0 0 -0.707031,0 l -1.060547,1.0605 a 0.50005,0.50005 0 0 0 0,0.7071 l 0.361328,0.3613 c -0.06674,0.1376 -0.125765,0.2773 -0.175781,0.4219 l -0.509766,0 a 0.50005,0.50005 0 0 0 -0.5,0.5 l 0,1.5 a 0.50005,0.50005 0 0 0 0.5,0.5 l 0.511719,0 c 0.0495,0.1442 0.105749,0.2844 0.171875,0.4218 l -0.359375,0.3614 a 0.50005,0.50005 0 0 0 0,0.707 l 1.060547,1.0605 a 0.50005,0.50005 0 0 0 0.707031,0 l 0.361328,-0.3613 c 0.137625,0.067 0.277333,0.1258 0.421875,0.1758 l 0,0.5098 a 0.50005,0.50005 0 0 0 0.5,0.5 l 1.5,0 a 0.50005,0.50005 0 0 0 0.5,-0.5 l 0,-0.5118 c 0.144184,-0.05 0.284518,-0.1057 0.421875,-0.1718 l 0.361328,0.3593 a 0.50005,0.50005 0 0 0 0.707031,0 l 1.060547,-1.0605 a 0.50005,0.50005 0 0 0 0,-0.707 l -0.361328,-0.3614 c 0.06674,-0.1377 0.125768,-0.2773 0.175781,-0.4218 l 0.509766,0 a 0.50005,0.50005 0 0 0 0.5,-0.5 l 0,-1.5 a 0.50005,0.50005 0 0 0 -0.5,-0.5 l -0.511719,0 c -0.04958,-0.1444 -0.107569,-0.2843 -0.173828,-0.4219 l 0.361328,-0.3613 a 0.50005,0.50005 0 0 0 0,-0.7071 l -1.060547,-1.0605 a 0.50005,0.50005 0 0 0 -0.707031,0 l -0.361328,0.3613 c -0.137624,-0.067 -0.277332,-0.1257 -0.421875,-0.1758 l 0,-0.5097 a 0.50005,0.50005 0 0 0 -0.5,-0.5 l -1.5,0 z m 0.5,1 0.5,0 0,0.3379 a 0.50005,0.50005 0 0 0 0.388672,0.4882 c 0.315163,0.072 0.616856,0.1954 0.890625,0.3672 a 0.50005,0.50005 0 0 0 0.619141,-0.07 l 0.238281,-0.2383 0.353515,0.3535 -0.238281,0.2364 a 0.50005,0.50005 0 0 0 -0.07031,0.6191 c 0.17111,0.2743 0.296269,0.5751 0.367187,0.8906 a 0.50005,0.50005 0 0 0 0.486328,0.3907 l 0.339844,0 0,0.5 -0.337891,0 a 0.50005,0.50005 0 0 0 -0.488281,0.3886 c -0.07182,0.3151 -0.195329,0.6169 -0.367187,0.8907 a 0.50005,0.50005 0 0 0 0.07031,0.6191 l 0.238281,0.2383 -0.353515,0.3535 -0.236328,-0.2383 a 0.50005,0.50005 0 0 0 -0.619141,-0.07 c -0.274312,0.1711 -0.575199,0.2942 -0.890625,0.3652 a 0.50005,0.50005 0 0 0 -0.390625,0.4883 l 0,0.3399 -0.5,0 0,-0.3379 a 0.50005,0.50005 0 0 0 -0.388672,-0.4883 c -0.315158,-0.072 -0.61685,-0.1953 -0.890625,-0.3672 a 0.50005,0.50005 0 0 0 -0.619141,0.07 l -0.238281,0.2383 -0.353515,-0.3535 0.238281,-0.2383 a 0.50005,0.50005 0 0 0 0.07031,-0.6172 c -0.17111,-0.2743 -0.296269,-0.5752 -0.367187,-0.8906 a 0.50005,0.50005 0 0 0 -0.486328,-0.3906 l -0.339844,0 0,-0.5 0.337891,0 a 0.50005,0.50005 0 0 0 0.488281,-0.3887 c 0.07183,-0.3151 0.195335,-0.6169 0.367187,-0.8906 a 0.50005,0.50005 0 0 0 -0.07031,-0.6192 l -0.238281,-0.2383 0.353515,-0.3535 0.236328,0.2364 a 0.50005,0.50005 0 0 0 0.619141,0.072 c 0.274309,-0.1711 0.575202,-0.2963 0.890625,-0.3672 a 0.50005,0.50005 0 0 0 0.390625,-0.4863 l 0,-0.3398 z m 0.25,1.9785 c -0.90292,0 -1.646484,0.7435 -1.646484,1.6465 0,0.9029 0.7433,1.6464 1.646484,1.6464 0.903179,0 1.646484,-0.7435 1.646484,-1.6464 0,-0.903 -0.74357,-1.6465 -1.646484,-1.6465 z m 0,1 c 0.356726,0 0.646484,0.2897 0.646484,0.6465 0,0.3567 -0.290023,0.6464 -0.646484,0.6464 -0.356476,0 -0.646484,-0.2897 -0.646484,-0.6464 0,-0.3569 0.289744,-0.6465 0.646484,-0.6465 z m -13.275391,1.209 2.820313,0 a 0.50005006,0.50005006 0 0 0 0.162109,0 l 2.81836,0 0,3.0625 -5.800782,0 0,-1 4.900391,0 0,-1 -4.900391,0 0,-1.0625 z m 0.34961,5.0625 a 0.50064426,0.50064426 0 0 0 0.05078,1 l 5,0 a 0.50005,0.50005 0 1 0 0,-1 l -5,0 a 0.50005,0.50005 0 0 0 -0.05078,0 z" color="#000" font-family="sans-serif" font-weight="400" overflow="visible" white-space="normal"/></g></svg>