<svg xmlns="http://www.w3.org/2000/svg" xmlns:xlink="http://www.w3.org/1999/xlink" width="42" height="42" viewBox="0 0 42 42"><defs><linearGradient id="b" x1="949.87" x2="974.39" y1="518.014" y2="544.657" gradientTransform="translate(-1272.559 316.47) scale(1.34562)" gradientUnits="userSpaceOnUse" xlink:href="#a"/><linearGradient id="a"><stop offset="0" stop-color="#24f7bc"/><stop offset="1" stop-color="#24c4fc"/></linearGradient></defs><g transform="translate(0 -1010.362)"><rect width="42" height="42" y="1010.362" fill="url(#b)" rx="8.876" ry="8.876"/><path style="line-height:normal;text-indent:0;text-align:start;text-decoration-line:none;text-decoration-style:solid;text-decoration-color:#000;text-transform:none;block-progression:tb;isolation:auto;mix-blend-mode:normal" fill="#fff" d="m 13.498046,1017.3622 a 0.50005,0.50005 0 0 0 -0.492186,0.5078 l 0,1.4922 -4.50586,0 a 0.50005,0.50005 0 0 0 -0.5,0.5 l 0,4.5 1,0 0,-4 4.00586,0 0,1.0918 c -0.579028,0.2085 -1,0.7614 -1,1.4082 0,0.8225 0.677495,1.5 1.5,1.5 0.822504,0 1.5,-0.6775 1.5,-1.5 0,-0.6468 -0.420973,-1.1997 -1,-1.4082 l 0,-1.0918 14.999999,0 0,1.0918 c -0.579027,0.2085 -1,0.7614 -1,1.4082 0,0.8225 0.677496,1.5 1.5,1.5 0.822504,0 1.5,-0.6775 1.5,-1.5 0,-0.6468 -0.420972,-1.1997 -1,-1.4082 l 0,-1.0918 4.005859,0 0,4 1,0 0,-4.5 a 0.50005,0.50005 0 0 0 -0.5,-0.5 l -4.505859,0 0,-1.4922 a 0.50005,0.50005 0 0 0 -0.507813,-0.5078 0.50005,0.50005 0 0 0 -0.492187,0.5078 l 0,1.4922 -14.999999,0 0,-1.4922 a 0.50005,0.50005 0 0 0 -0.507814,-0.5078 z m -0.04687,5.0098 a 0.50005,0.50005 0 0 0 0.107422,0 c 0.254589,0.026 0.447267,0.227 0.447267,0.4902 0,0.2821 -0.217936,0.5 -0.5,0.5 -0.282065,0 -0.5,-0.2179 -0.5,-0.5 0,-0.2625 0.191708,-0.4628 0.445311,-0.4902 z m 16,0 a 0.50005,0.50005 0 0 0 0.107422,0 c 0.254589,0.026 0.447266,0.227 0.447266,0.4902 0,0.2821 -0.217936,0.5 -0.5,0.5 -0.282064,0 -0.5,-0.2179 -0.5,-0.5 0,-0.2625 0.191708,-0.4628 0.445312,-0.4902 z m -20.9453116,2.9902 a 0.50004994,0.50004994 0 0 0 -0.5,0.5 l 0,18 a 0.50004994,0.50004994 0 0 0 0.5,0.5 l 26.0000006,0 a 0.50004994,0.50004994 0 0 0 0.5,-0.5 l 0,-18 a 0.50004994,0.50004994 0 0 0 -0.5,-0.5 l -26.0000006,0 z m 0.5,1 25.0000006,0 0,17 -25.0000006,0 0,-17 z m 9.5000006,1 a 0.50004997,0.50004997 0 0 0 -0.5,0.5 l 0,2 a 0.50004997,0.50004997 0 0 0 0.5,0.5 l 2,0 a 0.50004997,0.50004997 0 0 0 0.5,-0.5 l 0,-2 a 0.50004997,0.50004997 0 0 0 -0.5,-0.5 l -2,0 z m 4,0 a 0.50004997,0.50004997 0 0 0 -0.5,0.5 l 0,2 a 0.50004997,0.50004997 0 0 0 0.5,0.5 l 2,0 a 0.50004997,0.50004997 0 0 0 0.5,-0.5 l 0,-2 a 0.50004997,0.50004997 0 0 0 -0.5,-0.5 l -2,0 z m 4,0 a 0.50004997,0.50004997 0 0 0 -0.5,0.5 l 0,2 a 0.50004997,0.50004997 0 0 0 0.5,0.5 l 2,0 a 0.50004997,0.50004997 0 0 0 0.5,-0.5 l 0,-2 a 0.50004997,0.50004997 0 0 0 -0.5,-0.5 l -2,0 z m 4,0 a 0.50004997,0.50004997 0 0 0 -0.5,0.5 l 0,2 a 0.50004997,0.50004997 0 0 0 0.5,0.5 l 2,0 a 0.50004997,0.50004997 0 0 0 0.5,-0.5 l 0,-2 a 0.50004997,0.50004997 0 0 0 -0.5,-0.5 l -2,0 z m -14.013672,0.6836 a 0.50005,0.50005 0 0 0 -0.34375,0.1484 l -0.974609,0.9649 -0.3125,-0.3086 a 0.50005,0.50005 0 1 0 -0.703125,0.7109 l 0.664062,0.6563 a 0.50005,0.50005 0 0 0 0.703125,0 l 1.326172,-1.3125 a 0.50005,0.50005 0 0 0 -0.359375,-0.8594 z m -5.486328,0.3164 0,1 1,0 0,-1 -1,0 z m 8,0 1,0 0,1 -1,0 0,-1 z m 4,0 1,0 0,1 -1,0 0,-1 z m 4,0 1,0 0,1 -1,0 0,-1 z m 4,0 1,0 0,1 -1,0 0,-1 z m -20.5,3 a 0.50004997,0.50004997 0 0 0 -0.500001,0.5 l 0,2 a 0.50004997,0.50004997 0 0 0 0.500001,0.5 l 2,0 a 0.50004997,0.50004997 0 0 0 0.5,-0.5 l 0,-2 a 0.50004997,0.50004997 0 0 0 -0.5,-0.5 l -2,0 z m 4,0 a 0.50004997,0.50004997 0 0 0 -0.5,0.5 l 0,2 a 0.50004997,0.50004997 0 0 0 0.5,0.5 l 2,0 a 0.50004997,0.50004997 0 0 0 0.5,-0.5 l 0,-2 a 0.50004997,0.50004997 0 0 0 -0.5,-0.5 l -2,0 z m 4,0 a 0.50004997,0.50004997 0 0 0 -0.5,0.5 l 0,2 a 0.50004997,0.50004997 0 0 0 0.5,0.5 l 2,0 a 0.50004997,0.50004997 0 0 0 0.5,-0.5 l 0,-2 a 0.50004997,0.50004997 0 0 0 -0.5,-0.5 l -2,0 z m 4,0 a 0.50004997,0.50004997 0 0 0 -0.5,0.5 l 0,2 a 0.50004997,0.50004997 0 0 0 0.5,0.5 l 2,0 a 0.50004997,0.50004997 0 0 0 0.5,-0.5 l 0,-2 a 0.50004997,0.50004997 0 0 0 -0.5,-0.5 l -2,0 z m 8,0 a 0.50004997,0.50004997 0 0 0 -0.5,0.5 l 0,2 a 0.50004997,0.50004997 0 0 0 0.5,0.5 l 2,0 a 0.50004997,0.50004997 0 0 0 0.5,-0.5 l 0,-2 a 0.50004997,0.50004997 0 0 0 -0.5,-0.5 l -2,0 z m -2.011719,0.6836 a 0.50005,0.50005 0 0 0 -0.34375,0.1484 l -0.976563,0.9649 -0.3125,-0.3086 a 0.50005,0.50005 0 1 0 -0.703125,0.7109 l 0.664063,0.6563 a 0.50005,0.50005 0 0 0 0.703125,0 l 1.328125,-1.3125 a 0.50005,0.50005 0 0 0 -0.359375,-0.8594 z m -17.488286,0.3164 1,0 0,1 -1,0 0,-1 z m 4,0 0.999999,0 0,1 -0.999999,0 0,-1 z m 3.999999,0 1,0 0,1 -1,0 0,-1 z m 4,0 1,0 0,1 -1,0 0,-1 z m 8,0 1,0 0,1 -1,0 0,-1 z m -20.5,3 a 0.50004997,0.50004997 0 0 0 -0.5,0.5 l 0,2 a 0.50004997,0.50004997 0 0 0 0.5,0.5 l 2,0 a 0.50004997,0.50004997 0 0 0 0.5,-0.5 l 0,-2 a 0.50004997,0.50004997 0 0 0 -0.5,-0.5 l -2,0 z m 4.000001,0 a 0.50004997,0.50004997 0 0 0 -0.5,0.5 l 0,2 a 0.50004997,0.50004997 0 0 0 0.5,0.5 l 1.999999,0 a 0.50004997,0.50004997 0 0 0 0.5,-0.5 l 0,-2 a 0.50004997,0.50004997 0 0 0 -0.5,-0.5 l -1.999999,0 z m 7.999999,0 a 0.50004997,0.50004997 0 0 0 -0.5,0.5 l 0,2 a 0.50004997,0.50004997 0 0 0 0.5,0.5 l 2,0 a 0.50004997,0.50004997 0 0 0 0.5,-0.5 l 0,-2 a 0.50004997,0.50004997 0 0 0 -0.5,-0.5 l -2,0 z m 4,0 a 0.50004997,0.50004997 0 0 0 -0.5,0.5 l 0,2 a 0.50004997,0.50004997 0 0 0 0.5,0.5 l 2,0 a 0.50004997,0.50004997 0 0 0 0.5,-0.5 l 0,-2 a 0.50004997,0.50004997 0 0 0 -0.5,-0.5 l -2,0 z m 4,0 a 0.50004997,0.50004997 0 0 0 -0.5,0.5 l 0,2 a 0.50004997,0.50004997 0 0 0 0.5,0.5 l 2,0 a 0.50004997,0.50004997 0 0 0 0.5,-0.5 l 0,-2 a 0.50004997,0.50004997 0 0 0 -0.5,-0.5 l -2,0 z m -10.011719,0.6816 a 0.50005,0.50005 0 0 0 -0.345703,0.1485 l -0.974609,0.9668 -0.3125,-0.3086 a 0.50005,0.50005 0 1 0 -0.703125,0.7109 l 0.664062,0.6563 a 0.50005,0.50005 0 0 0 0.703125,0 l 1.326172,-1.3145 a 0.50005,0.50005 0 0 0 -0.357422,-0.8594 z m -9.48828,0.3184 1,0 0,1 -1,0 0,-1 z m 4,0 0.999999,0 0,1 -0.999999,0 0,-1 z m 7.999999,0 1,0 0,1 -1,0 0,-1 z m 4,0 1,0 0,1 -1,0 0,-1 z m 4,0 1,0 0,1 -1,0 0,-1 z m -20.5,3 a 0.50004997,0.50004997 0 0 0 -0.5,0.5 l 0,2 a 0.50004997,0.50004997 0 0 0 0.5,0.5 l 2,0 a 0.50004997,0.50004997 0 0 0 0.5,-0.5 l 0,-2 a 0.50004997,0.50004997 0 0 0 -0.5,-0.5 l -2,0 z m 4.000001,0 a 0.50004997,0.50004997 0 0 0 -0.5,0.5 l 0,2 a 0.50004997,0.50004997 0 0 0 0.5,0.5 l 1.999999,0 a 0.50004997,0.50004997 0 0 0 0.5,-0.5 l 0,-2 a 0.50004997,0.50004997 0 0 0 -0.5,-0.5 l -1.999999,0 z m -3.5,1 1,0 0,1 -1,0 0,-1 z m 4,0 0.999999,0 0,1 -0.999999,0 0,-1 z m 3.999999,0 0,1 1,0 0,-1 -1,0 z m 4,0 0,1 1,0 0,-1 -1,0 z m 4,0 0,1 1,0 0,-1 -1,0 z m 4,0 0,1 1,0 0,-1 -1,0 z" color="#000" font-family="sans-serif" font-weight="400" overflow="visible" white-space="normal"/></g></svg>