<svg xmlns="http://www.w3.org/2000/svg" xmlns:xlink="http://www.w3.org/1999/xlink" width="42" height="42" viewBox="0 0 42 42"><defs><linearGradient id="b" x1="1056.035" x2="1031.176" y1="544.13" y2="517.701" gradientTransform="translate(-1384.02 316.47) scale(1.34562)" gradientUnits="userSpaceOnUse" xlink:href="#a"/><linearGradient id="a"><stop offset="0" stop-color="#5a5a5a"/><stop offset="1" stop-color="#656e85"/></linearGradient></defs><g transform="translate(0 -1010.362)"><rect width="42" height="42" y="1010.362" fill="url(#b)" rx="8.876" ry="8.876"/><path style="line-height:normal;text-indent:0;text-align:start;text-decoration-line:none;text-decoration-style:solid;text-decoration-color:#000;text-transform:none;block-progression:tb;isolation:auto;mix-blend-mode:normal" fill="#fff" fill-rule="evenodd" d="m 13.5,1015.3622 a 0.50005,0.50005 0 0 0 -0.5,0.5 l 0,1.5 -6.5,0 a 0.50005,0.50005 0 0 0 -0.5,0.5 c 0,4.8031 1.6764972,8.4067 3.8964844,10.9277 2.1988326,2.4969 4.9102786,3.9401 7.0878906,4.5371 0.197669,0.2232 0.399242,0.4382 0.611328,0.629 0.45048,0.4051 0.942422,0.7234 1.458985,0.9609 a 0.50005,0.50005 0 0 0 0.07422,0.1426 c 0,0 0.143481,0.1916 0.279297,0.4511 0.135817,0.2594 0.222271,0.5834 0.208985,0.6817 -0.02834,0.2097 -0.279113,0.5139 -0.582032,0.7383 -0.302918,0.2244 -0.59375,0.3554 -0.59375,0.3554 a 0.50005,0.50005 0 0 0 -0.171875,0.1289 c -0.02439,0.02 -0.07344,0.021 -0.0918,0.041 -0.09367,0.1039 -0.137176,0.2034 -0.169922,0.2968 -0.06549,0.1867 -0.08398,0.3671 -0.08398,0.5508 0,0.1838 0.01849,0.364 0.08398,0.5508 0.01692,0.048 0.05979,0.1015 0.08789,0.1523 -0.01165,1.1786 -0.149044,1.7068 -0.398437,2.0762 -0.255765,0.3789 -0.744133,0.7121 -1.494141,1.375 a 0.50005,0.50005 0 0 0 -0.02539,0.021 c -0.0042,0 -0.0055,0.01 -0.0098,0.01 a 0.50005,0.50005 0 0 0 -0.08789,0.1016 0.50005,0.50005 0 0 0 -0.01367,0.025 0.50005,0.50005 0 0 0 -0.01172,0.018 0.50005,0.50005 0 0 0 -0.0059,0.014 0.50005,0.50005 0 0 0 -0.04297,0.1387 0.50005,0.50005 0 0 0 0,0.012 0.50005,0.50005 0 0 0 -0.0058,0.064 l 0,1.5 -0.351562,0 c -0.352867,0 -0.648438,0.2985 -0.648438,0.6504 l 0,1.7012 c 0,0.3501 0.299225,0.6484 0.648438,0.6484 l 10.703124,0 c 0.352464,0 0.648438,-0.2965 0.648438,-0.6484 l 0,-1.7012 c 0,-0.3499 -0.299204,-0.6504 -0.648438,-0.6504 l -0.324218,0 0,-1.5 a 0.50005,0.50005 0 0 0 -0.291016,-0.4551 c -0.709383,-0.6212 -1.186006,-0.9574 -1.433594,-1.3242 -0.249545,-0.3697 -0.386933,-0.898 -0.398437,-2.0781 0.02788,-0.051 0.07108,-0.1043 0.08789,-0.1524 0.06541,-0.1871 0.08244,-0.3664 0.08203,-0.5507 -4.11e-4,-0.1843 -0.01734,-0.3653 -0.08398,-0.5528 -0.03332,-0.094 -0.07825,-0.1916 -0.171875,-0.2949 -0.05566,-0.061 -0.143915,-0.1183 -0.24414,-0.1602 0,0 -0.310424,-0.1577 -0.625,-0.3984 -0.314576,-0.2407 -0.558213,-0.5726 -0.570313,-0.6934 -0.01109,-0.1105 0.08121,-0.4365 0.216797,-0.6953 0.135591,-0.2589 0.277344,-0.4511 0.277344,-0.4511 a 0.50005,0.50005 0 0 0 0.07227,-0.1387 c 0.51687,-0.2375 1.008263,-0.5556 1.458985,-0.9609 0.212086,-0.1908 0.413801,-0.4058 0.611328,-0.629 2.177612,-0.597 4.889058,-2.0402 7.087891,-4.5371 C 34.323503,1026.2689 36,1022.6653 36,1017.8622 a 0.50005,0.50005 0 0 0 -0.5,-0.5 l -6.5,0 0,-1.5 a 0.50005,0.50005 0 0 0 -0.5,-0.5 l -15,0 z m 0.5,1 14,0 0,1.9238 -14,0 0,-1.9238 z m -6.9570312,2 5.9570312,0 0,0.4238 a 0.50005,0.50005 0 0 0 0.002,0.049 c 2.26e-4,0.1777 0.0071,0.3508 0.0098,0.5273 l -4.2109376,0 a 0.50005,0.50005 0 0 0 -0.5,0.5 c 0,2.9015 1.3125424,5.4036 2.8496096,7.3105 1.518683,1.8841 3.2458,3.1929 4.279297,3.7969 0.167965,0.3314 0.344798,0.6451 0.529296,0.9453 -1.728476,-0.7037 -3.680428,-1.9338 -5.312499,-3.7871 -1.9934074,-2.2637 -3.4871066,-5.4642 -3.603516,-9.7656 z m 21.9570312,0 5.957031,0 c -0.116409,4.3014 -1.610108,7.5019 -3.603515,9.7656 -1.632072,1.8533 -3.584024,3.0834 -5.3125,3.7871 0.184093,-0.3 0.359652,-0.6143 0.527343,-0.9453 1.033355,-0.6037 2.761976,-1.912 4.28125,-3.7969 1.537067,-1.9069 2.84961,-4.409 2.84961,-7.3105 a 0.50005,0.50005 0 0 0 -0.5,-0.5 l -4.210938,0 C 28.991153,1019.1694 29,1018.9803 29,1018.786 l 0,-0.4238 z m -14.957031,0.9238 13.914062,0 c -0.05816,4.1211 -0.756971,7.9069 -1.976562,10.6231 -0.635751,1.4159 -1.400643,2.5441 -2.244141,3.3027 -0.843497,0.7587 -1.746656,1.1504 -2.736328,1.1504 -0.989669,0 -1.892832,-0.3917 -2.736328,-1.1504 -0.843496,-0.7586 -1.610344,-1.8868 -2.246094,-3.3027 -1.219589,-2.7162 -1.916451,-6.502 -1.974609,-10.6231 z m -4.636719,1.0762 3.626953,0 c 0.135484,3.3099 0.697945,6.3571 1.619141,8.8379 -0.842551,-0.657 -1.824422,-1.54 -2.722656,-2.6543 -1.344446,-1.6679 -2.3759804,-3.8031 -2.523438,-6.1836 z m 19.560547,0 3.626953,0 c -0.147458,2.3805 -1.178991,4.5157 -2.523438,6.1836 -0.899441,1.1158 -1.883304,1.9991 -2.726562,2.6562 0.922044,-2.4812 1.487205,-5.5288 1.623047,-8.8398 z m -8.582031,15.0547 c 0.394175,0.056 0.83441,0.056 1.228515,0 -0.11682,0.2706 -0.264123,0.53 -0.228515,0.8848 0.06703,0.6692 0.557204,1.0808 0.957031,1.3867 0.363883,0.2784 0.652767,0.4223 0.712891,0.4531 0.0089,0.043 0.01937,0.091 0.01953,0.1621 5.7e-5,0.026 -0.0038,0.034 -0.0059,0.059 l -4.136718,0 c -0.0021,-0.025 -0.0078,-0.033 -0.0078,-0.059 0,-0.07 0.01092,-0.1172 0.01953,-0.1601 0.07717,-0.036 0.335722,-0.1478 0.6875,-0.4083 0.400707,-0.2968 0.885438,-0.7338 0.976563,-1.4082 0.04948,-0.3662 -0.102872,-0.6333 -0.222656,-0.9101 z m -1.388672,3.9453 4.007812,0 c 0.04939,0.965 0.128886,1.7778 0.46875,2.2813 0.186762,0.2767 0.517038,0.5014 0.763672,0.7187 l -6.472656,0 c 0.246634,-0.2173 0.57691,-0.442 0.763672,-0.7187 0.339864,-0.5035 0.419364,-1.3163 0.46875,-2.2813 z m -1.996094,4 8.027344,0 0,1 -8.027344,0 0,-1 z m -1,2 10,0 0,1 -10,0 0,-1 z" color="#000" font-family="sans-serif" font-weight="400" overflow="visible" white-space="normal"/></g></svg>