<svg xmlns="http://www.w3.org/2000/svg" xmlns:xlink="http://www.w3.org/1999/xlink" width="42" height="42" viewBox="0 0 42 42"><defs><linearGradient id="b" x1="992.183" x2="1019.298" y1="516.081" y2="545.959" gradientTransform="translate(-1332.367 316.47) scale(1.34562)" gradientUnits="userSpaceOnUse" xlink:href="#a"/><linearGradient id="a"><stop offset="0" stop-color="#ff1679"/><stop offset="1" stop-color="#ff770b"/></linearGradient></defs><g transform="translate(0 -1010.362)"><rect width="42" height="42" y="1010.362" fill="url(#b)" rx="8.876" ry="8.876"/><path style="line-height:normal;text-indent:0;text-align:start;text-decoration-line:none;text-decoration-style:solid;text-decoration-color:#000;text-transform:none;block-progression:tb;isolation:auto;mix-blend-mode:normal" fill="#fff" fill-rule="evenodd" d="m 25.487472,1018.3662 c -0.281695,0.01 -0.562081,0.029 -0.841797,0.062 -2.237724,0.2632 -4.385946,1.2947 -6.017578,3.0449 -1.341936,1.4394 -2.169975,3.1946 -2.482422,5.0234 -0.164371,-0.029 -0.328383,-0.061 -0.49414,-0.08 -1.902756,-0.2239 -3.881541,0.2068 -5.576172,1.3321 -3.3403526,2.218 -4.6125482,6.5039 -3.0527353,10.1797 l -1.0117188,4.83 a 0.50005,0.50005 0 0 0 0.6289063,0.584 l 4.2910158,-1.2383 c 3.552758,1.7938 7.903088,0.824 10.343751,-2.3437 0.56902,-0.7385 0.987997,-1.5492 1.27539,-2.3926 2.457413,0.8618 5.226867,0.7409 7.677734,-0.5078 l 5.134766,1.4805 a 0.50005006,0.50005006 0 0 0 0.628906,-0.5821 l -1.210937,-5.7597 c 1.855227,-4.331 0.362348,-9.3884 -3.576172,-12.0039 -1.74414,-1.1584 -3.744934,-1.6904 -5.716797,-1.6289 z m 0.03125,0.9941 c 1.769496,-0.055 3.564466,0.4252 5.132813,1.4668 3.584807,2.3807 4.917584,6.9966 3.154297,10.9219 a 0.50005171,0.50005171 0 0 0 -0.0293,0.3261 0.50005006,0.50005006 0 0 0 0.0039,0.024 l 1.060547,5.0527 -4.449219,-1.2851 a 0.50006212,0.50006212 0 0 0 -0.05859,-0.014 0.50005006,0.50005006 0 0 0 -0.166015,-0.023 l 0,0 a 0.50005006,0.50005006 0 0 0 -0.22461,0.06 c -2.263214,1.2139 -4.844801,1.3301 -7.121089,0.5136 0.43191,-2.0492 0.07653,-4.2179 -1.035156,-6.0449 l 9.707032,0 a 0.50005,0.50005 0 1 0 0,-1 l -10.423829,0 c -0.09885,-0.1186 -0.194395,-0.2394 -0.300781,-0.3535 -1.0245,-1.0988 -2.29067,-1.8615 -3.648437,-2.2774 0.271902,-1.6652 1.017955,-3.2631 2.240234,-4.5742 1.65057,-1.7704 3.883137,-2.7243 6.158203,-2.7949 z m -5.060547,4 a 0.50064426,0.50064426 0 0 0 0.05078,1 l 10.980469,0 a 0.50004997,0.50004997 0 1 0 0,-1 l -10.980468,0 a 0.50004997,0.50004997 0 0 0 -0.05078,0 z m 0,3 a 0.50064426,0.50064426 0 0 0 0.05078,1 l 10.980469,0 a 0.50004997,0.50004997 0 1 0 0,-1 l -10.980469,0 a 0.50004997,0.50004997 0 0 0 -0.05078,0 z m -5.552734,1 c 1.895309,0.059 3.755332,0.8528 5.130859,2.3281 2.445383,2.6228 2.63388,6.6205 0.445313,9.461 -2.188557,2.8405 -6.10334,3.6773 -9.263672,1.9824 a 0.50049558,0.50053716 60.00325 0 0 -0.396485,-0.035 0.50011012,0.50011012 0 0 0 -0.04102,0.01 l -3.6191409,1.0449 0.8632813,-4.1269 a 0.50005,0.50005 0 0 0 0,-0.01 0.50040026,0.50044184 60.00325 0 0 -0.023437,-0.3379 c -1.4694102,-3.2709 -0.3604357,-7.1159 2.6269536,-9.0996 1.306992,-0.8679 2.803214,-1.2664 4.277344,-1.2207 z m -4.447266,4 a 0.50064427,0.50064427 0 0 0 0.05078,1 l 8.984376,0 a 0.50004997,0.50004997 0 1 0 0,-1 l -8.984376,0 a 0.50004997,0.50004997 0 0 0 -0.05078,0 z m 13.783203,1 a 0.50064429,0.50064429 0 0 0 0.05078,1 l 2.404296,0 a 0.50004994,0.50004994 0 1 0 0,-1 l -2.404296,0 a 0.50004994,0.50004994 0 0 0 -0.05078,0 z m -13.783203,2 a 0.50064427,0.50064427 0 0 0 0.05078,1 l 8.984376,0 a 0.50004997,0.50004997 0 1 0 0,-1 l -8.984376,0 a 0.50004997,0.50004997 0 0 0 -0.05078,0 z m -0.0078,3 a 0.50064427,0.50064427 0 0 0 0.05078,1 l 4,0 a 0.50004994,0.50004994 0 1 0 0,-1 l -4,0 a 0.50004994,0.50004994 0 0 0 -0.05078,0 z" color="#000" font-family="sans-serif" font-weight="400" overflow="visible" white-space="normal"/></g></svg>