<svg xmlns="http://www.w3.org/2000/svg" xmlns:xlink="http://www.w3.org/1999/xlink" width="42" height="42" viewBox="0 0 42 42"><defs><linearGradient id="b" x1="949.87" x2="974.39" y1="518.014" y2="544.657" gradientTransform="translate(-1272.559 316.47) scale(1.34562)" gradientUnits="userSpaceOnUse" xlink:href="#a"/><linearGradient id="a"><stop offset="0" stop-color="#24f7bc"/><stop offset="1" stop-color="#24c4fc"/></linearGradient></defs><g transform="translate(0 -1010.362)"><rect width="42" height="42" y="1010.362" fill="url(#b)" rx="8.876" ry="8.876"/><path style="line-height:normal;text-indent:0;text-align:start;text-decoration-line:none;text-decoration-style:solid;text-decoration-color:#000;text-transform:none;block-progression:tb;isolation:auto;mix-blend-mode:normal" fill="#fff" d="m 15.500987,1016.8599 c -1.098647,0 -2,0.9014 -2,2 0,1.0987 0.901353,2 2,2 1.098647,0 2,-0.9013 2,-2 0,-1.0986 -0.901353,-2 -2,-2 z m 0,1 c 0.558207,0 1,0.4418 1,1 0,0.5582 -0.441793,1 -1,1 -0.558207,0 -1,-0.4418 -1,-1 0,-0.5582 0.441793,-1 1,-1 z m -5,3.5 c -0.8225048,0 -1.500007,0.6775 -1.4999999,1.5 -7.1e-6,0.8225 0.6774951,1.5 1.4999999,1.5 0.822505,0 1.500007,-0.6775 1.5,-1.5 7e-6,-0.8225 -0.677495,-1.5 -1.5,-1.5 z m 13.986328,0 a 0.50005,0.50005 0 0 0 -0.5,0.5 l 0,0.6895 c -0.221265,0.072 -0.434721,0.1592 -0.642578,0.2637 l -0.486328,-0.4864 a 0.50005,0.50005 0 0 0 -0.707031,0 l -1.28711,1.2871 a 0.50005,0.50005 0 0 0 0.002,0.7071 l 0.486328,0.4863 c -0.105303,0.208 -0.195137,0.421 -0.267624,0.6426 l -0.6875,0 a 0.50005,0.50005 0 0 0 -0.5,0.5 l 0,1.8183 a 0.50005,0.50005 0 0 0 0.5,0.5 l 0.689453,0 c 0.07185,0.2216 0.159063,0.4364 0.263671,0.6446 l -0.484374,0.4843 a 0.50005,0.50005 0 0 0 -0.002,0.7071 l 1.28711,1.2871 a 0.50005,0.50005 0 0 0 0.707031,0 l 0.486328,-0.4883 c 0.208011,0.1053 0.42101,0.1951 0.642578,0.2676 l 0,0.6875 a 0.50005,0.50005 0 0 0 0.5,0.5 l 1.81836,0 a 0.50005,0.50005 0 0 0 0.5,-0.5 l 0,-0.6895 c 0.221592,-0.072 0.436386,-0.159 0.644531,-0.2636 l 0.484375,0.4863 a 0.50005,0.50005 0 0 0 0.708984,0 l 1.285157,-1.2871 a 0.50005,0.50005 0 0 0 0,-0.7071 l -0.488282,-0.4863 c 0.105258,-0.208 0.195094,-0.421 0.267578,-0.6426 l 0.689454,0 a 0.50005,0.50005 0 0 0 0.5,-0.5 l 0,-1.8183 a 0.50005,0.50005 0 0 0 -0.5,-0.5 l -0.691407,0 c -0.0719,-0.2217 -0.158985,-0.4363 -0.263672,-0.6446 l 0.486329,-0.4843 a 0.50005,0.50005 0 0 0 0,-0.7071 l -1.285111,-1.2871 a 0.50005,0.50005 0 0 0 -0.708984,0 l -0.486328,0.4883 c -0.208008,-0.1053 -0.421011,-0.1951 -0.642578,-0.2676 l 0,-0.6875 a 0.50005,0.50005 0 0 0 -0.5,-0.5 l -1.81836,0 z m -13.986328,0.9961 c 0.282062,0 0.500003,0.218 0.5,0.5 3e-6,0.2821 -0.217938,0.5 -0.5,0.5 -0.282062,0 -0.500002,-0.2179 -0.5,-0.5 -2e-6,-0.282 0.217938,-0.5 0.5,-0.5 z m 14.486328,0 0.81836,0 0,0.5157 a 0.50005,0.50005 0 0 0 0.388671,0.4863 c 0.393641,0.09 0.769393,0.2463 1.111329,0.4609 a 0.50005,0.50005 0 0 0 0.61914,-0.07 l 0.363281,-0.3633 0.580079,0.5782 -0.363282,0.3613 a 0.50005,0.50005 0 0 0 -0.07031,0.6172 c 0.213722,0.3426 0.368457,0.7193 0.457031,1.1133 a 0.50005,0.50005 0 0 0 0.488281,0.3906 l 0.517579,0 0,0.8183 -0.515626,0 a 0.50005,0.50005 0 0 0 -0.488281,0.3887 c -0.0897,0.3937 -0.244327,0.7694 -0.458984,1.1113 a 0.50005,0.50005 0 0 0 0.06836,0.6192 l 0.365235,0.3633 -0.580079,0.58 -0.361328,-0.3632 a 0.50005,0.50005 0 0 0 -0.617187,-0.07 c -0.342622,0.2137 -0.719312,0.3685 -1.113281,0.4571 a 0.50005,0.50005 0 0 0 -0.390625,0.4883 l 0,0.5156 -0.81836,0 0,-0.5156 a 0.50005,0.50005 0 0 0 -0.388675,-0.4864 c -0.393637,-0.09 -0.769383,-0.2463 -1.111328,-0.4609 a 0.50005,0.50005 0 0 0 -0.61914,0.07 l -0.363282,0.3652 -0.578125,-0.58 0.361328,-0.3614 a 0.50005,0.50005 0 0 0 0.07031,-0.6172 c -0.213719,-0.3426 -0.36846,-0.7192 -0.457031,-1.1132 a 0.50005,0.50005 0 0 0 -0.488282,-0.3907 l -0.515624,0 0,-0.8183 0.515624,0 a 0.50005,0.50005 0 0 0 0.486329,-0.3887 c 0.08971,-0.3936 0.246286,-0.7694 0.460937,-1.1113 a 0.50005,0.50005 0 0 0 -0.07031,-0.6192 l -0.363282,-0.3632 0.578125,-0.5801 0.361329,0.3633 a 0.50005,0.50005 0 0 0 0.61914,0.07 c 0.342617,-0.2137 0.717365,-0.3685 1.111328,-0.4571 a 0.50005,0.50005 0 0 0 0.390625,-0.4882 l 0,-0.5157 z m 0.410157,2.6094 c -1.03654,0 -1.890625,0.8521 -1.890626,1.8887 0,1.0365 0.853867,1.8906 1.890626,1.8906 1.036743,0 1.888671,-0.8541 1.888671,-1.8906 0,-1.0366 -0.852146,-1.8887 -1.888671,-1.8887 z m -13.898438,0.3984 c -0.822354,0 -1.5,0.6777 -1.5,1.5 0,0.6468 0.421006,1.1978 1,1.4063 l 0,0.1719 0,3.1855 c -0.05879,0.022 -0.110251,0.038 -0.203125,0.07 -3.2569594,1.0816 -5.2527993,4.3779 -4.7070312,7.7695 0.5456563,3.3915 3.4742547,5.8946 6.9062502,5.8946 3.43147,0 6.36356,-2.4941 6.914062,-5.8848 0.550503,-3.3908 -1.44182,-6.6892 -4.697265,-7.7754 l -0.01367,-0.01 -0.01367,0 c -0.09762,-0.026 -0.138798,-0.039 -0.185551,-0.053 l 0,-3.1992 0,-0.1699 c 0.579898,-0.208 1.001953,-0.7589 1.001953,-1.4063 0,-0.8223 -0.677646,-1.5 -1.5,-1.5 l -3.001953,0 z m 13.898438,0.6094 c 0.490293,0 0.888671,0.3983 0.888671,0.8887 0,0.4903 -0.398597,0.8906 -0.888671,0.8906 -0.490104,0 -0.890625,-0.4003 -0.890626,-0.8906 0,-0.4905 0.400304,-0.8887 0.890626,-0.8887 z m -13.898438,0.3906 3.001953,0 c 0.285656,0 0.5,0.2144 0.5,0.5 0,0.2857 -0.214344,0.5 -0.5,0.5 l -3.001953,0 c -0.285656,0 -0.5,-0.2143 -0.5,-0.5 0,-0.2856 0.214344,-0.5 0.5,-0.5 z m 0.5,2 2,0 0,0.076 0,3.3359 c 0,0.3383 0.270647,0.6348 0.474609,0.7364 0.19498,0.097 0.353789,0.1222 0.435547,0.1425 2.705898,0.9104 4.367063,3.5895 4.03125,6.4063 -1.514948,0.6476 -3.997758,0.2717 -5.820312,-0.1836 -1.00122,-0.2501 -2.20087,-0.5225 -3.4082034,-0.5898 l 0,0 c -0.919981,-0.051 -1.8434451,0.018 -2.6875,0.3027 -0.1088609,-2.6492 1.5184822,-5.0947 4.0859374,-5.9473 l 0.0039,0 0.0039,0 c 0.09368,-0.033 0.261307,-0.074 0.451172,-0.1738 0.09493,-0.05 0.204715,-0.1164 0.304688,-0.2539 0.09997,-0.1375 0.156878,-0.3694 0.113281,-0.5547 l 0.01171,0.1174 0,-3.3359 0,-0.078 z m 5.818359,2.9981 c -0.220415,10e-5 -0.414784,0.1444 -0.478515,0.3554 0.346041,0.2249 0.67439,0.4733 0.978515,0.7442 l 0,-0.1 1.363282,0 0,0.8203 c -3.69e-4,0.2336 0.160983,0.4363 0.388671,0.4883 0.528175,0.1204 1.033381,0.3292 1.492188,0.6172 0.197544,0.1237 0.454372,0.094 0.619141,-0.07 l 0.578125,-0.5781 0.964843,0.9629 -0.576171,0.5762 c -0.165511,0.1643 -0.195488,0.4212 -0.07227,0.6191 0.286773,0.4597 0.494438,0.9656 0.613281,1.4942 0.05202,0.2277 0.254726,0.3889 0.488281,0.3886 l 0.822266,0 0,1.3653 -0.820312,0 c -0.233555,-4e-4 -0.43626,0.1609 -0.488282,0.3886 -0.120358,0.5282 -0.327216,1.0315 -0.615234,1.4903 -0.124233,0.1971 -0.09588,0.4539 0.06836,0.6191 l 0.580078,0.5801 -0.964843,0.9629 -0.576172,-0.5762 c -0.164769,-0.1648 -0.421597,-0.1923 -0.619141,-0.068 -0.459721,0.2867 -0.963566,0.4944 -1.492187,0.6132 -0.227752,0.051 -0.389875,0.253 -0.390625,0.4864 l 0,0.8222 -1.363282,0 0,-0.041 c -0.300855,0.2684 -0.622891,0.5116 -0.960937,0.7324 0.07789,0.1857 0.259565,0.3067 0.460937,0.3067 l 2.363282,0 c 0.27613,0 0.49997,-0.2238 0.5,-0.5 l 0,-0.9942 c 0.355169,-0.1076 0.697134,-0.2468 1.02539,-0.4199 l 0.699219,0.6992 c 0.195266,0.1952 0.511765,0.1952 0.707031,0 l 1.671875,-1.6699 c 0.195181,-0.1953 0.195181,-0.5118 0,-0.707 l -0.703125,-0.7031 c 0.173571,-0.3271 0.315425,-0.6674 0.423828,-1.0215 l 0.994141,0 c 0.27613,0 0.49997,-0.2238 0.5,-0.5 l 0,-2.3653 c -3e-5,-0.2761 -0.22387,-0.5 -0.5,-0.5 l -0.994141,0 c -0.10741,-0.3546 -0.247166,-0.6956 -0.419918,-1.0234 l 0.699218,-0.7012 c 0.195181,-0.1953 0.195181,-0.5118 0,-0.707 l -1.671875,-1.6699 c -0.195266,-0.1951 -0.511765,-0.1951 -0.707031,0 l -0.701172,0.7011 c -0.327707,-0.1739 -0.668658,-0.3153 -1.023437,-0.4238 l 0,-0.9941 c -3e-5,-0.2761 -0.22387,-0.4999 -0.5,-0.5 l -2.363282,0 z m 13.302735,1 a 0.50005,0.50005 0 0 0 -0.134766,0.018 l -1.404297,0.3769 a 0.50005,0.50005 0 0 0 -0.353515,0.6113 l 0.125,0.4688 c -0.116641,0.08 -0.226992,0.1657 -0.333985,0.2578 l -0.419922,-0.2422 a 0.50005,0.50005 0 0 0 -0.683593,0.1817 l -0.728516,1.2597 a 0.50005,0.50005 0 0 0 0.183594,0.6836 l 0.421875,0.2422 c -0.02677,0.1391 -0.04566,0.2787 -0.05664,0.4199 l -0.46875,0.125 a 0.50005,0.50005 0 0 0 -0.353516,0.6114 l 0.376954,1.4062 a 0.50005,0.50005 0 0 0 0.613281,0.3535 l 0.466797,-0.125 c 0.07959,0.1166 0.165656,0.227 0.257812,0.334 l -0.242187,0.4199 a 0.50005,0.50005 0 0 0 0.18164,0.6836 l 1.259766,0.7266 a 0.50005,0.50005 0 0 0 0.683594,-0.1817 l 0.242187,-0.4218 c 0.139051,0.027 0.27874,0.046 0.419922,0.057 l 0.125,0.4668 a 0.50005,0.50005 0 0 0 0.613281,0.3535 l 1.404297,-0.375 a 0.50005,0.50005 0 0 0 0.353516,-0.6133 l -0.126953,-0.4687 c 0.116776,-0.08 0.228824,-0.1637 0.335937,-0.2559 l 0.419922,0.2422 a 0.50005,0.50005 0 0 0 0.683594,-0.1836 l 0.726562,-1.2597 a 0.50005,0.50005 0 0 0 -0.18164,-0.6817 l -0.421875,-0.2441 c 0.02666,-0.1387 0.04567,-0.2772 0.05664,-0.418 l 0.46875,-0.125 a 0.50005,0.50005 0 0 0 0.353516,-0.6133 l -0.376954,-1.4043 a 0.50005,0.50005 0 0 0 -0.613281,-0.3535 l -0.46875,0.125 c -0.07959,-0.1166 -0.165662,-0.227 -0.257813,-0.334 l 0.244141,-0.4218 a 0.50005,0.50005 0 0 0 -0.183594,-0.6817 l -1.259766,-0.7285 a 0.50005,0.50005 0 0 0 -0.68164,0.1836 l -0.244141,0.4219 c -0.138637,-0.027 -0.277216,-0.046 -0.417969,-0.057 l -0.125,-0.4687 a 0.50005,0.50005 0 0 0 -0.478515,-0.3711 z m -0.357422,1.1113 0,0 0.08008,0.2988 a 0.50005,0.50005 0 0 0 0.5,0.3711 c 0.311602,-0.011 0.622296,0.03 0.919922,0.1231 a 0.50005,0.50005 0 0 0 0.582031,-0.2266 l 0.15625,-0.2715 0.394531,0.2266 -0.15625,0.2715 a 0.50005,0.50005 0 0 0 0.0918,0.6152 c 0.228584,0.2119 0.420625,0.4607 0.566407,0.7363 a 0.50005,0.50005 0 0 0 0.570312,0.25 l 0.300781,-0.08 0.119141,0.4375 -0.298828,0.08 a 0.50005,0.50005 0 0 0 -0.371094,0.5 c 0.01064,0.3116 -0.0302,0.6243 -0.123047,0.9219 a 0.50005,0.50005 0 0 0 0.226563,0.582 l 0.271484,0.1563 -0.228516,0.3945 -0.269531,-0.1562 a 0.50005,0.50005 0 0 0 -0.617187,0.092 c -0.211955,0.2286 -0.460782,0.4206 -0.736328,0.5664 a 0.50005,0.50005 0 0 0 -0.248047,0.5703 l 0.08008,0.3008 -0.439453,0.1191 -0.08008,-0.2988 a 0.50005,0.50005 0 0 0 -0.5,-0.3711 c -0.3116,0.011 -0.622309,-0.032 -0.919922,-0.125 a 0.50005,0.50005 0 0 0 -0.582032,0.2285 l -0.15625,0.2715 -0.394531,-0.2266 0.15625,-0.2715 a 0.50005,0.50005 0 0 0 -0.0918,-0.6171 c -0.228595,-0.2104 -0.420606,-0.4591 -0.566408,-0.7346 a 0.50005,0.50005 0 0 0 -0.572266,-0.2481 l -0.298828,0.078 -0.11914,-0.4375 0.298828,-0.08 a 0.50005,0.50005 0 0 0 0.371094,-0.5 c -0.01063,-0.3116 0.0302,-0.6223 0.123046,-0.9199 a 0.50005,0.50005 0 0 0 -0.226562,-0.5821 l -0.271484,-0.1562 0.226562,-0.3945 0.271484,0.1562 a 0.50005,0.50005 0 0 0 0.617188,-0.096 c 0.211959,-0.2285 0.460791,-0.4187 0.736328,-0.5645 a 0.50005,0.50005 0 0 0 0.248047,-0.5722 l -0.08008,-0.3008 0.439453,-0.1172 z m 0.574219,1.834 c -0.103256,0.01 -0.204861,0.026 -0.304688,0.053 -0.399306,0.1071 -0.757557,0.3653 -0.978515,0.7481 -0.441949,0.7653 -0.177723,1.7591 0.58789,2.2011 0.765618,0.4421 1.759269,0.1756 2.201172,-0.5898 0.441913,-0.7655 0.175611,-1.7592 -0.589844,-2.2012 -0.287062,-0.1657 -0.606247,-0.2333 -0.916015,-0.2109 z m 0.185547,1 c 0.07869,0.01 0.157384,0.036 0.230468,0.078 0.292385,0.1688 0.393496,0.5415 0.22461,0.834 -0.168797,0.2924 -0.543716,0.3933 -0.835938,0.2246 -0.292227,-0.1687 -0.391408,-0.5437 -0.222656,-0.8359 0.126661,-0.2195 0.367429,-0.3305 0.603516,-0.3008 z m -10.769532,0.1582 c 0.256001,1.0108 0.319186,2.0841 0.142578,3.1719 -0.03365,0.2073 -0.07796,0.4101 -0.126953,0.6113 0.488696,-0.4847 0.792969,-1.1543 0.792969,-1.8906 0,-0.7412 -0.31284,-1.4102 -0.808594,-1.8926 z m -11.894531,2.8418 c 1.322012,-0.044 2.801244,0.2367 4.019531,0.541 1.674914,0.4182 3.945862,0.8915 5.814453,0.3691 -0.79526,2.4386 -3.065852,4.1446 -5.697265,4.1426 -2.834231,0 -5.2395376,-1.9879 -5.8378909,-4.7324 0.5068372,-0.1929 1.0819039,-0.2997 1.7011719,-0.3203 z" color="#000" font-family="sans-serif" font-weight="400" overflow="visible" white-space="normal"/></g></svg>