<svg xmlns="http://www.w3.org/2000/svg" xmlns:xlink="http://www.w3.org/1999/xlink" width="42" height="42" viewBox="0 0 42 42"><defs><linearGradient id="b" x1="868.253" x2="937.656" y1="521.354" y2="588.736" gradientTransform="translate(-1161.097 316.47) scale(1.34562)" gradientUnits="userSpaceOnUse" xlink:href="#a"/><linearGradient id="a"><stop offset="0" stop-color="#24f3d2"/><stop offset=".394" stop-color="#0674f0"/><stop offset=".507" stop-color="#6961b5"/><stop offset=".813" stop-color="#f34660"/><stop offset="1" stop-color="#ee078d"/></linearGradient></defs><g transform="translate(0 -1010.362)"><rect width="42" height="42" y="1010.362" fill="url(#b)" rx="8.876" ry="8.876"/><path style="line-height:normal;text-indent:0;text-align:start;text-decoration-line:none;text-decoration-style:solid;text-decoration-color:#000;text-transform:none;block-progression:tb;isolation:auto;mix-blend-mode:normal" fill="#fff" d="m 10.518402,1017.3643 a 0.50005,0.50005 0 0 0 -0.5,0.5 l 0,24.9824 -0.4941409,0.4981 c -0.568281,0.5736 -0.5643717,1.5123 0.00391,2.0859 a 0.50004997,0.50004997 0 0 0 0.00195,0 c 0.5691859,0.5691 1.5127279,0.5745 2.0800779,0 l 2.044922,-2.0625 1.050781,0 5.312501,0 9.5,0 a 0.50005,0.50005 0 0 0 0.5,-0.5 l 0,-1.0019 a 0.50005,0.50005 0 0 0 -0.507813,-0.5079 0.50005,0.50005 0 0 0 -0.492187,0.5079 l 0,0.5019 -9,0 -5.312501,0 -0.05859,0 0.603516,-0.6094 0.01563,0.016 a 0.50005006,0.50005006 0 0 0 0.710937,0 l 1.183594,-1.1973 c 1.323762,0.5319 2.822587,0.4468 4.107422,-0.2109 a 0.50005,0.50005 0 0 0 0.002,0 l 10.24414,0 a 0.50005,0.50005 0 1 0 0,-1 l -8.884765,0 c 0.288887,-0.3054 0.516377,-0.6438 0.714844,-0.9961 l 11.173828,0 a 0.50004997,0.50004997 0 1 0 0,-1 l -0.5,0 0,-11.5059 a 0.50005,0.50005 0 0 0 -0.5,-0.5 l -2,0 a 0.50005,0.50005 0 0 0 -0.5,0.5 l 0,11.5059 -1,0 0,-6.5059 a 0.50004997,0.50004997 0 0 0 -0.5,-0.5 l -2,0 a 0.50004997,0.50004997 0 0 0 -0.5,0.5 l 0,6.5059 -1,0 0,-8.5059 a 0.50005,0.50005 0 0 0 -0.5,-0.5 l -2,0 a 0.50005,0.50005 0 0 0 -0.5,0.5 l 0,4.002 c -0.137614,-0.1844 -0.284956,-0.3636 -0.451172,-0.5313 -1.231331,-1.2429 -2.954684,-1.6864 -4.548828,-1.3476 l 0,-6.1172 a 0.50004997,0.50004997 0 0 0 -0.50786,-0.5079 l 0,0 a 0.50004997,0.50004997 0 0 0 -0.492187,0.5078 l 0,6.4551 c -0.545124,0.2448 -1.059391,0.5788 -1.50586,1.0293 -1.443102,1.4562 -1.816504,3.5875 -1.126953,5.3906 l -1.210937,1.2208 a 0.50005006,0.50005006 0 0 0 0,0.7011 l -0.66211,0.666 -0.755859,0.7637 -0.642578,0.6465 -0.0957,0.098 0,-23.4727 14,0 0,3.5039 a 0.50005,0.50005 0 0 0 0.5,0.5 l 3.5,0 0,2.4922 0,4.0059 a 0.50005,0.50005 0 1 0 1,0 l 0,-4.0059 0,-2.9609 a 0.50005,0.50005 0 0 0 0,-0.024 0.50005,0.50005 0 0 0 -0.146485,-0.3613 l -4,-4 a 0.50005,0.50005 0 0 0 -0.361328,-0.1465 0.50005,0.50005 0 0 0 -0.05859,0 0.50005,0.50005 0 0 0 -0.08984,-0.01 l -14.84375,0 z m 15.5,1.7109 2.292969,2.293 -2.292969,0 0,-2.293 z m -12.550782,1.2911 a 0.50064427,0.50064427 0 0 0 0.05078,1 l 1,0 a 0.50005,0.50005 0 1 0 0,-1 l -1,0 a 0.50005,0.50005 0 0 0 -0.05078,0 z m 3.015625,0 a 0.50064429,0.50064429 0 0 0 0.05078,1 l 3.976562,0 a 0.50005,0.50005 0 1 0 0,-1 l -3.976562,0 a 0.50005,0.50005 0 0 0 -0.05078,0 z m -3.015625,2 a 0.50064427,0.50064427 0 0 0 0.05078,1 l 1,0 a 0.50005,0.50005 0 1 0 0,-1 l -1,0 a 0.50005,0.50005 0 0 0 -0.05078,0 z m 3.015625,0 a 0.50064429,0.50064429 0 0 0 0.05078,1 l 3.976562,0 a 0.50005,0.50005 0 1 0 0,-1 l -3.976562,0 a 0.50005,0.50005 0 0 0 -0.05078,0 z m 15.535157,3.998 1,0 0,10.9883 -1,0 0,-10.9883 z m -8,3 1,0 0,7.9883 -1,0 0,-7.9883 z m 4,2 1,0 0,5.9883 -1,0 0,-5.9883 z m -8.97461,0.5059 c 1.020999,0 2.041219,0.3896 2.820313,1.1757 0.751832,0.7587 1.130536,1.7445 1.154297,2.7383 l 0,0.209 c -0.01297,0.4682 -0.100886,0.9341 -0.275391,1.377 l -0.724609,0 0,-3.5176 a 0.50005,0.50005 0 0 0 -0.5,-0.5 l -2,0 a 0.50005,0.50005 0 0 0 -0.5,0.5 l 0,3.5176 -1,0 0,-5.3438 c 0.337181,-0.092 0.679214,-0.1553 1.02539,-0.1562 z m -2.02539,0.58 0,5.4161 a 0.50004997,0.50004997 0 0 0 0.435547,0.4941 0.50004997,0.50004997 0 0 0 0.05859,0.01 0.50004997,0.50004997 0 0 0 0.0059,0 l 4.632812,0 c -0.09876,0.1265 -0.186946,0.2582 -0.302734,0.375 -1.569446,1.5831 -4.090258,1.588 -5.648438,0.016 -1.558189,-1.5723 -1.553821,-4.1136 0.01563,-5.6972 0.244684,-0.247 0.519083,-0.4431 0.802735,-0.6133 z m 3,1.9024 1,0 0,3 -1,0 0,-3 z m -5.158203,4.3301 c 0.181664,0.2786 0.392188,0.5442 0.634765,0.789 0.232058,0.2342 0.483141,0.4373 0.746094,0.6153 l -0.619141,0.625 -1.386718,-1.3985 0.625,-0.6308 z m -0.982422,1.6914 0.667968,0.6738 -3.646484,3.6816 a 0.50004997,0.50004997 0 0 0 -0.0019,0 c -0.188769,0.1924 -0.462778,0.1898 -0.658203,0 -0.191292,-0.1948 -0.191826,-0.49 -0.0039,-0.6797 l 1.044922,-1.0546 0.544922,-0.5489 0.642578,-0.6465 0.755859,-0.7636 0.654297,-0.6621 z" color="#000" font-family="sans-serif" font-weight="400" overflow="visible" white-space="normal"/></g></svg>