<svg xmlns="http://www.w3.org/2000/svg" xmlns:xlink="http://www.w3.org/1999/xlink" width="42" height="42" viewBox="0 0 42 42"><defs><linearGradient id="b" x1="906.952" x2="931.379" y1="515.915" y2="546.094" gradientTransform="translate(-1215.129 316.47) scale(1.34562)" gradientUnits="userSpaceOnUse" xlink:href="#a"/><linearGradient id="a"><stop offset="0" stop-color="#ffd800"/><stop offset="1" stop-color="#ff6100"/></linearGradient></defs><g transform="translate(0 -1010.362)"><rect width="42" height="42" y="1010.362" fill="url(#b)" rx="8.876" ry="8.876"/><path fill="#f9f9f9" fill-rule="evenodd" style="line-height:normal;text-indent:0;text-align:start;text-decoration-line:none;text-decoration-style:solid;text-decoration-color:#000;text-transform:none;block-progression:tb;isolation:auto;mix-blend-mode:normal" d="m 20,1016.3622 0,4.0254 c -5.669125,0.2564 -10.218667,4.8054 -10.474609,10.4746 l -4.025391,0 0,1 4.025391,0 C 9.78176,1037.531 14.331143,1042.0805 20,1042.3368 l 0,4.0254 1,0 0,-4.0254 c 5.668857,-0.2563 10.21824,-4.8058 10.474609,-10.4746 l 4.025391,0 0,-1 -4.025391,0 C 31.218667,1025.193 26.669125,1020.644 21,1020.3876 l 0,-4.0254 -1,0 z m -0.962891,2.0898 -0.49414,0.074 -0.636719,0.096 -0.05078,0.012 -0.341797,0.088 -0.484375,0.123 0.248047,0.9688 0.484374,-0.1231 0.294922,-0.078 0.0098,0 0.628906,-0.096 0.494141,-0.076 -0.152344,-0.9883 z m 2.886719,0 -0.152344,0.9883 0.494141,0.076 0.628906,0.096 0.0098,0 0.294922,0.078 0.484375,0.1231 0.248047,-0.9688 -0.484375,-0.123 -0.341797,-0.088 -0.05078,-0.012 -0.636719,-0.096 -0.494141,-0.074 z m -5.892578,0.7149 -0.46875,0.1719 -0.09961,0.037 -0.04492,0.02 -0.806641,0.3867 -0.449219,0.2188 0.433594,0.9004 0.449219,-0.2168 0.78125,-0.377 0.08008,-0.029 0.46875,-0.1719 -0.34375,-0.9394 z m 8.898438,0 -0.34375,0.9394 0.46875,0.1719 0.08008,0.029 0.78125,0.377 0.449218,0.2168 0.433594,-0.9004 -0.449219,-0.2188 -0.80664,-0.3867 -0.04492,-0.02 -0.09961,-0.037 -0.46875,-0.1719 z m -11.699219,1.4141 -0.400391,0.3007 -0.580078,0.4356 -0.03711,0.027 -0.203125,0.1856 -0.369141,0.3359 0.671875,0.7402 0.369141,-0.3359 0.18164,-0.166 0.566407,-0.4238 0.40039,-0.2989 -0.599609,-0.8007 z m 14.5,0 -0.59961,0.8007 0.400391,0.2989 0.566406,0.4238 0.181641,0.166 0.369141,0.3359 0.671874,-0.7402 -0.36914,-0.3359 -0.203125,-0.1856 -0.03711,-0.027 -0.580079,-0.4356 -0.40039,-0.3007 z M 20,1021.3876 l 0,3.0527 1,0 0,-3.0527 c 5.127485,0.2534 9.221207,4.3472 9.474609,9.4746 l -3.050781,0 0,1 3.050781,0 c -0.253403,5.1275 -4.347101,9.2212 -9.474609,9.4746 l 0,-3.0508 -1,0 0,3.0508 c -5.127508,-0.2534 -9.221206,-4.3471 -9.474609,-9.4746 l 3.050781,0 0,-1 -3.050781,0 c 0.253402,-5.1274 4.347124,-9.2212 9.474609,-9.4746 z m -9.095703,1.2226 -0.335938,0.3731 -0.08398,0.092 -0.03125,0.037 -0.523437,0.7012 -0.298829,0.4004 0.800782,0.5996 0.298828,-0.4004 0.49414,-0.6641 0.0098,-0.012 0.07422,-0.084 0.335937,-0.3691 -0.740234,-0.6739 z m 19.152344,0 -0.740235,0.6739 0.335938,0.3691 0.07422,0.084 0.0098,0.012 0.494141,0.6641 0.298828,0.4004 0.800745,-0.5996 -0.298828,-0.4004 -0.523438,-0.7012 -0.03125,-0.037 -0.08398,-0.092 -0.335937,-0.3731 z m -20.9843754,2.5489 -0.2167968,0.4492 -0.3242188,0.6719 -0.017578,0.045 -0.087891,0.2402 -0.171875,0.4688 0.9394532,0.3437 0.171875,-0.4687 0.074219,-0.2071 0.3164068,-0.6582 0.216796,-0.4511 -0.9003903,-0.4336 z m 22.8164064,0 -0.900391,0.4336 0.216797,0.4511 0.316406,0.6582 0.07422,0.2071 0.171875,0.4687 0.939453,-0.3437 -0.171875,-0.4688 -0.08789,-0.2402 -0.01758,-0.045 -0.324219,-0.6719 -0.216797,-0.4492 z M 20.5,1025.3622 c -3.307925,0 -6.000035,2.6921 -6,6 2.5e-5,3.3079 2.692118,6 6,6 3.307882,0 5.999975,-2.6921 6,-6 3.5e-5,-3.3079 -2.692075,-6 -6,-6 z m 0,1 c 2.767488,0 5.00003,2.2326 5,5 -2.1e-5,2.7674 -2.232548,5 -5,5 -2.767452,0 -4.999979,-2.2326 -5,-5 -3e-5,-2.7674 2.232512,-5 5,-5 z m -0.0078,1 0,0 a 0.44486509,0.44432624 0 0 0 -0.4375,0.4512 l 0,0.3906 c -0.872022,0.1831 -1.5547,0.8867 -1.5547,1.7734 0,1.0332 0.926061,1.8262 2,1.8262 0.649492,0 1.109375,0.4409 1.109375,0.9375 0,0.4967 -0.459857,0.9355 -1.109375,0.9355 -0.649509,0 -1.109375,-0.4388 -1.109375,-0.9355 0.0089,-0.6009 -0.899139,-0.6009 -0.890625,0 0,0.9109 0.696797,1.5827 1.554688,1.7754 l 0,0.3925 a 0.445312,0.44477261 0 0 0 0.890624,0 l 0,-0.3945 c 0.872009,-0.1811 1.554688,-0.8848 1.554688,-1.7714 0,-1.0332 -0.926061,-1.8262 -2,-1.8262 -0.649491,0 -1.109375,-0.4409 -1.109375,-0.9375 0,-0.4901 0.450261,-0.92 1.085937,-0.9317 a 0.44486509,0.44432624 0 0 0 0.04883,0 c 0.634528,0.013 1.083984,0.4401 1.083984,0.9297 -0.0089,0.6008 0.899139,0.6008 0.890625,0 0,-0.911 -0.696798,-1.5827 -1.554688,-1.7754 l 0,-0.3886 a 0.44486509,0.44432624 0 0 0 -0.453125,-0.4512 z m -12.5468755,0.6738 -0.125,0.4844 -0.050781,0.1992 -0.00977,0.049 -0.1191406,0.7851 -0.076172,0.4941 0.9882813,0.1524 0.076172,-0.4941 0.1152344,-0.7598 0.044922,-0.1758 0.125,-0.4844 -0.96875,-0.25 z m 25.0703125,0 -0.96875,0.25 0.125,0.4844 0.04492,0.1758 0.115234,0.7598 0.07617,0.4941 0.988281,-0.1524 -0.07617,-0.4941 -0.11914,-0.7851 -0.0098,-0.049 -0.05078,-0.1992 -0.125,-0.4844 z m -24.4628906,4.7481 -0.9882813,0.1504 0.076172,0.4922 0.080078,0.5293 0.00977,0.051 0.1152343,0.4512 0.125,0.4824 0.96875,-0.248 -0.125,-0.4844 -0.109375,-0.4258 -0.076172,-0.5039 -0.076172,-0.4941 z m 23.8554686,0 -0.07617,0.4941 -0.07617,0.5039 -0.109375,0.4258 -0.125,0.4844 0.96875,0.248 0.125,-0.4824 0.115235,-0.4512 0.0098,-0.051 0.08008,-0.5293 0.07617,-0.4922 -0.988281,-0.1504 z m -23.2285155,2.7812 -0.9023437,0.4336 0.2167968,0.4512 0.4355469,0.9004 0.2167969,0.4512 0.9003786,-0.4336 -0.216797,-0.4512 -0.4335936,-0.9004 -0.2167969,-0.4512 z m 22.6015625,0 -0.216797,0.4512 -0.433594,0.9004 -0.216797,0.4512 0.900391,0.4336 0.216797,-0.4512 0.435547,-0.9004 0.216797,-0.4512 -0.902344,-0.4336 z m -21.234375,2.5567 -0.800781,0.5976 0.300781,0.4004 0.367187,0.4942 0.03125,0.037 0.257813,0.2832 0.337891,0.3711 0.740222,-0.6739 -0.337891,-0.3691 -0.248046,-0.2754 -0.0098,-0.01 -0.337891,-0.455 -0.300781,-0.4004 z m 19.867187,0 -0.300781,0.4004 -0.33789,0.455 -0.0098,0.01 -0.248047,0.2754 -0.33789,0.3692 0.740234,0.6738 0.33789,-0.3711 0.257813,-0.2832 0.03125,-0.037 0.367187,-0.4942 0.300782,-0.4003 -0.800782,-0.5977 z m -17.949218,2.1738 -0.671875,0.7402 0.36914,0.336 0.01172,0.01 0.03711,0.031 0.789051,0.5898 0.400391,0.3008 0.597656,-0.8027 -0.400391,-0.2989 -0.761718,-0.5683 -0.0059,-0.01 -0.365235,-0.3281 z m 16.03125,0 -0.365235,0.3281 -0.0059,0.01 -0.761719,0.5684 -0.40039,0.2988 0.597656,0.8027 0.400391,-0.3007 0.789062,-0.5899 0.03711,-0.031 0.01172,-0.01 0.369141,-0.336 -0.671875,-0.7402 z m -13.705078,1.6406 -0.435547,0.9004 0.451172,0.2168 0.572265,0.2754 0.04492,0.022 0.341797,0.125 0.470703,0.1719 0.34375,-0.9395 -0.470703,-0.1719 -0.324219,-0.1191 -0.544922,-0.2617 -0.449218,-0.2188 z m 11.378906,0 -0.449219,0.2188 -0.544922,0.2617 -0.324219,0.1191 -0.470703,0.1719 0.34375,0.9395 0.470703,-0.1719 0.341797,-0.125 0.04492,-0.022 0.572266,-0.2754 0.451172,-0.2168 -0.435547,-0.9004 z m -8.679688,1.041 -0.248046,0.9688 0.484374,0.123 0.08984,0.024 0.05078,0.01 0.894531,0.1367 0.49414,0.076 0.150391,-0.9883 -0.494141,-0.076 -0.86914,-0.1328 -0.06836,-0.018 -0.484375,-0.123 z m 5.980469,0 -0.484375,0.1231 -0.06836,0.018 -0.869141,0.1328 -0.49414,0.076 0.15039,0.9883 0.494141,-0.076 0.894531,-0.1368 0.05078,-0.01 0.08984,-0.023 0.484375,-0.1231 -0.248047,-0.9687 z" color="#000" font-family="sans-serif" font-weight="400" overflow="visible" white-space="normal"/></g></svg>