<svg xmlns="http://www.w3.org/2000/svg" xmlns:xlink="http://www.w3.org/1999/xlink" width="42" height="42" viewBox="0 0 42 42"><defs><linearGradient id="b" x1="1056.035" x2="1031.176" y1="544.13" y2="517.701" gradientTransform="translate(-1384.02 316.47) scale(1.34562)" gradientUnits="userSpaceOnUse" xlink:href="#a"/><linearGradient id="a"><stop offset="0" stop-color="#5a5a5a"/><stop offset="1" stop-color="#656e85"/></linearGradient></defs><g transform="translate(0 -1010.362)"><rect width="42" height="42" y="1010.362" fill="url(#b)" rx="8.876" ry="8.876"/><path style="line-height:normal;text-indent:0;text-align:start;text-decoration-line:none;text-decoration-style:solid;text-decoration-color:#000;text-transform:none;block-progression:tb;isolation:auto;mix-blend-mode:normal" fill="#fff" d="m 6.5097457,1017.3371 a 0.50005,0.50005 0 0 0 -0.4921875,0.5059 l 0,18.9785 a 0.50022217,0.50022217 0 0 0 0,0.049 l 0,7.8418 a 0.50004997,0.50004997 0 0 0 0.1425781,0.4981 0.50005,0.50005 0 0 0 0.4882813,0.1347 l 26.8691404,0 a 0.50004997,0.50004997 0 1 0 0,-1 l -3.5,0 0,-11.4687 a 0.50005006,0.50005006 0 0 0 0.675782,0.166 l 0.01758,-0.01 2.566406,4.4922 c 0.400545,0.7011 1.312664,0.9396 2.009766,0.5371 a 0.50004997,0.50004997 0 0 0 0.002,0 c 0.697471,-0.407 0.943454,-1.3126 0.542968,-2.0137 l -0.736328,-1.291 -0.384765,-0.6699 -0.451172,-0.793 -0.533203,-0.9316 -0.466797,-0.8164 a 0.50005006,0.50005006 0 0 0 0.179687,-0.6778 l -0.851562,-1.4941 c 1.131359,-1.5631 1.321286,-3.7149 0.304687,-5.4942 -1.372816,-2.4026 -4.429226,-3.2329 -6.810547,-1.8437 -2.186905,1.2758 -3.049318,3.9844 -2.113281,6.2793 l -3.310547,3.0742 -4.164062,-3.4394 a 0.50004997,0.50004997 0 0 0 -0.648438,0.012 l -8.8281248,7.7754 0,-17.8946 a 0.50005,0.50005 0 0 0 -0.5078615,-0.5058 z m 22.3417973,5.0352 c 1.276798,0.09 2.486422,0.8018 3.177734,2.0117 1.106105,1.9359 0.453058,4.3923 -1.458984,5.5078 -0.178992,0.1044 -0.366129,0.1782 -0.552735,0.2519 l 0,-1.2812 a 0.50004994,0.50004994 0 0 0 -0.5,-0.5 l -3,0 a 0.50004994,0.50004994 0 0 0 -0.5,0.5 l 0,0.6152 c -0.311584,-0.2649 -0.587181,-0.5784 -0.814453,-0.9453 l 3.814453,-3.543 0,0.8555 a 0.50005,0.50005 0 1 0 1,0 l 0,-1.9375 a 0.50004997,0.50004997 0 0 0 -0.492187,-0.5683 l 0,0 a 0.50004997,0.50004997 0 0 0 -0.06641,0 l -1.941407,0 a 0.50005,0.50005 0 1 0 0,1 l 0.726563,0 -3.478516,3.2305 c -0.536786,-1.7594 0.167765,-3.7105 1.8125,-4.6699 0.717013,-0.4183 1.507359,-0.5875 2.273438,-0.5332 z m -12.666016,6.6211 4.173828,3.4453 a 0.50004997,0.50004997 0 0 0 0.658203,-0.021 l 3.435547,-3.1895 c 0.416709,0.6203 0.958797,1.1031 1.564453,1.4688 l 0,13.6484 -2,0 0,-9.5 a 0.50004997,0.50004997 0 0 0 -0.5,-0.5 l -3,0 a 0.50004997,0.50004997 0 0 0 -0.5,0.5 l 0,9.5 -2,0 0,-11.5 a 0.50004997,0.50004997 0 0 0 -0.5,-0.5 l -3,0 a 0.50004997,0.50004997 0 0 0 -0.5,0.5 l 0,11.5 -2,0 0,-6.5 a 0.50005,0.50005 0 0 0 -0.5,-0.5 l -2.9999998,0 a 0.50005,0.50005 0 0 0 -0.5,0.5 l 0,6.5 -1,0 0,-7.2754 9.1679688,-8.0761 z m 10.832031,0.3691 2,0 0,1.043 c -0.686696,0.078 -1.372097,-0.037 -2,-0.3067 l 0,-0.7363 z m 4.869141,0.8008 0.439453,0.7695 -1.701172,0.9922 -0.435547,-0.7637 c 0.29904,-0.1036 0.593112,-0.2348 0.876954,-0.4004 0.297665,-0.1736 0.572722,-0.3755 0.820312,-0.5976 z m -4.869141,0.998 c 0.642122,0.2136 1.31877,0.2989 2,0.2383 l 0,12.9453 -2,0 0,-13.1836 z m 5.378907,0.8887 0.460937,0.8066 0.533203,0.9317 0.453125,0.7929 0.382813,0.67 0.738281,1.291 c 0.132417,0.2318 0.05543,0.5138 -0.179687,0.6523 -0.238967,0.1367 -0.506335,0.066 -0.638672,-0.166 l -2.570313,-4.5 0.820313,-0.4785 z m -17.378907,1.2949 2,0 0,11 -2,0 0,-11 z m 6,2 2,0 0,9 -2,0 0,-9 z m -11.9999998,3 1.9999998,0 0,6 -1.9999998,0 0,-6 z" color="#000" font-family="sans-serif" font-weight="400" overflow="visible" white-space="normal"/></g></svg>