<svg xmlns="http://www.w3.org/2000/svg" xmlns:xlink="http://www.w3.org/1999/xlink" width="42" height="42" viewBox="0 0 42 42"><defs><linearGradient id="b" x1="1056.035" x2="1031.176" y1="544.13" y2="517.701" gradientTransform="translate(-1384.02 316.47) scale(1.34562)" gradientUnits="userSpaceOnUse" xlink:href="#a"/><linearGradient id="a"><stop offset="0" stop-color="#5a5a5a"/><stop offset="1" stop-color="#656e85"/></linearGradient></defs><g transform="translate(0 -1010.362)"><rect width="42" height="42" y="1010.362" fill="url(#b)" rx="8.876" ry="8.876"/><path fill="#fff" style="line-height:normal;text-indent:0;text-align:start;text-decoration-line:none;text-decoration-style:solid;text-decoration-color:#000;text-transform:none;block-progression:tb;isolation:auto;mix-blend-mode:normal" d="m 27.882366,1015.1922 a 0.50005,0.50005 0 0 0 -0.134766,0.018 l -1.992188,0.5352 a 0.50029236,0.50029236 0 1 0 0.257813,0.9668 l 0.8125,-0.2168 c -3.507773,5.7886 -11.453899,12.7941 -19.4257811,14.375 a 0.5008243,0.5008243 0 0 0 0.1953124,0.9824 c 8.4081367,-1.6675 16.4519487,-8.8067 20.1074217,-14.873 l 0.222656,0.832 a 0.50029085,0.50029085 0 1 0 0.966797,-0.2578 l -0.53125,-1.9903 a 0.50005,0.50005 0 0 0 -0.478515,-0.3711 z m -1.884766,7.168 c -0.27613,0 -0.49997,0.2238 -0.5,0.5 l 0,9.0977 0.462891,0 c 0.20743,0 0.380489,0.046 0.537109,0.1054 l 0,-8.7031 2,0 0,4.6524 0.708984,-0.7071 -0.169922,0.2012 c 0.12598,-0.1799 0.286948,-0.3039 0.460938,-0.3984 l 0,-4.2481 c -3e-5,-0.2762 -0.22387,-0.5 -0.5,-0.5 l -3,0 z m 5.480469,5 c -0.171667,0 -0.299817,0.081 -0.376953,0.1621 -0.07714,0.082 -0.123586,0.1712 -0.138672,0.2969 l 0.002,-0.023 -0.06445,0.3886 -0.310547,-0.2246 0.09766,0.094 c -0.195916,-0.2449 -0.633207,-0.2555 -0.830078,0.025 l 0.05664,-0.066 -1.16211,1.1622 a 0.50004997,0.50004997 0 0 0 -0.05664,0.066 c -0.127594,0.1823 -0.12427,0.4385 0.0098,0.6172 l 0.21875,0.3027 -0.388672,0.064 0.08203,-0.01 c -0.171667,0 -0.284898,0.07 -0.367188,0.1524 -0.08229,0.083 -0.152344,0.1972 -0.152344,0.3672 l 0,1.6386 c 0,0.1733 0.08783,0.3059 0.166016,0.3789 0.07819,0.073 0.154003,0.1105 0.253906,0.1309 a 0.50004997,0.50004997 0 0 0 0.01758,0 l 0.392579,0.066 -0.230469,0.3223 a 0.50004997,0.50004997 0 0 0 -0.02148,0.033 c -0.04587,0.077 -0.07372,0.1562 -0.07617,0.2617 -0.0025,0.1056 0.03099,0.2576 0.152344,0.3789 l 1.16211,1.1524 -0.05664,-0.068 c 0.199437,0.2849 0.634991,0.2761 0.833984,0.022 l -0.105468,0.1015 0.314453,-0.2226 0.06445,0.3867 -0.0039,-0.035 c 0.01364,0.1364 0.06725,0.2301 0.144531,0.3106 0.07728,0.081 0.198079,0.1601 0.373047,0.1601 l 1.638672,0 c 0.171666,0 0.298228,-0.081 0.375,-0.1621 0.07677,-0.081 0.124551,-0.1692 0.140625,-0.2929 l 0.06055,-0.375 0.328126,0.2324 -0.101563,-0.096 c 0.195916,0.2449 0.631254,0.2535 0.828125,-0.027 l -0.05469,0.068 1.152344,-1.1523 a 0.50004997,0.50004997 0 0 0 0.05469,-0.068 c 0.127594,-0.1823 0.124268,-0.4365 -0.0098,-0.6152 l -0.222656,-0.3125 0.392578,-0.066 -0.08203,0.01 c 0.171666,0 0.284897,-0.072 0.367187,-0.1543 0.08215,-0.08 0.152274,-0.1914 0.152274,-0.3614 l 0,-1.6386 c 0,-0.1733 -0.08783,-0.3059 -0.166016,-0.3789 -0.07819,-0.073 -0.154003,-0.1105 -0.253906,-0.1309 a 0.50004997,0.50004997 0 0 0 -0.01953,0 l -0.382813,-0.062 0.22461,-0.3184 a 0.50004997,0.50004997 0 0 0 0.01953,-0.031 c 0.04587,-0.076 0.07372,-0.1562 0.07617,-0.2617 0.0024,-0.1051 -0.03037,-0.2559 -0.150391,-0.377 l -1.152344,-1.1601 0.05469,0.064 c -0.199437,-0.2849 -0.633038,-0.2762 -0.832031,-0.021 l 0.103515,-0.1 -0.322265,0.2305 -0.06641,-0.3945 0.0039,0.033 c -0.01364,-0.1364 -0.06682,-0.2299 -0.144531,-0.3106 -0.07771,-0.081 -0.199747,-0.1582 -0.373047,-0.1582 l -1.638672,0 0,0 z m -11.480469,1 c -0.27613,0 -0.49997,0.2238 -0.5,0.5 l 0,5.3301 0.994141,-0.9941 0.0059,0 0,-3.8321 2,0 0,2.9238 c 0.21694,-0.1951 0.5115,-0.3242 0.9375,-0.3242 l 0.0625,0 0,-3.0976 c -3e-5,-0.2761 -0.22387,-0.5 -0.5,-0.5 l -3.000041,-0.01 z m 11.886719,0 0.826172,0 0.132812,0.7832 a 0.50004997,0.50004997 0 0 0 0.783203,0.3242 l 0.644532,-0.4609 0.582031,0.5879 -0.457031,0.6504 a 0.50004997,0.50004997 0 0 0 0.330078,0.7812 l 0.771484,0.1231 0,0.8242 -0.785156,0.1309 a 0.50004997,0.50004997 0 0 0 -0.324219,0.7851 l 0.462891,0.6465 -0.580078,0.5801 -0.65625,-0.4649 a 0.50004997,0.50004997 0 0 0 -0.783204,0.3282 l -0.123046,0.7812 -0.824219,0 -0.13086,-0.7754 a 0.50004997,0.50004997 0 0 0 -0.783203,-0.3242 l -0.638672,0.4531 -0.585937,-0.5801 0.460937,-0.6445 a 0.50004997,0.50004997 0 0 0 -0.324218,-0.7851 l -0.785157,-0.1309 0,-0.8262 0.785157,-0.1328 a 0.50004997,0.50004997 0 0 0 0.322265,-0.7851 l -0.458984,-0.6348 0.585937,-0.5859 0.634766,0.4589 a 0.50004997,0.50004997 0 0 0 0.787109,-0.3242 l 0.13086,-0.7832 z m 0.416015,1.6992 c -0.824499,0 -1.501953,0.6793 -1.501953,1.5039 0,0.8244 0.681551,1.4961 1.501953,1.4961 0.820408,0 1.498047,-0.6759 1.498047,-1.4961 0,-0.8204 -0.673542,-1.5039 -1.498047,-1.5039 z m 0,1 c 0.281795,0 0.498047,0.2178 0.498047,0.5039 0,0.2857 -0.212154,0.4961 -0.498047,0.4961 -0.285878,0 -0.501953,-0.2146 -0.501953,-0.4961 0,-0.2819 0.220173,-0.5039 0.501953,-0.5039 z m -18.302734,1.3008 a 0.50004997,0.50004997 0 0 0 -0.5,0.5 l 0,12 a 0.50004997,0.50004997 0 0 0 0.5,0.5 l 3,0 a 0.50004997,0.50004997 0 0 0 0.5,-0.5 l 0,-12 a 0.50004997,0.50004997 0 0 0 -0.5,-0.5 l -3,0 z m 9.4375,0.5996 c -0.344147,0 -0.496021,0.2182 -0.527344,0.4688 l -0.169922,1.0058 -0.804687,-0.58 c -0.120178,-0.099 -0.225993,-0.1215 -0.335938,-0.1231 -0.109944,0 -0.250694,0.02 -0.386718,0.1602 l -1.78711,1.7851 a 0.50004997,0.50004997 0 0 0 -0.0039,0.01 c -0.136025,0.1398 -0.150991,0.2792 -0.148437,0.3828 0.0026,0.1036 0.01999,0.194 0.107421,0.3106 l 0.59375,0.8242 -1.027343,0.1738 0.08398,-0.01 c -0.174167,0 -0.289799,0.071 -0.375,0.1563 -0.0852,0.085 -0.15625,0.2045 -0.15625,0.375 l 0,2.5254 c 0,0.1809 0.08115,0.302 0.160156,0.3789 0.07799,0.076 0.167271,0.1277 0.300782,0.1465 0.0017,3e-4 0.0021,0 0.0039,0 l 1.015625,0.1699 -0.59961,0.8379 c -0.08743,0.1166 -0.10487,0.2089 -0.107421,0.3125 -0.0026,0.1036 0.01241,0.243 0.148437,0.3828 a 0.50004997,0.50004997 0 0 0 0.0059,0.01 l 1.791016,1.7754 -0.0059,-0.01 c 0.136567,0.1404 0.276901,0.1598 0.386718,0.1582 0.109818,0 0.216448,-0.024 0.337891,-0.125 l 0.802734,-0.5703 0.171875,1.0039 c 0.01726,0.1295 0.06475,0.2157 0.140625,0.2968 0.07587,0.081 0.201727,0.17 0.384766,0.17 l 2.525391,0 c 0.344147,0 0.494067,-0.2201 0.52539,-0.4707 l 0.16211,-1.0118 0.830078,0.586 c 0.120178,0.099 0.22404,0.1215 0.333984,0.123 0.109944,0 0.252647,-0.02 0.388672,-0.1601 l 1.769531,-1.7696 a 0.50004997,0.50004997 0 0 0 0.0059,-0.01 c 0.136024,-0.1398 0.150989,-0.2792 0.148437,-0.3828 -0.0025,-0.1022 -0.021,-0.1922 -0.105469,-0.3066 l -0.601562,-0.8438 1.033203,-0.1738 -0.08398,0.01 c 0.174166,0 0.287845,-0.071 0.373047,-0.1562 0.0852,-0.085 0.158203,-0.2045 0.158203,-0.375 l 0,-2.5254 c 0,-0.1808 -0.08311,-0.3019 -0.16211,-0.3789 -0.079,-0.077 -0.166245,-0.1283 -0.302734,-0.1465 l -1.003906,-0.1621 0.58789,-0.834 c 0.08616,-0.1156 0.104884,-0.2056 0.107422,-0.3086 0.0026,-0.1036 -0.01241,-0.243 -0.148437,-0.3828 a 0.50004997,0.50004997 0 0 0 -0.0039,0 l -1.771484,-1.7871 c -0.136568,-0.1404 -0.278854,-0.1598 -0.388672,-0.1582 -0.109817,0 -0.214494,0.022 -0.335937,0.123 l 0.0293,-0.023 -0.847656,0.6054 -0.171875,-1.0136 c -0.01726,-0.1294 -0.06475,-0.2159 -0.140625,-0.2969 -0.07587,-0.081 -0.201727,-0.168 -0.384765,-0.168 l -2.490235,0 a 0.50004997,0.50004997 0 0 0 -0.03516,0 l 0,0 z m -8.9375,0.4004 2,0 0,11 -2,0 0,-11 z m 9.335938,0.5996 1.728515,0 0.242188,1.4336 a 0.50004997,0.50004997 0 0 0 0.783203,0.3242 l 1.179687,-0.8418 1.21875,1.2286 -0.833984,1.1835 a 0.50004997,0.50004997 0 0 0 0.330078,0.7813 l 1.416016,0.2285 0,1.7266 -1.435547,0.2422 a 0.50004997,0.50004997 0 0 0 -0.324219,0.7832 l 0.845703,1.1816 -1.216797,1.2168 -1.197265,-0.8477 a 0.50004997,0.50004997 0 0 0 -0.783204,0.3301 l -0.226562,1.4317 -1.726562,0 -0.242188,-1.4219 a 0.50004997,0.50004997 0 0 0 -0.783203,-0.3223 l -1.167969,0.8301 -1.226562,-1.2168 0.841796,-1.1816 a 0.50004997,0.50004997 0 0 0 -0.324218,-0.7832 l -1.433594,-0.2422 0,-1.7285 1.433594,-0.2422 a 0.50004997,0.50004997 0 0 0 0.324218,-0.7852 l -0.841796,-1.166 1.226562,-1.2285 1.166016,0.8418 a 0.50004997,0.50004997 0 0 0 0.785156,-0.3223 l 0.242188,-1.4336 z m -15.8359379,0.4004 a 0.50005,0.50005 0 0 0 -0.5,0.5 l 0,10 a 0.50005,0.50005 0 0 0 0.5,0.5 l 2.9999999,0 a 0.50005,0.50005 0 0 0 0.5,-0.5 l 0,-10 a 0.50005,0.50005 0 0 0 -0.5,-0.5 l -2.9999999,0 z m 0.5,1 1.9999999,0 0,9 -1.9999999,0 0,-9 z m 16.2070309,1.0723 c -1.502915,0 -2.734375,1.2314 -2.734375,2.7344 0,1.5029 1.235628,2.7187 2.734375,2.7187 1.49874,0 2.71875,-1.2199 2.71875,-2.7187 0,-1.4988 -1.215815,-2.7344 -2.71875,-2.7344 z m 0,1 c 0.960146,0 1.71875,0.7701 1.71875,1.7344 0,0.9644 -0.754409,1.7187 -1.71875,1.7187 -0.964353,0 -1.734375,-0.7585 -1.734375,-1.7187 0,-0.9603 0.774191,-1.7344 1.734375,-1.7344 z" color="#000" font-family="sans-serif" font-weight="400" overflow="visible" white-space="normal"/></g></svg>