<svg xmlns="http://www.w3.org/2000/svg" xmlns:xlink="http://www.w3.org/1999/xlink" width="42" height="42" viewBox="0 0 42 42"><defs><linearGradient id="b" x1="949.87" x2="974.39" y1="518.014" y2="544.657" gradientTransform="translate(-1272.559 316.47) scale(1.34562)" gradientUnits="userSpaceOnUse" xlink:href="#a"/><linearGradient id="a"><stop offset="0" stop-color="#24f7bc"/><stop offset="1" stop-color="#24c4fc"/></linearGradient></defs><g transform="translate(0 -1010.362)"><rect width="42" height="42" y="1010.362" fill="url(#b)" rx="8.876" ry="8.876"/><path style="line-height:normal;text-indent:0;text-align:start;text-decoration-line:none;text-decoration-style:solid;text-decoration-color:#000;text-transform:none;block-progression:tb;isolation:auto;mix-blend-mode:normal" fill="#fff" d="m 22.797185,1015.3652 c -3.545912,-0.091 -7.033701,1.7111 -8.929687,4.9961 -2.262162,3.9194 -1.55965,8.7407 1.40039,11.8711 l -1.61914,2.8066 a 0.50005006,0.50005006 0 0 0 0.183594,0.6836 l 0.203125,0.1172 -1.013672,1.7559 -0.943359,1.6347 -0.800781,1.3887 -0.679688,1.1758 -1.3046878,2.2617 c -0.6062767,1.0504 -0.2416358,2.405 0.8085938,3.0117 1.050259,0.6065 2.403475,0.2439 3.009766,-0.8066 l 4.742187,-8.2168 0.205078,0.1172 a 0.50005006,0.50005006 0 0 0 0.683594,-0.1817 l 1.644531,-2.8515 c 4.138721,0.9049 8.567358,-0.9048 10.796875,-4.7676 2.757799,-4.7782 1.118561,-10.9033 -3.658203,-13.6621 -1.492735,-0.8621 -3.116738,-1.2927 -4.728516,-1.334 z m -0.03125,0.9941 c 1.450119,0.038 2.913305,0.4295 4.259766,1.2071 4.308688,2.4884 5.780655,7.9847 3.292968,12.2949 -2.487683,4.3101 -7.982333,5.7833 -12.291015,3.2949 -4.308669,-2.4884 -5.780646,-7.9848 -3.292969,-12.2949 1.710282,-2.9633 4.840988,-4.586 8.03125,-4.502 z m -0.02344,1.004 c -2.836728,-0.072 -5.626163,1.3707 -7.142579,3.998 -2.205689,3.8216 -0.894701,8.7233 2.925782,10.9297 3.820482,2.2065 8.722044,0.8919 10.927734,-2.9297 2.205695,-3.8215 0.892748,-8.7233 -2.927734,-10.9297 -1.193901,-0.6895 -2.493782,-1.0355 -3.783203,-1.0683 z m -0.0293,0.996 c 1.127762,0.03 2.26487,0.3345 3.3125,0.9395 3.352415,1.9362 4.498084,6.2089 2.5625,9.5625 -1.935579,3.3536 -6.210085,4.5007 -9.5625,2.5645 -3.352416,-1.9361 -4.496126,-6.211 -2.560547,-9.5645 1.330714,-2.3056 3.76697,-3.5676 6.248047,-3.502 z m -6.699219,14.5821 c 0.4635,0.3979 0.965717,0.7636 1.513672,1.0801 0.601964,0.3476 1.226057,0.6255 1.861328,0.8359 l -1.263672,2.1894 -3.361328,-1.9414 1.25,-2.164 z m -1.113281,3.3984 2.08789,1.2051 -4.742186,8.2168 c -0.338058,0.5857 -1.059131,0.7795 -1.644532,0.4414 -0.585427,-0.3381 -0.7794043,-1.0609 -0.441406,-1.6465 l 1.304688,-2.2617 0.679687,-1.1758 0.800781,-1.3887 0.94336,-1.6347 1.011718,-1.7559 z" color="#000" font-family="sans-serif" font-weight="400" overflow="visible" white-space="normal"/></g></svg>