<svg xmlns="http://www.w3.org/2000/svg" xmlns:xlink="http://www.w3.org/1999/xlink" width="42" height="42" viewBox="0 0 42 42"><defs><linearGradient id="b" x1="1073.403" x2="1097.116" y1="516.451" y2="544.308" gradientTransform="translate(-1438.388 316.47) scale(1.34562)" gradientUnits="userSpaceOnUse" xlink:href="#a"/><linearGradient id="a"><stop offset="0" stop-color="#16ff6a"/><stop offset="1" stop-color="#0090a5"/></linearGradient></defs><g transform="translate(0 -1010.362)"><rect width="42" height="42" y="1010.362" fill="url(#b)" rx="8.876" ry="8.876"/><path fill="#fff" fill-rule="evenodd" style="line-height:normal;text-indent:0;text-align:start;text-decoration-line:none;text-decoration-style:solid;text-decoration-color:#000;text-transform:none;block-progression:tb;isolation:auto;mix-blend-mode:normal" d="m 21.394045,1018.3505 c -0.130566,0 -0.255341,0.054 -0.347656,0.1465 l -1.060547,1.0605 c -0.49083,0.4713 0.235777,1.1979 0.707031,0.707 l 0.207032,-0.207 0,2.293 1,0 0,-2.293 0.207031,0.207 c 0.471318,0.4821 1.189699,-0.2343 0.708984,-0.707 l -1.0625,-1.0605 c -0.09519,-0.095 -0.224748,-0.1481 -0.359375,-0.1465 z m -6.357422,2.6367 c -0.219881,-2e-4 -0.414082,0.1433 -0.478516,0.3535 l 0.0039,0 -0.02539,0.3535 0,1.293 c -0.0096,0.6762 1.009572,0.6762 1,0 l 0,-0.293 1.621091,1.6211 0.707031,-0.707 -1.621093,-1.6211 0.292968,0 c 0.676161,0.01 0.676161,-1.0096 0,-1 z m 11.177735,0 c -0.666666,0.034 -0.615885,1.0338 0.05078,1 l 0.292969,0 -1.621094,1.6211 0.707031,0.707 1.621094,-1.6211 0,0.293 c -0.0096,0.6762 1.009563,0.6762 1,0 l 0,-1.5 c -2.8e-5,-0.2761 -0.223869,-0.5 -0.5,-0.5 l -1.5,0 c -0.01692,-9e-4 -0.03386,-9e-4 -0.05078,0 z m -4.814453,2.3516 c -2.468148,0 -4.476543,2.0222 -4.476563,4.5 2e-5,2.4777 2.008415,4.5 4.476563,4.5 2.468147,0 4.478495,-2.0223 4.478515,-4.5 -2e-5,-2.4778 -2.010368,-4.5 -4.478515,-4.5 z m 0,1 c 1.924578,0 3.478499,1.5596 3.478515,3.5 -1.6e-5,1.9404 -1.553937,3.5 -3.478515,3.5 -1.924581,0 -3.476547,-1.5596 -3.476563,-3.5 1.6e-5,-1.9404 1.551982,-3.5 3.476563,-3.5 z m -7.94922,1.9472 c -0.12976,0 -0.25303,0.058 -0.34375,0.1504 l -1.060547,1.0606 c -0.195184,0.1952 -0.195184,0.5117 0,0.707 l 1.060547,1.0605 c 0.471345,0.4635 1.171161,-0.2344 0.708985,-0.707 l -0.207032,-0.207 2.291017,0 0,-1 -2.291017,0 0.207032,-0.2071 c 0.326057,-0.3186 0.09046,-0.8717 -0.365235,-0.8574 z m 15.884766,0 c -0.44802,2e-4 -0.669797,0.5441 -0.349609,0.8574 l 0.207031,0.2071 -2.292968,0 0,1 2.292968,0 -0.207031,0.207 c -0.490807,0.4713 0.235776,1.1978 0.707031,0.707 l 1.060547,-1.0605 c 0.195184,-0.1953 0.195184,-0.5118 0,-0.707 l -1.060547,-1.0606 c -0.09406,-0.096 -0.222903,-0.1504 -0.357422,-0.1504 z m -10.273437,7.0528 c -3.293541,0 -5.958985,2.6779 -5.958985,5.9824 l 0,3.5215 c 2.8e-5,0.2761 0.223869,0.4999 0.5,0.5 l 3.09961,0 c 0.09121,0.026 0.188088,0.026 0.279297,0 l 8.720703,0 c 0.09121,0.026 0.188088,0.026 0.279297,0 l 3.216797,0 c 0.276131,-10e-5 0.499972,-0.2239 0.5,-0.5 l 0,-3.5215 c 0,-3.3045 -2.665443,-5.9824 -5.958985,-5.9824 z m 0,1 0.998047,0 -0.367188,5.3339 c -0.0098,0.1499 0.04833,0.2962 0.158203,0.3985 l 1.207032,1.1328 c 0.192291,0.1801 0.491302,0.1801 0.683593,0 l 1.208985,-1.1328 c 0.109878,-0.1023 0.167961,-0.2486 0.158203,-0.3985 l -0.367188,-5.3339 0.998047,0 c 2.754479,0 4.958985,2.2123 4.958985,4.9824 l 0,3.0215 -2.355469,0 0,-2.5039 c 0.0044,-0.2823 -0.225547,-0.5123 -0.507813,-0.5079 -0.276145,0 -0.496508,0.2317 -0.492187,0.5079 l 0,2.5039 -8,0 0,-2.5039 c 0.0044,-0.2823 -0.225547,-0.5123 -0.507813,-0.5079 -0.276145,0 -0.496508,0.2317 -0.492187,0.5079 l 0,2.5039 -2.240235,0 0,-3.0215 c 0,-2.7701 2.204508,-4.9824 4.958985,-4.9824 z m 2,0 0.677734,0 0.355469,5.164 -0.695312,0.6504 -0.69336,-0.6504 z" color="#000" font-family="sans-serif" font-weight="400" overflow="visible" white-space="normal"/></g></svg>