<svg xmlns="http://www.w3.org/2000/svg" xmlns:xlink="http://www.w3.org/1999/xlink" width="42" height="42" viewBox="0 0 42 42"><defs><linearGradient id="b" x1="992.183" x2="1019.298" y1="516.081" y2="545.959" gradientTransform="translate(-1332.367 316.47) scale(1.34562)" gradientUnits="userSpaceOnUse" xlink:href="#a"/><linearGradient id="a"><stop offset="0" stop-color="#ff1679"/><stop offset="1" stop-color="#ff770b"/></linearGradient></defs><g transform="translate(0 -1010.362)"><rect width="42" height="42" y="1010.362" fill="url(#b)" rx="8.876" ry="8.876"/><path fill="#fff" style="line-height:normal;text-indent:0;text-align:start;text-decoration-line:none;text-decoration-style:solid;text-decoration-color:#000;text-transform:none;block-progression:tb;isolation:auto;mix-blend-mode:normal" d="m 20.908216,1016.3578 c -0.801163,0 -1.46288,0.6597 -1.462891,1.4609 1.2e-5,0.8012 0.661728,1.4591 1.462891,1.459 0.801163,0 1.46288,-0.6578 1.462891,-1.459 -1.1e-5,-0.8012 -0.661728,-1.4609 -1.462891,-1.4609 z m 0,1 c 0.262392,0 0.462887,0.2018 0.462891,0.4609 -4e-6,0.2591 -0.200499,0.459 -0.462891,0.459 -0.262392,10e-5 -0.462887,-0.1999 -0.462891,-0.459 5e-6,-0.2591 0.200499,-0.4609 0.462891,-0.4609 z m 9.386719,0.4394 c -0.934121,0 -1.703136,0.7674 -1.703125,1.7012 -3e-6,0.264 0.06642,0.5107 0.175781,0.7344 l -2.28125,1.5175 c -0.391421,-0.3655 -0.91257,-0.5937 -1.486328,-0.5937 -0.272192,0 -0.530359,0.056 -0.771484,0.1484 l -0.367188,-0.5117 -0.8125,0.582 0.351563,0.4903 c -0.31654,0.3423 -0.518525,0.7838 -0.564453,1.2714 l -2.710938,0.3594 c -0.225057,-0.2526 -0.542107,-0.4199 -0.902344,-0.4199 -0.668266,0 -1.222714,0.552 -1.222656,1.2207 3.5e-5,0.6686 0.554454,1.2207 1.222656,1.2207 0.610734,0 1.120866,-0.4629 1.205078,-1.0527 l 2.541016,-0.3379 c 0.156297,0.396 0.425235,0.7339 0.767578,0.9785 l -0.824219,1.3691 c -0.103458,-0.024 -0.210234,-0.037 -0.320312,-0.037 -0.801163,0 -1.462883,0.6578 -1.462891,1.459 8e-6,0.8012 0.661728,1.461 1.462891,1.461 0.801164,0 1.462883,-0.6598 1.462891,-1.461 -4e-6,-0.3291 -0.115645,-0.6319 -0.302735,-0.8769 l 0.923828,-1.5352 c 0.106867,0.016 0.213058,0.033 0.324219,0.033 0.564753,0 1.077422,-0.2232 1.466797,-0.5781 l 0.002,0 c 0.0014,0 0.0026,0 0.0039,0 0.199229,-0.1828 0.361592,-0.4021 0.482422,-0.6465 l 0.113281,-0.1504 -0.0332,-0.025 c 0.09371,-0.2421 0.150401,-0.5015 0.150391,-0.7754 -6e-6,-0.2668 -0.05541,-0.5209 -0.144531,-0.7578 l 2.423828,-1.6113 c 0.247247,0.1401 0.527781,0.2285 0.830078,0.2285 0.934121,0 1.705089,-0.7655 1.705078,-1.6992 1.1e-5,-0.9338 -0.770957,-1.7012 -1.705078,-1.7012 z m -6.082031,0.3047 0,0 a 0.50005,0.50005 0 0 0 -0.05078,0.9961 c 1.104716,0.1676 2.130347,0.5207 3.052735,1.0234 a 0.50036419,0.50036419 0 1 0 0.478513,-0.8789 c -1.023078,-0.5575 -2.160628,-0.9476 -3.380859,-1.1328 a 0.50005,0.50005 0 0 0 -0.09961,-0.012 z m 6.082031,0.6953 c 0.395341,0 0.705083,0.3095 0.705078,0.7012 5e-6,0.3916 -0.309737,0.6992 -0.705078,0.6992 -0.395341,0 -0.70313,-0.3076 -0.703125,-0.6992 -5e-6,-0.3917 0.307784,-0.7012 0.703125,-0.7012 z m -12.021484,0.2871 a 0.50005,0.50005 0 0 0 -0.226563,0.059 c -2.755297,1.4317 -4.802867,4.1087 -5.345703,7.4004 l -3.6484376,7.248 a 0.50005,0.50005 0 0 0 0.4472656,0.7243 l 1.433594,0 0,5.0429 a 0.50005,0.50005 0 0 0 0.5,0.5 l 3.982422,0 0.636718,5.5645 a 0.50005,0.50005 0 1 0 0.992188,-0.1133 l -0.685547,-6.0078 a 0.50005,0.50005 0 0 0 -0.496094,-0.4434 l -3.929687,0 0,-5.0429 a 0.50005,0.50005 0 0 0 -0.5,-0.5 l -1.121094,0 3.296875,-6.5547 a 0.50005,0.50005 0 0 0 0.04687,-0.1485 c 0.461983,-3.0298 2.334443,-5.4752 4.851562,-6.7832 a 0.50005,0.50005 0 0 0 -0.234374,-0.9453 z m 4.421874,0.084 -0.8125,0.582 0.582032,0.8125 0.814453,-0.582 -0.583985,-0.8125 z m 7.904297,2.7871 0,0 a 0.50005,0.50005 0 0 0 -0.375,0.8007 c 1.334134,1.8181 2.00008,4.1202 1.708985,6.5293 -0.008,0.066 -0.02265,0.166 -0.03125,0.2266 l -4.40625,9.6211 a 0.50005,0.50005 0 0 0 -0.04297,0.2519 l 0.5625,6.5079 a 0.50005,0.50005 0 1 0 0.996094,-0.086 l -0.550781,-6.3789 4.380859,-9.5703 a 0.50005,0.50005 0 0 0 0.04102,-0.1367 c 0,0 0.02879,-0.1991 0.04297,-0.3164 0.322017,-2.665 -0.415518,-5.2267 -1.894531,-7.2422 a 0.50005,0.50005 0 0 0 -0.431646,-0.209 z m -5.599609,0.2012 c 0.661214,0 1.185533,0.5249 1.185547,1.1816 2.5e-5,0.6567 -0.524304,1.1797 -1.185547,1.1797 -0.661243,0 -1.185572,-0.523 -1.185547,-1.1797 1.4e-5,-0.6567 0.524333,-1.1816 1.185547,-1.1816 z m -5.777344,1.9199 c 0.12946,0 0.222668,0.094 0.222656,0.2207 -6e-6,0.1265 -0.09321,0.2207 -0.222656,0.2207 -0.129445,0 -0.222649,-0.094 -0.222656,-0.2207 -1.1e-5,-0.1266 0.0932,-0.2207 0.222656,-0.2207 z m 8.646485,0.6621 -0.59961,0.8008 0.421875,0.3144 c -0.03667,0.1152 -0.06251,0.2369 -0.0625,0.3633 3.6e-5,0.6686 0.554454,1.2207 1.222656,1.2207 0.668203,0 1.222621,-0.5521 1.222657,-1.2207 5.8e-5,-0.6687 -0.55439,-1.2207 -1.222657,-1.2207 -0.175546,0 -0.340337,0.041 -0.492187,0.1094 l -0.490234,-0.3672 z m 0.982421,1.2578 c 0.129461,0 0.222668,0.094 0.222657,0.2207 -7e-6,0.1266 -0.09321,0.2207 -0.222657,0.2207 -0.129443,0 -0.222649,-0.094 -0.222656,-0.2207 -1.1e-5,-0.1266 0.0932,-0.2207 0.222656,-0.2207 z m -6.259765,1.4414 c 0.26239,0 0.462888,0.1999 0.462891,0.459 -3e-6,0.2591 -0.200501,0.461 -0.462891,0.461 -0.26239,0 -0.462888,-0.2019 -0.462891,-0.461 3e-6,-0.2591 0.200501,-0.459 0.462891,-0.459 z" color="#000" font-family="sans-serif" font-weight="400" overflow="visible" white-space="normal"/></g></svg>