<svg xmlns="http://www.w3.org/2000/svg" xmlns:xlink="http://www.w3.org/1999/xlink" width="42" height="42" viewBox="0 0 42 42"><defs><linearGradient id="b" x1="868.253" x2="937.656" y1="521.354" y2="588.736" gradientTransform="translate(-1161.097 316.47) scale(1.34562)" gradientUnits="userSpaceOnUse" xlink:href="#a"/><linearGradient id="a"><stop offset="0" stop-color="#24f3d2"/><stop offset=".394" stop-color="#0674f0"/><stop offset=".507" stop-color="#6961b5"/><stop offset=".813" stop-color="#f34660"/><stop offset="1" stop-color="#ee078d"/></linearGradient></defs><g transform="translate(0 -1010.362)"><rect width="42" height="42" y="1010.362" fill="url(#b)" rx="8.876" ry="8.876"/><path fill="#fff" style="line-height:normal;text-indent:0;text-align:start;text-decoration-line:none;text-decoration-style:solid;text-decoration-color:#000;text-transform:none;block-progression:tb;isolation:auto;mix-blend-mode:normal" d="m 7.4970378,1017.3498 a 0.50005,0.50005 0 0 0 -0.4921875,0.5059 l 0,26.8691 a 0.50004997,0.50004997 0 0 0 0.1425781,0.4981 0.50005,0.50005 0 0 0 0.4882813,0.1347 l 26.8691403,0 a 0.50004997,0.50004997 0 1 0 0,-1 l -26.4999997,0 0,-26.5019 a 0.50005,0.50005 0 0 0 -0.5078125,-0.5059 z m 26.0156252,6.0254 c -0.822505,0 -1.5,0.6775 -1.5,1.5 0,0.2575 0.07299,0.4962 0.189453,0.709 l -7.115234,7.9062 c -0.177202,-0.074 -0.371398,-0.1152 -0.574219,-0.1152 -0.230087,0 -0.446843,0.056 -0.642578,0.1504 l -1.261719,-1.2617 c 0.408051,-0.9894 0.527908,-2.1068 0.236328,-3.2149 -0.704192,-2.6761 -3.443785,-4.2665 -6.103515,-3.541 -2.65974,0.7256 -4.249115,3.4977 -3.544922,6.1738 0.215284,0.8182 0.636687,1.5173 1.171875,2.0977 l -3.136719,2.7891 c -0.21482,-0.1195 -0.457686,-0.1934 -0.71875,-0.1934 -0.822505,0 -1.5000002,0.6775 -1.5000002,1.5 0,0.8225 0.6774952,1.5 1.5000002,1.5 0.822505,0 1.5,-0.6775 1.5,-1.5 0,-0.1985 -0.04184,-0.3884 -0.113281,-0.5625 l 3.222656,-2.8652 c 0.64573,0.4639 1.386843,0.7886 2.183594,0.9023 l 0.427734,1.627 a 0.50005006,0.50005006 0 0 0 0.615234,0.3554 l 0.01953,-0.01 1.316406,5.0059 c 0.205437,0.7809 1.025248,1.2454 1.802734,1.0371 a 0.50004997,0.50004997 0 0 0 0.002,0 c 0.77894,-0.2126 1.252208,-1.0257 1.046875,-1.8066 l -0.378906,-1.4356 -0.197265,-0.748 -0.230469,-0.8829 -0.273438,-1.039 -0.238281,-0.9063 a 0.50005006,0.50005006 0 0 0 0.347656,-0.6074 l -0.4375,-1.664 c 0.386317,-0.3141 0.707893,-0.6897 0.984375,-1.0977 l 1.052735,1.0527 c -0.09386,0.1953 -0.152344,0.4112 -0.152344,0.6407 0,0.8225 0.677495,1.5 1.5,1.5 0.822505,0 1.5,-0.6775 1.5,-1.5 0,-0.2575 -0.07299,-0.4982 -0.189453,-0.711 l 7.117187,-7.9062 c 0.176741,0.074 0.370095,0.1172 0.572266,0.1172 0.822505,0 1.5,-0.6775 1.5,-1.5 0,-0.8225 -0.677495,-1.5 -1.5,-1.5 z m 0,1 c 0.282065,0 0.5,0.2179 0.5,0.5 0,0.2821 -0.217935,0.5 -0.5,0.5 -0.282065,0 -0.5,-0.2179 -0.5,-0.5 0,-0.2821 0.217935,-0.5 0.5,-0.5 z m -15.716797,1.9648 c 1.855677,-0.1187 3.587524,1.086 4.083984,2.9727 0.196155,0.7454 0.161335,1.4933 -0.04102,2.1816 l -0.978516,-0.9785 c 0.09433,-0.1957 0.152344,-0.4106 0.152344,-0.6406 0,-0.8225 -0.677495,-1.5 -1.5,-1.5 -0.822505,0 -1.5,0.6775 -1.5,1.5 0,0.1992 0.04139,0.3879 0.113281,0.5625 l -3.013672,2.6797 c -0.433342,-0.4677 -0.776138,-1.0341 -0.951167,-1.6992 -0.567382,-2.1562 0.700344,-4.3608 2.835938,-4.9434 0.266948,-0.073 0.533731,-0.1178 0.798828,-0.1348 z m 1.716797,3.0352 c 0.282065,0 0.5,0.2179 0.5,0.5 0,0.2821 -0.217935,0.5 -0.5,0.5 -0.129983,0 -0.242384,-0.051 -0.330078,-0.1289 a 0.50004997,0.50004997 0 0 0 -0.05859,-0.066 c -0.06575,-0.085 -0.111328,-0.186 -0.111328,-0.3047 0,-0.2821 0.217935,-0.5 0.5,-0.5 z m -0.716797,1.8066 c 0.214376,0.1189 0.456496,0.1934 0.716797,0.1934 0.229557,0 0.445235,-0.058 0.640625,-0.1523 l 1.251953,1.2519 c -0.517833,0.8435 -1.335686,1.5034 -2.361328,1.7832 -1.123936,0.3066 -2.253062,0.092 -3.160156,-0.4863 l 2.912109,-2.5899 z m 5.716797,3.1934 c 0.282065,0 0.5,0.2179 0.5,0.5 0,0.2821 -0.217935,0.5 -0.5,0.5 -0.282065,0 -0.5,-0.2179 -0.5,-0.5 0,-0.2821 0.217935,-0.5 0.5,-0.5 z m -4.265625,0.4844 0.224609,0.8593 -1.90039,0.5157 -0.222657,-0.8496 c 0.31547,-0.023 0.634371,-0.074 0.951172,-0.1602 0.332467,-0.091 0.650638,-0.2147 0.947266,-0.3652 z m 0.0059,1.955 0.236328,0.8985 0.273438,1.039 0.230469,0.8809 0.197265,0.7481 0.378906,1.4375 c 0.06785,0.258 -0.07931,0.5106 -0.341796,0.5839 -0.267146,0.072 -0.508107,-0.067 -0.576172,-0.3261 l -1.31836,-5.0118 0.919922,-0.25 z m -9.740234,0.5606 c 0.141032,0 0.265727,0.053 0.355469,0.1426 0.08974,0.09 0.144531,0.2163 0.144531,0.3574 0,0.2821 -0.217935,0.5 -0.5,0.5 -0.282065,0 -0.5,-0.2179 -0.5,-0.5 0,-0.2821 0.217935,-0.5 0.5,-0.5 z" color="#000" font-family="sans-serif" font-weight="400" overflow="visible" white-space="normal"/></g></svg>