<svg xmlns="http://www.w3.org/2000/svg" xmlns:xlink="http://www.w3.org/1999/xlink" width="42" height="42" viewBox="0 0 42 42"><defs><linearGradient id="b" x1="868.253" x2="937.656" y1="521.354" y2="588.736" gradientTransform="translate(-1161.097 316.47) scale(1.34562)" gradientUnits="userSpaceOnUse" xlink:href="#a"/><linearGradient id="a"><stop offset="0" stop-color="#24f3d2"/><stop offset=".394" stop-color="#0674f0"/><stop offset=".507" stop-color="#6961b5"/><stop offset=".813" stop-color="#f34660"/><stop offset="1" stop-color="#ee078d"/></linearGradient></defs><g transform="translate(0 -1010.362)"><rect width="42" height="42" y="1010.362" fill="url(#b)" rx="8.876" ry="8.876"/><path style="line-height:normal;text-indent:0;text-align:start;text-decoration-line:none;text-decoration-style:solid;text-decoration-color:#000;text-transform:none;block-progression:tb;isolation:auto;mix-blend-mode:normal" fill="#fff" d="m 13.736083,1017.3558 c -0.276145,0 -0.496508,0.2317 -0.492187,0.5078 l 0,0.3496 c -0.691901,0.2064 -1.248047,0.7319 -1.248047,1.4766 0,0.9082 0.766149,1.6193 1.675781,1.6562 0.01423,0 0.02857,0 0.04297,0.01 0.0099,2e-4 0.01935,0 0.0293,0 0.440273,0 0.746094,0.308 0.746094,0.666 0,0.3543 -0.300985,0.6562 -0.734375,0.6621 -0.0065,-2e-4 -0.01302,-2e-4 -0.01953,0 l -0.002,0 c -0.434539,0 -0.738285,-0.3072 -0.738285,-0.6621 0.0096,-0.6762 -1.009569,-0.6762 -1,0 0,0.7606 0.539378,1.3806 1.248047,1.5859 l 0,0.2441 c -0.0096,0.6762 1.009568,0.6762 1,0 l 0,-0.3574 c 0.691372,-0.2061 1.246094,-0.7282 1.246094,-1.4726 0,-0.7989 -0.633159,-1.3569 -1.394532,-1.5274 l -0.002,0 c -0.283858,-0.143 -0.0047,-0.01 -0.232422,-0.123 -0.01098,0 -0.02205,-0.01 -0.0332,-0.01 l -0.01563,0 c -0.02267,0 -0.04551,0 -0.06836,0 l 0,0 c -0.0091,4e-4 -0.01825,0 -0.02734,0 -0.424465,-0.013 -0.720703,-0.3102 -0.720703,-0.6602 0,-0.358 0.307812,-0.666 0.748047,-0.666 0.440225,0 0.746094,0.308 0.746094,0.666 -0.0096,0.6762 1.009559,0.6762 1,0 0,-0.7606 -0.537906,-1.382 -1.246094,-1.5878 l 0,-0.2442 c 0.0044,-0.2822 -0.225546,-0.5122 -0.507813,-0.5078 z m 12.199219,0.029 c -0.276145,0 -0.496508,0.2317 -0.492187,0.5078 l 0,0.25 c -0.552561,0.2021 -0.988282,0.6427 -0.988282,1.2598 0,0.7892 0.648868,1.4277 1.431641,1.459 0.01914,7e-4 0.03734,0.01 0.05664,0.01 0.285605,0 0.488281,0.2057 0.488281,0.4649 0,0.2558 -0.19856,0.4559 -0.478516,0.4609 -0.0059,-10e-5 -0.01172,-10e-5 -0.01758,0 l -0.002,0 c -0.279964,0 -0.478515,-0.2051 -0.478516,-0.4609 0.0096,-0.6762 -1.009568,-0.6762 -1,0 0,0.6167 0.436112,1.0556 0.988282,1.2578 l 0,0.2558 c -0.0096,0.6762 1.009568,0.6762 1,0 l 0,-0.2558 c 0.552342,-0.2021 0.988281,-0.6409 0.988281,-1.2578 0,-0.6676 -0.5047,-1.1387 -1.121094,-1.3145 -0.0492,-0.05 -0.10843,-0.09 -0.173828,-0.1152 l -0.0078,0 c -0.02852,-0.011 -0.05794,-0.018 -0.08789,-0.024 l -0.03905,0 c -0.01358,0 0.004,-0.01 -0.0098,-0.01 -0.01627,-8e-4 -0.03256,-8e-4 -0.04883,0 -0.285553,0 -0.488281,-0.2057 -0.488282,-0.4648 0,-0.2509 0.191693,-0.4465 0.462891,-0.459 0.01753,0 0.03514,0 0.05273,0 0.269923,0.014 0.460937,0.2069 0.460937,0.4571 -0.0096,0.6761 1.009568,0.6761 1,0 0,-0.6173 -0.43562,-1.0577 -0.988281,-1.2598 l 0,-0.25 c 0.0044,-0.2823 -0.225546,-0.5122 -0.507813,-0.5078 z m -5.671875,2.9902 c -0.458833,0.024 -0.919262,0.1289 -1.361328,0.3184 -1.768273,0.758 -2.748116,2.6756 -2.326172,4.5527 0.395626,1.7601 1.923682,3.0116 3.697266,3.1035 l 1.125,4.2266 -1.960938,-1.1406 c -0.756068,-0.4403 -1.741818,-0.1769 -2.177734,0.584 -0.435825,0.7576 -0.175637,1.7399 0.580078,2.1797 l 0.0293,0.018 0.03125,0.014 c 1.127907,0.4662 1.983871,1.4443 3.011719,2.4941 0.963455,0.9841 2.139905,1.9776 3.810547,2.5196 l 0.46289,1.7363 -0.560547,0.1484 c -0.277298,0.074 -0.518617,0.3798 -0.427734,0.7207 l 0.824219,3.0879 c 0.09088,0.3409 0.451217,0.4857 0.728515,0.4121 l 7.28125,-1.9355 c 0.276979,-0.074 0.52057,-0.3778 0.429688,-0.7187 l -0.824219,-3.0879 c -0.09106,-0.3416 -0.453181,-0.4858 -0.730469,-0.4121 l -0.130862,0.035 -0.257813,-0.9707 c -0.136793,-0.5144 -0.02119,-1.1592 0.140626,-1.8477 0.161816,-0.6884 0.383826,-1.4098 0.207031,-2.1503 l -0.002,-0.01 -1.361328,-5.1133 c -0.224997,-0.8444 -1.102903,-1.3555 -1.947266,-1.1309 -0.307192,0.082 -0.504119,0.3184 -0.703125,0.541 -0.37987,-0.4993 -0.948494,-0.8341 -1.587891,-0.664 -0.302763,0.081 -0.518816,0.2877 -0.714844,0.5039 -0.385139,-0.4644 -0.930191,-0.7736 -1.546874,-0.6094 l -0.002,0 c -0.205865,0.055 -0.333022,0.219 -0.49414,0.3418 l -0.236328,-0.8867 0.002,0 c 1.377575,-1.343 1.601734,-3.4841 0.533203,-5.084 -0.534259,-0.7999 -1.318471,-1.3548 -2.189453,-1.6133 -0.435492,-0.1292 -0.892729,-0.1846 -1.351563,-0.1601 z m 0.05664,0.9961 c 1.032479,-0.055 2.048961,0.4286 2.652344,1.3321 0.690745,1.0342 0.660033,2.3556 -0.01758,3.3496 l -0.328122,-1.2285 c -0.224962,-0.8444 -1.102989,-1.3581 -1.947266,-1.1348 l 0,0.01 c -0.841819,0.2256 -1.351756,1.1025 -1.126953,1.9472 l 0.449219,1.6836 c -1.192641,-0.1904 -2.177505,-1.0813 -2.451172,-2.2988 -0.317691,-1.4133 0.414723,-2.8453 1.746093,-3.416 0.332841,-0.1427 0.679278,-0.2218 1.023437,-0.2403 z m -10.8593746,2.9981 c -0.3792738,0.015 -0.6046072,0.4299 -0.4101563,0.7558 l 0.2714844,0.4688 c -0.7304701,0.6646 -1.0603126,1.6635 -0.5683594,2.5156 0.5273823,0.9134 1.6559279,1.0827 2.6660159,0.7149 0.01944,0 0.039,0 0.05859,0 0.01692,8e-4 0.233084,-0.062 0.25,-0.062 0.07356,-0.01 -0.05429,0.035 0.0098,0 0.653061,-0.2834 1.319627,-0.1906 1.597656,0.291 0.277344,0.4804 0.08009,1.1603 -0.541016,1.5273 -0.0086,0 -0.01708,0.01 -0.02539,0.016 -0.628571,0.3547 -1.318316,0.1856 -1.595703,-0.2949 -0.323017,-0.6139 -1.2358384,-0.086 -0.865234,0.5 0.491587,0.8516 1.520725,1.0633 2.460937,0.7637 l 0.273438,0.4746 c 0.333305,0.5782 1.200624,0.078 0.867187,-0.5 l -0.22266,-0.3848 c 0.745222,-0.6687 1.014337,-1.7377 0.515625,-2.6016 -0.290704,-0.5035 -0.774262,-0.8184 -1.314453,-0.9316 l 0,0 c -0.425091,-0.089 -0.874843,0.05 -1.306641,0.2168 -0.360806,0.061 -0.235233,0.039 -0.353515,0.059 l -0.0059,0 c -0.630696,0.3607 -1.3229995,0.1914 -1.601563,-0.291 -0.2691335,-0.4661 -0.083366,-1.1143 0.494141,-1.4883 0.04723,-0.019 0.09136,-0.044 0.130859,-0.076 0.612439,-0.3126 1.268126,-0.1496 1.537109,0.3164 0.323017,0.6139 1.235839,0.086 0.865235,-0.5 -0.290719,-0.5036 -0.7723,-0.8184 -1.3125,-0.9317 -0.386997,-0.081 -0.803431,-0.055 -1.201171,0.074 l -0.2187505,-0.3789 c -0.091598,-0.164 -0.2673703,-0.2628 -0.4550781,-0.2558 z m 11.7128906,0.2773 c 0.228261,0.031 0.420884,0.1956 0.486329,0.4414 l 1.177734,4.42 0.982422,-0.1583 c -0.01661,-0.2769 0.151059,-0.5224 0.439453,-0.5996 0.323713,-0.086 0.635221,0.096 0.722656,0.4239 l 0.123047,0.4629 0.982422,-0.1582 c -0.01677,-0.2795 0.159295,-0.5477 0.433594,-0.6211 0.323708,-0.086 0.637177,0.096 0.724609,0.4238 l 0.181641,0.6816 0.966797,-0.2578 c -0.08729,-0.3281 0.09341,-0.6416 0.417968,-0.7285 0.323752,-0.086 0.637166,0.096 0.72461,0.4238 l 1.355468,5.0977 c 0.08748,0.3716 -0.04186,0.9828 -0.207031,1.6855 -0.165552,0.7044 -0.354057,1.5094 -0.134765,2.334 l 0.255859,0.959 c -1.548335,0.4125 -2.836124,0.7512 -4.658203,1.2383 l -0.589844,-2.2207 -0.277344,-0.074 c -1.614755,-0.4386 -2.656405,-1.3772 -3.654296,-2.3965 -0.984526,-1.0056 -1.911369,-2.1049 -3.289063,-2.6934 -0.284665,-0.1708 -0.379447,-0.5238 -0.212891,-0.8125 l 0.002,0 c 0.168103,-0.2935 0.516088,-0.386 0.80664,-0.2168 l 4.052734,2.3594 -2.46875,-9.2734 c -0.08727,-0.3279 0.0945,-0.6394 0.419922,-0.7266 l 0,0 c 0.08083,-0.021 0.160242,-0.026 0.236328,-0.016 z m 10.603516,15.6172 0.609375,2.2871 -6.505859,1.7285 -0.609375,-2.2871 z" color="#000" font-family="sans-serif" font-weight="400" overflow="visible" white-space="normal"/></g></svg>