<svg xmlns="http://www.w3.org/2000/svg" xmlns:xlink="http://www.w3.org/1999/xlink" width="42" height="42" viewBox="0 0 42 42"><defs><linearGradient id="b" x1="906.952" x2="931.379" y1="515.915" y2="546.094" gradientTransform="translate(-1215.129 316.47) scale(1.34562)" gradientUnits="userSpaceOnUse" xlink:href="#a"/><linearGradient id="a"><stop offset="0" stop-color="#ffd800"/><stop offset="1" stop-color="#ff6100"/></linearGradient></defs><g transform="translate(0 -1010.362)"><rect width="42" height="42" y="1010.362" fill="url(#b)" rx="8.876" ry="8.876"/><path style="line-height:normal;text-indent:0;text-align:start;text-decoration-line:none;text-decoration-style:solid;text-decoration-color:#000;text-transform:none;block-progression:tb;isolation:auto;mix-blend-mode:normal" fill="#fff" fill-rule="evenodd" d="m 24.016842,1019.3622 a 0.50005,0.50005 0 0 0 -0.5,0.5 l 0,0.6914 c -0.221692,0.072 -0.436301,0.159 -0.644531,0.2637 l -0.486328,-0.4864 a 0.50005,0.50005 0 0 0 -0.707031,0 l -1.285157,1.2872 a 0.50005,0.50005 0 0 0 0,0.707 l 0.486328,0.4863 c -0.105109,0.2079 -0.193215,0.4213 -0.265624,0.6426 l -0.689454,0 a 0.50005,0.50005 0 0 0 -0.5,0.5 l 0,1.8184 a 0.50005,0.50005 0 0 0 0.5,0.5 l 0.689454,0 c 0.07203,0.2221 0.160687,0.4359 0.265624,0.6445 l -0.486328,0.4844 a 0.50005,0.50005 0 0 0 0,0.707 l 1.285157,1.2871 a 0.50005,0.50005 0 0 0 0.707031,0 l 0.488281,-0.4883 c 0.208011,0.1053 0.42101,0.1951 0.642578,0.2676 l 0,0.6875 a 0.50005,0.50005 0 0 0 0.5,0.5 l 1.81836,0 a 0.50005,0.50005 0 0 0 0.5,-0.5 l 0,-0.6895 c 0.221268,-0.072 0.434718,-0.1592 0.642578,-0.2636 l 0.486328,0.4863 a 0.50005,0.50005 0 0 0 0.707031,0 l 1.285156,-1.2871 a 0.50005,0.50005 0 0 0 0,-0.707 l -0.486328,-0.4864 c 0.105258,-0.2081 0.195094,-0.4209 0.267578,-0.6425 l 0.6875,0 a 0.50005,0.50005 0 0 0 0.5,-0.5 l 0,-1.8184 a 0.50005,0.50005 0 0 0 -0.5,-0.5 l -0.689453,0 c -0.07185,-0.2216 -0.15906,-0.4364 -0.263672,-0.6445 l 0.484375,-0.4844 a 0.50005,0.50005 0 0 0 0,-0.707 l -1.285156,-1.2872 a 0.50005,0.50005 0 0 0 -0.707031,0 l -0.486328,0.4883 c -0.208008,-0.1053 -0.421011,-0.195 -0.642578,-0.2675 l 0,-0.6895 a 0.50005,0.50005 0 0 0 -0.5,-0.5 l -1.81836,0 z m -11.578125,0.9961 0,0.01 a 0.50005,0.50005 0 0 0 -0.359375,0.1601 c -0.746828,0.1975 -1.346524,0.7879 -1.333984,1.5918 l -0.0019,-0.012 0,0.7363 c -2.3969013,0.6761 -4.2714845,2.6688 -4.2714845,5.2168 0,3.1397 2.7970953,5.5195 5.9941405,5.5195 1.5583,0 2.550781,1.0218 2.550781,2.0782 0,1.0573 -0.991446,2.0722 -2.550781,2.0722 -1.559307,0 -2.5507813,-1.0149 -2.5507811,-2.0722 0.00462,-0.5338 -0.2098314,-0.9993 -0.5410157,-1.2969 -0.3336667,-0.2999 -0.7595771,-0.4375 -1.1796875,-0.4375 -0.4201103,0 -0.8478817,0.1377 -1.1816406,0.4375 -0.3333334,0.2993 -0.548066,0.7687 -0.5410156,1.3066 0.00294,2.6072 1.9161386,4.5243 4.2714845,5.2129 l 0,0.7442 0.0019,-0.01 c -0.0076,0.5387 0.207344,1.0089 0.541016,1.3086 0.333671,0.2998 0.759623,0.4375 1.179687,0.4375 0.420064,0 0.84797,-0.1377 1.181641,-0.4375 0.333671,-0.2997 0.54864,-0.7699 0.541015,-1.3086 l 0,-0.7422 c 2.397586,-0.6758 4.273438,-2.6663 4.273438,-5.2148 0,-3.1396 -2.799071,-5.5215 -5.996094,-5.5215 -1.558244,0 -2.5507812,-1.0199 -2.5507812,-2.0762 0,-1.0419 0.9688822,-2.0365 2.4941402,-2.0644 l 0.119141,0 c 1.523024,0.03 2.488281,1.0181 2.488281,2.0586 -0.0052,0.5345 0.209418,1.0007 0.541016,1.2988 0.333667,0.2998 0.76153,0.4375 1.181641,0.4375 0.420109,0 0.847881,-0.1378 1.18164,-0.4375 0.333158,-0.2992 0.545875,-0.7692 0.539063,-1.3067 -0.0031,-2.6073 -1.916019,-4.5265 -4.271485,-5.2148 l 0,-0.7227 c 0.01514,-0.9655 -0.784386,-1.7631 -1.75,-1.748 z m 12.078125,0 0.81836,0 0,0.5156 a 0.50005,0.50005 0 0 0 0.388671,0.4883 c 0.393641,0.09 0.769393,0.2443 1.111329,0.459 a 0.50005,0.50005 0 0 0 0.61914,-0.068 l 0.363281,-0.3652 0.578126,0.5801 -0.361329,0.3613 a 0.50005,0.50005 0 0 0 -0.07031,0.6172 c 0.213722,0.3427 0.368457,0.7193 0.457031,1.1133 a 0.50005,0.50005 0 0 0 0.486328,0.3906 l 0.517578,0 0,0.8184 -0.515625,0 a 0.50005,0.50005 0 0 0 -0.486328,0.3886 c -0.0897,0.3936 -0.24628,0.7694 -0.460937,1.1114 a 0.50005,0.50005 0 0 0 0.07031,0.6191 l 0.363282,0.3633 -0.578126,0.5781 -0.361328,-0.3613 a 0.50005,0.50005 0 0 0 -0.61914,-0.07 c -0.342622,0.2137 -0.717359,0.3685 -1.111328,0.457 a 0.50005,0.50005 0 0 0 -0.390625,0.4883 l 0,0.5156 -0.81836,0 0,-0.5156 a 0.50005,0.50005 0 0 0 -0.388672,-0.4864 c -0.393637,-0.09 -0.769383,-0.2462 -1.111328,-0.4609 a 0.50005,0.50005 0 0 0 -0.61914,0.07 l -0.365235,0.3653 -0.578125,-0.5801 0.363281,-0.3614 a 0.50005,0.50005 0 0 0 0.07031,-0.6191 c -0.213719,-0.3426 -0.36846,-0.7173 -0.457031,-1.1113 a 0.50005,0.50005 0 0 0 -0.488279,-0.3906 l -0.517578,0 0,-0.8184 0.515625,0 a 0.50005,0.50005 0 0 0 0.488282,-0.3887 c 0.08971,-0.3937 0.244333,-0.7693 0.458984,-1.1113 a 0.50005,0.50005 0 0 0 -0.06836,-0.6191 l -0.365235,-0.3633 0.578125,-0.5801 0.363282,0.3633 a 0.50005,0.50005 0 0 0 0.617187,0.068 c 0.342617,-0.2137 0.719318,-0.3665 1.113281,-0.455 a 0.50005,0.50005 0 0 0 0.390625,-0.4903 l 0,-0.5156 z m -12.0625,1.0059 a 0.50005,0.50005 0 0 0 0.0059,0 c 0.40965,0 0.734955,0.3179 0.728516,0.7285 a 0.50005,0.50005 0 0 0 0,0.01 l 0,1.0684 a 0.50005,0.50005 0 0 0 0.390625,0.4883 c 2.171111,0.4879 3.882813,2.1442 3.882813,4.3945 a 0.50005,0.50005 0 0 0 0,0.01 c 0.0041,0.2874 -0.08474,0.4355 -0.210938,0.5488 -0.1262,0.1134 -0.314739,0.1817 -0.511718,0.1817 -0.19698,0 -0.387643,-0.068 -0.513672,-0.1817 -0.12603,-0.1132 -0.213237,-0.2614 -0.208985,-0.5488 a 0.50005,0.50005 0 0 0 0,-0.01 c 0,-1.6523 -1.504827,-3.0203 -3.46875,-3.0586 a 0.50005,0.50005 0 0 0 -0.03906,0 l -0.08008,0 a 0.50005,0.50005 0 0 0 -0.03906,0 c -1.967996,0.036 -3.4746096,1.4107 -3.4746095,3.0645 0,1.6746 1.5398465,3.0761 3.5507815,3.0761 2.704642,0 4.996094,1.9789 4.996094,4.5215 0,2.1818 -1.681896,3.9255 -3.876954,4.3868 a 0.50005,0.50005 0 0 0 -0.396484,0.4902 l 0,1.0879 a 0.50005,0.50005 0 0 0 0,0.01 c 0.0041,0.2874 -0.08286,0.4355 -0.208984,0.5488 -0.126124,0.1133 -0.316779,0.1816 -0.513672,0.1816 -0.196893,0 -0.385596,-0.068 -0.511719,-0.1816 -0.126123,-0.1133 -0.215006,-0.2614 -0.210937,-0.5488 a 0.50005,0.50005 0 0 0 0,-0.01 l 0,-1.084 a 0.50005,0.50005 0 0 0 -0.388673,-0.4863 c -2.171098,-0.4879 -3.8828126,-2.1444 -3.8828126,-4.3946 a 0.50005,0.50005 0 0 0 0,-0.01 c -0.00407,-0.2874 0.082784,-0.4375 0.2089844,-0.5508 0.1262001,-0.1133 0.3166921,-0.1816 0.5136718,-0.1816 0.1969798,0 0.3856891,0.068 0.5117188,0.1816 0.1260297,0.1133 0.2132364,0.2634 0.2089844,0.5508 a 0.50005,0.50005 0 0 0 0,0.01 c -1e-7,1.6751 1.5408132,3.0723 3.5507812,3.0723 2.00999,0 3.550781,-1.3972 3.550781,-3.0723 0,-1.6746 -1.539903,-3.0781 -3.550781,-3.0781 -2.7046193,0 -4.9941406,-1.9769 -4.9941406,-4.5195 0,-2.1819 1.6799299,-3.9274 3.8749996,-4.3887 a 0.50005,0.50005 0 0 0 0.396485,-0.4902 l 0,-1.0743 a 0.50005,0.50005 0 0 0 0,-0.01 c -0.0063,-0.4045 0.306029,-0.7261 0.710937,-0.7324 z m 12.470703,1.6054 c -1.036539,0 -1.888672,0.8522 -1.888672,1.8887 0,1.0365 0.851915,1.8906 1.888672,1.8906 1.036745,0 1.888672,-0.8541 1.888672,-1.8906 0,-1.0365 -0.852145,-1.8887 -1.888672,-1.8887 z m 0,1 c 0.490294,0 0.888672,0.3983 0.888672,0.8887 0,0.4903 -0.398597,0.8906 -0.888672,0.8906 -0.490102,0 -0.888672,-0.4003 -0.888672,-0.8906 0,-0.4904 0.398352,-0.8887 0.888672,-0.8887 z m -5.789062,5.3887 c -0.14214,0.2756 -0.318198,0.5312 -0.548828,0.7383 -0.11495,0.1032 -0.236762,0.1878 -0.363282,0.2617 l 0.882813,0 0,0.8203 c -3.7e-4,0.2336 0.160982,0.4363 0.388672,0.4883 0.52818,0.1204 1.033377,0.3292 1.492187,0.6172 0.19754,0.1237 0.454371,0.095 0.619141,-0.07 l 0.578125,-0.5782 0.964844,0.9629 -0.576172,0.5782 c -0.16451,0.164 -0.194416,0.4195 -0.07227,0.6171 0.28674,0.4596 0.494422,0.9656 0.613282,1.4942 0.052,0.2277 0.254731,0.3891 0.488281,0.3887 l 0.822265,0 0,1.3652 -0.820312,0 c -0.23356,-4e-4 -0.436261,0.161 -0.488281,0.3887 -0.12037,0.5282 -0.327225,1.0314 -0.615235,1.4902 -0.12423,0.1971 -0.09594,0.4538 0.06836,0.6191 l 0.580078,0.5801 -0.964844,0.9629 -0.576172,-0.5762 c -0.16477,-0.1649 -0.421601,-0.1944 -0.61914,-0.07 -0.45971,0.2867 -0.963578,0.4945 -1.492188,0.6133 -0.22775,0.051 -0.389875,0.2529 -0.390625,0.4863 l 0,0.8223 -1.363281,0 0,-0.8203 c -5.4e-4,-0.2328 -0.161692,-0.4344 -0.388672,-0.4863 -0.27917,-0.064 -0.54962,-0.1559 -0.8125,-0.2676 -0.42623,0.2814 -0.874706,0.5336 -1.353516,0.7265 l 0,0.09 c 0.002,0.1404 -0.01961,0.2745 -0.03711,0.4101 l 0.568359,-0.5683 c 0.32771,0.1739 0.668658,0.3154 1.023438,0.4238 l 0,0.9922 c 3e-5,0.2761 0.22387,0.5 0.5,0.5 l 2.363281,0 c 0.27613,0 0.49997,-0.2239 0.5,-0.5 l 0,-0.9941 c 0.35516,-0.1076 0.697141,-0.2469 1.025391,-0.42 l 0.699218,0.6993 c 0.19526,0.1951 0.511772,0.1951 0.707032,0 l 1.671875,-1.67 c 0.19518,-0.1952 0.19518,-0.5117 0,-0.707 l -0.703125,-0.7031 c 0.17357,-0.327 0.315418,-0.6675 0.423828,-1.0215 l 0.99414,0 c 0.27613,0 0.49997,-0.2239 0.5,-0.5 l 0,-2.3652 c -3e-5,-0.2762 -0.22387,-0.5 -0.5,-0.5 l -0.99414,0 c -0.10742,-0.3546 -0.247182,-0.6957 -0.419922,-1.0235 l 0.699219,-0.7011 c 0.19518,-0.1952 0.19518,-0.5118 0,-0.7071 l -1.671875,-1.6699 c -0.19526,-0.1952 -0.511772,-0.1952 -0.707032,0 l -0.701172,0.7012 c -0.327709,-0.1739 -0.668657,-0.3154 -1.023437,-0.4239 l 0,-0.9941 c -3e-5,-0.2761 -0.22387,-0.5 -0.5,-0.5 l -0.470703,0 z m 11.513672,1 a 0.50005,0.50005 0 0 0 -0.134766,0.018 l -1.404297,0.3769 a 0.50005,0.50005 0 0 0 -0.353515,0.6114 l 0.125,0.4687 c -0.117069,0.08 -0.22859,0.1652 -0.335938,0.2578 l -0.419922,-0.2422 a 0.50005,0.50005 0 0 0 -0.68164,0.1817 l -0.728516,1.2597 a 0.50005,0.50005 0 0 0 0.183594,0.6836 l 0.419922,0.2422 c -0.02675,0.1389 -0.04371,0.2788 -0.05469,0.4199 l -0.46875,0.125 a 0.50005,0.50005 0 0 0 -0.353516,0.6114 l 0.376954,1.4062 a 0.50005,0.50005 0 0 0 0.611328,0.3535 l 0.46875,-0.125 c 0.07937,0.1163 0.163997,0.2272 0.255859,0.334 l -0.242187,0.4199 a 0.50005,0.50005 0 0 0 0.183593,0.6836 l 1.259766,0.7266 a 0.50005,0.50005 0 0 0 0.683594,-0.1816 l 0.242187,-0.4219 c 0.139269,0.027 0.27852,0.046 0.419922,0.057 l 0.125,0.4668 a 0.50005,0.50005 0 0 0 0.611328,0.3535 l 1.40625,-0.375 a 0.50005,0.50005 0 0 0 0.353516,-0.6132 l -0.126953,-0.4688 c 0.116511,-0.079 0.227098,-0.1658 0.333984,-0.2578 l 0.421875,0.2441 a 0.50005,0.50005 0 0 0 0.683594,-0.1836 l 0.726562,-1.2597 a 0.50005,0.50005 0 0 0 -0.183593,-0.6836 l -0.419922,-0.2422 c 0.02664,-0.1386 0.04372,-0.2774 0.05469,-0.418 l 0.46875,-0.125 a 0.50005,0.50005 0 0 0 0.353516,-0.6133 l -0.375,-1.4043 a 0.50005,0.50005 0 0 0 -0.613281,-0.3535 l -0.46875,0.125 c -0.07959,-0.1167 -0.165662,-0.227 -0.257813,-0.334 l 0.244141,-0.4218 a 0.50005,0.50005 0 0 0 -0.183594,-0.6817 l -1.259766,-0.7285 a 0.50005,0.50005 0 0 0 -0.683593,0.1836 l -0.242188,0.4199 c -0.13858,-0.027 -0.277274,-0.044 -0.417969,-0.055 l -0.125,-0.4687 a 0.50005,0.50005 0 0 0 -0.478516,-0.3711 z m -0.359375,1.1113 0,0 0.08008,0.2989 a 0.50005,0.50005 0 0 0 0.5,0.371 c 0.311602,-0.011 0.624249,0.03 0.921875,0.1231 a 0.50005,0.50005 0 0 0 0.580078,-0.2266 l 0.158203,-0.2715 0.392578,0.2266 -0.15625,0.2715 a 0.50005,0.50005 0 0 0 0.09375,0.6152 c 0.228584,0.212 0.420625,0.4609 0.566407,0.7364 a 0.50005,0.50005 0 0 0 0.570312,0.25 l 0.300781,-0.08 0.119141,0.4375 -0.300781,0.08 a 0.50005,0.50005 0 0 0 -0.369141,0.5 c 0.01064,0.3116 -0.03216,0.6242 -0.125,0.9218 a 0.50005,0.50005 0 0 0 0.228516,0.5821 l 0.271482,0.1562 -0.228516,0.3945 -0.269531,-0.1563 a 0.50005,0.50005 0 0 0 -0.617187,0.092 c -0.211955,0.2286 -0.460783,0.4207 -0.736328,0.5665 a 0.50005,0.50005 0 0 0 -0.25,0.5703 l 0.08203,0.3027 -0.439453,0.1172 -0.08008,-0.2988 a 0.50005,0.50005 0 0 0 -0.5,-0.3711 c -0.3116,0.011 -0.622309,-0.032 -0.919922,-0.125 a 0.50005,0.50005 0 0 0 -0.582032,0.2285 l -0.158203,0.2715 -0.392578,-0.2266 0.15625,-0.2715 a 0.50005,0.50005 0 0 0 -0.09375,-0.6172 c -0.228587,-0.2065 -0.418648,-0.455 -0.56445,-0.7306 a 0.50005,0.50005 0 0 0 -0.572266,-0.248 l -0.300781,0.08 -0.117187,-0.4414 0.298828,-0.078 a 0.50005,0.50005 0 0 0 0.371094,-0.5 c -0.01063,-0.3116 0.0302,-0.6223 0.123046,-0.9199 a 0.50005,0.50005 0 0 0 -0.226562,-0.5821 l -0.271484,-0.1562 0.226562,-0.3945 0.269531,0.1562 a 0.50005,0.50005 0 0 0 0.617188,-0.096 c 0.211959,-0.2286 0.460791,-0.4186 0.736328,-0.5644 a 0.50005,0.50005 0 0 0 0.25,-0.5723 l -0.08008,-0.3008 0.4375,-0.1172 z m 0.576172,1.834 c -0.103256,0.01 -0.204861,0.026 -0.304688,0.053 -0.399306,0.107 -0.759509,0.3654 -0.980469,0.7481 -0.441947,0.7654 -0.175769,1.7591 0.589844,2.2012 0.765618,0.4421 1.759269,0.1755 2.201172,-0.5899 0.441913,-0.7655 0.175611,-1.7592 -0.589844,-2.2012 -0.287062,-0.1657 -0.606247,-0.2333 -0.916015,-0.2109 z m -11.716797,0.4961 0,0 c 0.13212,0.3928 0.228017,0.8014 0.273437,1.2305 0.40253,0.3046 0.667969,0.7824 0.667969,1.3242 0,0.7189 -0.463326,1.3273 -1.103516,1.5605 -0.16562,0.3903 -0.367835,0.7594 -0.609375,1.1036 0.0159,3e-4 0.03087,0 0.04687,0 1.46405,0 2.666016,-1.2043 2.666016,-2.668 0,-1.2113 -0.827966,-2.2346 -1.941406,-2.5547 z m 11.902344,0.5039 c 0.07869,0.01 0.157384,0.036 0.230468,0.078 0.292385,0.1688 0.393496,0.5414 0.22461,0.834 -0.168797,0.2923 -0.543716,0.3933 -0.835938,0.2246 -0.292227,-0.1688 -0.391408,-0.5436 -0.222656,-0.8359 0.126661,-0.2194 0.367429,-0.3305 0.603516,-0.3008 z" color="#000" font-family="sans-serif" font-weight="400" overflow="visible" white-space="normal"/></g></svg>