<svg xmlns="http://www.w3.org/2000/svg" xmlns:xlink="http://www.w3.org/1999/xlink" width="42" height="42" viewBox="0 0 42 42"><defs><linearGradient id="b" x1="906.952" x2="931.379" y1="515.915" y2="546.094" gradientTransform="translate(-1215.129 316.47) scale(1.34562)" gradientUnits="userSpaceOnUse" xlink:href="#a"/><linearGradient id="a"><stop offset="0" stop-color="#ffd800"/><stop offset="1" stop-color="#ff6100"/></linearGradient></defs><g transform="translate(0 -1010.362)"><rect width="42" height="42" y="1010.362" fill="url(#b)" rx="8.876" ry="8.876"/><path fill="#fff" fill-rule="evenodd" style="line-height:normal;text-indent:0;text-align:start;text-decoration-line:none;text-decoration-style:solid;text-decoration-color:#000;text-transform:none;block-progression:tb;isolation:auto;mix-blend-mode:normal" d="M 26.621094,1015.3622 C 25.732823,1015.3622 25,1016.093 25,1016.9813 l 0,3.7051 c 0,0.8882 0.732769,1.6172 1.621094,1.6172 l 0.912109,0 0,1.7363 a 0.50004994,0.50004994 0 0 0 0.847656,0.3575 l 2.150391,-2.0938 3.849609,0 c 0.888325,0 1.619141,-0.729 1.619141,-1.6172 l 0,-3.7051 c 0,-0.8883 -0.73087,-1.6191 -1.619141,-1.6191 l -7.759765,0 z m 0,1 7.759765,0 c 0.352834,0 0.619141,0.2685 0.619141,0.6191 l 0,3.7051 c 0,0.3505 -0.266361,0.6172 -0.619141,0.6172 l -4.052734,0 a 0.50004994,0.50004994 0 0 0 -0.347656,0.1426 l -1.447266,1.4082 0,-1.0508 a 0.50004994,0.50004994 0 0 0 -0.5,-0.5 l -1.412109,0 C 26.268314,1021.3036 26,1021.0369 26,1020.6864 l 0,-3.7051 c 0,-0.3506 0.26826,-0.6191 0.621094,-0.6191 z m 1.878906,2 a 0.50000006,0.49901515 0 0 0 -0.5,0.5 0.50000006,0.49901515 0 0 0 0.5,0.498 0.50000006,0.49901515 0 0 0 0.5,-0.498 0.50000006,0.49901515 0 0 0 -0.5,-0.5 z m 2,0 a 0.50000006,0.49901515 0 0 0 -0.5,0.5 0.50000006,0.49901515 0 0 0 0.5,0.498 0.50000006,0.49901515 0 0 0 0.5,-0.498 0.50000006,0.49901515 0 0 0 -0.5,-0.5 z m 2,0 a 0.50000006,0.49901515 0 0 0 -0.5,0.5 0.50000006,0.49901515 0 0 0 0.5,0.498 0.50000006,0.49901515 0 0 0 0.5,-0.498 0.50000006,0.49901515 0 0 0 -0.5,-0.5 z m -11.527344,2.5156 c -2.33136,0 -4.228507,1.9127 -4.228515,4.2539 4e-6,1.3185 0.614588,2.4846 1.55664,3.2657 -0.03556,0 -0.07205,0 -0.107422,0.01 l -8.6523434,0 C 8.6972697,1028.4032 8,1029.0949 8,1029.9384 l 0,13.4238 -1.5,0 a 0.50005006,0.50005006 0 0 0 -0.5,0.5 c 0,1.9254 1.5393024,3.5 3.4433594,3.5 l 23.1132816,0 c 1.904057,0 3.443359,-1.5746 3.443359,-3.5 a 0.50005006,0.50005006 0 0 0 -0.5,-0.5 l -1.5,0 0,-13.4238 c 0,-0.8435 -0.697237,-1.5352 -1.541016,-1.5352 l -8.675781,0 c -0.04499,0 -0.09143,0 -0.136719,-0.01 0.941387,-0.781 1.554683,-1.9477 1.554688,-3.2656 -9e-6,-2.3412 -1.897155,-4.2539 -4.228516,-4.2539 z m 0,1 c 1.787423,0 3.228509,1.4496 3.228516,3.2539 -7e-6,1.7779 -1.401205,3.2028 -3.152344,3.2442 l -0.152344,0 c -1.751138,-0.041 -3.152337,-1.4663 -3.152343,-3.2442 6e-6,-1.8043 1.441093,-3.2539 3.228515,-3.2539 z m -2.230468,7.4981 1.242187,0 -0.496094,5.9453 a 0.50005,0.50005 0 0 0 0.146485,0.3945 l 1,1 a 0.50005,0.50005 0 0 0 0.707031,0 l 1,-1 a 0.50005,0.50005 0 0 0 0.144531,-0.3945 l -0.496094,-5.9453 1.244141,0 c 2.633577,0 4.740234,2.1194 4.740234,4.7754 l 0,3.1933 -1.99414,0 0,-2.8945 a 0.50004991,0.50004991 0 0 0 -0.507813,-0.5078 0.50004991,0.50004991 0 0 0 -0.492187,0.5078 l 0,2.8945 -7.986328,0 0,-2.8945 a 0.50004991,0.50004991 0 0 0 -0.50586,-0.5078 0.50004991,0.50004991 0 0 0 -0.49414,0.5078 l 0,2.8945 -1.994141,0 0,-3.1933 c 0,-2.6559 2.108621,-4.7754 4.742188,-4.7754 z m 2.24414,0.01 a 0.50005,0.50005 0 0 0 0.002,0.019 l 0.482422,5.7676 -0.482422,0.4824 -0.482422,-0.4824 0.480469,-5.7676 a 0.50005,0.50005 0 0 0 0,-0.019 z m -11.4453124,0.019 5.9355464,0 c -0.393195,0.2741 -0.749151,0.5971 -1.062499,0.959 l -3.914063,0 a 0.50004997,0.50004997 0 0 0 -0.5,0.5 l 0,11 a 0.50004997,0.50004997 0 0 0 0.5,0.5 l 5.25,0 10.814453,0 3.009766,0 1.925781,0 a 0.50004997,0.50004997 0 0 0 0.5,-0.5 l 0,-11 a 0.50004997,0.50004997 0 0 0 -0.5,-0.5 l -3.939453,0 c -0.313092,-0.3617 -0.667665,-0.685 -1.060547,-0.959 l 5.958984,0 c 0.310422,0 0.541016,0.2317 0.541016,0.5352 l 0,13.4238 -24,0 0,-13.4238 c 0,-0.3035 0.2306816,-0.5352 0.5410156,-0.5352 z M 11,1031.3622 l 2.714844,0 C 13.260838,1032.189 13,1033.1399 13,1034.1513 l 0,3.6933 a 0.50004991,0.50004991 0 0 0 0.5,0.5 l 2.861328,0 a 0.50004991,0.50004991 0 0 0 0.263672,0 l 8.722656,0 a 0.50004991,0.50004991 0 0 0 0.263672,0 l 2.863281,0 a 0.50004991,0.50004991 0 0 0 0.5,-0.5 l 0,-3.6933 c 0,-1.0114 -0.259152,-1.9623 -0.71289,-2.7891 l 2.738281,0 0,10 -1.425781,0 -3.009766,0 -10.814453,0 -4.75,0 0,-10 z m -3.7988281,13 10.6347661,0 0,0.2793 c 0,0.6938 0.565306,1.2793 1.261718,1.2793 l 3.804688,0 c 0.696333,0 1.261719,-0.5854 1.261718,-1.2793 l 0,-0.2793 10.634766,0 c -0.248989,1.1161 -1.076288,2 -2.242187,2 l -23.1132816,0 c -1.1658992,0 -1.9931982,-0.8839 -2.2421875,-2 z m 11.6347661,0 4.328124,0 0,0.2793 c 0,0.17 -0.114931,0.2793 -0.261718,0.2793 l -3.804688,0 c -0.146708,0 -0.261719,-0.1094 -0.261718,-0.2793 l 0,-0.2793 z" color="#000" font-family="sans-serif" font-weight="400" overflow="visible" white-space="normal"/></g></svg>