<svg xmlns="http://www.w3.org/2000/svg" xmlns:xlink="http://www.w3.org/1999/xlink" width="42" height="42" viewBox="0 0 42 42"><defs><linearGradient id="b" x1="868.253" x2="937.656" y1="521.354" y2="588.736" gradientTransform="translate(-1161.097 316.47) scale(1.34562)" gradientUnits="userSpaceOnUse" xlink:href="#a"/><linearGradient id="a"><stop offset="0" stop-color="#24f3d2"/><stop offset=".394" stop-color="#0674f0"/><stop offset=".507" stop-color="#6961b5"/><stop offset=".813" stop-color="#f34660"/><stop offset="1" stop-color="#ee078d"/></linearGradient></defs><g transform="translate(0 -1010.362)"><rect width="42" height="42" y="1010.362" fill="url(#b)" rx="8.876" ry="8.876"/><path style="line-height:normal;text-indent:0;text-align:start;text-decoration-line:none;text-decoration-style:solid;text-decoration-color:#000;text-transform:none;block-progression:tb;isolation:auto;mix-blend-mode:normal" fill="#fff" d="m 7.5,1017.3622 a 0.50004997,0.50004997 0 0 0 -0.5,0.5 l 0,25 a 0.50004997,0.50004997 0 0 0 0.5,0.5 l 16.185547,0 c 1.126409,2.3603 3.52934,4 6.314453,4 3.860071,0 7,-3.1399 7,-7 0,-3.1651 -2.111799,-5.8443 -5,-6.707 l 0,-11.6934 a 0.50005,0.50005 0 0 0 0,-0.207 l 0,-3.8926 a 0.50004997,0.50004997 0 0 0 -0.5,-0.5 l -24,0 z m 0.5,1 23,0 0,3 -23,0 0,-3 z m 17.5,1 a 0.5,0.5 0 0 0 -0.5,0.5 0.5,0.5 0 0 0 0.5,0.5 0.5,0.5 0 0 0 0.5,-0.5 0.5,0.5 0 0 0 -0.5,-0.5 z m 2,0 a 0.5,0.5 0 0 0 -0.5,0.5 0.5,0.5 0 0 0 0.5,0.5 0.5,0.5 0 0 0 0.5,-0.5 0.5,0.5 0 0 0 -0.5,-0.5 z m 2,0 a 0.5,0.5 0 0 0 -0.5,0.5 0.5,0.5 0 0 0 0.5,0.5 0.5,0.5 0 0 0 0.5,-0.5 0.5,0.5 0 0 0 -0.5,-0.5 z m -21.5,3 23,0 0,11.0781 c -0.327589,-0.047 -0.659546,-0.078 -1,-0.078 l 0,-3.7441 a 0.50005,0.50005 0 0 0 -0.117188,-0.3204 l -1.226562,-1.4589 a 0.50005,0.50005 0 0 0 -0.02734,-0.031 c -0.315236,-0.3166 -0.715199,-0.4748 -1.082031,-0.4531 l 0,0 c -0.366832,0.022 -0.671091,0.1974 -0.888672,0.418 a 0.50005,0.50005 0 0 0 -0.01758,0.017 0.50005,0.50005 0 0 0 -0.01563,0.018 l -1.695309,1.8985 -3.398438,-3.8067 a 0.50005,0.50005 0 0 0 -0.01758,-0.019 c -0.334466,-0.3373 -0.783703,-0.4635 -1.158203,-0.416 l 0,0 c -0.254673,0.032 -0.42477,0.179 -0.609375,0.3047 a 0.50005,0.50005 0 0 0 -0.28711,0.1426 0.50005,0.50005 0 0 0 -0.01758,0.018 0.50005,0.50005 0 0 0 -0.01563,0.018 l -8.07421,9.045 a 0.50005,0.50005 0 0 0 -0.125,0.3632 c -0.0909,0.1997 -0.226562,0.389 -0.226562,0.594 0,0.7696 0.632663,1.4023 1.400391,1.4023 l 0.05469,0 6.685547,0 a 0.50005,0.50005 0 0 0 0.07617,0.01 c 1.53967,0 2.972545,0.01 4.464844,0.01 -0.43309,0.9033 -0.681642,1.9171 -0.681642,2.9898 0,0.6957 0.105115,1.3653 0.294922,2 l -15.294922,0 0,-20 z m 3.271484,1 c -1.24942,0 -2.271484,1.0266 -2.271484,2.2773 0,1.2507 1.020872,2.2793 2.271484,2.2793 1.249312,0 2.267579,-1.0292 2.267579,-2.2793 0,-1.2507 -1.020761,-2.2773 -2.267579,-2.2773 z m 0,1 c 0.704383,0 1.267579,0.5644 1.267579,1.2773 0,0.7135 -0.56209,1.2793 -1.267579,1.2793 -0.707788,0 -1.271484,-0.5664 -1.271484,-1.2793 0,-0.7129 0.562505,-1.2773 1.271484,-1.2773 z m 9.210938,2.0977 c 0.105658,-0.013 0.184401,-0.01 0.318359,0.1269 l 3.457031,3.875 -5.259765,5.8906 -6.542969,0 -0.05469,0 c -0.222273,0 -0.400391,-0.1738 -0.400391,-0.4023 0,-0.1664 0.0218,-0.211 0.08008,-0.2695 a 0.50005,0.50005 0 0 0 0.01758,-0.02 0.50005,0.50005 0 0 0 0.01563,-0.018 l 8.058594,-9.0273 0.002,0 c 0.0724,-0.071 0.203714,-0.1429 0.308594,-0.1562 z m 7.123047,1.8925 c 0.07111,0 0.15735,0.01 0.308593,0.1582 L 29,1029.8017 l 0,3.6386 c -1.958611,0.2822 -3.657608,1.3729 -4.742188,2.9278 -1.329188,-6e-4 -2.611855,-0.01 -3.927734,-0.01 l 6.908203,-7.7364 -0.224609,0 a 0.50005,0.50005 0 0 0 0.357422,-0.1484 c 0.07402,-0.075 0.162007,-0.1168 0.234375,-0.1211 z M 30,1034.3622 c 3.319631,0 6,2.6804 6,6 0,3.3197 -2.680369,6 -6,6 -3.319631,0 -6,-2.6803 -6,-6 0,-3.3196 2.680369,-6 6,-6 z m 1.736328,1 0,0 a 0.50004997,0.50004997 0 0 0 -0.417969,0.2402 l -0.679687,1.1231 a 0.50004997,0.50004997 0 0 0 -0.04883,0.027 l -4.359375,2.8731 a 0.50004997,0.50004997 0 0 0 -0.22461,0.416 l -0.01172,3.8164 a 0.50004997,0.50004997 0 0 0 0.5,0.5019 l 3.783203,0 a 0.50004997,0.50004997 0 0 0 0.417968,-0.2246 l 2.898438,-4.3984 a 0.50004997,0.50004997 0 0 0 0.02734,-0.047 l 1.132812,-0.6738 a 0.50004997,0.50004997 0 0 0 0.0957,-0.7852 l -2.751942,-2.7266 a 0.50004997,0.50004997 0 0 0 -0.361328,-0.1445 z m 0.107422,1.3027 1.84375,1.8262 -0.488281,0.2891 -1.648438,-1.6309 0.292969,-0.4844 z m -1.044922,1.1485 0.002,0 1.732422,1.7168 -2.525438,3.832 -2.36914,0 1.154297,-1.1426 c 0.461243,0.1794 1.011358,0.087 1.380859,-0.2793 0.496023,-0.4914 0.496016,-1.3035 0,-1.7949 -0.496015,-0.4914 -1.316478,-0.4914 -1.8125,0 -0.370465,0.367 -0.464154,0.9134 -0.28125,1.3711 l -1.082031,1.0723 0.0059,-2.2735 3.794922,-2.5019 z m -1.53125,2.9531 c 0.0698,0 0.139279,0.028 0.195313,0.084 0.112074,0.111 0.112081,0.2756 0,0.3867 -0.112074,0.111 -0.278551,0.111 -0.390625,0 -0.112081,-0.1111 -0.112074,-0.2757 0,-0.3867 0.05604,-0.056 0.125511,-0.084 0.195312,-0.084 z" color="#000" font-family="sans-serif" font-weight="400" overflow="visible" white-space="normal"/></g></svg>