<svg xmlns="http://www.w3.org/2000/svg" xmlns:xlink="http://www.w3.org/1999/xlink" width="42" height="42" viewBox="0 0 42 42"><defs><linearGradient id="b" x1="949.87" x2="974.39" y1="518.014" y2="544.657" gradientTransform="translate(-1272.559 316.47) scale(1.34562)" gradientUnits="userSpaceOnUse" xlink:href="#a"/><linearGradient id="a"><stop offset="0" stop-color="#24f7bc"/><stop offset="1" stop-color="#24c4fc"/></linearGradient></defs><g transform="translate(0 -1010.362)"><rect width="42" height="42" y="1010.362" fill="url(#b)" rx="8.876" ry="8.876"/><path style="line-height:normal;text-indent:0;text-align:start;text-decoration-line:none;text-decoration-style:solid;text-decoration-color:#000;text-transform:none;block-progression:tb;isolation:auto;mix-blend-mode:normal" fill="#fff" fill-rule="evenodd" d="M 12.492188,1019.3544 A 0.50004997,0.50004997 0 0 0 12,1019.8622 l 0,3.5411 -2.4589844,0 C 8.6973301,1023.4033 8,1024.0948 8,1024.9384 l 0,13.4238 -1.5,0 a 0.50005006,0.50005006 0 0 0 -0.5,0.5 c 0,1.9255 1.5393206,3.5 3.4433594,3.5 l 23.1132816,0 c 1.904039,0 3.443359,-1.5745 3.443359,-3.5 a 0.50005006,0.50005006 0 0 0 -0.5,-0.5 l -1.5,0 0,-13.4238 c 0,-0.8436 -0.697298,-1.5351 -1.541016,-1.5351 l -3.458984,0 0,-3.5411 a 0.50005,0.50005 0 0 0 -0.5,-0.5 l -2,0 a 0.50005,0.50005 0 0 0 -0.5,0.5 l 0,3.5411 -5,0 0,-1.5411 a 0.50005,0.50005 0 0 0 -0.5,-0.5 l -2,0 a 0.50005,0.50005 0 0 0 -0.5,0.5 l 0,1.5411 -2.728516,0 -2.271484,0 0,-3.5411 a 0.50004997,0.50004997 0 0 0 -0.507812,-0.5078 z M 27,1020.3622 l 1,0 0,11.9864 -1,0 0,-11.9864 z m -8,2 1,0 0,9.9864 -1,0 0,-9.9864 z m -9.4589844,2.0411 2.4589844,0 0,0.9589 -1.5,0 a 0.50004997,0.50004997 0 0 0 -0.5,0.5 l 0,11 a 0.50004997,0.50004997 0 0 0 0.5,0.5 l 5.25,0 10.814453,0 3.009766,0 1.925781,0 a 0.50004997,0.50004997 0 0 0 0.5,-0.5 l 0,-11 a 0.50004997,0.50004997 0 0 0 -0.5,-0.5 l -2.5,0 0,-0.9589 3.458984,0 c 0.310471,0 0.541016,0.2315 0.541016,0.5351 l 0,13.4238 -24,0 0,-13.4238 c 0,-0.3036 0.2306311,-0.5351 0.5410156,-0.5351 z m 3.4589844,0 2.271484,0 2.728516,0 0,0.9589 -5,0 0,-0.9589 z m 8,0 5,0 0,0.9589 -5,0 0,-0.9589 z m -10,1.9589 1,0 0,6.5 a 0.50004997,0.50004997 0 0 0 0.5,0.5 l 17,0 a 0.50004997,0.50004997 0 1 0 0,-1 l -0.5,0 0,-6 2,0 0,10 -1.425781,0 -3.009766,0 -10.814453,0 -4.75,0 0,-10 z m 2,0 5,0 0,6 -1,0 0,-3.5136 a 0.50005,0.50005 0 0 0 -0.5,-0.5 l -2,0 a 0.50005,0.50005 0 0 0 -0.5,0.5 l 0,3.5136 -1,0 0,-6 z m 8,0 5,0 0,6 -1,0 0,-4.5 a 0.50004997,0.50004997 0 0 0 -0.5,-0.5 l -2,0 a 0.50004997,0.50004997 0 0 0 -0.5,0.5 l 0,4.5 -1,0 0,-6 z m 2,2 1,0 0,3.9864 -1,0 0,-3.9864 z m -8,0.9864 1,0 0,3 -1,0 0,-3 z m -7.7988281,10.0136 10.6347661,0 0,0.2793 c 0,0.6938 0.565385,1.2793 1.261718,1.2793 l 3.804688,0 c 0.696333,0 1.261719,-0.5854 1.261718,-1.2793 l 0,-0.2793 10.634766,0 c -0.248985,1.1162 -1.076268,2 -2.242187,2 l -23.1132816,0 c -1.1659196,0 -1.9932021,-0.8838 -2.2421875,-2 z m 11.6347661,0 4.328124,0 0,0.2793 c 0,0.1698 -0.11493,0.2793 -0.261718,0.2793 l -3.804688,0 c -0.146788,0 -0.26172,-0.1094 -0.261718,-0.2793 l 0,-0.2793 z" color="#000" font-family="sans-serif" font-weight="400" overflow="visible" white-space="normal"/></g></svg>