<svg xmlns="http://www.w3.org/2000/svg" xmlns:xlink="http://www.w3.org/1999/xlink" width="42" height="42" viewBox="0 0 42 42"><defs><linearGradient id="b" x1="1056.035" x2="1031.176" y1="544.13" y2="517.701" gradientTransform="translate(-1384.02 316.47) scale(1.34562)" gradientUnits="userSpaceOnUse" xlink:href="#a"/><linearGradient id="a"><stop offset="0" stop-color="#5a5a5a"/><stop offset="1" stop-color="#656e85"/></linearGradient></defs><g transform="translate(0 -1010.362)"><rect width="42" height="42" y="1010.362" fill="url(#b)" rx="8.876" ry="8.876"/><path style="line-height:normal;text-indent:0;text-align:start;text-decoration-line:none;text-decoration-style:solid;text-decoration-color:#000;text-transform:none;block-progression:tb;isolation:auto;mix-blend-mode:normal" fill="#fff" d="m 14.435547,1017.3622 a 0.48934301,0.48934301 0 0 0 -0.455078,0.3066 l -1.867188,4.6778 A 0.50004997,0.50004997 0 0 0 12,1022.6688 l 0,0.025 a 0.48934292,0.48934292 0 0 0 0,0.035 l 0,0.2168 0,0.049 c 0,0.4038 0.203042,0.7469 0.498047,0.9844 0.08709,0.072 0.180156,0.1348 0.283203,0.1836 0.173617,0.08 0.360084,0.1328 0.560547,0.1328 0.0026,0 0.0052,0 0.0078,0 0.04777,-3e-4 0.09393,-0.01 0.140625,-0.016 0.03911,0 0.07908,0 0.117187,-0.012 0.0014,-3e-4 0.0025,0 0.0039,0 0.0288,-0.01 0.05584,-0.016 0.08398,-0.023 l 0,1.1601 -4.1542965,0 C 8.6973274,1025.4032 8,1026.0948 8,1026.9384 l 0,13.4238 -1.5,0 a 0.50005006,0.50005006 0 0 0 -0.5,0.5 c 0,1.9254 1.5393229,3.5 3.4433594,3.5 l 23.1132816,0 c 1.904036,0 3.443359,-1.5746 3.443359,-3.5 a 0.50005006,0.50005006 0 0 0 -0.5,-0.5 l -1.5,0 0,-13.4238 c 0,-0.8436 -0.697295,-1.5352 -1.541016,-1.5352 l -4.160156,0 0,-1.1621 c 0.03008,0.01 0.059,0.019 0.08984,0.025 0.08734,0.018 0.177774,0.029 0.269531,0.029 0.200463,0 0.38693,-0.053 0.560547,-0.1328 0.103047,-0.049 0.196113,-0.1115 0.283203,-0.1836 C 29.796958,1023.7419 30,1023.3988 30,1022.995 l 0,-0.049 0,-0.3047 a 0.50004997,0.50004997 0 0 0 -0.134766,-0.3477 l -1.845703,-4.625 -0.0039,0.01 a 0.48934301,0.48934301 0 0 0 -0.451178,-0.3144 l -13.128906,0 0,0 z m 0.330078,0.9785 12.46875,0 1.765625,4.4219 0,0.1836 c 0,0.202 -0.14684,0.3496 -0.349609,0.3496 -0.202785,0 -0.351563,-0.1476 -0.351563,-0.3496 a 0.50004997,0.50004997 0 0 0 -0.002,-0.051 0.50004997,0.50004997 0 0 0 -0.998047,0.041 0.50004997,0.50004997 0 0 0 0,0.01 c 0,0.202 -0.146825,0.3496 -0.349609,0.3496 -0.202769,0 -0.34961,-0.1476 -0.34961,-0.3496 a 0.50004997,0.50004997 0 0 0 -0.002,-0.051 0.50004997,0.50004997 0 0 0 -0.146484,-0.3105 0.50004997,0.50004997 0 0 0 -0.03516,-0.033 0.50004997,0.50004997 0 0 0 -0.002,0 0.50004997,0.50004997 0 0 0 -0.273437,-0.1114 0.50004997,0.50004997 0 0 0 -0.09766,0 0.50004997,0.50004997 0 0 0 -0.002,0 0.50004997,0.50004997 0 0 0 -0.304688,0.1523 0.50004997,0.50004997 0 0 0 -0.0332,0.037 0.50004997,0.50004997 0 0 0 -0.02734,0.039 0.50004997,0.50004997 0 0 0 -0.002,0 0.50004997,0.50004997 0 0 0 -0.0098,0.018 0.50004997,0.50004997 0 0 0 -0.01367,0.024 0.50004997,0.50004997 0 0 0 -0.01953,0.045 0.50004997,0.50004997 0 0 0 -0.01563,0.045 0.50004997,0.50004997 0 0 0 -0.0098,0.047 0.50004997,0.50004997 0 0 0 -0.0059,0.049 0.50004997,0.50004997 0 0 0 0,0.035 c 0,0.202 -0.146824,0.3496 -0.349609,0.3496 -0.202769,0 -0.349609,-0.1476 -0.349609,-0.3496 a 0.50004997,0.50004997 0 0 0 -0.002,-0.051 0.50004997,0.50004997 0 0 0 -0.146485,-0.3106 0.50004997,0.50004997 0 0 0 -0.03516,-0.033 0.50004997,0.50004997 0 0 0 -0.002,0 0.50004997,0.50004997 0 0 0 -0.273438,-0.1113 0.50004997,0.50004997 0 0 0 -0.09766,0 0.50004997,0.50004997 0 0 0 -0.002,0 0.50004997,0.50004997 0 0 0 -0.304688,0.1523 0.50004997,0.50004997 0 0 0 -0.0332,0.037 0.50004997,0.50004997 0 0 0 -0.02734,0.039 0.50004997,0.50004997 0 0 0 -0.002,0 0.50004997,0.50004997 0 0 0 -0.0098,0.018 0.50004997,0.50004997 0 0 0 -0.01367,0.023 0.50004997,0.50004997 0 0 0 -0.01953,0.045 0.50004997,0.50004997 0 0 0 -0.01563,0.045 0.50004997,0.50004997 0 0 0 -0.0098,0.047 0.50004997,0.50004997 0 0 0 -0.0059,0.049 0.50004997,0.50004997 0 0 0 0,0.035 c 0,0.202 -0.146841,0.3496 -0.34961,0.3496 -0.202784,0 -0.351562,-0.1476 -0.351562,-0.3496 a 0.50004997,0.50004997 0 0 0 -0.002,-0.051 0.50004997,0.50004997 0 0 0 -0.146485,-0.3106 0.50004997,0.50004997 0 0 0 -0.03516,-0.033 0.50004997,0.50004997 0 0 0 -0.002,0 0.50004997,0.50004997 0 0 0 -0.273438,-0.1113 0.50004997,0.50004997 0 0 0 -0.09766,0 0.50004997,0.50004997 0 0 0 -0.002,0 0.50004997,0.50004997 0 0 0 -0.304687,0.1524 0.50004997,0.50004997 0 0 0 -0.0332,0.037 0.50004997,0.50004997 0 0 0 -0.02734,0.039 0.50004997,0.50004997 0 0 0 -0.002,0 0.50004997,0.50004997 0 0 0 -0.0098,0.018 0.50004997,0.50004997 0 0 0 -0.01367,0.023 0.50004997,0.50004997 0 0 0 -0.01953,0.045 0.50004997,0.50004997 0 0 0 -0.01563,0.045 0.50004997,0.50004997 0 0 0 -0.0098,0.047 0.50004997,0.50004997 0 0 0 -0.0059,0.049 0.50004997,0.50004997 0 0 0 0,0.035 c 0,0.202 -0.146841,0.3496 -0.34961,0.3496 -0.201837,10e-5 -0.348662,-0.1475 -0.348662,-0.3495 a 0.50004997,0.50004997 0 0 0 -0.002,-0.051 0.50004997,0.50004997 0 0 0 -0.146485,-0.3105 0.50004997,0.50004997 0 0 0 -0.03516,-0.033 0.50004997,0.50004997 0 0 0 -0.002,0 0.50004997,0.50004997 0 0 0 -0.273437,-0.1114 0.50004997,0.50004997 0 0 0 -0.09766,0 0.50004997,0.50004997 0 0 0 -0.002,0 0.50004997,0.50004997 0 0 0 -0.304687,0.1523 0.50004997,0.50004997 0 0 0 -0.0332,0.037 0.50004997,0.50004997 0 0 0 -0.02734,0.039 0.50004997,0.50004997 0 0 0 -0.002,0 0.50004997,0.50004997 0 0 0 -0.0098,0.018 0.50004997,0.50004997 0 0 0 -0.01367,0.024 0.50004997,0.50004997 0 0 0 -0.01953,0.045 0.50004997,0.50004997 0 0 0 -0.01563,0.045 0.50004997,0.50004997 0 0 0 -0.0098,0.047 0.50004997,0.50004997 0 0 0 -0.0059,0.049 0.50004997,0.50004997 0 0 0 0,0.035 c 0,0.202 -0.146825,0.3496 -0.349609,0.3496 -0.202769,0 -0.34961,-0.1476 -0.34961,-0.3496 a 0.50004997,0.50004997 0 0 0 -0.002,-0.051 0.50004997,0.50004997 0 0 0 -0.146484,-0.3106 0.50004997,0.50004997 0 0 0 -0.03516,-0.033 0.50004997,0.50004997 0 0 0 -0.002,0 0.50004997,0.50004997 0 0 0 -0.273437,-0.1113 0.50004997,0.50004997 0 0 0 -0.09766,0 0.50004997,0.50004997 0 0 0 -0.002,0 0.50004997,0.50004997 0 0 0 -0.304688,0.1523 0.50004997,0.50004997 0 0 0 -0.0332,0.037 0.50004997,0.50004997 0 0 0 -0.02734,0.039 0.50004997,0.50004997 0 0 0 -0.002,0 0.50004997,0.50004997 0 0 0 -0.0098,0.018 0.50004997,0.50004997 0 0 0 -0.01367,0.023 0.50004997,0.50004997 0 0 0 -0.01953,0.045 0.50004997,0.50004997 0 0 0 -0.01563,0.045 0.50004997,0.50004997 0 0 0 -0.0098,0.047 0.50004997,0.50004997 0 0 0 -0.0059,0.049 0.50004997,0.50004997 0 0 0 0,0.035 c 0,0.202 -0.146824,0.3496 -0.349609,0.3496 -0.202769,0 -0.351563,-0.1476 -0.351563,-0.3496 a 0.50004997,0.50004997 0 0 0 -0.002,-0.051 0.50004997,0.50004997 0 0 0 -0.146484,-0.3106 0.50004997,0.50004997 0 0 0 -0.03516,-0.033 0.50004997,0.50004997 0 0 0 -0.002,0 0.50004997,0.50004997 0 0 0 -0.273437,-0.1113 0.50004997,0.50004997 0 0 0 -0.09766,0 0.50004997,0.50004997 0 0 0 -0.002,0 0.50004997,0.50004997 0 0 0 -0.304688,0.1524 0.50004997,0.50004997 0 0 0 -0.0332,0.037 0.50004997,0.50004997 0 0 0 -0.02734,0.039 0.50004997,0.50004997 0 0 0 -0.002,0 0.50004997,0.50004997 0 0 0 -0.0098,0.018 0.50004997,0.50004997 0 0 0 -0.01367,0.023 0.50004997,0.50004997 0 0 0 -0.01953,0.045 0.50004997,0.50004997 0 0 0 -0.01563,0.045 0.50004997,0.50004997 0 0 0 -0.0098,0.047 0.50004997,0.50004997 0 0 0 -0.0059,0.049 0.50004997,0.50004997 0 0 0 0,0.035 c 0,0.202 -0.14684,0.3496 -0.349609,0.3496 -0.202785,0 -0.349609,-0.1476 -0.349609,-0.3496 a 0.50004997,0.50004997 0 0 0 -0.002,-0.051 0.50004997,0.50004997 0 0 0 -0.146485,-0.3105 0.50004997,0.50004997 0 0 0 -0.03516,-0.033 0.50004997,0.50004997 0 0 0 -0.002,0 0.50004997,0.50004997 0 0 0 -0.273438,-0.1113 0.50004997,0.50004997 0 0 0 -0.09766,0 0.50004997,0.50004997 0 0 0 -0.002,0 0.50004997,0.50004997 0 0 0 -0.304688,0.1523 0.50004997,0.50004997 0 0 0 -0.0332,0.037 0.50004997,0.50004997 0 0 0 -0.02734,0.039 0.50004997,0.50004997 0 0 0 -0.002,0 0.50004997,0.50004997 0 0 0 -0.0098,0.018 0.50004997,0.50004997 0 0 0 -0.01367,0.023 0.50004997,0.50004997 0 0 0 -0.01953,0.045 0.50004997,0.50004997 0 0 0 -0.01563,0.045 0.50004997,0.50004997 0 0 0 -0.0098,0.047 0.50004997,0.50004997 0 0 0 -0.0059,0.049 0.50004997,0.50004997 0 0 0 0,0.035 c 0,0.202 -0.146825,0.3496 -0.34961,0.3496 -0.202784,0 -0.349609,-0.1476 -0.349609,-0.3496 a 0.50004997,0.50004997 0 0 0 0,-0.01 0.50004997,0.50004997 0 0 0 -0.06325,-0.2401 0.50004997,0.50004997 0 0 0 -0.01953,-0.035 0.50004997,0.50004997 0 0 0 -0.0059,-0.01 0.50004997,0.50004997 0 0 0 -0.02344,-0.031 0.50004997,0.50004997 0 0 0 -0.0059,-0.01 0.50004997,0.50004997 0 0 0 -0.02734,-0.029 0.50004997,0.50004997 0 0 0 -0.0019,0 0.50004997,0.50004997 0 0 0 -0.0059,-0.01 0.50004997,0.50004997 0 0 0 -0.03125,-0.025 0.50004997,0.50004997 0 0 0 -0.328125,-0.1192 0.50004997,0.50004997 0 0 0 -0.492188,0.5059 l 0,0.037 c -0.01464,0.1856 -0.153649,0.3203 -0.345703,0.3203 C 13.146825,1023.2958 13,1023.1482 13,1022.9462 l 0,-0.1836 1.765625,-4.4219 z m -1.394531,4.4258 -0.02148,0.053 0,0.1153 c 10e-4,-0.057 0.0096,-0.1128 0.02148,-0.168 z m 15.257812,0 c 0.0122,0.056 0.02049,0.1115 0.02148,0.168 l 0,-0.1153 -0.02148,-0.053 z m 0.01953,0.1797 0,0 c 2.35e-4,0 0.002,0 0.002,0 l -0.002,0 z m 0,0 c -0.0027,0.017 -0.01898,0.029 -0.01953,0.047 l 0.01953,0 0,-0.047 z m -12.748047,1.0312 c 0.09013,0.074 0.185915,0.1402 0.292968,0.1895 0.170401,0.076 0.354726,0.125 0.550782,0.125 0.0013,0 0.0045,0 0.0059,0 0.03584,-2e-4 0.0702,-0.01 0.105469,-0.012 0.05185,0 0.104171,-0.01 0.154297,-0.016 0.04271,-0.01 0.08174,-0.025 0.123046,-0.037 0.04152,-0.012 0.08521,-0.021 0.125,-0.037 0.0014,-5e-4 0.0026,0 0.0039,0 0.124511,-0.052 0.235005,-0.1261 0.33789,-0.211 0.09425,0.078 0.196021,0.1451 0.308594,0.1954 0.167214,0.073 0.347617,0.1191 0.539063,0.1191 0,0 0.002,0 0.002,0 0,0 0.002,0 0.002,0 0.09105,-3e-4 0.182863,-0.012 0.269531,-0.029 0.08498,-0.017 0.165353,-0.043 0.244141,-0.076 0.12366,-0.052 0.233667,-0.1246 0.335937,-0.209 0.09753,0.081 0.201229,0.1523 0.31836,0.2032 0.164119,0.07 0.342258,0.1113 0.529297,0.1113 0,0 0.002,0 0.002,0 0.182304,-3e-4 0.356719,-0.039 0.517578,-0.1055 0.122186,-0.052 0.230528,-0.1254 0.331858,-0.209 0.10133,0.084 0.209672,0.1575 0.332031,0.209 0.09764,0.041 0.199894,0.067 0.306641,0.084 l 0,7.0879 -6.9375,0 0,-7.1172 c 0.110222,0.029 0.223758,0.051 0.341797,0.051 0.0026,0 0.0052,0 0.0078,0 0.04777,-3e-4 0.09393,-0.01 0.140625,-0.016 0.0391,0 0.0791,0 0.117188,-0.012 0.0014,-2e-4 0.0025,0 0.0039,0 0.08399,-0.017 0.166353,-0.04 0.244141,-0.072 0,0 0.002,0 0.002,0 0.126018,-0.052 0.237827,-0.1271 0.341797,-0.2129 z m 6.798828,0 c 0.101661,0.084 0.211251,0.1574 0.333984,0.209 0.160672,0.067 0.337228,0.1052 0.519531,0.1055 0.183966,0 0.35955,-0.04 0.521485,-0.1074 0.120212,-0.051 0.226396,-0.1248 0.326172,-0.2071 0.102885,0.085 0.213379,0.1592 0.33789,0.211 0.04149,0.017 0.08558,0.026 0.128907,0.039 0.03777,0.012 0.07425,0.027 0.113281,0.035 0.08726,0.018 0.179812,0.029 0.271484,0.029 0.0013,0 0.0026,0 0.0039,0 0.196056,0 0.380381,-0.049 0.550782,-0.125 0.107053,-0.049 0.202839,-0.1151 0.292968,-0.1895 0.10397,0.086 0.217733,0.161 0.34375,0.2129 0.01694,0.01 0.03548,0.01 0.05273,0.016 0.06215,0.023 0.125551,0.043 0.191406,0.057 0.08734,0.018 0.177774,0.029 0.269531,0.029 0.118039,0 0.231575,-0.022 0.341797,-0.051 l 0,8.6094 0,0.5078 -2.193359,0 -2.472657,0 0,-0.4238 a 0.50004997,0.50004997 0 0 0 0.0059,-0.084 l 0,-8.8223 c 0.02134,-0.016 0.04017,-0.034 0.06055,-0.051 z m -6.396485,1.0059 -1.132812,2.2656 0.894531,0.4473 1.132813,-2.2637 -0.894532,-0.4492 z m 1.132813,1.1328 -1.416016,2.8301 0.894531,0.4492 1.416016,-2.832 -0.894531,-0.4473 z m -7.8945314,0.2832 4.1542974,0 0,0.959 -3.195313,0 a 0.50004997,0.50004997 0 0 0 -0.5,0.5 l 0,11 a 0.50004997,0.50004997 0 0 0 0.5,0.5 l 5.25,0 10.814453,0 3.009766,0 1.925781,0 a 0.50004997,0.50004997 0 0 0 0.5,-0.5 l 0,-11 a 0.50004997,0.50004997 0 0 0 -0.5,-0.5 l -3.201172,0 0,-0.959 4.160156,0 c 0.310482,0 0.541018,0.2316 0.541018,0.5352 l 0,13.4238 -24,0 0,-13.4238 c 0,-0.3036 0.2306238,-0.5352 0.5410156,-0.5352 z M 23,1027.4872 l 0,1.832 1,0 0,-1.832 -1,0 z m -12,0.875 2.695313,0 0,3 -1.195313,0 a 0.50004997,0.50004997 0 0 0 -0.5,0.5 l 0,0.832 0,1.168 a 0.50004997,0.50004997 0 0 0 0.5,0.5 l 9.632812,0 a 0.50004997,0.50004997 0 0 0 0.0039,0 l 2.96875,0 2.652343,0 a 0.50005006,0.50005006 0 0 0 0.03516,0.01 0.50005006,0.50005006 0 0 0 0.0059,0 l 1.701172,0 a 0.50005006,0.50005006 0 0 0 0.04883,0 0.50005006,0.50005006 0 0 0 0.451133,-0.51 l 0,-1.998 -0.0078,0.01 a 0.50005006,0.50005006 0 0 0 -0.4922,-0.51 l -1.201172,0 0,-3.002 2.701172,0 0,10 -1.425781,0 -3.009766,0 -10.814453,0 -4.75,0 0,-10 z m 2,4 1.119141,0 a 0.50004997,0.50004997 0 0 0 0.152343,0 l 7.361328,0 0,1 -8.632812,0 0,-0.668 0,-0.332 z m 15.298828,0 0.701172,0 0,0.998 -0.701172,0 0,-0.998 z m -21.0976561,8.998 10.6347661,0 0,0.2793 c 0,0.6937 0.565385,1.2793 1.261718,1.2793 l 3.804688,0 c 0.696333,0 1.261719,-0.5855 1.261718,-1.2793 l 0,-0.2793 10.634766,0 c -0.249169,1.1158 -1.076452,2 -2.242187,2 l -23.1132816,0 c -1.1657355,0 -1.9930179,-0.8842 -2.2421875,-2 z m 11.6347661,0 4.328124,0 0,0.2793 c 0,0.1697 -0.114931,0.2793 -0.261718,0.2793 l -3.804688,0 c -0.146787,0 -0.261719,-0.1095 -0.261718,-0.2793 l 0,-0.2793 z" color="#000" font-family="sans-serif" font-weight="400" overflow="visible" white-space="normal"/></g></svg>