<svg xmlns="http://www.w3.org/2000/svg" xmlns:xlink="http://www.w3.org/1999/xlink" width="42" height="42" viewBox="0 0 42 42"><defs><linearGradient id="b" x1="906.952" x2="931.379" y1="515.915" y2="546.094" gradientTransform="translate(-1215.129 316.47) scale(1.34562)" gradientUnits="userSpaceOnUse" xlink:href="#a"/><linearGradient id="a"><stop offset="0" stop-color="#ffd800"/><stop offset="1" stop-color="#ff6100"/></linearGradient></defs><g transform="translate(0 -1010.362)"><rect width="42" height="42" y="1010.362" fill="url(#b)" rx="8.876" ry="8.876"/><path fill="#fff" fill-rule="evenodd" style="line-height:normal;text-indent:0;text-align:start;text-decoration-line:none;text-decoration-style:solid;text-decoration-color:#000;text-transform:none;block-progression:tb;isolation:auto;mix-blend-mode:normal" d="m 23,1018.3638 c -2.056523,0 -3.730505,1.6882 -3.730469,3.7539 1.3e-5,0.9804 0.385785,1.8669 1.001953,2.5371 l -6.90039,0 c -0.750513,0 -1.375,0.616 -1.375,1.3672 l 0,1.748 0.03711,0 c -0.721102,0.7811 -1.17186,1.8179 -1.171875,2.9629 -1.7e-5,1.3687 0.643885,2.5782 1.628906,3.3809 C 9.4208805,1034.3295 7,1036.8964 7,1040.0357 l 0,3.8066 a 0.50004991,0.50004991 0 0 0 0.5,0.5 l 2.949219,0 a 0.50004991,0.50004991 0 0 0 0.279297,0 l 8.988281,0 a 0.50004991,0.50004991 0 0 0 0.279297,0 l 2.949218,0 a 0.50004991,0.50004991 0 0 0 0.5,-0.5 l 0,-3.1836 9.517579,0 c 1.678334,0 3.037109,-1.3858 3.037109,-3.0781 a 0.50005006,0.50005006 0 0 0 -0.5,-0.5 l -1.496094,0 0,-11.0586 c 0,-0.7512 -0.624465,-1.3672 -1.375,-1.3672 l -6.90039,0 c 0.616168,-0.6702 1.00194,-1.5567 1.001953,-2.5371 3.6e-5,-2.0657 -1.673946,-3.7539 -3.730469,-3.7539 z m 0,1 c 1.512095,0 2.730496,1.2247 2.730469,2.7539 -2e-5,1.5095 -1.188809,2.7171 -2.673828,2.748 l -0.113282,0 c -1.485019,-0.031 -2.673808,-1.2385 -2.673828,-2.748 -2.7e-5,-1.5292 1.218374,-2.7539 2.730469,-2.7539 z m -9.628906,6.291 5.003906,0 c -0.489678,0.3114 -0.920039,0.7048 -1.275391,1.1621 -0.574639,-0.2828 -1.211144,-0.4551 -1.892578,-0.4551 -0.810499,0 -1.560783,0.2382 -2.210937,0.6289 l 0,-0.9687 c 0,-0.2092 0.155752,-0.3672 0.375,-0.3672 z m 14.267578,0 4.990234,0 c 0.219323,0 0.375,0.158 0.375,0.3672 l 0,11.0586 -7.378906,0 a 0.50005006,0.50005006 0 0 0 -0.482422,0.3711 c -0.03532,0.1335 -0.12179,0.207 -0.240234,0.207 l -1.951172,0 c -0.332375,-0.765 -0.82245,-1.4435 -1.425781,-2 l 5.980468,0 2.435547,0 1.558594,0 a 0.50004994,0.50004994 0 0 0 0.5,-0.5 l 0,-8 a 0.50004994,0.50004994 0 0 0 -0.5,-0.5 l -2.724609,0 c -0.329728,-0.3884 -0.705572,-0.7301 -1.136719,-1.0039 z m -6.572266,0.2109 1.003906,0 -0.421874,5.084 a 0.50005,0.50005 0 0 0 0.144531,0.3946 l 0.865234,0.8672 a 0.50005,0.50005 0 0 0 0.708985,0 l 0.865234,-0.8672 a 0.50005,0.50005 0 0 0 0.144531,-0.3946 l -0.423828,-5.084 1.005859,0 c 2.245443,0 4.041016,1.8061 4.041016,4.0743 l 0,2.7011 -1.595703,0 0,-2.4433 a 0.50004991,0.50004991 0 0 0 -0.507813,-0.5059 0.50004991,0.50004991 0 0 0 -0.492187,0.5059 l 0,2.4433 -7.308594,0 c 0.28301,-0.5797 0.45704,-1.221 0.457031,-1.9082 -1.7e-5,-1.3618 -0.636672,-2.5681 -1.613281,-3.3711 0.739355,-0.9129 1.856941,-1.4961 3.126953,-1.4961 z m 1.945313,0.7481 0.349609,4.1875 -0.349609,0.3477 -0.347657,-0.3477 0.347657,-4.1875 z m -7.804688,0.748 c 1.852217,0 3.345679,1.5021 3.345703,3.3711 2.4e-5,1.8359 -1.443369,3.3095 -3.25,3.3614 l -0.191406,0 c -1.806631,-0.052 -3.250023,-1.5255 -3.25,-3.3614 2.4e-5,-1.869 1.493486,-3.3711 3.345703,-3.3711 z m 14.230469,0.2969 1.5625,0 0,7 -1.058594,0 -2.435547,0 -7.464843,0 c -0.649304,-0.3061 -1.362588,-0.4957 -2.115235,-0.5449 0.178708,-0.1457 0.346282,-0.3007 0.5,-0.4727 l 8.345703,0 a 0.50004991,0.50004991 0 0 0 0.263672,0 l 2.464844,0 a 0.50004991,0.50004991 0 0 0 0.5,-0.5 l 0,-3.2011 c 0,-0.8248 -0.215487,-1.5926 -0.5625,-2.2813 z m -16.53125,7.4356 2.205078,0 c 0.03259,7e-4 0.06295,0.01 0.0957,0.01 0.03276,0 0.06312,-0.01 0.0957,-0.01 l 2.236328,0 c 2.724925,0 4.90625,2.194 4.90625,4.9414 l 0,3.3066 -2.08789,0 0,-3 a 0.50004991,0.50004991 0 0 0 -0.507813,-0.5058 0.50004991,0.50004991 0 0 0 -0.492187,0.5058 l 0,3 -8.267578,0 0,-3 a 0.50004991,0.50004991 0 0 0 -0.507813,-0.5058 0.50004991,0.50004991 0 0 0 -0.492187,0.5058 l 0,3 -2.0898443,0 0,-3.3066 c 0,-2.7473 2.1813353,-4.9414 4.9062503,-4.9414 z m 12.960938,2.9863 8.93164,0 c -0.238458,0.8805 -0.895032,1.5781 -1.835937,1.5781 l -9.53711,0 c -0.02138,-0.3421 -0.06999,-0.676 -0.146484,-1 l 1.623047,0 c 0.423698,0 0.740368,-0.2558 0.964844,-0.5781 z" color="#000" font-family="sans-serif" font-weight="400" overflow="visible" white-space="normal"/></g></svg>