<svg xmlns="http://www.w3.org/2000/svg" xmlns:xlink="http://www.w3.org/1999/xlink" width="42" height="42" viewBox="0 0 42 42"><defs><linearGradient id="b" x1="868.253" x2="937.656" y1="521.354" y2="588.736" gradientTransform="translate(-1161.097 316.47) scale(1.34562)" gradientUnits="userSpaceOnUse" xlink:href="#a"/><linearGradient id="a"><stop offset="0" stop-color="#24f3d2"/><stop offset=".394" stop-color="#0674f0"/><stop offset=".507" stop-color="#6961b5"/><stop offset=".813" stop-color="#f34660"/><stop offset="1" stop-color="#ee078d"/></linearGradient></defs><g transform="translate(0 -1010.362)"><rect width="42" height="42" y="1010.362" fill="url(#b)" rx="8.876" ry="8.876"/><path style="line-height:normal;text-indent:0;text-align:start;text-decoration-line:none;text-decoration-style:solid;text-decoration-color:#000;text-transform:none;block-progression:tb;isolation:auto;mix-blend-mode:normal" fill="#fff" fill-rule="evenodd" d="m 9.4751667,1020.3628 a 0.50064427,0.50064427 0 0 0 0.050781,1 l 2.5839843,0 2.923828,15.5938 a 0.50005,0.50005 0 0 0 0.492188,0.4062 l 1.085937,0 3.914062,0 10.078126,0 a 0.50004997,0.50004997 0 0 0 0.01367,0 0.50004997,0.50004997 0 0 0 0.05078,0 l 0.162109,0 c 0.69634,0 1.1875,0.4709 1.1875,1 0,0.5291 -0.49116,1 -1.1875,1 l -15.40625,0 a 0.50005,0.50005 0 1 0 0,1 l 3.09375,0 10,0 2.3125,0 c 1.17341,0 2.1875,-0.8671 2.1875,-2 0,-1.0124 -0.810593,-1.8081 -1.820312,-1.9668 l 1.814453,-11.4531 a 0.50004997,0.50004997 0 0 0 -0.494138,-0.5781 l -18.828125,0 -0.673828,-3.5938 a 0.50005,0.50005 0 0 0 -0.490234,-0.4082 l -3,0 a 0.50005,0.50005 0 0 0 -0.050781,0 z m 19.0429683,20 c -0.822504,0 -1.499993,0.6775 -1.5,1.5 7e-6,0.8225 0.677496,1.5 1.5,1.5 0.822505,0 1.499993,-0.6775 1.5,-1.5 -7e-6,-0.8225 -0.677495,-1.5 -1.5,-1.5 z m -10,0 c -0.822505,0 -1.499993,0.6775 -1.5,1.5 7e-6,0.8225 0.677495,1.5 1.5,1.5 0.822504,0 1.499993,-0.6775 1.5,-1.5 -7e-6,-0.8225 -0.677496,-1.5 -1.5,-1.5 z m -4.640625,-14.998 3.181641,0 0.166015,1.998 -2.972656,0 -0.375,-1.998 z m 4.183594,0 2.957031,0 0,1.998 -2.791016,0 -0.166015,-1.998 z m 3.957031,0 2,0 0,1.998 -2,0 0,-1.998 z m 3,0 2.957031,0 -0.166015,1.998 -2.791016,0 0,-1.998 z m 3.958984,0 2.955078,0 -0.316406,1.998 -2.804687,0 0.166015,-1.998 z m -14.537109,2.998 2.869141,0 0.166015,2 -2.660156,0 -0.375,-2 z m 3.871094,0 2.707031,0 0,2 -2.541016,0 -0.166015,-2 z m 3.707031,0 2,0 0,2 -2,0 0,-2 z m 3,0 2.707031,0 -0.166015,2 -2.541016,0 0,-2 z m 3.708984,0 2.730469,0 -0.316406,2 -2.580078,0 0.166015,-2 z m -13.724609,3 2.556641,0 0.166015,2 -2.347656,0 -0.375,-2 z m 3.558594,0 2.457031,0 0,2 -2.291016,0 -0.166015,-2 z m 3.457031,0 2,0 0,2 -2,0 0,-2 z m 3,0 2.457031,0 -0.166015,2 -2.291016,0 0,-2 z m 3.458984,0 2.50586,0 -0.316406,2 -2.355469,0 0.166015,-2 z m -12.912109,3 2.242187,0 0.167969,2 -1.414062,0 -0.621094,0 -0.375,-2 z m 3.246094,0 2.207031,0 0,2 -0.457031,0 -0.03516,0 -1.548828,0 -0.166015,-2 z m 3.207031,0 2,0 0,2 -2,0 0,-2 z m 3,0 2.207031,0 -0.166015,2 -2.041016,0 0,-2 z m 3.210938,0 2.279296,0 -0.318359,2 -2.128906,0 0.167969,-2 z m -9.710938,7 c 0.282067,0 0.499998,0.218 0.5,0.5 -2e-6,0.2821 -0.217933,0.5 -0.5,0.5 -0.282068,0 -0.499998,-0.2179 -0.5,-0.5 2e-6,-0.282 0.217932,-0.5 0.5,-0.5 z m 10,0 c 0.282068,0 0.499998,0.218 0.5,0.5 -2e-6,0.2821 -0.217932,0.5 -0.5,0.5 -0.282067,0 -0.499998,-0.2179 -0.5,-0.5 2e-6,-0.282 0.217933,-0.5 0.5,-0.5 z" color="#000" font-family="sans-serif" font-weight="400" overflow="visible" white-space="normal"/></g></svg>