<svg xmlns="http://www.w3.org/2000/svg" xmlns:xlink="http://www.w3.org/1999/xlink" width="42" height="42" viewBox="0 0 42 42"><defs><linearGradient id="b" x1="949.87" x2="974.39" y1="518.014" y2="544.657" gradientTransform="translate(-1272.559 316.47) scale(1.34562)" gradientUnits="userSpaceOnUse" xlink:href="#a"/><linearGradient id="a"><stop offset="0" stop-color="#24f7bc"/><stop offset="1" stop-color="#24c4fc"/></linearGradient></defs><g transform="translate(0 -1010.362)"><rect width="42" height="42" y="1010.362" fill="url(#b)" rx="8.876" ry="8.876"/><path fill="#fff" fill-rule="evenodd" style="line-height:normal;text-indent:0;text-align:start;text-decoration-line:none;text-decoration-style:solid;text-decoration-color:#000;text-transform:none;block-progression:tb;isolation:auto;mix-blend-mode:normal" d="m 22.610619,1016.3641 c -0.837293,0 -1.51753,0.6993 -1.517578,1.5371 -3.1e-5,0.8378 0.680229,1.5351 1.517578,1.5351 0.837349,0 1.51761,-0.6973 1.517578,-1.5351 -4.8e-5,-0.8378 -0.680285,-1.5371 -1.517578,-1.5371 z m 0,1 c 0.287245,0 0.517561,0.2303 0.517578,0.5371 1.2e-5,0.3068 -0.230312,0.5351 -0.517578,0.5351 -0.287265,0 -0.517589,-0.2283 -0.517578,-0.5351 1.8e-5,-0.3068 0.230334,-0.5371 0.517578,-0.5371 z m 5.16211,1.125 a 0.50005,0.50005 0 0 0 -0.5,0.5 l 0,0.4843 c -0.133556,0.047 -0.263162,0.1007 -0.390626,0.1622 l -0.34375,-0.3438 a 0.50005,0.50005 0 0 0 -0.707031,0 l -1.027343,1.0293 a 0.50005,0.50005 0 0 0 0,0.707 l 0.34375,0.3438 c -0.0615,0.1268 -0.115178,0.2558 -0.16211,0.3887 l -0.484375,0 a 0.50005,0.50005 0 0 0 -0.5,0.5 l -0.002,1.455 a 0.50005,0.50005 0 0 0 0.5,0.5 l 0.486328,0 c 0.04665,0.1331 0.10086,0.2617 0.16211,0.3887 l -0.34375,0.3438 a 0.50005,0.50005 0 0 0 0,0.707 l 1.027343,1.0293 a 0.50005,0.50005 0 0 0 0.707031,0 l 0.34375,-0.3438 c 0.127272,0.062 0.25722,0.1149 0.390626,0.1621 l 0,0.4844 a 0.50005,0.50005 0 0 0 0.5,0.5 l 1.455078,0 a 0.50005,0.50005 0 0 0 0.5,-0.5 l 0,-0.4863 c 0.132848,-0.047 0.261853,-0.099 0.388672,-0.1602 l 0.34375,0.3438 a 0.50005,0.50005 0 0 0 0.707031,0 l 1.029297,-1.0293 a 0.50005,0.50005 0 0 0 0,-0.707 l -0.345704,-0.3438 c 0.06171,-0.1271 0.116997,-0.2555 0.164063,-0.3887 l 0.484375,0 a 0.50005,0.50005 0 0 0 0.5,-0.5 l 0,-1.455 a 0.50005,0.50005 0 0 0 -0.5,-0.5 l -0.486328,0 c -0.04648,-0.1327 -0.09918,-0.262 -0.160156,-0.3887 l 0.34375,-0.3438 a 0.50005,0.50005 0 0 0 0,-0.707 l -1.029297,-1.0293 a 0.50005,0.50005 0 0 0 -0.707031,0 l -0.34375,0.3438 c -0.12681,-0.062 -0.255775,-0.1152 -0.388672,-0.1622 l 0,-0.4843 a 0.50005,0.50005 0 0 0 -0.5,-0.5 l -1.455078,0 z m -8.498047,0.3105 c -0.698517,0 -1.26764,0.5827 -1.267579,1.2793 2.7e-5,0.6966 0.569124,1.2793 1.267579,1.2793 0.698455,0 1.265599,-0.5827 1.265625,-1.2793 6.1e-5,-0.6966 -0.567109,-1.2793 -1.265625,-1.2793 z m 8.998047,0.6895 0.455078,0 0,0.3086 a 0.50005,0.50005 0 0 0 0.386718,0.4863 c 0.303735,0.07 0.593966,0.1927 0.857422,0.3594 a 0.50005,0.50005 0 0 0 0.619141,-0.068 l 0.222656,-0.2227 0.322266,0.3223 -0.222657,0.2207 a 0.50005,0.50005 0 0 0 -0.06836,0.6192 c 0.165931,0.2639 0.285967,0.5535 0.355469,0.8574 a 0.50005,0.50005 0 0 0 0.486329,0.3887 l 0.3125,0 0,0.455 -0.308594,0 a 0.50005,0.50005 0 0 0 -0.488281,0.3867 c -0.07037,0.3037 -0.190718,0.5941 -0.357422,0.8575 a 0.50005,0.50005 0 0 0 0.06836,0.6211 l 0.222657,0.2207 -0.322266,0.3222 -0.220703,-0.2207 a 0.50005,0.50005 0 0 0 -0.619141,-0.07 c -0.263895,0.166 -0.555494,0.286 -0.859375,0.3555 a 0.50005,0.50005 0 0 0 -0.386718,0.4883 l 0,0.3105 -0.455078,0 0,-0.3086 a 0.50005,0.50005 0 0 0 -0.386719,-0.4883 c -0.303722,-0.071 -0.593999,-0.1906 -0.857422,-0.3574 a 0.50005,0.50005 0 0 0 -0.621094,0.068 l -0.222657,0.2226 -0.320313,-0.3222 0.220704,-0.2207 a 0.50005,0.50005 0 0 0 0.07031,-0.6192 c -0.165954,-0.264 -0.285963,-0.5535 -0.355469,-0.8574 a 0.50005,0.50005 0 0 0 -0.488281,-0.3887 l -0.3125,0 0.002,-0.455 0.308594,0 a 0.50005,0.50005 0 0 0 0.486281,-0.3868 c 0.07037,-0.3038 0.192656,-0.5939 0.359375,-0.8574 a 0.50005,0.50005 0 0 0 -0.07031,-0.6211 l -0.220704,-0.2207 0.320313,-0.3223 0.222656,0.2208 a 0.50005,0.50005 0 0 0 0.619141,0.07 c 0.263898,-0.1659 0.553549,-0.286 0.857422,-0.3555 a 0.50005,0.50005 0 0 0 0.388672,-0.4883 l 0,-0.3105 z m -8.998047,0.3105 c 0.148885,0 0.265639,0.1142 0.265625,0.2793 -7e-6,0.1652 -0.116756,0.2793 -0.265625,0.2793 -0.14887,0 -0.267571,-0.1141 -0.267579,-0.2793 -1.4e-5,-0.1651 0.118694,-0.2793 0.267579,-0.2793 z m 9.224609,1.5801 c -0.4134,1e-4 -0.826175,0.1561 -1.138672,0.4687 -0.624906,0.6249 -0.624964,1.6541 0,2.2793 0.625129,0.6251 1.654347,0.625 2.279297,0 0.62503,-0.6249 0.624876,-1.6542 0,-2.2793 -0.312508,-0.3125 -0.727225,-0.4687 -1.140625,-0.4687 z m 0.002,0.9961 c 0.156613,0 0.312268,0.06 0.431641,0.1797 0.238779,0.2389 0.238735,0.6265 0,0.8652 -0.238772,0.2388 -0.626603,0.2387 -0.865235,0 -0.238691,-0.2388 -0.238711,-0.6265 0,-0.8652 0.119413,-0.1195 0.276982,-0.1797 0.433594,-0.1797 z m -9.591797,0.06 a 0.50064429,0.50064429 0 0 0 0.05078,1 l 0.501953,0 0,2.0743 c -0.0215,0.01 -0.02041,0.01 -0.04492,0.016 -2.324386,0.7886 -3.741523,3.1758 -3.353516,5.6289 0.388254,2.4551 2.479111,4.2773 4.933594,4.2773 2.454001,0 4.545799,-1.815 4.9375,-4.2695 0.391711,-2.4546 -1.024706,-4.8469 -3.351563,-5.6367 l -0.01367,-0.01 -0.01562,0 -0.01563,0 0,-2.0801 0.326172,0 a 0.50005,0.50005 0 1 0 0,-1 l -3.904296,0 a 0.50005,0.50005 0 0 0 -0.05078,0 z m 1.552735,1 1.076171,0 0,2.2852 c 0,0.2914 0.239888,0.5642 0.410157,0.6504 0.155666,0.079 0.259716,0.092 0.3125,0.1035 1.780302,0.6043 2.888889,2.3814 2.707031,4.2715 -0.9362,0.4664 -2.666143,0.2227 -3.933594,-0.1 -0.684078,-0.1738 -1.507063,-0.3701 -2.34575,-0.418 l 0,0 c -0.566814,-0.032 -1.137158,0.012 -1.677734,0.166 -0.02231,-1.7587 1.059393,-3.3585 2.732422,-3.9238 l 0.0039,0 0.002,0 c 0.05776,-0.02 0.180486,-0.049 0.335938,-0.1328 0.07772,-0.042 0.17426,-0.1009 0.263671,-0.2266 0.08941,-0.1252 0.138166,-0.3373 0.09961,-0.5039 l 0.01367,0.1094 0,-2.2832 z m -2.460938,0.6426 a 0.50005,0.50005 0 0 0 -0.132812,0.023 c -0.222148,0.069 -0.443759,0.1479 -0.666016,0.2364 a 0.50005,0.50005 0 0 0 -0.002,0 c -0.222999,0.089 -0.445842,0.1888 -0.669922,0.2988 a 0.50005,0.50005 0 0 0 -0.0098,0.01 c -2.302545,1.1982 -4.020469,3.4366 -4.470669,6.1914 l -2.9980463,5.9629 a 0.50005,0.50005 0 0 0 0.4472656,0.7207 l 1.0976557,0 0,4.0859 a 0.50005,0.50005 0 0 0 0.5,0.5 l 3.220704,0 0.509765,3.7969 a 0.50005,0.50005 0 1 0 0.990234,-0.1328 l -0.566406,-4.2305 a 0.50005,0.50005 0 0 0 -0.496093,-0.4336 l -3.158204,0 0,-4.0859 a 0.50005,0.50005 0 0 0 -0.5,-0.5 l -0.787109,0 2.662109,-5.2969 a 0.50005,0.50005 0 0 0 0.04687,-0.1484 c 0.377163,-2.4768 1.905934,-4.4727 3.958985,-5.543 0.199537,-0.098 0.396518,-0.1868 0.59375,-0.2656 0.199836,-0.08 0.397419,-0.1499 0.59375,-0.211 a 0.50005,0.50005 0 0 0 -0.164063,-0.9785 z m 9.724609,4.1406 0,0 a 0.50005,0.50005 0 0 0 -0.464843,0.7227 c 0.200416,0.4166 0.363263,0.8531 0.484375,1.3047 0.242223,0.903 0.318128,1.8642 0.199218,2.8496 -0.006,0.05 -0.01582,0.122 -0.02344,0.1758 l -3.634766,7.9453 a 0.50005,0.50005 0 0 0 -0.04297,0.2617 l 0.466797,4.4082 a 0.50005,0.50005 0 1 0 0.99414,-0.1055 l -0.451172,-4.2715 3.607422,-7.8925 a 0.50005,0.50005 0 0 0 0.04102,-0.1367 c 0,0 0.02313,-0.1641 0.03516,-0.2637 0.134331,-1.1132 0.04812,-2.2064 -0.226562,-3.2305 -0.137345,-0.512 -0.321713,-1.0063 -0.548829,-1.4785 a 0.50005,0.50005 0 0 0 -0.435547,-0.291 z m -9.615234,3.0352 c 0.867413,-0.027 1.856399,0.1545 2.677734,0.3633 1.106043,0.2811 2.602893,0.612 3.898438,0.289 -0.607658,1.5029 -2.041921,2.5286 -3.689453,2.5274 -1.825245,0 -3.3835,-1.262 -3.845703,-3.0371 0.287824,-0.088 0.614277,-0.1318 0.958984,-0.1426 z" color="#000" font-family="sans-serif" font-weight="400" overflow="visible" white-space="normal"/></g></svg>