<svg xmlns="http://www.w3.org/2000/svg" xmlns:xlink="http://www.w3.org/1999/xlink" width="42" height="42" viewBox="0 0 42 42"><defs><linearGradient id="b" x1="1056.035" x2="1031.176" y1="544.13" y2="517.701" gradientTransform="translate(-1384.02 316.47) scale(1.34562)" gradientUnits="userSpaceOnUse" xlink:href="#a"/><linearGradient id="a"><stop offset="0" stop-color="#5a5a5a"/><stop offset="1" stop-color="#656e85"/></linearGradient></defs><g transform="translate(0 -1010.362)"><rect width="42" height="42" y="1010.362" fill="url(#b)" rx="8.876" ry="8.876"/><path style="line-height:normal;text-indent:0;text-align:start;text-decoration-line:none;text-decoration-style:solid;text-decoration-color:#000;text-transform:none;block-progression:tb;isolation:auto;mix-blend-mode:normal" fill="#fff" d="m 29.244613,1015.3613 0,0 a 0.50005,0.50005 0 0 0 -0.464844,0.3692 l -0.111328,0.4199 c -0.116895,0.01 -0.232235,0.024 -0.347656,0.045 l -0.216797,-0.375 a 0.50005,0.50005 0 0 0 -0.683594,-0.1836 l -1.177734,0.6816 a 0.50005,0.50005 0 0 0 -0.183594,0.6836 l 0.216797,0.375 c -0.07603,0.09 -0.146092,0.1826 -0.212891,0.2793 l -0.419922,-0.1132 a 0.50005,0.50005 0 0 0 -0.611328,0.3535 l -0.353515,1.3144 a 0.50005,0.50005 0 0 0 0.353515,0.6133 l 0.419922,0.1113 c 0.0092,0.1176 0.02409,0.2335 0.04492,0.3496 l -0.375,0.2168 a 0.50005,0.50005 0 0 0 -0.18164,0.6836 l 0.679687,1.1778 a 0.50005,0.50005 0 0 0 0.683596,0.1836 l 0.373047,-0.2168 c 0.0899,0.076 0.182267,0.1477 0.279296,0.2148 l -0.111328,0.418 a 0.50005,0.50005 0 0 0 0.353516,0.6133 l 1.314453,0.3515 a 0.50005,0.50005 0 0 0 0.611328,-0.3535 l 0.111328,-0.4199 c 0.117542,-0.01 0.233562,-0.026 0.34961,-0.047 l 0.216797,0.375 a 0.50005,0.50005 0 0 0 0.68164,0.1836 l 1.179688,-0.6797 a 0.50005,0.50005 0 0 0 0.18164,-0.6836 l -0.214843,-0.375 c 0.07602,-0.09 0.146093,-0.1825 0.21289,-0.2793 l 0.417969,0.1152 a 0.50005,0.50005 0 0 0 0.613281,-0.3535 l 0.351563,-1.3145 a 0.50005,0.50005 0 0 0 -0.353516,-0.6132 l -0.419922,-0.1114 c -0.0092,-0.1176 -0.02412,-0.2335 -0.04492,-0.3496 l 0.375,-0.2168 a 0.50005,0.50005 0 0 0 0.183592,-0.6816 l -0.679687,-1.1797 a 0.50005,0.50005 0 0 0 -0.683594,-0.1836 l -0.375,0.2168 c -0.0896,-0.076 -0.18262,-0.1461 -0.279297,-0.2129 l 0.113281,-0.4199 a 0.50005,0.50005 0 0 0 -0.353515,-0.6113 l -1.314454,-0.3536 a 0.50005,0.50005 0 0 0 -0.148437,-0.018 z m 0.373047,1.1132 0.347656,0.094 -0.06641,0.2519 a 0.50005,0.50005 0 0 0 0.248047,0.5704 c 0.254609,0.1346 0.485683,0.3122 0.68164,0.5234 a 0.50005,0.50005 0 0 0 0.617188,0.092 l 0.222656,-0.1289 0.181641,0.3125 -0.22461,0.1289 a 0.50005,0.50005 0 0 0 -0.226562,0.5781 c 0.08396,0.2757 0.11917,0.5636 0.107422,0.8516 a 0.50005,0.50005 0 0 0 0.371094,0.5039 l 0.251953,0.068 -0.09375,0.3477 -0.25,-0.066 a 0.50005,0.50005 0 0 0 -0.572266,0.25 c -0.134495,0.2548 -0.310471,0.4855 -0.521484,0.6816 a 0.50005,0.50005 0 0 0 -0.0918,0.6153 l 0.128913,0.2246 -0.3125,0.1816 -0.128906,-0.2246 a 0.50005,0.50005 0 0 0 -0.578125,-0.229 c -0.275445,0.084 -0.56384,0.1211 -0.851563,0.1094 a 0.50005,0.50005 0 0 0 -0.501953,0.3711 l -0.06836,0.2539 -0.34961,-0.094 0.06836,-0.2519 a 0.50005,0.50005 0 0 0 -0.25,-0.5723 c -0.254608,-0.1346 -0.483731,-0.3104 -0.679688,-0.5215 a 0.50005,0.50005 0 0 0 -0.617187,-0.094 l -0.22461,0.1289 -0.179687,-0.3125 0.222656,-0.1289 a 0.50005,0.50005 0 0 0 0.228516,-0.5782 c -0.08401,-0.2757 -0.121072,-0.5634 -0.109374,-0.8515 a 0.50005,0.50005 0 0 0 -0.369141,-0.5039 l -0.253906,-0.068 0.09375,-0.3476 0.251953,0.064 a 0.50005,0.50005 0 0 0 0.570313,-0.2461 c 0.134498,-0.2548 0.31242,-0.4875 0.523437,-0.6836 a 0.50005,0.50005 0 0 0 0.0918,-0.6152 l -0.128909,-0.2266 0.310546,-0.1777 0.128907,0.2207 a 0.50005,0.50005 0 0 0 0.580078,0.2285 c 0.275448,-0.084 0.561893,-0.1191 0.849609,-0.1074 a 0.50005,0.50005 0 0 0 0.503906,-0.3711 l 0.06836,-0.252 z m -0.574219,1.6426 c -0.712263,-0.041 -1.386836,0.4248 -1.578125,1.1387 -0.218394,0.8158 0.272009,1.668 1.087891,1.8867 0.81572,0.2188 1.668053,-0.2738 1.886719,-1.0898 0.218392,-0.8159 -0.274127,-1.6661 -1.089844,-1.8848 -0.101972,-0.027 -0.204889,-0.045 -0.306641,-0.051 z m -0.166015,1.002 c 0.06952,-0.01 0.142883,-0.01 0.214843,0.014 0.288057,0.077 0.458055,0.3738 0.38086,0.6622 -0.07729,0.2884 -0.372463,0.458 -0.660157,0.3808 -0.287918,-0.077 -0.460008,-0.3717 -0.382812,-0.6601 0.058,-0.2165 0.238694,-0.3674 0.447266,-0.3965 z m -7.332032,1.6094 c -0.512906,0 -1.01612,0.03 -1.507812,0.1054 l 0,0 c -0.981957,0.1525 -1.920067,0.4714 -2.8125,0.9863 -0.0013,7e-4 -0.0026,0 -0.0039,0 -2.572538,1.3454 -4.483045,3.8483 -4.994142,6.9258 l -3.414068,6.7871 a 0.50005,0.50005 0 0 0 0.4472656,0.7286 l 1.3085934,0 0,4.6894 a 0.50005,0.50005 0 0 0 0.5,0.5 l 3.695313,0 0.591797,5.457 a 0.50005,0.50005 0 1 0 0.994141,-0.1074 l -0.640625,-5.9043 a 0.50005,0.50005 0 0 0 -0.498047,-0.4453 l -3.642579,0 0,-4.6894 a 0.50005,0.50005 0 0 0 -0.5,-0.5 l -0.996093,0 3.060546,-6.0879 a 0.50005,0.50005 0 0 0 0.04687,-0.1485 c 0.430594,-2.8258 2.175836,-5.1046 4.521485,-6.3242 a 0.50005,0.50005 0 0 0 0.01953,-0.014 c 1.573069,-0.9088 3.277772,-1.1277 5.255859,-0.8535 0.254671,0.039 0.50586,0.087 0.751953,0.1465 a 0.50005,0.50005 0 1 0 0.234375,-0.9707 c -0.275951,-0.067 -0.55684,-0.1227 -0.84375,-0.166 a 0.50005,0.50005 0 0 0 -0.0059,0 c -0.532857,-0.074 -1.055454,-0.1124 -1.56836,-0.1152 z m -0.03906,2.2187 a 0.50005,0.50005 0 0 0 -0.5,0.5 l 0,0.625 c -0.193325,0.064 -0.380077,0.1401 -0.5625,0.2305 l -0.439455,-0.4395 a 0.50005,0.50005 0 0 0 -0.707032,0 l -1.203125,1.2031 a 0.50005,0.50005 0 0 0 0,0.7071 l 0.441407,0.4414 c -0.09063,0.1817 -0.168148,0.3679 -0.232422,0.5605 l -0.625,0 a 0.50005,0.50005 0 0 0 -0.5,0.5 l 0,1.7032 a 0.50005,0.50005 0 0 0 0.5,0.5 l 0.625,0 c 0.06382,0.1932 0.140143,0.3802 0.230469,0.5625 l -0.439454,0.4394 a 0.50005,0.50005 0 0 0 0,0.707 l 1.203125,1.2032 a 0.50005,0.50005 0 0 0 0.707032,0 l 0.439453,-0.4414 c 0.182371,0.091 0.369125,0.1698 0.5625,0.2343 l 0,0.6231 a 0.50005,0.50005 0 0 0 0.5,0.5 l 1.699218,0 a 0.50005,0.50005 0 0 0 0.5,-0.5 l 0,-0.625 c 0.193326,-0.064 0.380077,-0.1401 0.5625,-0.2305 l 0.439454,0.4395 a 0.50005,0.50005 0 0 0 0.707031,0 l 1.203125,-1.2032 a 0.50005,0.50005 0 0 0 0,-0.707 l -0.441406,-0.4414 c 0.09072,-0.182 0.168124,-0.3676 0.232422,-0.5605 l 0.625,0 a 0.50005,0.50005 0 0 0 0.5,-0.5 l 0,-1.7032 a 0.50005,0.50005 0 0 0 -0.5,-0.5 l -0.625,0 c -0.06378,-0.1932 -0.140209,-0.3802 -0.230469,-0.5625 l 0.439453,-0.4394 a 0.50005,0.50005 0 0 0 0,-0.7071 l -1.203125,-1.2031 a 0.50005,0.50005 0 0 0 -0.707031,0 l -0.439454,0.4414 c -0.182369,-0.091 -0.369124,-0.1699 -0.5625,-0.2344 l 0,-0.623 a 0.50005,0.50005 0 0 0 -0.5,-0.5 l -1.699218,0 z m 0.5,1 0.699218,0 0,0.4512 a 0.50005,0.50005 0 0 0 0.388672,0.4863 c 0.364639,0.083 0.714479,0.2269 1.03125,0.4258 a 0.50005,0.50005 0 0 0 0.619141,-0.068 l 0.316404,-0.3183 0.496094,0.4961 -0.316406,0.3164 a 0.50005,0.50005 0 0 0 -0.07031,0.6172 c 0.197989,0.3177 0.341775,0.6679 0.423828,1.0332 a 0.50005,0.50005 0 0 0 0.486328,0.3886 l 0.453126,0 0,0.7032 -0.451172,0 a 0.50005,0.50005 0 0 0 -0.486328,0.3886 c -0.08311,0.365 -0.22886,0.7123 -0.427735,1.0293 a 0.50005,0.50005 0 0 0 0.07031,0.6192 l 0.318359,0.3183 -0.496094,0.4961 -0.314453,-0.3164 a 0.50005,0.50005 0 0 0 -0.61914,-0.07 c -0.317413,0.1981 -0.666282,0.3417 -1.03125,0.4238 a 0.50005,0.50005 0 0 0 -0.390626,0.4883 l 0,0.4512 -0.699218,0 0,-0.4512 a 0.50005,0.50005 0 0 0 -0.388672,-0.4863 c -0.36464,-0.083 -0.714478,-0.2269 -1.03125,-0.4258 a 0.50005,0.50005 0 0 0 -0.619141,0.068 l -0.316406,0.3183 -0.496094,-0.4961 0.316407,-0.3164 a 0.50005,0.50005 0 0 0 0.07031,-0.6172 c -0.197978,-0.3176 -0.341768,-0.6659 -0.423828,-1.0312 a 0.50005,0.50005 0 0 0 -0.486328,-0.3906 l -0.453125,0 0,-0.7032 0.451172,0 a 0.50005,0.50005 0 0 0 0.486328,-0.3886 c 0.08311,-0.365 0.228858,-0.7123 0.427734,-1.0293 a 0.50005,0.50005 0 0 0 -0.07031,-0.6192 l -0.31836,-0.3183 0.496094,-0.4961 0.314453,0.3164 a 0.50005,0.50005 0 0 0 0.619141,0.07 c 0.31741,-0.1981 0.666282,-0.3417 1.03125,-0.4238 a 0.50005,0.50005 0 0 0 0.390625,-0.4883 l 0,-0.4512 z m 6.988281,0.4961 a 0.50005,0.50005 0 0 0 -0.375,0.8008 c 1.243312,1.6954 1.863106,3.8411 1.591797,6.0879 -0.0071,0.059 -0.01886,0.1432 -0.02734,0.2031 l -4.11914,9.0059 a 0.50005,0.50005 0 0 0 -0.04297,0.2519 l 0.52539,6.0898 a 0.50005,0.50005 0 1 0 0.996094,-0.086 l -0.513672,-5.959 4.09375,-8.9531 a 0.50005,0.50005 0 0 0 0.04102,-0.1348 c 0,0 0.02571,-0.1885 0.03906,-0.2988 0.302193,-2.5026 -0.389251,-4.9079 -1.777343,-6.8008 a 0.50005,0.50005 0 0 0 -0.431648,-0.207 z m -6.748049,1.8867 c -0.119004,0.01 -0.238207,0.027 -0.357422,0.059 -0.953777,0.2556 -1.526899,1.2512 -1.271484,2.2051 0.255434,0.9538 1.249471,1.5272 2.203125,1.2715 0.953811,-0.2556 1.528918,-1.2491 1.273437,-2.2032 -0.223538,-0.8347 -1.014626,-1.3802 -1.847656,-1.332 z m 0.21875,1.002 c 0.30835,0.043 0.576484,0.2681 0.66211,0.5879 0.114166,0.4264 -0.138586,0.8662 -0.564454,0.9804 -0.425844,0.1141 -0.864299,-0.1399 -0.978515,-0.5664 -0.114225,-0.4266 0.138552,-0.8662 0.564453,-0.9804 0.10649,-0.029 0.213623,-0.036 0.316406,-0.022 z" color="#000" font-family="sans-serif" font-weight="400" overflow="visible" white-space="normal"/></g></svg>