<svg xmlns="http://www.w3.org/2000/svg" xmlns:xlink="http://www.w3.org/1999/xlink" width="42" height="42" viewBox="0 0 42 42"><defs><linearGradient id="b" x1="1056.035" x2="1031.176" y1="544.13" y2="517.701" gradientTransform="translate(-1384.02 316.47) scale(1.34562)" gradientUnits="userSpaceOnUse" xlink:href="#a"/><linearGradient id="a"><stop offset="0" stop-color="#5a5a5a"/><stop offset="1" stop-color="#656e85"/></linearGradient></defs><g transform="translate(0 -1010.362)"><rect width="42" height="42" y="1010.362" fill="url(#b)" rx="8.876" ry="8.876"/><path fill="#fff" style="line-height:normal;text-indent:0;text-align:start;text-decoration-line:none;text-decoration-style:solid;text-decoration-color:#000;text-transform:none;block-progression:tb;isolation:auto;mix-blend-mode:normal" d="m 18.75,1020.3622 c -1.518167,0 -2.75,1.2523 -2.75,2.7793 l 0,0.2207 -1,0 -4,0 -2,0 c -1.6533594,0 -3,1.3467 -3,3 l 0,3 0,3 0,7 0,1.5 c 0,0.4167 0.192917,0.775 0.4589844,1.041 0.2660674,0.2661 0.6243489,0.459 1.0410156,0.459 l 27,0 c 0.416667,0 0.774948,-0.1929 1.041016,-0.459 C 35.807083,1041.6372 36,1041.2789 36,1040.8622 l 0,-1.5 0,-7 0,-3 0,-3 c 0,-1.6533 -1.346641,-3 -3,-3 l -2,0 -4,0 -1,0 0,-0.2207 c 0,-1.527 -1.231833,-2.7793 -2.75,-2.7793 l -4.5,0 z m 0,1 4.5,0 c 0.974833,0 1.75,0.7825 1.75,1.7793 l 0,0.2207 -8,0 0,-0.2207 c 0,-0.9968 0.775167,-1.7793 1.75,-1.7793 z m -9.75,3 2,0 0,6 a 0.50005,0.50005 0 0 0 -0.5,0.5 l 0,0.5 -1.5,0 c -1.1166606,0 -2,-0.8833 -2,-2 l 0,-3 c 0,-1.1166 0.8833394,-2 2,-2 z m 3,0 2,0 0,6 -2,0 0,-6 z m 3,0 12,0 0,6 a 0.50005,0.50005 0 0 0 -0.5,0.5 l 0,0.5 -5.5,0 -5.5,0 0,-0.5 a 0.50005,0.50005 0 0 0 -0.5,-0.5 l 0,-6 z m 13,0 2,0 0,6 -2,0 0,-6 z m 3,0 2,0 c 1.116661,0 2,0.8834 2,2 l 0,3 c 0,1.1167 -0.883339,2 -2,2 l -1.5,0 0,-0.5 a 0.50005,0.50005 0 0 0 -0.5,-0.5 l 0,-6 z m -19.5,7 3,0 0,2 -1,0 0,-1 -1,0 0,1 -1,0 0,-2 z m 16,0 3,0 0,2 -1,0 0,-1 -1,0 0,1 -1,0 0,-2 z M 7,1031.581 c 0.5321322,0.4801 1.2290719,0.7812 2,0.7812 l 1.5,0 0,1.5 a 0.50005,0.50005 0 0 0 0.5,0.5 l 0,3 0,4 -3.5,0 c -0.083333,0 -0.2250518,-0.057 -0.3339844,-0.166 C 7.057083,1041.0873 7,1040.9456 7,1040.8622 l 0,-1.5 0,-7 0,-0.7812 z m 28,0 0,0.7812 0,7 0,1.5 c 0,0.083 -0.05708,0.2251 -0.166016,0.334 -0.108932,0.1089 -0.250651,0.166 -0.333984,0.166 l -3.5,0 0,-4 0,-3 a 0.50005,0.50005 0 0 0 0.5,-0.5 l 0,-1.5 1.5,0 c 0.770928,0 1.467868,-0.3011 2,-0.7812 z m -19.5,0.7812 5.5,0 5.5,0 0,1.5 a 0.50005,0.50005 0 0 0 0.5,0.5 l 0,3 0,4 -12,0 0,-4 0,-3 a 0.50005,0.50005 0 0 0 0.5,-0.5 l 0,-1.5 z m -3.5,2 2,0 0,3 0,4 -2,0 0,-4 0,-3 z m 16,0 2,0 0,3 0,4 -2,0 0,-4 0,-3 z" color="#000" font-family="sans-serif" font-weight="400" overflow="visible" white-space="normal"/></g></svg>