<svg xmlns="http://www.w3.org/2000/svg" xmlns:xlink="http://www.w3.org/1999/xlink" width="42" height="42" viewBox="0 0 42 42"><defs><linearGradient id="b" x1="906.952" x2="931.379" y1="515.915" y2="546.094" gradientTransform="translate(-1215.129 316.47) scale(1.34562)" gradientUnits="userSpaceOnUse" xlink:href="#a"/><linearGradient id="a"><stop offset="0" stop-color="#ffd800"/><stop offset="1" stop-color="#ff6100"/></linearGradient></defs><g transform="translate(0 -1010.362)"><rect width="42" height="42" y="1010.362" fill="url(#b)" rx="8.876" ry="8.876"/><path fill="#fff" style="line-height:normal;text-indent:0;text-align:start;text-decoration-line:none;text-decoration-style:solid;text-decoration-color:#000;text-transform:none;block-progression:tb;isolation:auto;mix-blend-mode:normal" d="m 19.224602,1016.8447 c -0.06221,-0.012 -0.139142,-0.015 -0.246094,0 l 0,0 c -0.213684,0.038 -0.282474,0.1163 -0.365235,0.1836 -0.08276,0.067 -0.158729,0.1411 -0.236328,0.2226 -0.155197,0.1631 -0.317322,0.3579 -0.478515,0.5508 -0.161193,0.1929 -0.320478,0.3831 -0.445313,0.5215 -0.05247,0.058 -0.09285,0.098 -0.126953,0.1309 -0.04666,0 -0.101906,-0.012 -0.177734,-0.02 -0.183341,-0.025 -0.42567,-0.068 -0.671875,-0.1113 -0.246206,-0.043 -0.495733,-0.087 -0.71875,-0.1113 -0.111509,-0.012 -0.215595,-0.02 -0.322266,-0.018 -0.106671,0 -0.211476,-0.011 -0.398438,0.098 -0.187052,0.1091 -0.224498,0.2054 -0.279297,0.2969 -0.0548,0.092 -0.09929,0.1857 -0.144531,0.2891 -0.09047,0.2067 -0.179553,0.4466 -0.265625,0.6836 -0.08607,0.237 -0.169768,0.4712 -0.240234,0.6445 -0.02978,0.073 -0.05515,0.127 -0.07617,0.1699 -0.04499,0.013 -0.100498,0.028 -0.175781,0.045 -0.180843,0.04 -0.421835,0.083 -0.667969,0.127 -0.246134,0.044 -0.496956,0.09 -0.714844,0.1445 -0.108943,0.027 -0.209144,0.055 -0.308594,0.094 -0.09945,0.039 -0.20213,0.061 -0.339843,0.2265 -0.137849,0.1658 -0.13971,0.2702 -0.160157,0.375 -0.02045,0.1047 -0.03155,0.2077 -0.03906,0.3204 -0.01502,0.2254 -0.01499,0.4817 -0.01563,0.7343 -6.29e-4,0.2525 -2.87e-4,0.5022 -0.0078,0.6895 -0.0032,0.08 -0.01035,0.1378 -0.01563,0.1855 -0.03799,0.028 -0.08384,0.063 -0.15039,0.1055 -0.156642,0.1002 -0.371554,0.2247 -0.587891,0.3516 -0.216337,0.1269 -0.434827,0.2566 -0.621094,0.3828 -0.09313,0.063 -0.177789,0.1247 -0.257812,0.1953 -0.08002,0.071 -0.16748,0.1262 -0.240234,0.3281 -0.07272,0.2018 -0.04165,0.3008 -0.02539,0.4063 0.01626,0.1054 0.0431,0.206 0.07422,0.3144 0.06223,0.217 0.147527,0.458 0.232422,0.6953 0.08489,0.2372 0.168284,0.472 0.224609,0.6504 0.02402,0.076 0.03963,0.1332 0.05078,0.1797 -0.02619,0.04 -0.06069,0.091 -0.109375,0.1543 -0.113261,0.1483 -0.271544,0.3374 -0.431641,0.5313 -0.160097,0.1939 -0.321138,0.3915 -0.453125,0.5742 -0.06599,0.091 -0.12474,0.1778 -0.175781,0.2715 C 9.064194,1028.5519 9,1028.6344 9,1028.8485 c 0,0.2141 0.06419,0.2969 0.115234,0.3906 0.05104,0.094 0.109788,0.1802 0.175781,0.2715 0.131986,0.1827 0.29303,0.3803 0.453125,0.5742 0.160095,0.194 0.318383,0.383 0.431641,0.5313 0.04868,0.064 0.08319,0.1143 0.109375,0.1543 -0.01116,0.047 -0.02676,0.1035 -0.05078,0.1796 -0.05633,0.1784 -0.139715,0.4131 -0.224609,0.6504 -0.0849,0.2372 -0.170191,0.4765 -0.232422,0.6934 -0.03112,0.1085 -0.05796,0.211 -0.07422,0.3164 -0.01626,0.1055 -0.04734,0.2044 0.02539,0.4062 0.07275,0.2019 0.160213,0.2576 0.240234,0.3282 0.08002,0.071 0.164679,0.1322 0.257812,0.1953 0.186268,0.1262 0.404751,0.2559 0.621094,0.3828 0.216343,0.127 0.431231,0.2495 0.587891,0.3496 0.06622,0.042 0.112392,0.077 0.15039,0.1055 0.0053,0.048 0.0124,0.1072 0.01563,0.1875 0.0075,0.1874 0.0072,0.4368 0.0078,0.6894 6.29e-4,0.2525 6.08e-4,0.507 0.01563,0.7325 0.0075,0.1127 0.01862,0.2174 0.03906,0.3222 0.02044,0.1047 0.02239,0.2091 0.160157,0.375 0.137749,0.1658 0.240406,0.1878 0.339843,0.2266 0.09944,0.039 0.199657,0.069 0.308594,0.096 0.217874,0.054 0.468718,0.1001 0.714844,0.1445 0.246126,0.044 0.48714,0.087 0.667969,0.127 0.07528,0.017 0.130803,0.032 0.175781,0.045 0.02102,0.043 0.04639,0.097 0.07617,0.1699 0.04527,0.1113 0.100986,0.2679 0.154297,0.4141 l -2.640625,4.498 a 0.53732898,0.53732898 0 0 0 0.603515,0.791 l 2.416016,-0.6484 0.648438,2.418 a 0.53732898,0.53732898 0 0 0 0.982421,0.1289 l 2.492188,-4.3145 c 0.05253,0.03 0.115967,0.057 0.214844,0.074 0.213956,0.038 0.305339,-0.012 0.40625,-0.047 0.10091,-0.035 0.196243,-0.077 0.296875,-0.127 0.201263,-0.1 0.421931,-0.226 0.638672,-0.3516 0.21674,-0.1257 0.429812,-0.251 0.59375,-0.3378 0.06869,-0.036 0.119141,-0.061 0.162109,-0.08 0.04297,0.019 0.09389,0.044 0.162109,0.08 0.164135,0.087 0.376779,0.2121 0.59375,0.3378 0.216972,0.1256 0.43727,0.2519 0.638672,0.3516 0.100701,0.05 0.195968,0.092 0.296875,0.127 0.100908,0.035 0.192299,0.085 0.40625,0.047 0.09799,-0.017 0.160521,-0.045 0.212891,-0.074 l 2.490234,4.3145 a 0.53693734,0.53693734 0 0 0 0.982422,-0.1289 l 0.648438,-2.416 2.414062,0.6484 a 0.53693734,0.53693734 0 0 0 0.601563,-0.791 l -2.634766,-4.4922 c 0.05437,-0.1492 0.110164,-0.3085 0.15625,-0.4219 0.02978,-0.073 0.05516,-0.1271 0.07617,-0.1699 0.04498,-0.013 0.100504,-0.028 0.175781,-0.045 0.180827,-0.04 0.421843,-0.082 0.667969,-0.127 0.246125,-0.044 0.496969,-0.09 0.714844,-0.1445 0.108937,-0.027 0.209156,-0.057 0.308593,-0.096 0.09944,-0.039 0.202095,-0.061 0.339844,-0.2266 0.137758,-0.1659 0.139712,-0.2703 0.160156,-0.375 0.02044,-0.1048 0.03155,-0.2095 0.03906,-0.3222 0.01502,-0.2255 0.01498,-0.48 0.01563,-0.7325 6.3e-4,-0.2526 2.97e-4,-0.502 0.0078,-0.6894 0.0032,-0.08 0.01028,-0.1397 0.01563,-0.1875 0.03796,-0.028 0.08424,-0.063 0.150391,-0.1055 0.156491,-0.1001 0.369829,-0.2226 0.585937,-0.3496 0.216111,-0.1269 0.435007,-0.2565 0.621094,-0.3828 0.09304,-0.063 0.177863,-0.1246 0.257813,-0.1953 0.07995,-0.071 0.167563,-0.1264 0.240234,-0.3281 0.07272,-0.2018 0.04165,-0.3008 0.02539,-0.4063 -0.01626,-0.1054 -0.0431,-0.2079 -0.07422,-0.3164 -0.06223,-0.2169 -0.147526,-0.4562 -0.232422,-0.6934 -0.0849,-0.2373 -0.168283,-0.472 -0.224609,-0.6504 -0.02402,-0.076 -0.03963,-0.133 -0.05078,-0.1796 0.02621,-0.04 0.06063,-0.091 0.109376,-0.1543 0.113413,-0.1483 0.271311,-0.3373 0.43164,-0.5313 0.160329,-0.1939 0.322896,-0.3915 0.455077,-0.5742 0.06609,-0.091 0.124656,-0.1778 0.175782,-0.2715 0.05112,-0.094 0.115234,-0.1763 0.115234,-0.3906 0,-0.2143 -0.06411,-0.2969 -0.115234,-0.3906 -0.05113,-0.094 -0.109691,-0.1802 -0.175782,-0.2715 -0.132181,-0.1827 -0.294749,-0.3803 -0.455077,-0.5742 -0.160328,-0.1939 -0.318226,-0.3849 -0.43164,-0.5332 -0.04869,-0.064 -0.08316,-0.1124 -0.109376,-0.1524 0.01116,-0.047 0.02676,-0.1036 0.05078,-0.1797 0.05633,-0.1784 0.139713,-0.4132 0.224609,-0.6504 0.0849,-0.2373 0.17019,-0.4783 0.232422,-0.6953 0.03112,-0.1084 0.05796,-0.209 0.07422,-0.3144 0.01626,-0.1055 0.04734,-0.2045 -0.02539,-0.4063 -0.07267,-0.2017 -0.160284,-0.2574 -0.240234,-0.3281 -0.07995,-0.071 -0.16477,-0.1322 -0.257813,-0.1953 -0.186085,-0.1262 -0.404986,-0.2559 -0.621094,-0.3828 -0.216107,-0.127 -0.429453,-0.2514 -0.585937,-0.3516 -0.06648,-0.043 -0.112428,-0.077 -0.150391,-0.1055 -0.0053,-0.048 -0.01243,-0.106 -0.01563,-0.1855 -0.0075,-0.1873 -0.0072,-0.437 -0.0078,-0.6895 -6.34e-4,-0.2526 -6.09e-4,-0.5089 -0.01563,-0.7343 -0.0075,-0.1127 -0.01863,-0.2157 -0.03906,-0.3204 -0.02043,-0.1048 -0.02236,-0.2092 -0.160156,-0.375 -0.137719,-0.1659 -0.240392,-0.1876 -0.339844,-0.2265 -0.09945,-0.039 -0.199649,-0.067 -0.308593,-0.094 -0.217889,-0.054 -0.468715,-0.1001 -0.714844,-0.1445 -0.24613,-0.044 -0.487141,-0.087 -0.667969,-0.127 -0.07528,-0.017 -0.130805,-0.032 -0.175781,-0.045 -0.02102,-0.043 -0.04639,-0.097 -0.07617,-0.1699 -0.07047,-0.1733 -0.154162,-0.4075 -0.240234,-0.6445 -0.08607,-0.237 -0.175149,-0.4769 -0.265625,-0.6836 -0.04524,-0.1034 -0.08972,-0.1975 -0.144532,-0.2891 -0.05462,-0.091 -0.09382,-0.1883 -0.279297,-0.2969 -0.186952,-0.1092 -0.291749,-0.096 -0.398437,-0.098 -0.106688,0 -0.21075,0.01 -0.322266,0.018 -0.223031,0.024 -0.472539,0.068 -0.71875,0.1113 -0.24621,0.043 -0.488531,0.087 -0.671875,0.1113 -0.07583,0.01 -0.131075,0.015 -0.177734,0.019 -0.03411,-0.033 -0.07447,-0.073 -0.126953,-0.1308 -0.124844,-0.1384 -0.284113,-0.3286 -0.445313,-0.5215 -0.161199,-0.1929 -0.325247,-0.3896 -0.480468,-0.5527 -0.07761,-0.082 -0.151571,-0.1534 -0.234375,-0.2207 -0.08281,-0.067 -0.15129,-0.1476 -0.365235,-0.1856 -0.214002,-0.038 -0.305323,0.01 -0.40625,0.045 -0.100927,0.035 -0.196168,0.079 -0.296875,0.1289 -0.201414,0.1 -0.421697,0.226 -0.638672,0.3516 -0.216974,0.1257 -0.429614,0.2511 -0.59375,0.3379 -0.06817,0.036 -0.119143,0.057 -0.162109,0.076 -0.04296,-0.019 -0.09347,-0.04 -0.162109,-0.076 -0.163937,-0.087 -0.377013,-0.2122 -0.59375,-0.3379 -0.216738,-0.1256 -0.437422,-0.2518 -0.638672,-0.3516 -0.100626,-0.05 -0.195985,-0.094 -0.296875,-0.1289 -0.05045,-0.018 -0.09794,-0.039 -0.160156,-0.051 z m -0.0625,1.0468 c 0.02722,0.012 0.04302,0.015 0.07617,0.031 0.15698,0.078 0.366371,0.1964 0.580079,0.3203 0.213706,0.1239 0.43156,0.252 0.626953,0.3555 0.0977,0.052 0.188956,0.099 0.28125,0.1367 0.09229,0.038 0.166202,0.082 0.349609,0.082 0.183417,0 0.255339,-0.044 0.347656,-0.082 0.09232,-0.038 0.183476,-0.085 0.28125,-0.1367 0.195548,-0.1034 0.414967,-0.2316 0.628906,-0.3555 0.213941,-0.1239 0.422912,-0.2425 0.580079,-0.3203 0.03349,-0.017 0.04874,-0.019 0.07617,-0.031 0.02153,0.021 0.0349,0.03 0.06055,0.057 0.121389,0.1275 0.278535,0.3137 0.4375,0.5039 0.158966,0.1903 0.320249,0.3862 0.46875,0.5508 0.07425,0.082 0.143166,0.1551 0.216797,0.2226 0.07363,0.068 0.127114,0.1341 0.298828,0.1973 0.171769,0.063 0.255733,0.047 0.355469,0.043 0.09974,0 0.201178,-0.014 0.310547,-0.029 0.218738,-0.03 0.468202,-0.075 0.710938,-0.1172 0.242734,-0.043 0.480583,-0.083 0.654296,-0.1016 0.03687,0 0.05227,2e-4 0.08203,-0.01 0.01366,0.028 0.02143,0.042 0.03711,0.078 0.07093,0.1621 0.157294,0.3912 0.242187,0.625 0.08489,0.2338 0.170212,0.4737 0.253907,0.6796 0.04185,0.1029 0.08271,0.1965 0.128906,0.2852 0.0462,0.089 0.07379,0.1691 0.212891,0.2871 0.139244,0.118 0.223293,0.1314 0.318359,0.1621 0.09507,0.031 0.192908,0.056 0.300781,0.08 0.215747,0.048 0.464365,0.091 0.707032,0.1348 0.242664,0.044 0.48063,0.087 0.65039,0.1289 0.03757,0.01 0.05253,0.017 0.08203,0.025 0.0034,0.031 0.0071,0.048 0.0098,0.088 0.01178,0.177 0.01305,0.4208 0.01367,0.6699 6.26e-4,0.2491 7.9e-4,0.5041 0.0098,0.7265 0.0045,0.1112 0.01007,0.2133 0.02344,0.3125 0.01337,0.099 0.0133,0.1841 0.103516,0.3418 0.09001,0.1575 0.163526,0.2002 0.242187,0.2618 0.07866,0.062 0.162667,0.1199 0.255859,0.1796 0.186386,0.1193 0.406051,0.2459 0.619141,0.3711 0.21309,0.1252 0.421067,0.2491 0.566406,0.3477 0.0327,0.022 0.04521,0.034 0.07031,0.053 -0.0075,0.031 -0.01028,0.049 -0.02148,0.088 -0.0488,0.1701 -0.129158,0.4008 -0.212891,0.6348 -0.08373,0.2341 -0.169422,0.4717 -0.236328,0.6836 -0.03345,0.106 -0.06295,0.205 -0.08398,0.3027 -0.02103,0.098 -0.05062,0.1773 -0.01953,0.3555 0.03114,0.1784 0.08566,0.2433 0.138672,0.3281 0.05301,0.085 0.114212,0.1696 0.181641,0.2578 0.134856,0.1763 0.296959,0.3694 0.455078,0.5606 0.158119,0.1913 0.312506,0.3804 0.416015,0.5234 0.02416,0.033 0.03304,0.049 0.05078,0.076 -0.01774,0.027 -0.02662,0.043 -0.05078,0.076 -0.103512,0.1431 -0.257894,0.3302 -0.416015,0.5215 -0.158121,0.1912 -0.320223,0.3861 -0.455078,0.5625 -0.06743,0.088 -0.128634,0.1691 -0.181641,0.2539 -0.05301,0.085 -0.107542,0.1537 -0.138672,0.3321 -0.0311,0.1782 -0.0015,0.2576 0.01953,0.3554 0.02103,0.098 0.05053,0.1948 0.08398,0.3008 0.06691,0.2119 0.152595,0.4516 0.236328,0.6856 0.08373,0.234 0.16409,0.4646 0.212891,0.6347 0.0112,0.039 0.014,0.057 0.02148,0.088 -0.02511,0.019 -0.03761,0.03 -0.07031,0.053 -0.145338,0.099 -0.35332,0.2225 -0.566406,0.3477 -0.213086,0.1251 -0.432763,0.2519 -0.619141,0.3711 -0.09319,0.06 -0.177205,0.1161 -0.255859,0.1777 -0.07865,0.062 -0.152156,0.1042 -0.242187,0.2617 -0.09009,0.1577 -0.09016,0.2407 -0.103516,0.3399 -0.01336,0.099 -0.01897,0.2033 -0.02344,0.3144 -0.0089,0.2224 -0.0091,0.4755 -0.0098,0.7247 -6.21e-4,0.2491 -0.0019,0.4929 -0.01367,0.6699 -0.0027,0.04 -0.0063,0.058 -0.0098,0.09 -0.02943,0.01 -0.04459,0.014 -0.08203,0.024 -0.169774,0.042 -0.407722,0.087 -0.65039,0.1308 -0.242671,0.044 -0.491285,0.087 -0.707032,0.1348 -0.107873,0.024 -0.205717,0.047 -0.300781,0.078 -0.09506,0.031 -0.179124,0.046 -0.318359,0.1641 -0.13919,0.1179 -0.16669,0.1984 -0.212891,0.2871 -0.0462,0.089 -0.08706,0.1822 -0.128906,0.2851 -0.0837,0.2059 -0.169011,0.4459 -0.253907,0.6797 -0.08489,0.2338 -0.171259,0.461 -0.242187,0.6231 -0.016,0.036 -0.02518,0.052 -0.03906,0.08 -0.02926,0 -0.04408,2e-4 -0.08008,-0.01 -0.173726,-0.019 -0.411556,-0.059 -0.654296,-0.1016 -0.242741,-0.043 -0.492198,-0.088 -0.710938,-0.1172 -0.10937,-0.015 -0.21081,-0.027 -0.310547,-0.031 -0.09974,0 -0.1837,-0.018 -0.355469,0.045 -0.171797,0.063 -0.225183,0.1278 -0.298828,0.1953 -0.07364,0.068 -0.142541,0.1423 -0.216797,0.2246 -0.14851,0.1646 -0.309778,0.3606 -0.46875,0.5508 -0.158972,0.1903 -0.316086,0.3743 -0.4375,0.5019 -0.02589,0.027 -0.03886,0.038 -0.06055,0.059 -0.02734,-0.012 -0.04284,-0.017 -0.07617,-0.033 -0.15718,-0.078 -0.366136,-0.1983 -0.580079,-0.3222 -0.213941,-0.1239 -0.433357,-0.252 -0.628906,-0.3555 -0.09777,-0.052 -0.188933,-0.097 -0.28125,-0.1348 -0.09232,-0.038 -0.164253,-0.082 -0.347656,-0.082 -0.183421,0 -0.257315,0.044 -0.349609,0.082 -0.0923,0.038 -0.183554,0.085 -0.28125,0.1367 -0.195393,0.1035 -0.41325,0.2317 -0.626953,0.3555 -0.213705,0.1239 -0.423112,0.2424 -0.580079,0.3203 -0.03328,0.016 -0.04888,0.021 -0.07617,0.033 -0.02168,-0.021 -0.03466,-0.031 -0.06055,-0.059 -0.121399,-0.1276 -0.278532,-0.3116 -0.4375,-0.5019 -0.158969,-0.1902 -0.32024,-0.3862 -0.46875,-0.5508 -0.07426,-0.082 -0.143151,-0.157 -0.216797,-0.2246 -0.07365,-0.067 -0.127005,-0.1321 -0.298828,-0.1953 -0.171774,-0.063 -0.255733,-0.049 -0.355469,-0.045 -0.09974,0 -0.201178,0.016 -0.310547,0.031 -0.218738,0.03 -0.468198,0.075 -0.710938,0.1172 -0.242739,0.043 -0.48057,0.083 -0.654296,0.1016 -0.036,0 -0.05082,-3e-4 -0.08008,0.01 -0.01388,-0.028 -0.02306,-0.043 -0.03906,-0.08 -0.07093,-0.1621 -0.157294,-0.3893 -0.242187,-0.6231 -0.0849,-0.2338 -0.170209,-0.4738 -0.253907,-0.6797 -0.04185,-0.1029 -0.0827,-0.1964 -0.128906,-0.2851 -0.0462,-0.089 -0.0737,-0.1692 -0.212891,-0.2871 -0.139233,-0.1181 -0.223295,-0.1334 -0.318359,-0.1641 -0.09506,-0.031 -0.192908,-0.054 -0.300781,-0.078 -0.215748,-0.048 -0.464362,-0.091 -0.707032,-0.1348 -0.242669,-0.044 -0.480618,-0.089 -0.65039,-0.1308 -0.03744,-0.01 -0.0526,-0.014 -0.08203,-0.024 -0.0035,-0.032 -0.0071,-0.05 -0.0098,-0.09 -0.01179,-0.177 -0.01305,-0.4208 -0.01367,-0.6699 -6.2e-4,-0.2492 -8.28e-4,-0.5023 -0.0098,-0.7247 -0.0045,-0.111 -0.01007,-0.2152 -0.02343,-0.3144 -0.01336,-0.099 -0.01341,-0.1821 -0.103516,-0.3398 -0.09015,-0.1577 -0.163464,-0.2003 -0.242187,-0.2618 -0.07872,-0.062 -0.164533,-0.118 -0.257813,-0.1777 -0.18656,-0.1192 -0.405819,-0.246 -0.61914,-0.3711 -0.213322,-0.1252 -0.420899,-0.249 -0.566407,-0.3476 -0.03274,-0.022 -0.04518,-0.034 -0.07031,-0.053 0.0075,-0.031 0.01028,-0.049 0.02148,-0.088 0.0488,-0.1701 0.129159,-0.4007 0.212891,-0.6347 0.08373,-0.234 0.169422,-0.4737 0.236328,-0.6856 0.03345,-0.106 0.06295,-0.203 0.08398,-0.3008 0.02103,-0.098 0.05062,-0.1772 0.01953,-0.3554 -0.03109,-0.1781 -0.08575,-0.2473 -0.138672,-0.3321 -0.05293,-0.085 -0.11431,-0.1658 -0.181641,-0.2539 -0.134661,-0.1764 -0.297192,-0.3712 -0.455078,-0.5625 -0.157886,-0.1912 -0.310706,-0.3783 -0.414062,-0.5214 -0.02412,-0.033 -0.03307,-0.049 -0.05078,-0.076 0.01771,-0.027 0.02666,-0.043 0.05078,-0.076 0.103356,-0.143 0.256177,-0.3321 0.414062,-0.5234 0.157886,-0.1913 0.320421,-0.3862 0.455078,-0.5625 0.06733,-0.088 0.128716,-0.1711 0.181641,-0.2559 0.05293,-0.085 0.107573,-0.1499 0.138672,-0.3281 0.03111,-0.1782 0.0015,-0.2577 -0.01953,-0.3555 -0.02103,-0.098 -0.05053,-0.1967 -0.08398,-0.3027 -0.0669,-0.2119 -0.152595,-0.4495 -0.236328,-0.6836 -0.08373,-0.234 -0.164089,-0.4647 -0.212891,-0.6348 -0.0112,-0.039 -0.014,-0.057 -0.02148,-0.088 0.02514,-0.019 0.03757,-0.031 0.07031,-0.053 0.145509,-0.099 0.353079,-0.2225 0.566407,-0.3476 0.213328,-0.1252 0.432562,-0.2518 0.61914,-0.3711 0.09329,-0.06 0.179074,-0.1181 0.257813,-0.1797 0.07874,-0.062 0.152088,-0.104 0.242187,-0.2617 0.09021,-0.1578 0.09016,-0.2427 0.103516,-0.3418 0.01336,-0.099 0.01897,-0.2013 0.02344,-0.3125 0.0089,-0.2224 0.0091,-0.4775 0.0098,-0.7266 6.21e-4,-0.2491 0.0019,-0.4929 0.01367,-0.6699 0.0026,-0.04 0.0063,-0.056 0.0098,-0.088 0.0295,-0.01 0.04446,-0.016 0.08203,-0.025 0.169759,-0.042 0.407729,-0.085 0.65039,-0.1289 0.242662,-0.044 0.491298,-0.087 0.707032,-0.1348 0.107866,-0.024 0.20573,-0.049 0.300781,-0.08 0.09505,-0.031 0.179118,-0.044 0.318359,-0.1621 0.139091,-0.118 0.166695,-0.1984 0.212891,-0.2871 0.0462,-0.089 0.08706,-0.1822 0.128906,-0.2851 0.0837,-0.2059 0.169011,-0.4459 0.253907,-0.6797 0.08489,-0.2338 0.171257,-0.4629 0.242187,-0.625 0.01568,-0.036 0.02345,-0.05 0.03711,-0.078 0.02976,0 0.04516,-3e-4 0.08203,0.01 0.173726,0.019 0.411557,0.059 0.654296,0.1016 0.24274,0.043 0.4922,0.088 0.710938,0.1172 0.109369,0.015 0.21081,0.027 0.310547,0.031 0.09974,0 0.183695,0.018 0.355469,-0.045 0.171798,-0.063 0.225182,-0.1278 0.298828,-0.1953 0.07365,-0.068 0.142541,-0.1423 0.216797,-0.2246 0.148511,-0.1646 0.309778,-0.3605 0.46875,-0.5508 0.158972,-0.1902 0.316086,-0.3763 0.4375,-0.5039 0.02565,-0.027 0.03901,-0.036 0.06055,-0.057 z m 1.914062,2.4688 c -4.688841,0 -8.499999,3.8112 -8.5,8.5 10e-7,4.6889 3.811159,8.5 8.5,8.5 4.68884,0 8.499999,-3.8111 8.5,-8.5 -10e-7,-4.6888 -3.81116,-8.5 -8.5,-8.5 z m 0,0.9433 c 4.178423,0 7.554686,3.3783 7.554688,7.5567 -2e-6,4.1784 -3.376265,7.5547 -7.554688,7.5547 -4.178423,0 -7.554686,-3.3763 -7.554688,-7.5547 2e-6,-4.1784 3.376265,-7.5567 7.554688,-7.5567 z m -0.02344,2.7696 c -0.300717,0 -0.431199,0.1552 -0.53125,0.2636 -0.100051,0.1084 -0.175973,0.2263 -0.253906,0.3555 -0.155861,0.2585 -0.306941,0.5691 -0.455078,0.8848 -0.148134,0.3156 -0.292096,0.6338 -0.412109,0.875 -0.06,0.1206 -0.114201,0.2235 -0.154297,0.289 -0.0081,0.013 -0.01163,0.017 -0.01953,0.027 -0.01094,0 -0.01518,0.01 -0.0293,0.01 -0.0746,0.019 -0.187104,0.04 -0.320313,0.061 -0.266418,0.043 -0.613014,0.085 -0.958984,0.1328 -0.345967,0.047 -0.690798,0.1 -0.984375,0.1719 -0.146793,0.036 -0.278656,0.074 -0.41211,0.1367 -0.133459,0.063 -0.318999,0.1398 -0.410156,0.4258 -0.09116,0.2861 0.01355,0.4575 0.08594,0.586 0.0724,0.1284 0.160712,0.2356 0.259765,0.3496 0.198117,0.2278 0.448149,0.4689 0.703125,0.707 0.254972,0.2382 0.514289,0.4736 0.707032,0.6621 0.09638,0.094 0.176513,0.1761 0.226562,0.2344 0.0085,0.01 0.0092,0.014 0.01563,0.023 6.05e-4,0.013 0.003,0.018 0.002,0.033 -0.0052,0.077 -0.01823,0.1931 -0.03906,0.3262 -0.04167,0.2661 -0.108133,0.6062 -0.169922,0.9492 -0.06178,0.3431 -0.120183,0.6854 -0.142578,0.9863 -0.0112,0.1504 -0.01495,0.2894 0.0039,0.4356 0.0189,0.1463 0.03496,0.3466 0.279297,0.5215 0.244391,0.1749 0.439195,0.1264 0.583984,0.098 0.144782,-0.029 0.274912,-0.078 0.414063,-0.1367 0.278299,-0.1177 0.58491,-0.2807 0.890625,-0.4492 0.305711,-0.1685 0.608528,-0.3421 0.847656,-0.4668 0.119565,-0.062 0.223907,-0.1111 0.294922,-0.1406 0.01473,-0.01 0.02074,-0.01 0.0332,-0.01 0.01065,0 0.01545,0 0.02734,0.01 0.07139,0.029 0.176538,0.078 0.296875,0.1386 0.240662,0.1218 0.543777,0.2904 0.851562,0.4551 0.30778,0.1647 0.616747,0.3272 0.896485,0.4414 0.139872,0.057 0.27088,0.1037 0.416015,0.1309 0.145141,0.027 0.339841,0.073 0.582031,-0.1055 0.242181,-0.178 0.258299,-0.379 0.275391,-0.5254 0.01709,-0.1465 0.01109,-0.2834 -0.002,-0.4336 -0.02611,-0.3006 -0.09022,-0.644 -0.15625,-0.9863 -0.06603,-0.3423 -0.134736,-0.6817 -0.179688,-0.9473 -0.02248,-0.1327 -0.03878,-0.2476 -0.04492,-0.3242 -0.0012,-0.014 -3.97e-4,-0.019 0,-0.031 0.0066,-0.01 0.0083,-0.014 0.01758,-0.025 0.04932,-0.059 0.127453,-0.1448 0.222656,-0.2402 0.190401,-0.1908 0.447208,-0.4286 0.699219,-0.67 0.252001,-0.2412 0.50003,-0.4827 0.695312,-0.7129 0.09764,-0.1152 0.183112,-0.226 0.253906,-0.3554 0.0708,-0.1294 0.174785,-0.299 0.08008,-0.584 -0.0947,-0.2849 -0.281792,-0.3623 -0.416016,-0.4238 -0.134226,-0.062 -0.268796,-0.099 -0.416016,-0.1329 -0.294438,-0.068 -0.63785,-0.1131 -0.984375,-0.1562 -0.346529,-0.043 -0.694019,-0.082 -0.960937,-0.1211 -0.13346,-0.02 -0.247445,-0.039 -0.322266,-0.057 -0.01302,0 -0.01657,-0.01 -0.02734,-0.01 -0.0083,-0.01 -0.01295,-0.014 -0.02148,-0.027 -0.0409,-0.065 -0.09476,-0.1653 -0.15625,-0.2851 -0.122984,-0.2398 -0.271803,-0.5554 -0.423828,-0.8692 -0.152035,-0.3138 -0.305805,-0.6243 -0.464844,-0.8808 -0.07953,-0.1283 -0.158396,-0.2444 -0.259765,-0.3516 -0.101362,-0.1072 -0.23252,-0.2596 -0.533204,-0.2578 l 0,0 z m 0.0078,1.2597 c 0.107746,0.1869 0.225417,0.4078 0.349609,0.6641 0.147629,0.3047 0.294576,0.6235 0.431641,0.8906 0.06853,0.1337 0.133344,0.2536 0.201172,0.3614 0.06783,0.1078 0.112028,0.1995 0.275391,0.3164 0.163343,0.117 0.264601,0.1286 0.388671,0.1582 0.124067,0.03 0.259469,0.052 0.408203,0.074 0.297476,0.044 0.647888,0.083 0.984376,0.125 0.282485,0.035 0.528414,0.075 0.740234,0.1172 -0.144788,0.1598 -0.318062,0.3405 -0.523438,0.5371 -0.244706,0.2344 -0.502641,0.4728 -0.714843,0.6855 -0.106097,0.1063 -0.199466,0.205 -0.28125,0.3028 -0.08177,0.098 -0.157814,0.1681 -0.21875,0.3593 -0.06093,0.1912 -0.0395,0.2911 -0.0293,0.418 0.01019,0.1269 0.02964,0.2622 0.05469,0.4102 0.0501,0.296 0.123383,0.6402 0.1875,0.9726 0.05389,0.2794 0.09157,0.5262 0.117188,0.7403 -0.197233,-0.088 -0.422534,-0.1977 -0.673828,-0.3321 -0.298864,-0.1599 -0.60679,-0.331 -0.875,-0.4668 -0.1341,-0.068 -0.256643,-0.1263 -0.375,-0.1738 -0.11836,-0.048 -0.209166,-0.098 -0.410157,-0.096 -0.201071,0 -0.290426,0.053 -0.408203,0.1016 -0.117781,0.049 -0.239791,0.1101 -0.373047,0.1796 -0.266518,0.139 -0.572275,0.3131 -0.86914,0.4766 -0.249613,0.1376 -0.473793,0.2494 -0.669922,0.3399 0.02295,-0.2145 0.05891,-0.4619 0.109375,-0.7422 0.06,-0.3331 0.127392,-0.678 0.173828,-0.9746 0.02322,-0.1483 0.04021,-0.2832 0.04883,-0.4102 0.0086,-0.1271 0.02815,-0.2275 -0.03516,-0.418 -0.06329,-0.1904 -0.137718,-0.2587 -0.220703,-0.3554 -0.08298,-0.097 -0.179702,-0.1957 -0.28711,-0.3008 -0.214815,-0.21 -0.475069,-0.4445 -0.722656,-0.6758 -0.208013,-0.1943 -0.382503,-0.3731 -0.529297,-0.5312 0.211342,-0.044 0.458041,-0.089 0.740235,-0.127 0.335941,-0.046 0.683567,-0.087 0.980468,-0.1348 0.148455,-0.024 0.282564,-0.049 0.40625,-0.08 0.123686,-0.031 0.226784,-0.043 0.388672,-0.1622 0.161886,-0.1189 0.203045,-0.2116 0.269532,-0.3203 0.06648,-0.1086 0.130386,-0.2307 0.197265,-0.3652 0.133744,-0.2688 0.278032,-0.588 0.421875,-0.8945 0.120823,-0.2575 0.236494,-0.4818 0.341797,-0.67 z m -6.28125,13.8204 c 0.04649,0.082 0.09375,0.166 0.257812,0.2617 0.186962,0.109 0.291767,0.095 0.398438,0.098 0.106671,0 0.210757,-0.01 0.322266,-0.018 0.223017,-0.024 0.472544,-0.068 0.71875,-0.1114 0.246205,-0.043 0.488534,-0.086 0.671875,-0.1113 0.07583,-0.01 0.131076,-0.016 0.177734,-0.02 0.0341,0.033 0.07448,0.073 0.126953,0.1308 0.124836,0.1383 0.284116,0.3286 0.445313,0.5215 0.02691,0.032 0.05315,0.06 0.08008,0.092 l -1.988282,3.4453 -0.451171,-1.6836 a 0.53732898,0.53732898 0 0 0 -0.658191,-0.3789 l -1.669922,0.4473 1.56836,-2.6738 z m 12.589844,0.01 1.566406,2.6699 -1.669922,-0.4473 a 0.53693734,0.53693734 0 0 0 -0.65625,0.3809 l -0.451172,1.6797 -1.988281,-3.4414 c 0.02814,-0.034 0.05585,-0.062 0.08398,-0.096 0.161193,-0.1929 0.320478,-0.3832 0.445313,-0.5215 0.05247,-0.058 0.09285,-0.098 0.126953,-0.1309 0.04666,0 0.101906,0.012 0.177734,0.02 0.183342,0.025 0.425669,0.068 0.671875,0.1114 0.246207,0.043 0.495733,0.087 0.71875,0.1113 0.111509,0.012 0.215595,0.02 0.322266,0.018 0.106671,0 0.211477,0.011 0.398437,-0.098 0.160115,-0.093 0.208354,-0.1762 0.253907,-0.2558 z" color="#000" font-family="sans-serif" font-weight="400" overflow="visible" white-space="normal"/></g></svg>