<svg xmlns="http://www.w3.org/2000/svg" xmlns:xlink="http://www.w3.org/1999/xlink" width="42" height="42" viewBox="0 0 42 42"><defs><linearGradient id="b" x1="949.87" x2="974.39" y1="518.014" y2="544.657" gradientTransform="translate(-1272.559 316.47) scale(1.34562)" gradientUnits="userSpaceOnUse" xlink:href="#a"/><linearGradient id="a"><stop offset="0" stop-color="#24f7bc"/><stop offset="1" stop-color="#24c4fc"/></linearGradient></defs><g transform="translate(0 -1010.362)"><rect width="42" height="42" y="1010.362" fill="url(#b)" rx="8.876" ry="8.876"/><path fill="#fff" style="line-height:normal;text-indent:0;text-align:start;text-decoration-line:none;text-decoration-style:solid;text-decoration-color:#000;text-transform:none;block-progression:tb;isolation:auto;mix-blend-mode:normal" d="m 19.582031,1017.371 c -0.05668,-0.011 -0.129102,-0.015 -0.232422,0 -0.206336,0.037 -0.265524,0.1103 -0.335937,0.1679 -0.07041,0.058 -0.13118,0.1179 -0.19336,0.1836 -0.124359,0.1313 -0.251389,0.2846 -0.376953,0.4356 -0.125563,0.151 -0.249292,0.2991 -0.34375,0.4043 -0.02504,0.028 -0.03892,0.039 -0.05859,0.06 -0.0272,0 -0.04458,3e-4 -0.08008,-0.01 -0.138561,-0.019 -0.325759,-0.052 -0.517579,-0.086 -0.191819,-0.034 -0.387427,-0.068 -0.566406,-0.088 -0.08949,-0.01 -0.174572,-0.019 -0.265625,-0.018 -0.09105,0 -0.183143,-0.014 -0.363281,0.092 -0.180214,0.1057 -0.209333,0.1933 -0.255859,0.2715 -0.04653,0.078 -0.08292,0.1552 -0.119141,0.2383 -0.07244,0.1664 -0.141939,0.3554 -0.208985,0.541 -0.06704,0.1855 -0.132187,0.3662 -0.185546,0.4981 -0.01442,0.036 -0.02333,0.054 -0.03516,0.08 -0.02693,0.01 -0.04406,0.015 -0.08008,0.023 -0.136639,0.03 -0.325819,0.063 -0.517579,0.098 -0.191759,0.035 -0.385678,0.072 -0.560546,0.1153 -0.08743,0.022 -0.16906,0.045 -0.253907,0.078 -0.08485,0.033 -0.178477,0.051 -0.310547,0.2109 -0.130398,0.1585 -0.131184,0.2511 -0.148437,0.3399 -0.01734,0.089 -0.02524,0.1731 -0.03125,0.2637 -0.01202,0.1813 -0.01123,0.3824 -0.01172,0.58 -4.91e-4,0.1977 -0.0021,0.3925 -0.0078,0.5352 -0.0016,0.04 -0.0035,0.062 -0.0059,0.092 -0.02357,0.016 -0.03972,0.028 -0.07227,0.049 -0.118455,0.076 -0.282638,0.1721 -0.451172,0.2715 -0.168534,0.099 -0.340885,0.2011 -0.490234,0.3027 -0.07467,0.051 -0.14285,0.1017 -0.210938,0.1621 -0.06809,0.06 -0.149184,0.1069 -0.21875,0.3008 -0.06945,0.1937 -0.03722,0.2793 -0.02344,0.3692 0.01378,0.09 0.03368,0.1725 0.05859,0.2597 0.04982,0.1745 0.117465,0.3651 0.183594,0.5508 0.06613,0.1857 0.131171,0.3662 0.173828,0.502 0.01229,0.039 0.01759,0.061 0.02539,0.09 -0.01694,0.024 -0.02832,0.042 -0.05273,0.074 -0.08572,0.1128 -0.209273,0.2603 -0.333984,0.4121 -0.124712,0.1518 -0.251688,0.3081 -0.357422,0.4551 -0.05287,0.073 -0.09925,0.1428 -0.142578,0.2227 -0.04334,0.086 -0.10352,0.1589 -0.10352,0.3642 0,0.2052 0.06019,0.2754 0.103516,0.3554 0.04333,0.08 0.08971,0.151 0.142578,0.2246 0.105739,0.147 0.232708,0.3014 0.357422,0.4532 0.124713,0.1518 0.248265,0.2993 0.333984,0.4121 0.02441,0.032 0.0358,0.048 0.05273,0.072 -0.0078,0.029 -0.0131,0.053 -0.02539,0.092 -0.04266,0.1357 -0.1077,0.3182 -0.173828,0.5039 -0.06613,0.1857 -0.133773,0.3744 -0.183594,0.5489 -0.02491,0.087 -0.04481,0.1698 -0.05859,0.2597 -0.01378,0.09 -0.04608,0.1754 0.02344,0.3692 0.06956,0.1939 0.150666,0.2403 0.21875,0.3007 0.06808,0.06 0.136264,0.1113 0.210938,0.1622 0.149346,0.1017 0.3217,0.2014 0.490234,0.3007 0.168534,0.099 0.332714,0.1954 0.451172,0.2715 0.03273,0.021 0.04863,0.036 0.07227,0.053 0.0023,0.03 0.0043,0.05 0.0059,0.09 0.0057,0.1426 0.0073,0.3374 0.0078,0.5351 4.89e-4,0.1976 -3.01e-4,0.3987 0.01172,0.5801 0.006,0.091 0.01392,0.1745 0.03125,0.2637 0.01733,0.089 0.01634,0.182 0.148437,0.3418 0.132155,0.1599 0.225733,0.1757 0.310547,0.209 0.08481,0.033 0.166487,0.056 0.253906,0.078 0.174839,0.044 0.368793,0.081 0.560547,0.1152 0.191755,0.035 0.380927,0.067 0.517578,0.098 0.03581,0.01 0.05324,0.013 0.08008,0.02 0.01208,0.027 0.02028,0.045 0.03516,0.082 0.05336,0.1319 0.118502,0.3145 0.185547,0.5 0.06705,0.1855 0.136541,0.3726 0.208985,0.539 0.03622,0.083 0.07261,0.1602 0.119141,0.2383 0.04653,0.078 0.07566,0.1659 0.255859,0.2715 0.180152,0.1056 0.272227,0.09 0.363281,0.092 0.09105,0 0.176137,-0.01 0.265625,-0.016 0.03892,0 0.08276,-0.014 0.123047,-0.02 l 0,9.5645 a 0.53732898,0.53732898 0 0 0 0.818359,0.459 l 3.203125,-1.9746 3.15625,1.9726 A 0.53732898,0.53732898 0 0 0 25,1044.8241 l 0,-9.5645 c 0.04029,0.01 0.08413,0.015 0.123047,0.02 0.08949,0.01 0.174576,0.018 0.265625,0.016 0.09105,0 0.183156,0.014 0.363281,-0.092 0.1802,-0.1056 0.211285,-0.1933 0.257813,-0.2715 0.04653,-0.078 0.08292,-0.1552 0.11914,-0.2383 0.07244,-0.1664 0.139985,-0.3535 0.207032,-0.539 0.06705,-0.1855 0.132184,-0.3681 0.185546,-0.5 0.01464,-0.036 0.02516,-0.053 0.03711,-0.08 0.02693,-0.01 0.04406,-0.014 0.08008,-0.022 0.13665,-0.03 0.323871,-0.063 0.515625,-0.098 0.191754,-0.035 0.387661,-0.072 0.5625,-0.1153 0.08742,-0.022 0.169093,-0.045 0.253906,-0.078 0.08481,-0.033 0.17644,-0.049 0.308594,-0.209 0.132091,-0.1598 0.131107,-0.2525 0.148437,-0.3418 0.01733,-0.089 0.02524,-0.1731 0.03125,-0.2637 0.01202,-0.1814 0.01318,-0.3824 0.01367,-0.58 4.91e-4,-0.1977 1.17e-4,-0.3925 0.0059,-0.5352 0.0016,-0.04 0.0035,-0.06 0.0059,-0.09 0.02361,-0.016 0.03957,-0.032 0.07227,-0.053 0.118328,-0.076 0.284772,-0.1721 0.453125,-0.2715 0.168352,-0.099 0.339076,-0.199 0.488281,-0.3007 0.0746,-0.051 0.142913,-0.1017 0.210937,-0.1621 0.06802,-0.06 0.149268,-0.1071 0.21875,-0.3008 0.06951,-0.1938 0.03722,-0.2794 0.02344,-0.3692 -0.01378,-0.09 -0.03564,-0.1725 -0.06055,-0.2597 -0.04982,-0.1745 -0.115511,-0.3632 -0.181641,-0.5489 -0.06613,-0.1857 -0.131169,-0.3682 -0.173828,-0.5039 -0.01225,-0.039 -0.0176,-0.063 -0.02539,-0.092 0.0169,-0.024 0.02846,-0.04 0.05273,-0.072 0.08584,-0.1128 0.209089,-0.2603 0.333984,-0.4121 0.124895,-0.1518 0.251526,-0.3062 0.357422,-0.4532 0.05295,-0.074 0.101128,-0.1447 0.144532,-0.2246 0.04332,-0.08 0.101482,-0.15 0.101482,-0.3554 0,-0.2055 -0.05816,-0.2776 -0.101562,-0.3575 -0.0434,-0.08 -0.09159,-0.151 -0.144532,-0.2246 -0.105889,-0.147 -0.232529,-0.3013 -0.357422,-0.4531 -0.124892,-0.1518 -0.248146,-0.2993 -0.333984,-0.4121 -0.02427,-0.032 -0.03583,-0.05 -0.05273,-0.074 0.0078,-0.029 0.01314,-0.051 0.02539,-0.09 0.04266,-0.1358 0.107698,-0.3162 0.173828,-0.5019 0.06613,-0.1857 0.131817,-0.3763 0.181641,-0.5508 0.02491,-0.087 0.04677,-0.17 0.06055,-0.2598 0.01378,-0.09 0.04596,-0.1755 -0.02344,-0.3691 -0.06948,-0.1937 -0.150724,-0.2404 -0.21875,-0.3008 -0.06803,-0.06 -0.136334,-0.1112 -0.210937,-0.1621 -0.149207,-0.1017 -0.319924,-0.2034 -0.488281,-0.3027 -0.168357,-0.099 -0.334786,-0.1954 -0.453125,-0.2715 -0.03251,-0.021 -0.04872,-0.034 -0.07227,-0.051 -0.0024,-0.03 -0.0042,-0.051 -0.0059,-0.092 -0.0057,-0.1427 -0.0054,-0.3375 -0.0059,-0.5352 -4.94e-4,-0.1976 -0.0017,-0.3987 -0.01367,-0.58 -0.006,-0.091 -0.01393,-0.1745 -0.03125,-0.2637 -0.01724,-0.089 -0.01809,-0.1814 -0.148437,-0.3399 -0.132069,-0.1599 -0.223748,-0.1776 -0.308594,-0.2109 -0.08485,-0.033 -0.166472,-0.056 -0.253906,-0.078 -0.174869,-0.044 -0.370741,-0.081 -0.5625,-0.1152 -0.19176,-0.035 -0.378988,-0.067 -0.515625,-0.098 -0.03601,-0.01 -0.05315,-0.014 -0.08008,-0.022 -0.01186,-0.026 -0.02263,-0.044 -0.03711,-0.08 -0.05336,-0.1319 -0.118502,-0.3125 -0.185546,-0.498 -0.06705,-0.1856 -0.134586,-0.3746 -0.207032,-0.541 -0.03622,-0.083 -0.0726,-0.1602 -0.11914,-0.2383 -0.04654,-0.078 -0.07746,-0.1659 -0.257813,-0.2715 -0.180138,-0.1055 -0.272229,-0.09 -0.363281,-0.092 -0.09105,0 -0.176135,0.01 -0.265625,0.016 -0.17898,0.019 -0.374586,0.054 -0.566406,0.088 -0.19182,0.034 -0.379018,0.067 -0.517579,0.086 -0.0355,0 -0.05288,0.01 -0.08008,0.01 -0.01956,-0.02 -0.03376,-0.033 -0.05859,-0.06 -0.09444,-0.1052 -0.216232,-0.2533 -0.341797,-0.4043 -0.125565,-0.151 -0.254523,-0.3043 -0.378906,-0.4356 -0.06219,-0.066 -0.122891,-0.1261 -0.19336,-0.1836 -0.07047,-0.058 -0.12724,-0.1309 -0.333984,-0.1679 -0.206949,-0.037 -0.286911,0.011 -0.373047,0.041 -0.08614,0.03 -0.163348,0.065 -0.244141,0.1055 -0.161586,0.08 -0.334867,0.1809 -0.503906,0.2793 -0.169039,0.098 -0.334892,0.1957 -0.458984,0.2617 -0.03189,0.017 -0.04749,0.023 -0.07227,0.035 -0.0249,-0.012 -0.04204,-0.018 -0.07422,-0.035 -0.12393,-0.066 -0.28819,-0.1634 -0.457031,-0.2617 -0.168841,-0.098 -0.340543,-0.1989 -0.501953,-0.2793 -0.08071,-0.04 -0.158111,-0.076 -0.244141,-0.1055 -0.04302,-0.015 -0.08395,-0.034 -0.140625,-0.045 z m -0.04492,1.0507 0,0 c 0.116026,0.059 0.267622,0.1449 0.427735,0.2382 0.16582,0.096 0.336746,0.1986 0.492187,0.2813 0.07772,0.041 0.151179,0.077 0.228516,0.1094 0.07734,0.032 0.138427,0.07 0.314453,0.07 0.176096,0 0.2371,-0.038 0.314453,-0.07 0.07735,-0.032 0.150739,-0.068 0.228516,-0.1094 0.155553,-0.083 0.3262,-0.1847 0.492187,-0.2813 0.159985,-0.093 0.313627,-0.1777 0.429688,-0.2363 0.08953,0.096 0.2052,0.2299 0.324218,0.3731 0.123357,0.1483 0.249112,0.3021 0.367188,0.4336 0.05904,0.066 0.116111,0.1267 0.177734,0.1835 0.06162,0.057 0.104573,0.115 0.269532,0.1758 0.164513,0.061 0.234758,0.044 0.318359,0.041 0.0836,0 0.164929,-0.014 0.251953,-0.025 0.174049,-0.024 0.368316,-0.059 0.556641,-0.092 0.181774,-0.032 0.355824,-0.061 0.484375,-0.076 0.05235,0.1214 0.117336,0.2928 0.18164,0.4707 0.06588,0.1823 0.130769,0.3688 0.197266,0.5332 0.03325,0.082 0.0669,0.158 0.105469,0.2324 0.03857,0.074 0.05847,0.1447 0.191406,0.2578 0.132938,0.1133 0.207422,0.1226 0.287109,0.1485 0.07969,0.026 0.158296,0.045 0.244141,0.064 0.17169,0.038 0.366421,0.071 0.554687,0.1055 0.183162,0.033 0.358347,0.069 0.484376,0.1 0.0084,0.1326 0.01124,0.3173 0.01172,0.5078 4.86e-4,0.1943 -0.0012,0.3929 0.0059,0.5703 0.0036,0.089 0.01034,0.1728 0.02148,0.2559 0.01114,0.083 0.0061,0.1541 0.0918,0.3047 0.08559,0.1504 0.150994,0.1846 0.216797,0.2363 0.0658,0.052 0.132914,0.099 0.207031,0.1465 0.148234,0.095 0.319041,0.1934 0.484375,0.291 0.16252,0.096 0.319396,0.1903 0.427734,0.2637 -0.03662,0.1276 -0.09768,0.3033 -0.162109,0.4843 -0.06498,0.1824 -0.132394,0.37 -0.185547,0.5391 -0.02658,0.085 -0.04887,0.1642 -0.06641,0.2461 -0.01754,0.082 -0.04508,0.1487 -0.01563,0.3184 0.02952,0.1699 0.07879,0.2237 0.123047,0.2949 0.04426,0.071 0.09094,0.1386 0.144531,0.209 0.107186,0.1408 0.234729,0.2923 0.357422,0.4414 0.121385,0.1475 0.237063,0.2933 0.314453,0.4004 -0.07738,0.1071 -0.193073,0.2509 -0.314453,0.3984 -0.122692,0.1491 -0.250234,0.3006 -0.357422,0.4414 -0.05359,0.07 -0.100269,0.1378 -0.144531,0.209 -0.04426,0.071 -0.09354,0.125 -0.123047,0.2949 -0.02948,0.1698 -0.0019,0.2365 0.01563,0.3184 0.01754,0.082 0.03983,0.1615 0.06641,0.2461 0.05315,0.1691 0.120571,0.3566 0.185547,0.539 0.06443,0.181 0.125491,0.3568 0.162109,0.4844 -0.108341,0.073 -0.265211,0.1678 -0.427734,0.2637 -0.165338,0.098 -0.336132,0.1975 -0.484375,0.2929 -0.07412,0.048 -0.141221,0.093 -0.207031,0.1446 -0.06581,0.052 -0.131244,0.086 -0.216797,0.2363 -0.08573,0.1506 -0.08066,0.2235 -0.0918,0.3066 -0.01114,0.083 -0.01794,0.1651 -0.02148,0.2539 -0.0071,0.1774 -0.0054,0.3781 -0.0059,0.5723 -4.75e-4,0.1913 -0.0032,0.3751 -0.01172,0.5078 -0.126057,0.031 -0.301213,0.064 -0.484376,0.098 -0.188272,0.034 -0.38301,0.067 -0.554687,0.1055 -0.08584,0.019 -0.164471,0.039 -0.244141,0.064 -0.07967,0.026 -0.15417,0.035 -0.287109,0.1484 -0.132801,0.1131 -0.152847,0.1835 -0.191406,0.2579 -0.03856,0.074 -0.07222,0.1502 -0.105469,0.2324 -0.06649,0.1644 -0.131389,0.3528 -0.197266,0.5351 -0.0643,0.1779 -0.129286,0.3474 -0.18164,0.4688 -0.128552,-0.015 -0.302601,-0.044 -0.484375,-0.076 -0.188325,-0.033 -0.382594,-0.068 -0.556641,-0.092 -0.08702,-0.012 -0.168355,-0.02 -0.251953,-0.023 -0.0836,0 -0.153862,-0.021 -0.318359,0.039 -0.164598,0.061 -0.207942,0.1191 -0.269532,0.1758 -0.06159,0.057 -0.118703,0.116 -0.177734,0.1817 -0.118062,0.1315 -0.24383,0.2852 -0.367188,0.4335 -0.119683,0.1439 -0.236428,0.2794 -0.326171,0.375 -0.115956,-0.059 -0.268292,-0.1454 -0.427735,-0.2382 -0.165991,-0.097 -0.336634,-0.1986 -0.492187,-0.2813 -0.07778,-0.041 -0.151166,-0.077 -0.228516,-0.1094 -0.07735,-0.032 -0.138394,-0.072 -0.314453,-0.072 -0.176082,0 -0.237113,0.04 -0.314453,0.072 -0.07734,0.032 -0.150798,0.07 -0.228516,0.1114 -0.155436,0.083 -0.326383,0.1828 -0.492187,0.2793 -0.159798,0.093 -0.311832,0.1797 -0.427735,0.2382 -0.08971,-0.096 -0.206491,-0.231 -0.326171,-0.375 -0.123355,-0.1483 -0.249111,-0.302 -0.367188,-0.4335 -0.05904,-0.066 -0.114158,-0.125 -0.175781,-0.1817 -0.06162,-0.057 -0.10459,-0.117 -0.269531,-0.1777 -0.16461,-0.061 -0.236666,-0.044 -0.320313,-0.041 -0.08365,0 -0.164912,0.012 -0.251953,0.023 -0.174083,0.024 -0.368306,0.059 -0.556641,0.092 -0.182477,0.032 -0.355705,0.061 -0.484375,0.076 -0.05235,-0.1214 -0.115391,-0.2909 -0.179687,-0.4688 -0.06588,-0.1823 -0.132724,-0.3707 -0.199219,-0.5351 -0.03325,-0.082 -0.06691,-0.1581 -0.105469,-0.2325 -0.03856,-0.074 -0.05861,-0.1447 -0.191406,-0.2578 -0.132936,-0.1132 -0.205487,-0.1225 -0.285156,-0.1484 -0.07967,-0.026 -0.160255,-0.045 -0.246094,-0.064 -0.171678,-0.038 -0.364462,-0.071 -0.552734,-0.1054 -0.183872,-0.033 -0.360191,-0.067 -0.486329,-0.098 -0.0085,-0.1327 -0.0093,-0.3165 -0.0098,-0.5078 -4.8e-4,-0.1942 -7.19e-4,-0.3949 -0.0078,-0.5723 -0.0035,-0.089 -0.0084,-0.1709 -0.01953,-0.2539 -0.01114,-0.083 -0.008,-0.1559 -0.09375,-0.3066 -0.08567,-0.1506 -0.150928,-0.1845 -0.216797,-0.2363 -0.06587,-0.052 -0.132837,-0.097 -0.207031,-0.1446 -0.148388,-0.095 -0.318854,-0.1953 -0.484375,-0.2929 -0.162704,-0.096 -0.319264,-0.1903 -0.427734,-0.2637 0.03662,-0.1276 0.09573,-0.3034 0.160156,-0.4844 0.06498,-0.1824 0.134349,-0.3699 0.1875,-0.539 0.02658,-0.085 0.04887,-0.1642 0.06641,-0.2461 0.01754,-0.082 0.0451,-0.1486 0.01563,-0.3184 -0.02947,-0.1696 -0.07885,-0.2237 -0.123047,-0.2949 -0.04419,-0.071 -0.09297,-0.1367 -0.146484,-0.2071 -0.107033,-0.1408 -0.232959,-0.2942 -0.355469,-0.4433 -0.1212,-0.1475 -0.237185,-0.2914 -0.314453,-0.3985 0.07728,-0.1071 0.193246,-0.2528 0.314453,-0.4003 0.122512,-0.1491 0.248437,-0.3006 0.355469,-0.4414 0.05352,-0.07 0.102292,-0.1378 0.146484,-0.209 0.04419,-0.071 0.09358,-0.1254 0.123047,-0.295 0.02946,-0.1697 0.0019,-0.2363 -0.01563,-0.3183 -0.01754,-0.082 -0.03983,-0.1615 -0.06641,-0.2461 -0.05315,-0.1691 -0.122525,-0.3567 -0.1875,-0.5391 -0.06443,-0.181 -0.123539,-0.3567 -0.160156,-0.4843 0.108468,-0.073 0.26503,-0.1678 0.427734,-0.2637 0.165521,-0.098 0.335985,-0.1957 0.484375,-0.291 0.07419,-0.048 0.141159,-0.095 0.207031,-0.1465 0.06587,-0.052 0.131125,-0.086 0.216797,-0.2363 0.08565,-0.1506 0.08261,-0.2216 0.09375,-0.3047 0.01114,-0.083 0.01598,-0.1671 0.01953,-0.2559 0.0071,-0.1774 0.0073,-0.376 0.0078,-0.5703 4.73e-4,-0.1905 0.0014,-0.3752 0.0098,-0.5078 0.12611,-0.031 0.302458,-0.066 0.486328,-0.1 0.188268,-0.034 0.381044,-0.067 0.552735,-0.1055 0.08585,-0.019 0.166406,-0.039 0.246094,-0.064 0.07969,-0.026 0.152221,-0.035 0.285156,-0.1485 0.132928,-0.1131 0.152839,-0.1834 0.191406,-0.2578 0.03857,-0.074 0.07222,-0.1502 0.105469,-0.2324 0.0665,-0.1644 0.133341,-0.3509 0.199219,-0.5332 0.0643,-0.1779 0.12733,-0.3493 0.179687,-0.4707 0.128667,0.015 0.301908,0.044 0.484375,0.076 0.188325,0.033 0.382593,0.068 0.556641,0.092 0.08702,0.012 0.168352,0.022 0.251953,0.025 0.0836,0 0.155794,0.02 0.320313,-0.041 0.164628,-0.061 0.207939,-0.1191 0.269531,-0.1758 0.06159,-0.057 0.116749,-0.1179 0.175781,-0.1836 0.118063,-0.1315 0.243829,-0.2853 0.367188,-0.4336 0.119683,-0.1439 0.236427,-0.2794 0.326171,-0.375 z m 1.441407,1.9415 c -3.572355,0 -6.478498,2.9063 -6.478516,6.4785 -4.2e-5,3.5722 2.906119,6.4765 6.478516,6.4765 3.572396,0 6.478557,-2.9043 6.478515,-6.4765 -1.8e-5,-3.5722 -2.906161,-6.4785 -6.478515,-6.4785 z m 0,0.9433 c 3.061967,0 5.535141,2.4734 5.535156,5.5352 3.6e-5,3.0618 -2.473152,5.5332 -5.535156,5.5332 -3.062005,0 -5.533239,-2.4714 -5.533204,-5.5332 1.6e-5,-3.0618 2.471236,-5.5352 5.533204,-5.5352 z m 0.002,1.6797 c -0.289796,0 -0.405592,0.1483 -0.492188,0.2422 -0.0866,0.094 -0.148189,0.189 -0.210937,0.293 -0.125501,0.2082 -0.243721,0.4528 -0.359375,0.6992 -0.115648,0.2465 -0.228536,0.4933 -0.320313,0.6777 -0.04188,0.084 -0.07568,0.1504 -0.103515,0.1973 -0.05318,0.013 -0.127516,0.028 -0.220703,0.043 -0.203742,0.033 -0.472091,0.064 -0.742188,0.1016 -0.270105,0.037 -0.540952,0.077 -0.777344,0.1348 -0.118197,0.029 -0.226283,0.059 -0.341797,0.1133 -0.115509,0.055 -0.291053,0.1228 -0.378906,0.3984 -0.08785,0.2757 0.01546,0.4337 0.07813,0.5449 0.06266,0.1112 0.133132,0.1993 0.212891,0.291 0.159527,0.1834 0.35758,0.3707 0.55664,0.5567 0.199055,0.1859 0.399471,0.3676 0.546875,0.5117 0.06764,0.066 0.1182,0.1211 0.154297,0.1621 -0.0044,0.054 -0.01278,0.1278 -0.02734,0.2207 -0.03186,0.2035 -0.08458,0.4685 -0.132813,0.7363 -0.04824,0.2679 -0.09329,0.537 -0.111328,0.7793 -0.009,0.1211 -0.01243,0.2328 0.0039,0.3594 0.01636,0.1265 0.0282,0.3138 0.263672,0.4824 0.235514,0.1686 0.415701,0.119 0.541016,0.094 0.125316,-0.025 0.229753,-0.064 0.341797,-0.1114 0.224088,-0.095 0.464456,-0.2239 0.703124,-0.3554 0.238672,-0.1315 0.475337,-0.266 0.658204,-0.3614 0.08361,-0.044 0.151014,-0.076 0.201172,-0.098 0.05042,0.021 0.11734,0.053 0.201171,0.096 0.184049,0.093 0.421824,0.2229 0.66211,0.3515 0.240283,0.1285 0.481782,0.2558 0.707031,0.3477 0.112623,0.046 0.218121,0.084 0.34375,0.1074 0.125621,0.024 0.307628,0.072 0.541016,-0.1 0.233388,-0.1715 0.243018,-0.3596 0.257812,-0.4863 0.01479,-0.1267 0.0085,-0.2384 -0.002,-0.3594 -0.02103,-0.2421 -0.06954,-0.5101 -0.121094,-0.7773 -0.05155,-0.2673 -0.106243,-0.5314 -0.140625,-0.7344 -0.01574,-0.093 -0.02614,-0.1683 -0.03125,-0.2227 0.03561,-0.041 0.08575,-0.096 0.152344,-0.1621 0.145612,-0.146 0.344272,-0.3291 0.541016,-0.5175 0.196745,-0.1884 0.391588,-0.3792 0.548828,-0.5645 0.07862,-0.093 0.149658,-0.1829 0.210937,-0.2949 0.06128,-0.112 0.161578,-0.2703 0.07031,-0.5449 -0.09125,-0.2746 -0.266635,-0.3394 -0.382813,-0.3926 -0.116174,-0.053 -0.225209,-0.082 -0.34375,-0.1094 -0.237086,-0.055 -0.506809,-0.093 -0.777343,-0.127 -0.270531,-0.034 -0.540017,-0.062 -0.744141,-0.092 -0.09318,-0.014 -0.167375,-0.027 -0.220703,-0.039 -0.02843,-0.047 -0.06436,-0.1113 -0.107422,-0.1953 -0.09405,-0.1832 -0.209435,-0.4289 -0.328125,-0.6739 -0.118693,-0.245 -0.239126,-0.4887 -0.367188,-0.6953 -0.06403,-0.1033 -0.127104,-0.1983 -0.214843,-0.291 -0.08773,-0.093 -0.206331,-0.2361 -0.496094,-0.2344 a 0.50050809,0.49959233 0 0 0 -0.002,0 l 0,0 z m 0.0098,1.334 c 0.05743,0.1092 0.10882,0.1962 0.169922,0.3223 0.114288,0.2359 0.22976,0.4825 0.337891,0.6933 0.05407,0.1053 0.10443,0.2025 0.160156,0.291 0.05573,0.089 0.08965,0.1668 0.244141,0.2774 0.154471,0.1106 0.2379,0.1164 0.339844,0.1406 0.101941,0.024 0.210783,0.042 0.328124,0.059 0.234684,0.035 0.505134,0.065 0.765626,0.098 0.139392,0.017 0.239188,0.038 0.361328,0.057 -0.08627,0.088 -0.152713,0.1648 -0.253907,0.2617 -0.189438,0.1814 -0.391193,0.3674 -0.558593,0.5352 -0.0837,0.084 -0.157419,0.1618 -0.22461,0.2421 -0.0672,0.08 -0.131831,0.1357 -0.189453,0.3165 -0.05762,0.1808 -0.03767,0.2628 -0.0293,0.3671 0.0084,0.1043 0.02515,0.2134 0.04492,0.3301 0.03952,0.2335 0.0949,0.4986 0.144531,0.7559 0.02652,0.1375 0.03728,0.2396 0.05664,0.3613 -0.110708,-0.055 -0.204514,-0.096 -0.328125,-0.1621 -0.231366,-0.1237 -0.470049,-0.2562 -0.681641,-0.3633 -0.105796,-0.053 -0.203532,-0.1 -0.300781,-0.1387 -0.09725,-0.039 -0.169313,-0.085 -0.359375,-0.084 -0.190152,0 -0.262601,0.047 -0.359375,0.088 -0.09677,0.04 -0.195651,0.09 -0.300781,0.1446 -0.210259,0.1096 -0.445964,0.2444 -0.675781,0.3711 -0.123337,0.068 -0.217701,0.1099 -0.328125,0.166 0.01787,-0.1222 0.02981,-0.2232 0.05469,-0.3613 0.04645,-0.258 0.09813,-0.5259 0.134766,-0.7598 0.01831,-0.117 0.03392,-0.2238 0.04101,-0.3281 0.0071,-0.1044 0.02665,-0.1871 -0.0332,-0.3672 -0.05985,-0.1801 -0.125175,-0.2351 -0.193359,-0.3145 -0.06818,-0.079 -0.145731,-0.1573 -0.230469,-0.2402 -0.169464,-0.1657 -0.370832,-0.3503 -0.5625,-0.5293 -0.102392,-0.096 -0.170458,-0.1706 -0.257812,-0.2578 0.121782,-0.021 0.220374,-0.042 0.359375,-0.061 0.26007,-0.036 0.531401,-0.07 0.765625,-0.1074 0.117117,-0.019 0.224544,-0.038 0.326171,-0.064 0.101624,-0.025 0.186761,-0.032 0.339844,-0.1446 0.153089,-0.1125 0.183661,-0.19 0.238282,-0.2793 0.05462,-0.089 0.105443,-0.1869 0.158203,-0.2929 0.105516,-0.2121 0.218723,-0.46 0.330078,-0.6973 0.05953,-0.1268 0.109954,-0.2143 0.166015,-0.3242 z m -2.916099,10.8105 c 0.0079,0.01 0.01472,0.014 0.02539,0.025 0.09444,0.1052 0.218183,0.2533 0.34375,0.4043 0.125568,0.151 0.252557,0.3043 0.376953,0.4356 0.0622,0.066 0.12287,0.1261 0.19336,0.1836 0.07049,0.058 0.12911,0.131 0.335937,0.1679 0.206884,0.037 0.286918,-0.011 0.373047,-0.041 0.08613,-0.03 0.163404,-0.065 0.244141,-0.1055 0.161474,-0.08 0.333096,-0.1809 0.501953,-0.2793 0.01152,-0.01 0.01979,-0.011 0.03125,-0.018 l 0,4.457 1,0 0,-4.457 c 0.01145,0.01 0.01976,0.011 0.03125,0.018 0.169035,0.098 0.342336,0.1989 0.503906,0.2793 0.08078,0.04 0.158032,0.076 0.244141,0.1055 0.08611,0.03 0.166182,0.078 0.373047,0.041 0.206304,-0.037 0.263573,-0.1103 0.333984,-0.1679 0.07041,-0.057 0.13118,-0.1179 0.19336,-0.1836 0.124358,-0.1313 0.253342,-0.2846 0.378906,-0.4356 0.125563,-0.151 0.247339,-0.2991 0.341797,-0.4043 0.01058,-0.012 0.01743,-0.017 0.02539,-0.025 l 0,8.7246 -2.617187,-1.6347 a 0.53732898,0.53732898 0 0 0 -0.566406,0 l -2.667969,1.6445 0,-8.7344 z" color="#000" font-family="sans-serif" font-weight="400" overflow="visible" white-space="normal"/></g></svg>