<svg xmlns="http://www.w3.org/2000/svg" xmlns:xlink="http://www.w3.org/1999/xlink" width="42" height="42" viewBox="0 0 42 42"><defs><linearGradient id="b" x1="868.253" x2="937.656" y1="521.354" y2="588.736" gradientTransform="translate(-1161.097 316.47) scale(1.34562)" gradientUnits="userSpaceOnUse" xlink:href="#a"/><linearGradient id="a"><stop offset="0" stop-color="#24f3d2"/><stop offset=".394" stop-color="#0674f0"/><stop offset=".507" stop-color="#6961b5"/><stop offset=".813" stop-color="#f34660"/><stop offset="1" stop-color="#ee078d"/></linearGradient></defs><g transform="translate(0 -1010.362)"><rect width="42" height="42" y="1010.362" fill="url(#b)" rx="8.876" ry="8.876"/><path fill="#fff" fill-rule="evenodd" style="line-height:normal;text-indent:0;text-align:start;text-decoration-line:none;text-decoration-style:solid;text-decoration-color:#000;text-transform:none;block-progression:tb;isolation:auto;mix-blend-mode:normal" d="m 10,1018.3624 0,25 4.6875,0 5.310547,0 0,-1 -5.310547,0 -3.6875,0 0,-23 14,0 0,3.5039 a 0.50005,0.50005 0 0 0 0.5,0.5 l 3.5,0 0,2.4922 0,5.9258 0,1.1562 1,0 0,-1.1562 0,-5.9258 0,-2.961 -0.002,0 a 0.50005,0.50005 0 0 0 -0.144484,-0.3848 l -4,-4 a 0.50005,0.50005 0 0 0 -0.361328,-0.1465 0.50005,0.50005 0 0 0 -0.148438,0.023 l 0,-0.027 -15.34375,0 z m 16,1.7109 2.292969,2.293 -2.292969,0 0,-2.293 z m -13.03125,1.2911 0,1 11.03125,0 0,-1 -11.03125,0 z m 0.08398,3.0019 0,1 13.947266,0 0,-1 -13.947266,0 z m -0.05273,3 0,1 14,0 0,-1 -14,0 z m 0,3 0,1 14,0 0,-1 -14,0 z m 0,3 0,1 14,0 0,-1 -14,0 z m 15.361328,0.4981 a 0.50005,0.50005 0 0 0 -0.5,0.5 l 0,1.539 a 0.50005,0.50005 0 0 0 0,0.01 c 0,0.081 -0.06682,0.2663 -0.242187,0.502 -0.175365,0.2356 -0.436222,0.5094 -0.710938,0.7988 -0.393887,0.4149 -0.845039,0.8584 -1.074219,1.4062 l -0.833984,0 0,-1.5175 a 0.50005,0.50005 0 0 0 -0.5,-0.5 l -3,0 a 0.50005,0.50005 0 0 0 -0.5,0.5 l 0,7.7617 a 0.50005,0.50005 0 0 0 0.5,0.5 l 3,0 a 0.50005,0.50005 0 0 0 0.5,-0.5 l 0,-0.6875 0.677734,0 -0.08008,-0.1543 -0.01758,-0.037 c 0.03238,0.078 0.07183,0.1489 0.115234,0.2148 a 0.50005,0.50005 0 0 0 0.002,0 c 0.04715,0.071 0.09799,0.1334 0.15039,0.1875 a 0.50005,0.50005 0 0 0 0.0059,0.01 c 0.05618,0.056 0.117331,0.1078 0.185546,0.1543 0.0682,0.047 0.14078,0.085 0.214844,0.1172 0.07965,0.034 0.162265,0.062 0.246094,0.078 a 0.50005,0.50005 0 0 0 0.03906,0.01 c 0.02576,0 0.09903,0.02 0.214844,0.02 l 5.042969,0 a 0.50005,0.50005 0 0 0 0.08398,-0.01 l 0.625,0 c 0.682156,0 1.117188,-0.6379 1.117188,-1.2832 0,-0.1941 -0.04947,-0.3811 -0.123047,-0.5567 0.311122,-0.2383 0.519531,-0.6113 0.519531,-1.0273 0,-0.2086 -0.06243,-0.4035 -0.15039,-0.584 0.322496,-0.2349 0.546875,-0.5975 0.546875,-1.0215 0,-0.303 -0.12156,-0.575 -0.300782,-0.7969 0.177913,-0.2204 0.300782,-0.4874 0.300782,-0.789 0,-0.7022 -0.581052,-1.2813 -1.283204,-1.2813 l -2.003906,0 c -0.148369,0 -0.288659,0.029 -0.421875,0.076 -0.06214,-0.2194 -0.154278,-0.4262 -0.257812,-0.6289 l 0,-1.0879 c 0,-1.0792 -0.940437,-1.9219 -2.042969,-1.9219 l -0.04492,0 0,0 z m 0.5,1.1718 c 0.333746,0.1573 0.587891,0.4081 0.587891,0.7539 l 0,1.1621 a 0.50005,0.50005 0 0 0 0.0078,0.092 l 0.0078,0.031 a 0.50005,0.50005 0 0 0 0.05664,0.1562 c 0.363363,0.6363 0.428512,1.5468 0.148438,2.2715 -0.280064,0.7248 -0.80135,1.1016 -1.306641,1.1016 l -0.05078,0 -2.132812,0 a 0.50005,0.50005 0 1 0 0,1 l 2.132812,0 0.05078,0 c 0.513199,0 0.985407,-0.1968 1.378907,-0.5234 0,0 0.002,0 0.002,0 -0.179286,0.2287 -0.294922,0.5148 -0.294922,0.8203 0,0.2852 0.105576,0.5486 0.263672,0.7695 -0.163884,0.2317 -0.263672,0.5195 -0.263672,0.8145 0,0.099 0.02723,0.193 0.04687,0.289 l -2.742188,0 c 0.0056,0 -0.03461,2e-4 -0.06055,-0.01 -0.0159,0 -0.02884,-0.01 -0.04102,-0.014 -0.01828,-0.01 -0.03497,-0.016 -0.04883,-0.025 -0.01384,-0.01 -0.02748,-0.022 -0.04102,-0.035 -0.01341,-0.014 -0.02417,-0.026 -0.03125,-0.037 -0.01137,-0.017 -0.02098,-0.034 -0.02734,-0.049 a 0.50005,0.50005 0 0 0 -0.01758,-0.037 l -0.06055,-0.1171 a 0.50005,0.50005 0 0 0 -0.443359,-0.2696 l -0.982422,0 0,-3.5625 0.775391,0 a 0.50005,0.50005 0 0 0 0.904297,-0.2988 c 0,-0.2884 0.411597,-0.8495 0.953124,-1.4199 0.270766,-0.2852 0.555317,-0.5767 0.789063,-0.8907 0.148493,-0.1996 0.198885,-0.4563 0.279297,-0.6972 a 0.50005,0.50005 0 0 0 0.160156,-0.3613 l 0,-0.039 0,-0.877 z M 13,1036.3663 l 0,1 7.109375,0 0,-1 -7.109375,0 z m 9,1.2363 2,0 0,6.7618 -2,0 0,-6.7618 z m 9.128906,0.8282 2.003906,0 c 0.165981,0 0.283204,0.1164 0.283204,0.2812 0,0.1648 -0.117223,0.2832 -0.283204,0.2832 l -2.003906,0 c -0.165977,0 -0.283203,-0.1184 -0.283203,-0.2832 0,-0.1648 0.117226,-0.2812 0.283203,-0.2812 z m -0.408203,1.5839 2.423828,0 c 0.155128,0 0.271485,0.1141 0.271485,0.2832 0,0.1689 -0.116357,0.2833 -0.271485,0.2833 l -2.423828,0 c -0.155128,0 -0.271484,-0.1144 -0.271484,-0.2833 0,-0.1691 0.116356,-0.2832 0.271484,-0.2832 z m -0.07617,1.6055 2.181641,0 c 0.08206,0 0.193359,0.088 0.193359,0.2832 0,0.1953 -0.111209,0.2813 -0.193359,0.2813 l -2.181641,0 c -0.08215,0 -0.195312,-0.086 -0.195312,-0.2813 0,-0.1952 0.113252,-0.2832 0.195312,-0.2832 z m -7.679687,0.7442 a 0.50061852,0.50002229 0 0 0 -0.464844,0.5 0.50061852,0.50002229 0 0 0 0.5,0.5 0.50061852,0.50002229 0 0 0 0.5,-0.5 0.50061852,0.50002229 0 0 0 -0.5,-0.5 0.50061852,0.50002229 0 0 0 -0.03516,0 z m 7.601562,0.8398 1.939453,0 c 0.0016,0 0.117188,0.061 0.117188,0.2832 0,0.2222 -0.115588,0.2832 -0.117188,0.2832 l -1.939453,0 c -0.0016,0 -0.117187,-0.061 -0.117187,-0.2832 0,-0.2222 0.115587,-0.2832 0.117187,-0.2832 z" color="#000" font-family="sans-serif" font-weight="400" overflow="visible" white-space="normal"/></g></svg>