<svg xmlns="http://www.w3.org/2000/svg" xmlns:xlink="http://www.w3.org/1999/xlink" width="42" height="42" viewBox="0 0 42 42"><defs><linearGradient id="b" x1="949.87" x2="974.39" y1="518.014" y2="544.657" gradientTransform="translate(-1272.559 316.47) scale(1.34562)" gradientUnits="userSpaceOnUse" xlink:href="#a"/><linearGradient id="a"><stop offset="0" stop-color="#24f7bc"/><stop offset="1" stop-color="#24c4fc"/></linearGradient></defs><g transform="translate(0 -1010.362)"><rect width="42" height="42" y="1010.362" fill="url(#b)" rx="8.876" ry="8.876"/><path style="line-height:normal;text-indent:0;text-align:start;text-decoration-line:none;text-decoration-style:solid;text-decoration-color:#000;text-transform:none;block-progression:tb;isolation:auto;mix-blend-mode:normal" fill="#fff" fill-rule="evenodd" d="m 7.5042232,1017.3622 c -0.2761309,0 -0.4999724,0.2239 -0.5,0.5 l 0,18.5 1,0 0,-11 4.9999998,0 0,3.002 -2,0 0,8 1,0 0,-7 6,0 0,1.998 -4,0 0,1 4,0 0,2 1,0 0,-7 -1,0 0,1.002 -4,0 0,-3.002 2,0 0,-1 -7.9999998,0 0,-6 2.9999998,0 0,4 1,0 0,-4 6,0 0,2 -3,0 0,1 3,0 0,3 1,0 0,-3 2,0 0,-1 -2,0 0,-2 6,0 0,2 -1,0 0,1 4,0 0,-1 -2,0 0,-2 8,0 0,4 -3,0 -1,0 0,1 0,1 -4.033203,0 0,1 4.033203,0 0,2.5 0,3.5 -3,0 0,-3 -1,0 0,4 1,0 3,0 1,0 0,-6 0,-2 0,-1 3,0 1,0 0,-1 0,-4.5 c -2.8e-5,-0.2761 -0.223869,-0.5 -0.5,-0.5 l -22.5,0 -1,0 z m 12.4999998,5 0,13 -1,0 -0.5,0 -5.5,0 0,2 -8.0054172,0 0,1 9.0054172,0 0,-2 4.5,0 0.5,0 2,0 0,-13 3,0 0,11 9,0 0,-9 3.996971,0 0,-1 -4.996971,0 0,9 -7,0 0,-11 z m 2,1.9746 0,14.0254 -2,0 0,-1 -1,0 0,1 0,1 0,5 -4,0 0,-2 -1,0 0,2 -5.9999998,0 0,-5 -1,0 0,5.5 c 2.76e-5,0.2761 0.2238691,0.5 0.5,0.5 l 6.4999998,0 1,0 19.5,0 c 0.276131,0 0.499972,-0.2239 0.5,-0.5 l 0,-8.5 0,-1 0,-9 -1,0 0,9 -8,0 0,1 8,0 0,8 -8,0 0,-1.1777 -1,0 0,1.1777 -5,0 0,-5 2,0 0,1 0,1 1,0 0,-1 6,0 0,1 1,0 0,-1 1,0 0,-1 -8,0 0,-1 0,-14.0254 z m -6.962891,13.0254 0,2 -5.039062,0 0,1 1.001953,0 0,2 1,0 0,-2 3.037109,0 0.5,0 0.5,0 0,-3 z" color="#000" font-family="sans-serif" font-weight="400" overflow="visible" white-space="normal"/></g></svg>