<svg xmlns="http://www.w3.org/2000/svg" xmlns:xlink="http://www.w3.org/1999/xlink" width="42" height="42" viewBox="0 0 42 42"><defs><linearGradient id="b" x1="949.87" x2="974.39" y1="518.014" y2="544.657" gradientTransform="translate(-1272.559 316.47) scale(1.34562)" gradientUnits="userSpaceOnUse" xlink:href="#a"/><linearGradient id="a"><stop offset="0" stop-color="#24f7bc"/><stop offset="1" stop-color="#24c4fc"/></linearGradient></defs><g transform="translate(0 -1010.362)"><rect width="42" height="42" y="1010.362" fill="url(#b)" rx="8.876" ry="8.876"/><path style="line-height:normal;text-indent:0;text-align:start;text-decoration-line:none;text-decoration-style:solid;text-decoration-color:#000;text-transform:none;block-progression:tb;isolation:auto;mix-blend-mode:normal" fill="#fff" fill-rule="evenodd" d="m 20.984375,1021.8777 c -2.331361,0 -4.228507,1.9127 -4.228516,4.2539 5e-6,1.3185 0.614588,2.4846 1.556641,3.2657 -1.114742,0.085 -2.136764,0.4911 -2.982422,1.125 -0.32834,-0.08 -0.668878,-0.1368 -1.029297,-0.1368 l -0.0918,0 c 0.485924,-0.538 0.791018,-1.2436 0.791016,-2.0234 5e-6,-1.661 -1.346667,-3.0215 -3,-3.0215 -1.653333,0 -3.0000051,1.3605 -3,3.0215 -2.5e-6,0.8191 0.3311723,1.5611 0.8613281,2.1074 C 7.6663101,1030.8703 6,1032.7996 6,1035.1238 l 0,2.7403 c 2.76e-5,0.2761 0.223869,0.5 0.5,0.5 l 6.511719,0 0,0.4804 c 2.8e-5,0.2761 0.223869,0.5 0.5,0.5 l 2.863281,0 0.263672,0 8.720703,0 0.263672,0 2.865234,0 c 0.276131,0 0.499972,-0.2239 0.5,-0.5 l 0,-0.4804 6.511719,0 c 0.276131,0 0.499972,-0.2239 0.5,-0.5 l 0,-2.7403 c 0,-2.3242 -1.66631,-4.2535 -3.861328,-4.6543 0.530156,-0.5463 0.86133,-1.2883 0.861328,-2.1074 5e-6,-1.661 -1.346667,-3.0215 -3,-3.0215 -1.653333,0 -3.000005,1.3605 -3,3.0215 -2e-6,0.7798 0.305092,1.4854 0.791016,2.0234 l -0.0918,0 c -0.360609,0 -0.701104,0.057 -1.029297,0.1368 -0.852505,-0.639 -1.884547,-1.0442 -3.009766,-1.125 0.941593,-0.7811 1.554683,-1.948 1.554688,-3.2657 -9e-6,-2.3412 -1.899108,-4.2539 -4.230466,-4.2539 z m 0,1 c 1.787423,0 3.230462,1.4496 3.230469,3.2539 -7e-6,1.7779 -1.403103,3.2028 -3.154297,3.2442 l -0.152344,0 c -1.751139,-0.041 -3.152337,-1.4663 -3.152344,-3.2442 7e-6,-1.8043 1.441093,-3.2539 3.228516,-3.2539 z M 12,1026.3406 c 1.107959,0 2.000003,0.8961 2,2.0215 3e-6,1.1255 -0.892041,2.0234 -2,2.0234 -1.107959,0 -2.0000034,-0.8979 -2,-2.0234 -3.4e-6,-1.1254 0.892041,-2.0215 2,-2.0215 z m 18,0 c 1.107959,0 2.000003,0.8961 2,2.0215 3e-6,1.1255 -0.892041,2.0234 -2,2.0234 -1.107959,0 -2.000003,-0.8979 -2,-2.0234 -3e-6,-1.1254 0.892041,-2.0215 2,-2.0215 z m -11.246094,4.0352 1.244141,0 -0.496094,5.9453 c -0.01208,0.1463 0.04077,0.2906 0.144531,0.3945 l 1,1 c 0.195265,0.1952 0.511767,0.1952 0.707032,0 l 1,-1 c 0.103763,-0.1039 0.156614,-0.2482 0.144531,-0.3945 l -0.496094,-5.9453 1.244141,0 c 1.106007,0 2.106624,0.3891 2.910156,1.0195 l 0.002,0 c 0.01732,0.021 0.03626,0.04 0.05664,0.057 0.484566,0.395 0.885632,0.8819 1.1875,1.4317 0.04149,0.078 0.08771,0.1523 0.125,0.2324 0.05079,0.1062 0.09576,0.2157 0.138672,0.3262 0.08279,0.2196 0.156634,0.4435 0.207031,0.6777 0.01197,0.054 0.01918,0.1094 0.0293,0.1641 0.05036,0.2809 0.08594,0.5687 0.08594,0.8652 l 0,1 0,1.7129 0,0.4805 -1.996093,0 0,-2.8946 c 0.0044,-0.2823 -0.225551,-0.5122 -0.507813,-0.5078 -0.27614,0 -0.496501,0.2317 -0.492187,0.5078 l 0,2.8946 -7.984376,0 0,-2.8946 c 0.0035,-0.2817 -0.22622,-0.5106 -0.507864,-0.5062 -0.27614,0 -0.496502,0.2317 -0.492188,0.5078 l 0,2.8945 -1.996093,0 0,-0.4804 0,-1.7129 0,-1 c 0,-0.2966 0.03557,-0.5843 0.08594,-0.8653 0.01011,-0.055 0.01732,-0.1101 0.0293,-0.164 0.0504,-0.2342 0.124242,-0.4582 0.207031,-0.6778 0.04291,-0.1105 0.08788,-0.2199 0.138672,-0.3261 0.03728,-0.08 0.0835,-0.1549 0.125,-0.2325 0.301869,-0.5498 0.70294,-1.0366 1.1875,-1.4316 0.02113,-0.018 0.04073,-0.038 0.05859,-0.059 0.803533,-0.6304 1.804154,-1.0195 2.910156,-1.0195 z M 21,1030.3816 c 5.05e-4,0.01 0.0012,0.015 0.002,0.022 l 0.480422,5.7676 -0.482422,0.4824 -0.482422,-0.4824 0.480469,-5.7676 c 8.29e-4,-0.01 0.0015,-0.015 0.002,-0.022 z m -10.298828,1.0039 3.599609,0 c 0.03161,0 0.06147,0.01 0.0918,0.014 -0.859188,1.0097 -1.380859,2.3189 -1.380859,3.752 l 0,1 0,1.2129 -3.011719,0 0,-2.4942 c 0.0034,-0.2816 -0.2262302,-0.5105 -0.5078155,-0.5061 -0.2753487,0 -0.4953879,0.2304 -0.4921875,0.5058 l 0,2.4942 -2,0 0,-2.2403 c 0,-2.0818 1.6447329,-3.7383 3.701172,-3.7383 z m 16.998047,0 3.599609,0 c 2.056439,0 3.701172,1.6565 3.701172,3.7383 l 0,2.2403 -2,0 0,-2.2442 c 0.0044,-0.2823 -0.225551,-0.5122 -0.507812,-0.5078 -0.27614,0 -0.496502,0.2317 -0.492188,0.5078 l 0,2.2442 -3.011719,0 0,-1.2129 0,-1 c 0,-1.4332 -0.521669,-2.7423 -1.380859,-3.752 0.03033,-0.01 0.0602,-0.014 0.0918,-0.014 z" color="#000" font-family="sans-serif" font-weight="400" overflow="visible" white-space="normal"/></g></svg>