<svg xmlns="http://www.w3.org/2000/svg" xmlns:xlink="http://www.w3.org/1999/xlink" width="42" height="42" viewBox="0 0 42 42"><defs><linearGradient id="b" x1="949.87" x2="974.39" y1="518.014" y2="544.657" gradientTransform="translate(-1272.559 316.47) scale(1.34562)" gradientUnits="userSpaceOnUse" xlink:href="#a"/><linearGradient id="a"><stop offset="0" stop-color="#24f7bc"/><stop offset="1" stop-color="#24c4fc"/></linearGradient></defs><g transform="translate(0 -1010.362)"><rect width="42" height="42" y="1010.362" fill="url(#b)" rx="8.876" ry="8.876"/><path fill="#fff" style="line-height:normal;text-indent:0;text-align:start;text-decoration-line:none;text-decoration-style:solid;text-decoration-color:#000;text-transform:none;block-progression:tb;isolation:auto;mix-blend-mode:normal" d="m 21.000234,1019.3561 c -2.468191,0 -4.478557,2.0222 -4.478516,4.5 2e-5,2.4777 2.010368,4.5 4.478516,4.5 2.468147,0 4.476543,-2.0223 4.476562,-4.5 4.3e-5,-2.4778 -2.008371,-4.5 -4.476562,-4.5 z m 0,1 c 1.924613,0 3.476595,1.5595 3.476562,3.5 -1.5e-5,1.9404 -1.551983,3.5 -3.476562,3.5 -1.924579,0 -3.4785,-1.5596 -3.478516,-3.5 -3.2e-5,-1.9405 1.553902,-3.5 3.478516,-3.5 z m -8.5,2.3261 c -1.962678,0 -3.5605578,1.6148 -3.560547,3.5879 -1.08e-5,1.9732 1.597869,3.5879 3.560547,3.5879 1.962677,0 3.560558,-1.6147 3.560547,-3.5879 1.1e-5,-1.9731 -1.59787,-3.5879 -3.560547,-3.5879 z m 0,1 c 1.41733,0 2.560555,1.1504 2.560547,2.5879 8e-6,1.4376 -1.143217,2.5879 -2.560547,2.5879 -1.417331,0 -2.5605549,-1.1503 -2.560547,-2.5879 -7.9e-6,-1.4375 1.143216,-2.5879 2.560547,-2.5879 z m 18.167969,2.8047 c -1.597583,0.1148 -3.114647,1.0003 -3.972657,2.502 -0.205642,0.3599 -0.345613,0.7383 -0.455078,1.1211 -0.187443,-0.1047 -0.379055,-0.2009 -0.578125,-0.2852 -0.357057,-0.1511 -0.732699,-0.268 -1.121093,-0.3476 -0.389099,-0.08 -0.791615,-0.1211 -1.203125,-0.1211 l -4.677735,0 c -1.303226,0 -2.504055,0.4232 -3.484375,1.1347 -0.285367,-0.055 -0.576253,-0.092 -0.875,-0.092 l -3.601562,0 0,0 c -2.5972163,0 -4.6992191,2.1236 -4.6992191,4.7346 l 0,2.7188 a 0.50004994,0.50004994 0 0 0 0.5,0.5 l 2.3671875,0 a 0.50004994,0.50004994 0 0 0 0.2480469,0 l 3.5859377,0 0,0.5078 a 0.50004994,0.50004994 0 0 0 0.5,0.5 l 3.099609,0 a 0.50004997,0.50004997 0 0 0 0.279297,0 l 8.203125,0 -0.291015,0.5078 -0.736329,1.289 c -0.400413,0.7012 -0.152423,1.6087 0.544922,2.0157 a 0.50004997,0.50004997 0 0 0 0.002,0 c 0.697107,0.4023 1.607268,0.1659 2.007813,-0.5352 l 2.566406,-4.4941 0.01953,0.012 a 0.50005006,0.50005006 0 0 0 0.685547,-0.1836 l 0.833985,-1.4629 c 1.922779,0.2313 3.891828,-0.6846 4.917968,-2.4805 1.372825,-2.4027 0.553201,-5.4916 -1.828125,-6.8808 -0.892993,-0.521 -1.879341,-0.7291 -2.83789,-0.6602 z m 0.06836,0.9961 c 0.766078,-0.054 1.556424,0.1149 2.273438,0.5332 1.912047,1.1154 2.565097,3.5719 1.458984,5.5078 -1.106105,1.9358 -3.539136,2.5959 -5.451172,1.4805 -1.912038,-1.1155 -2.565089,-3.5758 -1.458984,-5.5117 0.691315,-1.2099 1.900938,-1.9194 3.177734,-2.0098 z m -12.076172,2.8731 0.998047,0 -0.367187,5.3339 a 0.50005,0.50005 0 0 0 0.158203,0.3985 l 1.208984,1.1328 a 0.50005,0.50005 0 0 0 0.683594,0 l 1.207031,-1.1328 a 0.50005,0.50005 0 0 0 0.158203,-0.3985 l -0.365234,-5.3339 0.996094,0 c 0.344491,0 0.681053,0.035 1.003906,0.1015 0.323556,0.066 0.633261,0.1636 0.929687,0.2891 0.277383,0.1174 0.538363,0.2639 0.78711,0.4277 -0.07508,1.1786 0.249261,2.3558 0.941406,3.3125 l -0.851562,1.4942 a 0.50005006,0.50005006 0 0 0 0.177734,0.6777 l -0.384766,0.6719 0,-1.4746 a 0.50004997,0.50004997 0 0 0 -0.507812,-0.5059 0.50004997,0.50004997 0 0 0 -0.492188,0.5059 l 0,2.5234 a 0.50004994,0.50004994 0 0 0 -0.144531,-0.02 l -7.855469,0 0,-2.5039 a 0.50004997,0.50004997 0 0 0 -0.507812,-0.5059 0.50004997,0.50004997 0 0 0 -0.492188,0.5059 l 0,2.5039 -2.240234,0 0,-3.0215 c 0,-2.7701 2.204506,-4.9824 4.958984,-4.9824 z m 2,0 0.677735,0 0.355468,5.166 -0.69336,0.6484 -0.693359,-0.6484 0.353515,-5.166 z m -9.960937,1.0449 3.480468,0 c -0.918259,1.0525 -1.478515,2.4279 -1.478515,3.9375 l 0,2.0137 -3.2089846,0 0,-1.8184 a 0.50004994,0.50004994 0 0 0 -0.5058604,-0.5078 0.50004994,0.50004994 0 0 0 -0.4941406,0.5078 l 0,1.8184 -1.4921875,0 0,-2.2188 c 0,-2.0784 1.6427984,-3.7324 3.6992191,-3.7324 z m 17.001953,3.873 c 0,0 0.002,0 0.002,0 0.247563,0.2222 0.520695,0.4221 0.818359,0.5957 0.284083,0.1658 0.577626,0.2987 0.876954,0.4024 l -0.435547,0.7636 -1.701172,-0.9921 0.439453,-0.7715 z m -0.509766,1.8887 0.822266,0.4785 -2.570313,4.5 c -0.132337,0.2317 -0.39971,0.3027 -0.638671,0.166 -0.235252,-0.1386 -0.312177,-0.4223 -0.179689,-0.6543 l 0.736328,-1.289 0.384766,-0.6719 0.451172,-0.791 0.533203,-0.9336 0.460937,-0.8047 z" color="#000" font-family="sans-serif" font-weight="400" overflow="visible" white-space="normal"/></g></svg>