<svg xmlns="http://www.w3.org/2000/svg" xmlns:xlink="http://www.w3.org/1999/xlink" width="42" height="42" viewBox="0 0 42 42"><defs><linearGradient id="b" x1="992.183" x2="1019.298" y1="516.081" y2="545.959" gradientTransform="translate(-1332.367 316.47) scale(1.34562)" gradientUnits="userSpaceOnUse" xlink:href="#a"/><linearGradient id="a"><stop offset="0" stop-color="#ff1679"/><stop offset="1" stop-color="#ff770b"/></linearGradient></defs><g transform="translate(0 -1010.362)"><rect width="42" height="42" y="1010.362" fill="url(#b)" rx="8.876" ry="8.876"/><path fill="#fff" style="line-height:normal;text-indent:0;text-align:start;text-decoration-line:none;text-decoration-style:solid;text-decoration-color:#000;text-transform:none;block-progression:tb;isolation:auto;mix-blend-mode:normal" d="m 27.83608,1016.1962 a 0.50005,0.50005 0 0 0 -0.08203,0.016 l -1.994142,0.5352 a 0.50054486,0.50054486 0 0 0 0.259766,0.9668 l 0.814453,-0.2188 c -3.507065,5.7891 -11.454806,12.7959 -19.4277347,14.377 a 0.50082431,0.50082431 0 1 0 0.1953125,0.9824 c 8.4091902,-1.6677 16.4526682,-8.8081 20.1074222,-14.875 l 0.222656,0.834 a 0.50029085,0.50029085 0 1 0 0.966797,-0.2578 l -0.533203,-1.9903 a 0.50005,0.50005 0 0 0 -0.478516,-0.3691 0.50005,0.50005 0 0 0 -0.05078,0 z m -1.585938,7.082 c -0.276129,0 -0.49997,0.2239 -0.5,0.5 l 0,9.1192 c 0.321672,-0.1364 0.652037,-0.2569 1,-0.3418 l 0,-1.2774 0,-7 2,0 0,6 a 1.0001,1.0001 0 0 1 1,1 l 0,-7.5 c -2.9e-5,-0.2761 -0.22387,-0.5 -0.5,-0.5 l -3,0 z m -6,5.9961 0,0 c -0.27613,0 -0.499969,0.2239 -0.5,0.5 l 0,8.5 a 1.0001,1.0001 0 0 1 0.04492,-0.2949 1.0001,1.0001 0 0 1 0.07813,-0.1836 1.0001,1.0001 0 0 1 0.876953,-0.5215 l 0,-6.9961 2,0 0,5.2344 c 0.279347,-0.4725 0.613372,-0.9069 1,-1.2891 l 0,-4.4433 c -2.9e-5,-0.2761 -0.22387,-0.5 -0.5,-0.5 l -3,-0.01 z m 7.5,2.0039 0,2.0235 c -2.633162,0.2393 -4.736119,2.3432 -4.974609,4.9765 l -2.025391,0 0,1 2.025391,0 c 0.239249,2.6326 2.342023,4.7354 4.974609,4.9746 l 0,2.0254 1,0 0,-2.0254 c 2.632588,-0.2392 4.735362,-2.342 4.97461,-4.9746 l 2.02539,0 0,-1 -2.02539,0 c -0.23849,-2.6333 -2.341446,-4.7372 -4.97461,-4.9765 l 0,-2.0235 -1,0 z m -13.5,2.084 a 0.50004997,0.50004997 0 0 0 -0.5,0.5 l 0,12 a 0.50004997,0.50004997 0 0 0 0.5,0.5 l 3,0 a 0.50004997,0.50004997 0 0 0 0.5,-0.5 l 0,-12 a 0.50004997,0.50004997 0 0 0 -0.5,-0.5 l -3,0 z m 13.5,0.9648 0,1.002 c -1.525234,0.2221 -2.727768,1.4238 -2.949218,2.9492 l -1,0 c 0.23176,-2.0853 1.864008,-3.719 3.949218,-3.9512 z m 1,0 c 2.085211,0.2322 3.71746,1.8659 3.949219,3.9512 l -1,0 c -0.221449,-1.5254 -1.423983,-2.7271 -2.949219,-2.9492 l 0,-1.002 z m -14,0.035 2,0 0,11 -2,0 0,-11 z m -6.4999997,1 a 0.50005,0.50005 0 0 0 -0.5,0.5 l 0,10 a 0.50005,0.50005 0 0 0 0.5,0.5 l 2.9999997,0 a 0.50005,0.50005 0 0 0 0.5,-0.5 l 0,-10 a 0.50005,0.50005 0 0 0 -0.5,-0.5 l -2.9999997,0 z m 19.4941407,0.9648 c 0.0019,-3e-4 0.004,4e-4 0.0059,0 l 0,1.043 c -0.421779,0.1519 -0.754385,0.4864 -0.90625,0.9082 l -1.042968,0 c 0.197117,-0.9815 0.962596,-1.7519 1.943359,-1.9512 z m 1.005859,0 c 0.983453,0.1975 1.751727,0.9678 1.949219,1.9512 l -1.042969,0 c -0.151864,-0.4218 -0.48447,-0.7563 -0.90625,-0.9082 l 0,-1.043 z m -19.9999997,0.035 1.9999997,0 0,9 -1.9999997,0 0,-9 z m 10.9999997,2.916 0,6.4961 c 3.1e-5,0.2761 0.22387,0.5 0.5,0.5 l 3,-0.01 c 0.27613,0 0.499971,-0.2239 0.5,-0.5 l 0,-2.4434 c -0.386641,-0.3826 -0.720748,-0.8161 -1,-1.289 l 0,3.2344 -2,0 0,-4.9922 a 1.0001,1.0001 0 0 1 -1,-0.9961 z m 4.050782,0 1,0 c 0.221978,1.5249 1.424371,2.7273 2.949218,2.9492 l 0,1 c -2.084815,-0.2322 -3.71702,-1.8644 -3.949218,-3.9492 z m 2,0 1.042968,0 c 0.152165,0.421 0.485053,0.7546 0.90625,0.9063 l 0,1.0429 c -0.98283,-0.1973 -1.751129,-0.9666 -1.949218,-1.9492 z m 3.855468,0 1.042969,0 c -0.198088,0.9826 -0.966388,1.7519 -1.949219,1.9492 l 0,-1.0429 c 0.421198,-0.1517 0.754086,-0.4853 0.90625,-0.9063 z m 2.042969,0 1,0 c -0.232197,2.0848 -1.864402,3.717 -3.949219,3.9492 l 0,-1 c 1.524849,-0.2219 2.727242,-1.4243 2.949219,-2.9492 z m -5.949219,5.377 0,0 0,1.1172 c 3e-5,0.2761 0.223871,0.5 0.5,0.5 l 0.5,0 0,-1.0059 0,-0.2715 c -0.347782,-0.085 -0.678512,-0.2054 -1,-0.3418 z" color="#000" font-family="sans-serif" font-weight="400" overflow="visible" white-space="normal"/></g></svg>