<svg xmlns="http://www.w3.org/2000/svg" xmlns:xlink="http://www.w3.org/1999/xlink" width="42" height="42" viewBox="0 0 42 42"><defs><linearGradient id="b" x1="992.183" x2="1019.298" y1="516.081" y2="545.959" gradientTransform="translate(-1332.367 316.47) scale(1.34562)" gradientUnits="userSpaceOnUse" xlink:href="#a"/><linearGradient id="a"><stop offset="0" stop-color="#ff1679"/><stop offset="1" stop-color="#ff770b"/></linearGradient></defs><g transform="translate(0 -1010.362)"><rect width="42" height="42" y="1010.362" fill="url(#b)" rx="8.876" ry="8.876"/><path style="line-height:normal;text-indent:0;text-align:start;text-decoration-line:none;text-decoration-style:solid;text-decoration-color:#000;text-transform:none;block-progression:tb;isolation:auto;mix-blend-mode:normal" fill="#fff" fill-rule="evenodd" d="m 22.421875,1019.3611 c -0.276131,0 -0.499972,0.2239 -0.5,0.5 l 0,3.377 0,0.01 c 0,0.389 -0.22871,0.8922 -0.644531,1.4551 -0.415821,0.5629 -0.996746,1.1713 -1.591797,1.8027 -0.951423,1.0096 -1.973541,2.0679 -2.349609,3.2715 l -2.812501,0 0,-3.916 c -2.7e-5,-0.2761 -0.223869,-0.5 -0.5,-0.5 l -6.523437,0 c -0.276131,0 -0.499972,0.2239 -0.5,0.5 l 0,17.002 c 2.8e-5,0.2761 0.223869,0.4999 0.5,0.5 l 6.523437,0 c 0.276131,-10e-5 0.499973,-0.2239 0.5,-0.5 l 0,-2.1621 c 0.07971,0.043 0.169476,0.063 0.259766,0.059 l 2.158203,0 -0.0078,-0.018 -0.01758,-0.039 c 0.05515,0.1339 0.121559,0.2592 0.197265,0.375 l 0.002,0 c 0.07964,0.1212 0.168862,0.2295 0.261719,0.3262 l 0.0039,0.01 c 0.09662,0.098 0.20442,0.189 0.322266,0.2695 0.117562,0.081 0.239613,0.1462 0.365234,0.2012 0.134094,0.059 0.274701,0.104 0.417969,0.1328 0.01286,0 0.02589,0.01 0.03906,0.012 0.08394,0.01 0.219144,0.039 0.398437,0.039 l 10.966797,0 c 0.02947,0 0.05888,0 0.08789,-0.01 l 1.455078,0 c 0.543128,0 1.022828,-0.2859 1.341797,-0.6934 0.318968,-0.4075 0.5,-0.9417 0.5,-1.5215 0,-0.5307 -0.157528,-1.0181 -0.427735,-1.4102 0.764821,-0.3252 1.289063,-1.1422 1.289063,-2.0606 0,-0.5524 -0.193083,-1.0667 -0.509766,-1.4629 0.803661,-0.3285 1.373,-1.1276 1.373,-2.0527 0,-0.7064 -0.335512,-1.3351 -0.849609,-1.7421 C 34.663175,1030.7102 35,1030.0891 35,1029.3865 c 0,-1.2164 -0.989218,-2.2129 -2.203125,-2.2129 l -4.357422,0 c -0.494048,0 -0.946381,0.1695 -1.314453,0.4473 -0.13381,-0.7655 -0.387614,-1.4999 -0.751953,-2.1699 l 0,-2.4727 c 0,-2.015 -1.74845,-3.6152 -3.857422,-3.6152 l -0.09375,0 z m 0.5,1.1563 c 1.376436,0.2038 2.451172,1.168 2.451172,2.4609 l 0,2.5449 c -2.26e-4,0.031 0.0024,0.062 0.0078,0.092 l 0.01367,0.07 c 0.01024,0.054 0.02938,0.1064 0.05664,0.1543 0.889381,1.5689 1.03574,3.7233 0.359375,5.4864 -0.676337,1.7631 -2.002538,2.7929 -3.386719,2.7929 l -0.109375,0 -4.636719,0 c -0.676158,-0.01 -0.676158,1.0096 0,1 l 4.636719,0 0.109375,0 c 1.175152,0 2.262481,-0.542 3.105469,-1.4512 0.141997,0.3643 0.377947,0.675 0.675781,0.9161 -0.508117,0.4089 -0.832031,1.07 -0.832031,1.791 0,0.6729 0.285906,1.2867 0.736328,1.6992 -0.08592,0.077 -0.167338,0.1594 -0.238281,0.25 -0.318969,0.4075 -0.498047,0.9417 -0.498047,1.5215 0,0.448 0.109019,0.8666 0.304687,1.2226 l -6.753906,0 c -0.0486,0 -0.138808,-0.017 -0.255859,-0.031 -0.06925,-0.015 -0.135521,-0.035 -0.197266,-0.061 -0.07437,-0.033 -0.140986,-0.07 -0.201172,-0.1113 l -0.002,0 c -0.05874,-0.04 -0.116386,-0.089 -0.169922,-0.1426 -0.05838,-0.061 -0.105955,-0.1182 -0.146484,-0.1797 -0.04419,-0.068 -0.08202,-0.1358 -0.111328,-0.207 -0.0053,-0.013 -0.01121,-0.025 -0.01758,-0.037 l -0.13086,-0.2559 c -0.08576,-0.1668 -0.257699,-0.2716 -0.445312,-0.2714 l -2.462891,0 c -0.01692,-9e-4 -0.03386,-9e-4 -0.05078,0 l 0,-0.012 c -0.07296,0 -0.144288,0.023 -0.208984,0.057 l 0,-9.0391 2.658203,0 c 0.07922,0.6229 1.000258,0.5615 0.996093,-0.066 0,-0.9983 1.054095,-2.2651 2.236328,-3.5195 0.591117,-0.6272 1.194164,-1.2532 1.667969,-1.8946 0.363987,-0.4927 0.525019,-1.0296 0.644531,-1.5742 0.19859,-0.4636 0.102485,-0.2465 0.164063,-0.3867 l 0.03125,-0.088 z M 8,1026.3611 l 5.523437,0 0,16.002 -5.523437,0 z m 20.439453,1.8125 4.357422,0 c 0.673873,0 1.203125,0.5299 1.203125,1.2129 0,0.683 -0.529217,1.2148 -1.203125,1.2148 l -4.357422,0 c -0.673908,0 -1.203125,-0.5318 -1.203125,-1.2148 0,-0.683 0.529252,-1.2129 1.203125,-1.2129 z m -0.888672,3.4707 5.271485,0 c 0.655026,0 1.177734,0.5278 1.177734,1.2149 0,0.6871 -0.522672,1.2148 -1.177734,1.2148 l -5.271485,0 c -0.655062,0 -1.177734,-0.5277 -1.177734,-1.2148 0,-0.6871 0.522708,-1.2149 1.177734,-1.2149 z m -0.167969,3.5156 4.744141,0 c 0.531626,0 1.009766,0.5015 1.009766,1.2149 0,0.7134 -0.478101,1.2148 -1.009766,1.2148 l -4.744141,0 c -0.531663,0 -1.009765,-0.5014 -1.009765,-1.2148 0,-0.7134 0.478141,-1.2149 1.009765,-1.2149 z m -16.621093,2.2246 c -0.601096,4e-4 -1.088108,0.491 -1.087891,1.0957 -2.17e-4,0.6048 0.486795,1.0953 1.087891,1.0958 0.601096,-5e-4 1.088108,-0.491 1.08789,-1.0958 2.18e-4,-0.6047 -0.486794,-1.0953 -1.08789,-1.0957 z m 16.453125,1.2481 4.21875,0 c 0.200303,0 0.388548,0.096 0.554687,0.3086 0.16614,0.2122 0.28711,0.5345 0.28711,0.9043 0,0.3698 -0.12097,0.6939 -0.28711,0.9062 -0.16614,0.2125 -0.354384,0.3086 -0.554687,0.3086 l -4.21875,0 c -0.200303,0 -0.388548,-0.096 -0.554688,-0.3086 -0.16614,-0.2123 -0.287109,-0.5364 -0.287109,-0.9062 0,-0.3698 0.12097,-0.6921 0.287109,-0.9043 0.16614,-0.2126 0.354385,-0.3086 0.554688,-0.3086 z" color="#000" font-family="sans-serif" font-weight="400" overflow="visible" white-space="normal"/></g></svg>