<svg xmlns="http://www.w3.org/2000/svg" xmlns:xlink="http://www.w3.org/1999/xlink" width="42" height="42" viewBox="0 0 42 42"><defs><linearGradient id="b" x1="906.952" x2="931.379" y1="515.915" y2="546.094" gradientTransform="translate(-1215.129 316.47) scale(1.34562)" gradientUnits="userSpaceOnUse" xlink:href="#a"/><linearGradient id="a"><stop offset="0" stop-color="#ffd800"/><stop offset="1" stop-color="#ff6100"/></linearGradient></defs><g transform="translate(0 -1010.362)"><rect width="42" height="42" y="1010.362" fill="url(#b)" rx="8.876" ry="8.876"/><path style="line-height:normal;text-indent:0;text-align:start;text-decoration-line:none;text-decoration-style:solid;text-decoration-color:#000;text-transform:none;block-progression:tb;isolation:auto;mix-blend-mode:normal" fill="#fff" fill-rule="evenodd" d="m 13.5,1016.3622 a 0.50005,0.50005 0 0 0 -0.5,0.5 l 0,10.541 -3.4589844,0 C 8.6973301,1027.4032 8,1028.0948 8,1028.9384 l 0,13.4238 -1.5,0 a 0.50005006,0.50005006 0 0 0 -0.5,0.5 c 0,1.9255 1.5393206,3.5 3.4433594,3.5 l 23.1132816,0 c 1.904039,0 3.443359,-1.5745 3.443359,-3.5 a 0.50005006,0.50005006 0 0 0 -0.5,-0.5 l -1.5,0 0,-13.4238 c 0,-0.8436 -0.697298,-1.5352 -1.541016,-1.5352 l -3.46289,0 0,-4.332 0,-2.0586 a 0.50005,0.50005 0 0 0 -0.0059,-0.076 0.50005006,0.50005006 0 0 0 -0.136718,-0.4257 l -3.992188,-4 A 0.50005006,0.50005006 0 0 0 24.5,1016.3622 a 0.50005006,0.50005006 0 0 0 -0.03125,0 0.50005,0.50005 0 0 0 -0.04492,0 l -10.923828,0 z m 0.5,1 10.005859,0 0,3.5 a 0.50005006,0.50005006 0 0 0 0.5,0.5 l 3.490235,0 0,1.709 0,8.2402 0,5.0508 -7.998047,0 -4.751953,0 -1.246094,0 0,-19 z m 11.005859,0.709 2.289063,2.291 -2.289063,0 0,-2.291 z m -9.548828,0.291 a 0.50064426,0.50064426 0 0 0 0.05078,1 l 1,0 a 0.50005,0.50005 0 1 0 0,-1 l -1,0 a 0.50005,0.50005 0 0 0 -0.05078,0 z m 3.001953,0 a 0.50064429,0.50064429 0 0 0 0.05078,1 l 3.982422,0 a 0.50005,0.50005 0 1 0 0,-1 l -3.982422,0 a 0.50005,0.50005 0 0 0 -0.05078,0 z m -3.001953,2 a 0.50064426,0.50064426 0 0 0 0.05078,1 l 1,0 a 0.50005,0.50005 0 1 0 0,-1 l -1,0 a 0.50005,0.50005 0 0 0 -0.05078,0 z m 3.001953,0 a 0.50064429,0.50064429 0 0 0 0.05078,1 l 3.982422,0 a 0.50005,0.50005 0 1 0 0,-1 l -3.982422,0 a 0.50005,0.50005 0 0 0 -0.05078,0 z m 1.035157,3.002 c -1.924638,0 -3.494167,1.5735 -3.494141,3.5 a 0.50005,0.50005 0 0 0 0.5,0.5 l 2.994141,0 a 0.50005,0.50005 0 0 0 0.5,-0.5 l 0,-3 a 0.50005,0.50005 0 0 0 -0.5,-0.5 z m 1.796875,0.5996 a 0.50005,0.50005 0 0 0 -0.5,0.5 l 0,3.6992 -3.691407,0 a 0.50005,0.50005 0 0 0 -0.5,0.5 c -1.9e-5,1.899 1.144157,3.6148 2.896485,4.3418 1.752324,0.727 3.772387,0.3256 5.113281,-1.0176 1.340907,-1.3431 1.743134,-3.3665 1.017578,-5.1211 -0.725571,-1.7545 -2.439111,-2.9023 -4.335937,-2.9023 z m -2.296875,0.6074 0,1.793 -1.789063,0 c 0.212932,-0.9274 0.864208,-1.5789 1.789063,-1.793 z m 2.796875,0.5449 c 1.27206,0.1872 2.409602,0.9157 2.912109,2.1309 0.572276,1.3839 0.256398,2.9742 -0.800781,4.0332 -1.057169,1.059 -2.642486,1.3737 -4.023438,0.8008 -1.213146,-0.5034 -1.942432,-1.6423 -2.128906,-2.918 l 3.541016,0 a 0.50005,0.50005 0 0 0 0.5,-0.5 l 0,-3.5469 z m -12.2500004,3.2871 3.4589844,0 0,0.959 -2.5,0 a 0.50004997,0.50004997 0 0 0 -0.5,0.5 l 0,11 a 0.50004997,0.50004997 0 0 0 0.5,0.5 l 5.25,0 10.814453,0 3.009766,0 1.925781,0 a 0.50004997,0.50004997 0 0 0 0.5,-0.5 l 0,-11 a 0.50004997,0.50004997 0 0 0 -0.5,-0.5 l -2.503906,0 0,-0.959 3.46289,0 c 0.310471,0 0.541016,0.2316 0.541016,0.5352 l 0,13.4238 -24,0 0,-13.4238 c 0,-0.3036 0.2306311,-0.5352 0.5410156,-0.5352 z M 11,1030.3622 l 2,0 0,6.5 a 0.50005,0.50005 0 0 0 0.5,0.5 l 1.746094,0 4.751953,0 8.498047,0 a 0.50005,0.50005 0 0 0 0.5,-0.5 l 0,-5.5508 0,-0.9492 2.003906,0 0,10 -1.425781,0 -3.009766,0 -10.814453,0 -4.75,0 0,-10 z m 6.449219,4.002 a 0.50064426,0.50064426 0 1 0 0.05078,1 l 7,0 a 0.50005,0.50005 0 1 0 0,-1 l -7,0 a 0.50005,0.50005 0 0 0 -0.05078,0 z m -10.2480471,8.998 10.6347661,0 0,0.2793 c 0,0.6938 0.565385,1.2793 1.261718,1.2793 l 3.804688,0 c 0.696333,0 1.261719,-0.5855 1.261718,-1.2793 l 0,-0.2793 10.634766,0 c -0.248985,1.1161 -1.076268,2 -2.242187,2 l -23.1132816,0 c -1.1659196,0 -1.9932021,-0.8839 -2.2421875,-2 z m 11.6347661,0 4.328124,0 0,0.2793 c 0,0.1698 -0.11493,0.2793 -0.261718,0.2793 l -3.804688,0 c -0.146788,0 -0.26172,-0.1094 -0.261718,-0.2793 l 0,-0.2793 z" color="#000" font-family="sans-serif" font-weight="400" overflow="visible" white-space="normal"/></g></svg>