<svg xmlns="http://www.w3.org/2000/svg" xmlns:xlink="http://www.w3.org/1999/xlink" width="42" height="42" viewBox="0 0 42 42"><defs><linearGradient id="b" x1="1056.035" x2="1031.176" y1="544.13" y2="517.701" gradientTransform="translate(-1384.02 316.47) scale(1.34562)" gradientUnits="userSpaceOnUse" xlink:href="#a"/><linearGradient id="a"><stop offset="0" stop-color="#5a5a5a"/><stop offset="1" stop-color="#656e85"/></linearGradient></defs><g transform="translate(0 -1010.362)"><rect width="42" height="42" y="1010.362" fill="url(#b)" rx="8.876" ry="8.876"/><path style="line-height:normal;text-indent:0;text-align:start;text-decoration-line:none;text-decoration-style:solid;text-decoration-color:#000;text-transform:none;block-progression:tb;isolation:auto;mix-blend-mode:normal" fill="#fff" d="m 21,1016.3663 c -1.058906,0 -2,0.756 -2,1.7793 0,0.076 0.01692,0.1471 0.02734,0.2207 l -1.527344,0 a 0.50004997,0.50004997 0 0 0 -0.5,0.5 l 0,0.5059 a 0.50005,0.50005 0 0 0 -0.07813,-0.01 l -0.136719,0 -4.285156,0 -2,0 a 0.50005,0.50005 0 0 0 -0.5,0.5 l 0,26 a 0.50005,0.50005 0 0 0 0.5,0.5 l 21,0 a 0.50005,0.50005 0 0 0 0.5,-0.5 l 0,-26 a 0.50005,0.50005 0 0 0 -0.5,-0.5 l -1.964844,0 -4.335937,0 -0.199219,0 0,-0.5 a 0.50004997,0.50004997 0 0 0 -0.5,-0.5 l -1.527344,0 c 0.01043,-0.074 0.02734,-0.145 0.02734,-0.2207 0,-1.0233 -0.941101,-1.7793 -2,-1.7793 z m 0,1 c 0.597941,0 1,0.3897 1,0.7793 0,0.097 -0.02274,0.1892 -0.06641,0.2773 -0.02149,0.043 -0.04853,0.087 -0.08203,0.1289 a 0.50005,0.50005 0 0 0 0.464846,0.8145 l 1.683594,0 0,1 -6,0 0,-1 1.681641,0 a 0.50005,0.50005 0 0 0 0.466797,-0.8145 c -0.03284,-0.041 -0.0601,-0.085 -0.08203,-0.1289 -0.04364,-0.088 -0.06641,-0.1799 -0.06641,-0.2773 0,-0.3896 0.402046,-0.7793 1,-0.7793 z m -4,2.9941 0,0.5059 a 0.50004997,0.50004997 0 0 0 0.5,0.5 l 7,0 a 0.50004997,0.50004997 0 0 0 0.5,-0.5 l 0,-0.5 0.25,0 3.75,0 0,19 -3.5,0 a 0.50005,0.50005 0 0 0 -0.5,0.5 l 0,3.5 -12,0 0,-23 3.75,0 0.171875,0 A 0.50005,0.50005 0 0 0 17,1020.3604 Z m -6,0.01 1,0 0,23.5 a 0.50005,0.50005 0 0 0 0.5,0.5 l 12.873047,0 a 0.50005,0.50005 0 0 0 0.06055,0 0.50005,0.50005 0 0 0 0.419922,-0.1406 l 4,-4.002 a 0.50005,0.50005 0 0 0 0.144528,-0.3887 0.50005,0.50005 0 0 0 0.002,-0.053 l 0,-19.4121 1,0 0,25 -20,0 0,-25 z m 6.357422,3.002 a 0.50005,0.50005 0 0 0 -0.339844,0.1582 l -1.554687,1.6191 -0.595703,-0.6211 a 0.5007586,0.5007586 0 1 0 -0.722657,0.6934 l 0.957031,0.9961 a 0.50005,0.50005 0 0 0 0.722657,0 l 1.914062,-1.9942 a 0.50005,0.50005 0 0 0 -0.380859,-0.8515 z m 2.083984,0.998 a 0.50064429,0.50064429 0 0 0 0.05078,1 l 8,0 a 0.50005,0.50005 0 1 0 0,-1 l -8,0 a 0.50005,0.50005 0 0 0 -0.05078,0 z m -2.083984,4.002 a 0.50005,0.50005 0 0 0 -0.339844,0.1582 l -1.554687,1.6191 -0.595703,-0.6211 a 0.5007586,0.5007586 0 1 0 -0.722657,0.6934 l 0.957031,0.9961 a 0.50005,0.50005 0 0 0 0.722657,0 l 1.914062,-1.9942 a 0.50005,0.50005 0 0 0 -0.380859,-0.8515 z m 2.083984,0.998 a 0.50064429,0.50064429 0 0 0 0.05078,1 l 8,0 a 0.50005,0.50005 0 1 0 0,-1 l -8,0 a 0.50005,0.50005 0 0 0 -0.05078,0 z m -3.941406,4 c -0.822354,0 -1.5,0.6777 -1.5,1.5 0,0.8224 0.677646,1.5 1.5,1.5 0.822354,0 1.5,-0.6776 1.5,-1.5 0,-0.8223 -0.677646,-1.5 -1.5,-1.5 z m 0,1 c 0.285656,0 0.5,0.2144 0.5,0.5 0,0.2857 -0.214344,0.5 -0.5,0.5 -0.285656,0 -0.5,-0.2143 -0.5,-0.5 0,-0.2856 0.214344,-0.5 0.5,-0.5 z m 3.941406,0 a 0.50064429,0.50064429 0 0 0 0.05078,1 l 8,0 a 0.50005,0.50005 0 1 0 0,-1 l -8,0 a 0.50005,0.50005 0 0 0 -0.05078,0 z m -3.941406,4 c -0.822354,0 -1.5,0.6777 -1.5,1.5 0,0.8224 0.677646,1.5 1.5,1.5 0.822354,0 1.5,-0.6776 1.5,-1.5 0,-0.8223 -0.677646,-1.5 -1.5,-1.5 z m 0,1 c 0.285656,0 0.5,0.2144 0.5,0.5 0,0.2857 -0.214344,0.5 -0.5,0.5 -0.285656,0 -0.5,-0.2143 -0.5,-0.5 0,-0.2856 0.214344,-0.5 0.5,-0.5 z m 3.949219,0 a 0.50064426,0.50064426 0 1 0 0.05078,1 l 4,0 a 0.50004997,0.50004997 0 1 0 0,-1 l -4,0 a 0.50004997,0.50004997 0 0 0 -0.05078,0 z m 6.550781,1 2.292969,0 -2.292969,2.293 0,-2.293 z" color="#000" font-family="sans-serif" font-weight="400" overflow="visible" white-space="normal"/></g></svg>