<svg xmlns="http://www.w3.org/2000/svg" xmlns:xlink="http://www.w3.org/1999/xlink" width="42" height="42" viewBox="0 0 42 42"><defs><linearGradient id="b" x1="906.952" x2="931.379" y1="515.915" y2="546.094" gradientTransform="translate(-1215.129 316.47) scale(1.34562)" gradientUnits="userSpaceOnUse" xlink:href="#a"/><linearGradient id="a"><stop offset="0" stop-color="#ffd800"/><stop offset="1" stop-color="#ff6100"/></linearGradient></defs><g transform="translate(0 -1010.362)"><rect width="42" height="42" y="1010.362" fill="url(#b)" rx="8.876" ry="8.876"/><path style="line-height:normal;text-indent:0;text-align:start;text-decoration-line:none;text-decoration-style:solid;text-decoration-color:#000;text-transform:none;block-progression:tb;isolation:auto;mix-blend-mode:normal" fill="#fff" d="m 21.000009,1016.3622 c -1.058906,0 -2,0.756 -2,1.7793 0,0.076 0.01692,0.1471 0.02734,0.2207 l -1.527344,0 a 0.50004997,0.50004997 0 0 0 -0.5,0.5 l 0,0.5059 a 0.50005,0.50005 0 0 0 -0.07813,-0.01 l -6.421875,0 a 0.50005,0.50005 0 0 0 -0.5,0.5 l 0,26 a 0.50005,0.50005 0 0 0 0.5,0.5 l 21,0 a 0.50005,0.50005 0 0 0 0.5,-0.5 l 0,-26 a 0.50005,0.50005 0 0 0 -0.5,-0.5 l -6.5,0 0,-0.5 a 0.50004997,0.50004997 0 0 0 -0.5,-0.5 l -1.527344,0 c 0.01043,-0.074 0.02734,-0.145 0.02734,-0.2207 0,-1.0233 -0.941101,-1.7793 -2,-1.7793 z m 0,1 c 0.597941,0 1,0.3897 1,0.7793 0,0.097 -0.02274,0.1892 -0.06641,0.2773 -0.02149,0.043 -0.04853,0.087 -0.08203,0.1289 a 0.50005,0.50005 0 0 0 0.464846,0.8145 l 1.683594,0 0,1 -6,0 0,-1 1.681641,0 a 0.50005,0.50005 0 0 0 0.466797,-0.8145 c -0.03284,-0.041 -0.0601,-0.085 -0.08203,-0.1289 -0.04364,-0.088 -0.06641,-0.1799 -0.06641,-0.2773 0,-0.3896 0.402046,-0.7793 1,-0.7793 z m -4,2.9941 0,0.5059 a 0.50004997,0.50004997 0 0 0 0.5,0.5 l 7,0 a 0.50004997,0.50004997 0 0 0 0.5,-0.5 l 0,-0.5 4,0 0,18 -3.5,0 a 0.50005,0.50005 0 0 0 -0.5,0.5 l 0,3.5 -12,0 0,-22 3.921875,0 a 0.50005,0.50005 0 0 0 0.07813,-0.01 z m -6,0.01 1,0 0,22.5 a 0.50005,0.50005 0 0 0 0.5,0.5 l 12.873047,0 a 0.50005,0.50005 0 0 0 0.06055,0 0.50005,0.50005 0 0 0 0.419922,-0.1406 l 4,-4.002 a 0.50005,0.50005 0 0 0 0.144528,-0.3887 0.50005,0.50005 0 0 0 0.002,-0.053 l 0,-18.4121 1,0 0,25 -20,0 0,-25 z m 3.5,2 a 0.50005,0.50005 0 0 0 -0.5,0.5 l 0,3 a 0.50005,0.50005 0 0 0 0.5,0.5 l 3,0 a 0.50005,0.50005 0 0 0 0.5,-0.5 l 0,-3 a 0.50005,0.50005 0 0 0 -0.5,-0.5 l -3,0 z m 4.716797,0 a 0.50064426,0.50064426 0 0 0 0.05078,1 l 4.451172,0 a 0.50004997,0.50004997 0 1 0 0,-1 l -4.451172,0 a 0.50004997,0.50004997 0 0 0 -0.05078,0 z m -4.216797,1 2,0 0,2 -2,0 0,-2 z m 4.441406,1 a 0.50064429,0.50064429 0 0 0 0.05078,1 l 8,0 a 0.50005,0.50005 0 1 0 0,-1 l -8,0 a 0.50005,0.50005 0 0 0 -0.05078,0 z m -4.941406,4 a 0.50005,0.50005 0 0 0 -0.5,0.5 l 0,3 a 0.50005,0.50005 0 0 0 0.5,0.5 l 3,0 a 0.50005,0.50005 0 0 0 0.5,-0.5 l 0,-3 a 0.50005,0.50005 0 0 0 -0.5,-0.5 l -3,0 z m 4.716797,0 a 0.50064426,0.50064426 0 0 0 0.05078,1 l 4.451172,0 a 0.50004997,0.50004997 0 1 0 0,-1 l -4.451172,0 a 0.50004997,0.50004997 0 0 0 -0.05078,0 z m -4.216797,1 2,0 0,2 -2,0 0,-2 z m 4.441406,1 a 0.50064429,0.50064429 0 0 0 0.05078,1 l 8,0 a 0.50005,0.50005 0 1 0 0,-1 l -8,0 a 0.50005,0.50005 0 0 0 -0.05078,0 z m -4.941406,4 a 0.50005,0.50005 0 0 0 -0.5,0.5 l 0,3 a 0.50005,0.50005 0 0 0 0.5,0.5 l 3,0 a 0.50005,0.50005 0 0 0 0.5,-0.5 l 0,-3 a 0.50005,0.50005 0 0 0 -0.5,-0.5 l -3,0 z m 4.716797,0 a 0.50064426,0.50064426 0 0 0 0.05078,1 l 4.451172,0 a 0.50004997,0.50004997 0 1 0 0,-1 l -4.451172,0 a 0.50004997,0.50004997 0 0 0 -0.05078,0 z m -4.216797,1 2,0 0,2 -2,0 0,-2 z m 4.441406,1 a 0.50064429,0.50064429 0 0 0 0.05078,1 l 8,0 a 0.50005,0.50005 0 1 0 0,-1 l -8,0 a 0.50005,0.50005 0 0 0 -0.05078,0 z m 0,2 c -0.666666,0.034 -0.615882,1.0339 0.05078,1 l 4.507814,0 0,-1 -4.507812,0 c -0.01692,-9e-4 -0.03387,-9e-4 -0.05078,0 z m 6.558594,1 2.292969,0 -2.292969,2.293 0,-2.293 z" color="#000" font-family="sans-serif" font-weight="400" overflow="visible" white-space="normal"/></g></svg>