<svg xmlns="http://www.w3.org/2000/svg" xmlns:xlink="http://www.w3.org/1999/xlink" width="42" height="42" viewBox="0 0 42 42"><defs><linearGradient id="b" x1="868.253" x2="937.656" y1="521.354" y2="588.736" gradientTransform="translate(-1161.097 316.47) scale(1.34562)" gradientUnits="userSpaceOnUse" xlink:href="#a"/><linearGradient id="a"><stop offset="0" stop-color="#24f3d2"/><stop offset=".394" stop-color="#0674f0"/><stop offset=".507" stop-color="#6961b5"/><stop offset=".813" stop-color="#f34660"/><stop offset="1" stop-color="#ee078d"/></linearGradient></defs><g transform="translate(0 -1010.362)"><rect width="42" height="42" y="1010.362" fill="url(#b)" rx="8.876" ry="8.876"/><path style="line-height:normal;text-indent:0;text-align:start;text-decoration-line:none;text-decoration-style:solid;text-decoration-color:#000;text-transform:none;block-progression:tb;isolation:auto;mix-blend-mode:normal" fill="#fff" fill-rule="evenodd" d="m 34.484377,1017.3663 a 0.50005006,0.50005006 0 0 0 -0.07813,0.01 c -2.760491,0.013 -5.302918,0.5839 -7.611328,1.5489 a 0.50005006,0.50005006 0 0 0 -0.03906,0.016 c -0.0215,0.01 -0.04495,0.014 -0.06641,0.023 a 0.50005006,0.50005006 0 0 0 -0.119141,0.072 c -0.189156,0.089 -0.397049,0.1966 -0.61914,0.3183 a 0.50005006,0.50005006 0 0 0 -0.03906,0.018 c -0.024,0.012 -0.04636,0.027 -0.07031,0.039 -0.09634,0.053 -0.152279,0.081 -0.244141,0.1328 -3.25446,1.7131 -5.9993,4.1258 -8.21289,6.834 -0.425412,-0.178 -0.86234,-0.3115 -1.314453,-0.3672 l 0,0 c -1.686681,-0.2079 -3.521304,0.4022 -5.226562,1.5957 -2.2736767,1.5914 -4.3783794,4.233 -5.8027341,7.5664 a 0.50005006,0.50005006 0 0 0 0.765625,0.5918 c 2.0635914,-1.6006 3.6680961,-2.4634 4.7910161,-2.666 0.56146,-0.1013 0.989578,-0.049 1.347656,0.1211 0.308702,0.1464 0.580308,0.3972 0.828125,0.7715 -0.06427,0.1494 -0.143749,0.3003 -0.205078,0.4492 a 0.50005006,0.50005006 0 0 0 0.109375,0.5449 l 1.074218,1.0743 c -0.932683,1.4055 -1.893223,3.0054 -2.93164,4.7988 -0.0018,0 -0.0041,-2e-4 -0.0059,0.01 a 0.50005006,0.50005006 0 0 0 -0.01172,0.021 0.50005006,0.50005006 0 0 0 -0.0059,0.014 0.50005006,0.50005006 0 0 0 -0.0039,0.01 0.50005006,0.50005006 0 0 0 -0.01563,0.039 0.50005006,0.50005006 0 0 0 -0.0039,0.01 0.50005006,0.50005006 0 0 0 -0.0098,0.037 0.50005006,0.50005006 0 0 0 -0.0098,0.049 0.50005006,0.50005006 0 0 0 -0.0039,0.029 0.50005006,0.50005006 0 0 0 -0.0019,0.02 0.50005006,0.50005006 0 0 0 0,0.012 0.50005006,0.50005006 0 0 0 0.0019,0.051 0.50005006,0.50005006 0 0 0 0.0039,0.039 0.50005006,0.50005006 0 0 0 0.0019,0.01 0.50005006,0.50005006 0 0 0 0.01172,0.049 0.50005006,0.50005006 0 0 0 0.01563,0.045 0.50005006,0.50005006 0 0 0 0.01563,0.037 0.50005006,0.50005006 0 0 0 0.02148,0.041 0.50005006,0.50005006 0 0 0 0.002,0 0.50005006,0.50005006 0 0 0 0.0059,0.01 0.50005006,0.50005006 0 0 0 0.02344,0.031 0.50005006,0.50005006 0 0 0 0.0059,0.01 0.50005006,0.50005006 0 0 0 0.02734,0.031 0.50005006,0.50005006 0 0 0 0.02539,0.024 0.50005006,0.50005006 0 0 0 0.0098,0.012 0.50005006,0.50005006 0 0 0 0.0078,0.01 0.50005006,0.50005006 0 0 0 0.03125,0.023 0.50005006,0.50005006 0 0 0 0.0078,0.01 0.50005006,0.50005006 0 0 0 0.03516,0.023 0.50005006,0.50005006 0 0 0 0.04492,0.023 0.50005006,0.50005006 0 0 0 0.02344,0.01 0.50005006,0.50005006 0 0 0 0.02148,0.01 0.50005006,0.50005006 0 0 0 0.0098,0 0.50005006,0.50005006 0 0 0 0.03906,0.01 0.50005006,0.50005006 0 0 0 0.03516,0.01 0.50005006,0.50005006 0 0 0 0.02344,0 0.50005006,0.50005006 0 0 0 0.04102,0 0.50005006,0.50005006 0 0 0 0.0078,0 0.50005006,0.50005006 0 0 0 0.09961,-0.01 0.50005006,0.50005006 0 0 0 0.04687,-0.012 0.50005006,0.50005006 0 0 0 0.04883,-0.018 0.50005006,0.50005006 0 0 0 0.05469,-0.027 c 0.01161,-0.01 0.01965,-0.013 0.03125,-0.02 1.784082,-1.0353 3.378284,-1.9939 4.779297,-2.9238 l 1.037109,1.0371 a 0.50005006,0.50005006 0 0 0 0.544922,0.1094 c 0.146044,-0.06 0.294799,-0.1382 0.441406,-0.2012 0.804095,0.5266 1.090537,1.1419 0.91211,2.1895 -0.193069,1.1336 -1.043136,2.7465 -2.642579,4.8086 a 0.50005006,0.50005006 0 0 0 0.591797,0.7656 c 3.33347,-1.4244 5.975005,-3.5291 7.566407,-5.8028 1.518781,-2.1698 2.073713,-4.5457 1.220703,-6.5625 2.692034,-2.1769 5.100194,-4.868 6.814453,-8.0566 0.0695,-0.1217 0.112008,-0.2025 0.1875,-0.334 0.157393,-0.2742 0.295068,-0.531 0.408203,-0.7695 a 0.50005006,0.50005006 0 0 0 0.04297,-0.08 c 7.97e-4,0 0.0012,0 0.002,-0.01 0.0084,-0.019 0.02546,-0.044 0.0332,-0.062 a 0.50005006,0.50005006 0 0 0 0.0332,-0.1171 c 0.957617,-2.3227 1.49805,-4.9066 1.498027,-7.6703 a 0.50005006,0.50005006 0 0 0 -0.501953,-0.5 0.50005006,0.50005006 0 0 0 -0.002,0 0.50005006,0.50005006 0 0 0 -0.01172,0 z m -0.539063,1.0566 c -0.06136,2.1773 -0.480658,4.2124 -1.175781,6.0879 l -4.882812,-4.8809 c 1.873494,-0.7034 3.885827,-1.1423 6.058593,-1.207 z m -7.144531,1.625 5.558594,5.5703 c -0.04421,0.086 -0.09692,0.1815 -0.146484,0.2734 a 0.50005006,0.50005006 0 0 0 -0.002,0 0.50005006,0.50005006 0 0 0 -0.04492,0.074 c -0.08555,0.1687 -0.18179,0.3301 -0.271485,0.4961 -0.09587,0.1673 -0.205286,0.3538 -0.271484,0.4844 a 0.50049853,0.50049853 0 0 0 -0.02539,0.061 c -3.201775,5.5473 -8.675273,9.5137 -13.798828,11.6856 l -0.654297,-0.6543 c 0.838451,-0.5881 1.619818,-1.1708 2.267578,-1.7539 1.87866,-1.6912 2.9442,-3.4895 2.707032,-5.541 a 0.50005006,0.50005006 0 0 0 -0.02344,-0.1075 l -0.0098,-0.023 a 0.50005006,0.50005006 0 0 0 -0.212891,-0.2637 l -0.03906,-0.023 a 0.50005006,0.50005006 0 0 0 -0.201172,-0.07 l 0,-0.01 c -2.051425,-0.2373 -3.85285,0.829 -5.544921,2.707 -0.584731,0.649 -1.168592,1.4314 -1.757813,2.2715 l -0.691328,-0.6914 c 2.169476,-5.1145 6.126843,-10.5029 11.669922,-13.6972 a 0.50007273,0.50007273 0 0 0 0.06445,-0.027 c 0.369617,-0.1875 0.99853,-0.5403 1.427737,-0.7617 z m -1.263672,4.3125 c -0.633974,0 -1.269517,0.2402 -1.75,0.7207 -0.960966,0.961 -0.959034,2.5351 0.002,3.4961 0.960966,0.961 2.533176,0.961 3.494141,0 0.960965,-0.961 0.962897,-2.5351 0.002,-3.4961 -0.480576,-0.4805 -1.114166,-0.7207 -1.748141,-0.7207 z m 0,0.9941 c 0.375959,0 0.751608,0.1442 1.041016,0.4336 0.578816,0.5788 0.576884,1.5033 -0.002,2.0821 -0.578816,0.5788 -1.501261,0.5788 -2.080078,0 -0.578816,-0.5788 -0.580748,-1.5033 -0.002,-2.0821 0.289408,-0.2894 0.66701,-0.4336 1.042968,-0.4336 z m -10.486328,1.6524 c 0.546155,0.01 1.058275,0.1537 1.564453,0.3125 -0.163722,0.2229 -0.321888,0.4578 -0.482422,0.6875 -0.01231,0.017 -0.02289,0.035 -0.03516,0.053 -0.390582,0.5609 -0.772974,1.1387 -1.140625,1.7422 -0.309618,0.5015 -0.59262,1.0048 -0.86914,1.5117 -0.04878,0.091 -0.09831,0.178 -0.146484,0.2695 -0.271006,0.5081 -0.524198,1.0133 -0.761715,1.5215 -0.256044,-0.2835 -0.471868,-0.6293 -0.804688,-0.7871 -0.57366,-0.272 -1.240702,-0.33 -1.955078,-0.2011 -0.971779,0.1753 -2.1255731,0.7944 -3.3886717,1.6132 1.2643727,-2.2423 2.7556077,-4.1624 4.3847657,-5.3027 1.04168,-0.7291 2.085733,-1.1939 3.076172,-1.373 0.190628,-0.034 0.376542,-0.049 0.558593,-0.047 z m 5.982422,4.3281 c -0.01281,1.4489 -0.709826,2.7758 -2.291015,4.1992 -1.418334,1.2768 -3.555534,2.6346 -6.009766,4.0996 1.463838,-2.4556 2.820265,-4.5939 4.097656,-6.0117 1.424559,-1.5811 2.752977,-2.2753 4.203125,-2.2871 z m 4.015625,4.4082 c 0.490385,1.5534 0.185526,3.3598 -1.107422,5.207 -1.142011,1.6316 -3.067295,3.1254 -5.314453,4.3907 0.819412,-1.2729 1.436224,-2.4378 1.603516,-3.42 0.193213,-1.1343 -0.26292,-2.0479 -1.013672,-2.7617 0.525148,-0.2445 1.048058,-0.5051 1.574219,-0.7851 0.02594,-0.014 0.0503,-0.028 0.07617,-0.041 0.463993,-0.2485 0.927815,-0.4896 1.388671,-0.7656 0.986645,-0.5757 1.916484,-1.186 2.792969,-1.8242 z m -13.226562,2.4297 -3.9003907,3.9023 0.4726562,0.4746 2.0683595,-2.0683 c 0.466091,-0.804 0.918185,-1.5767 1.359375,-2.3086 z m 2.333984,2.4043 c -0.73244,0.4417 -1.504751,0.8945 -2.308593,1.3613 l -2.50586,2.5059 0.47461,0.4726 4.339843,-4.3398 z m -3.816406,0.9746 -2.8925781,2.8926 0.4746094,0.4726 2.8925777,-2.8925 c -0.01248,0 -0.02523,-0.01 -0.03711,-0.016 a 0.50005006,0.50005006 0 0 1 -0.01172,-0.01 c -0.01588,-0.01 -0.03151,-0.019 -0.04687,-0.029 l 0.0059,0.01 c -0.01862,-0.011 -0.03686,-0.024 -0.05469,-0.037 -0.02145,-0.015 -0.04231,-0.032 -0.0625,-0.049 a 0.50005006,0.50005006 0 0 1 -0.01172,-0.012 0.50005006,0.50005006 0 0 1 -0.02344,-0.021 0.50005006,0.50005006 0 0 1 -0.0059,0 0.50005006,0.50005006 0 0 0 -0.0019,0 0.50005006,0.50005006 0 0 1 -0.0059,-0.01 c -0.007,-0.01 -0.01467,-0.01 -0.02148,-0.02 a 0.50005006,0.50005006 0 0 1 -0.0078,-0.012 c -0.0084,-0.01 -0.01731,-0.013 -0.02539,-0.023 -0.01487,-0.016 -0.0292,-0.032 -0.04297,-0.049 a 0.50005006,0.50005006 0 0 1 -0.0039,-0.012 c -0.01764,-0.022 -0.03126,-0.046 -0.04687,-0.07 a 0.50005006,0.50005006 0 0 1 -0.06055,-0.096 c -0.0029,-0.01 -0.0069,-0.012 -0.0098,-0.017 z m -2.8925781,0.998 -0.4746094,0.4727 0.4746094,0.4746 0.4726563,-0.4746 -0.4726563,-0.4727 z m -0.4746094,2.3672 -0.4726562,0.4746 0.4726562,0.4727 0.4746094,-0.4727 -0.4746094,-0.4746 z m 1.8945313,0 -0.4726563,0.4746 0.4726563,0.4727 0.4746092,-0.4727 -0.4746092,-0.4746 z" color="#000" font-family="sans-serif" font-weight="400" overflow="visible" white-space="normal"/></g></svg>