<svg xmlns="http://www.w3.org/2000/svg" xmlns:xlink="http://www.w3.org/1999/xlink" width="42" height="42" viewBox="0 0 42 42"><defs><linearGradient id="b" x1="949.87" x2="974.39" y1="518.014" y2="544.657" gradientTransform="translate(-1272.559 316.47) scale(1.34562)" gradientUnits="userSpaceOnUse" xlink:href="#a"/><linearGradient id="a"><stop offset="0" stop-color="#24f7bc"/><stop offset="1" stop-color="#24c4fc"/></linearGradient></defs><g transform="translate(0 -1010.362)"><rect width="42" height="42" y="1010.362" fill="url(#b)" rx="8.876" ry="8.876"/><path fill="#fff" fill-rule="evenodd" style="line-height:normal;text-indent:0;text-align:start;text-decoration-line:none;text-decoration-style:solid;text-decoration-color:#000;text-transform:none;block-progression:tb;isolation:auto;mix-blend-mode:normal" d="m 6.9189435,1017.3621 0,19.9141 -0.00195,0 0.00195,0 0,8.0801 0,0 27.9999995,0 0,-1 -26.9999994,0 0,-6.6446 7.0488274,-6.414 4.957031,4.7597 2.994141,-2.9941 4,4 1,-1 5.292969,5.2928 -0.792969,0 0,1 2.5,0 0,-2.5 -1,0 0,0.793 -6,-6 -1,1 -4,-4 -3.007812,3.0078 -4.203125,-4.0332 3.128906,-2.8476 5.253906,4.2089 9.992188,-9 0,0.8731 1,0 0,-2.5 -2.5,0 0,1 0.699218,0 -9.228515,8.3144 -5.257813,-4.2109 -3.810547,3.4668 -7.0664054,-6.7832 0,-5.7891 -1,0 z m 1,7.1758 6.3261715,6.0723 -6.3261715,5.7558 0,-11.8281 z" color="#000" font-family="sans-serif" font-weight="400" overflow="visible" white-space="normal"/></g></svg>