<svg xmlns="http://www.w3.org/2000/svg" xmlns:xlink="http://www.w3.org/1999/xlink" width="42" height="42" viewBox="0 0 42 42"><defs><linearGradient id="b" x1="906.952" x2="931.379" y1="515.915" y2="546.094" gradientTransform="translate(-1215.129 316.47) scale(1.34562)" gradientUnits="userSpaceOnUse" xlink:href="#a"/><linearGradient id="a"><stop offset="0" stop-color="#ffd800"/><stop offset="1" stop-color="#ff6100"/></linearGradient></defs><g transform="translate(0 -1010.362)"><rect width="42" height="42" y="1010.362" fill="url(#b)" rx="8.876" ry="8.876"/><path style="line-height:normal;text-indent:0;text-align:start;text-decoration-line:none;text-decoration-style:solid;text-decoration-color:#000;text-transform:none;block-progression:tb;isolation:auto;mix-blend-mode:normal" fill="#fff" d="m 20.72848,1023.3626 c -3.158949,0.062 -6.250545,1.194 -8.734376,3.2812 l 0.642579,0.7656 c 3.355682,-2.82 7.903552,-3.7587 12.101562,-2.498 l 0.289063,-0.959 c -1.412414,-0.4242 -2.862943,-0.618 -4.298828,-0.5898 z m 5.638672,1.0683 -0.382813,0.9238 c 1.452332,0.603 2.767538,1.4607 3.896484,2.5176 0.304726,0.2852 0.59542,0.5802 0.869141,0.8906 0.0046,0.01 0.0091,0.011 0.01367,0.016 0.26946,0.3066 0.521613,0.6264 0.759766,0.9551 0.0679,0.094 0.127897,0.1934 0.193359,0.289 0.167885,0.2453 0.334011,0.4925 0.484375,0.7481 0.07949,0.1351 0.147902,0.2777 0.222656,0.416 0.938379,1.7366 1.490669,3.6758 1.566406,5.6855 a 0.50005,0.50005 0 0 0 0.511721,0.4883 0.50005,0.50005 0 0 0 0.488281,-0.5273 c -0.07279,-1.9316 -0.55211,-3.8033 -1.371093,-5.5137 l 0.0078,0 c -0.08233,-0.172 -0.180556,-0.3341 -0.269519,-0.502 -0.102444,-0.1933 -0.199051,-0.3896 -0.310547,-0.5781 -0.139126,-0.2352 -0.293223,-0.4597 -0.445313,-0.6855 -0.08987,-0.1335 -0.171058,-0.2719 -0.265624,-0.4024 -0.262112,-0.3618 -0.539476,-0.7108 -0.833985,-1.0449 -0.04004,-0.045 -0.08629,-0.086 -0.126953,-0.1309 -0.254775,-0.2815 -0.518322,-0.5547 -0.794922,-0.8144 -0.01517,-0.014 -0.02773,-0.031 -0.04297,-0.045 a 0.50026064,0.50026064 0 0 0 -0.07227,-0.057 c -1.19442,-1.0972 -2.574969,-1.9928 -4.09765,-2.625 z m -5.867188,1.0156 0,1.8262 1,0 0,-1.8262 -1,0 z m -2.123047,0.2735 -0.964844,0.2617 0.476563,1.7637 0.966797,-0.2618 -0.478516,-1.7636 z m 5.246094,0 -0.478516,1.7636 0.966797,0.2618 0.476563,-1.7637 -0.964844,-0.2617 z m 2.945312,1.0937 -0.923828,1.5801 0.863281,0.5039 0.923829,-1.5801 -0.863282,-0.5039 z m -11.136718,0.031 -0.863282,0.5039 0.923829,1.582 0.863281,-0.5039 -0.923828,-1.582 z m -4.330079,0.6172 c -0.647377,0.6473 -1.2162851,1.3628 -1.722656,2.1191 a 0.50005,0.50005 0 0 0 -0.082031,0.098 c -0.023488,0.036 -0.043261,0.073 -0.066406,0.1093 -0.042137,0.065 -0.080055,0.1331 -0.1210938,0.1993 -0.2221131,0.3582 -0.4290297,0.7245 -0.6171875,1.0996 -0.023685,0.047 -0.04911,0.093 -0.072266,0.1406 -0.2012653,0.4127 -0.3796028,0.8342 -0.5390625,1.2637 -0.013531,0.036 -0.031689,0.071 -0.044922,0.1074 l 0.00586,0 c -0.4906964,1.3559 -0.7777644,2.7842 -0.8320318,4.2382 a 0.50005,0.50005 0 0 0 0.4726563,0.5254 0.50005,0.50005 0 0 0 0.5273437,-0.4883 c 0.051961,-1.3922 0.3323243,-2.7589 0.8144532,-4.0527 0.1443652,-0.3873 0.3044822,-0.7683 0.484375,-1.1387 0.030094,-0.062 0.064608,-0.122 0.095703,-0.1836 0.1678585,-0.332 0.3494447,-0.6566 0.5449219,-0.9726 0.042946,-0.069 0.082652,-0.1403 0.1269535,-0.209 0.498988,-0.7738 1.077542,-1.4955 1.732421,-2.1504 l -0.707031,-0.707 z m 18.033204,1.1191 -1.306641,1.291 0.703125,0.711 1.306641,-1.2911 -0.703125,-0.7109 z m -16.267579,0.057 -0.703125,0.711 1.304688,1.293 0.703125,-0.711 -1.304688,-1.293 z m 14.492188,1.3497 a 0.50005,0.50005 0 0 0 -0.34375,0.1523 l -5.371094,5.3711 c -0.196127,-0.095 -0.41384,-0.1504 -0.644531,-0.1504 -0.822505,0 -1.499993,0.6775 -1.5,1.5 2e-6,0.2306 0.05755,0.4465 0.152344,0.6426 l -1,1 a 0.50005,0.50005 0 1 0 0.707031,0.707 l 1,-1 c 0.195172,0.094 0.411401,0.1504 0.640625,0.1504 0.822504,0 1.499993,-0.6775 1.5,-1.5 -2e-6,-0.2291 -0.05678,-0.4455 -0.150391,-0.6406 l 5.373047,-5.3731 a 0.50005,0.50005 0 0 0 -0.363281,-0.8593 z m 3.785156,0.9414 -1.599609,0.914 0.496094,0.8672 1.599609,-0.9121 -0.496094,-0.8691 z m -20.289062,0.096 -0.496094,0.8691 1.599609,0.9141 0.496094,-0.8692 -1.599609,-0.914 z m 21.607422,2.6035 -1.783203,0.4726 0.255859,0.9668 1.783203,-0.4726 -0.255859,-0.9668 z m -22.9257818,0.2109 -0.2558594,0.9668 1.7832032,0.4727 0.255859,-0.9668 -1.7832028,-0.4727 z m -0.5371094,2.5215 0,1 1.8457032,0 0,-1 -1.8457032,0 z m 12.0000002,0 c 0.282067,0 0.499998,0.218 0.5,0.5 -2e-6,0.2821 -0.217933,0.5 -0.5,0.5 -0.282068,0 -0.499998,-0.2179 -0.5,-0.5 2e-6,-0.282 0.217932,-0.5 0.5,-0.5 z m 10.154297,0 0,1 1.845703,0 0,-1 -1.845703,0 z" color="#000" font-family="sans-serif" font-weight="400" overflow="visible" white-space="normal"/></g></svg>