<svg xmlns="http://www.w3.org/2000/svg" xmlns:xlink="http://www.w3.org/1999/xlink" width="42" height="42" viewBox="0 0 42 42"><defs><linearGradient id="b" x1="1056.035" x2="1031.176" y1="544.13" y2="517.701" gradientTransform="translate(-1384.02 316.47) scale(1.34562)" gradientUnits="userSpaceOnUse" xlink:href="#a"/><linearGradient id="a"><stop offset="0" stop-color="#5a5a5a"/><stop offset="1" stop-color="#656e85"/></linearGradient></defs><g transform="translate(0 -1010.362)"><rect width="42" height="42" y="1010.362" fill="url(#b)" rx="8.876" ry="8.876"/><path fill="#fff" style="line-height:normal;text-indent:0;text-align:start;text-decoration-line:none;text-decoration-style:solid;text-decoration-color:#000;text-transform:none;block-progression:tb;isolation:auto;mix-blend-mode:normal" d="m 21.477539,1020.1122 a 0.50005,0.50005 0 0 0 -0.5,0.5 l 0,0.5117 c -0.144338,0.05 -0.284379,0.1076 -0.421875,0.1738 l -0.361328,-0.3593 a 0.50005,0.50005 0 0 0 -0.707031,0 l -1.060547,1.0605 a 0.50005,0.50005 0 0 0 0,0.7071 l 0.361328,0.3613 c -0.06636,0.1369 -0.123997,0.2762 -0.173828,0.4199 l -0.511719,0 a 0.50005,0.50005 0 0 0 -0.5,0.5 l 0,1.5 a 0.50005,0.50005 0 0 0 0.5,0.5 l 0.511719,0 c 0.0496,0.1447 0.107497,0.2841 0.173828,0.4219 l -0.361328,0.3613 a 0.50005,0.50005 0 0 0 0,0.707 l 1.060547,1.0606 a 0.50005,0.50005 0 0 0 0.707031,0 l 0.361328,-0.3613 c 0.137625,0.067 0.277333,0.1257 0.421875,0.1757 l 0,0.5098 a 0.50005,0.50005 0 0 0 0.5,0.5 l 1.5,0 a 0.50005,0.50005 0 0 0 0.5,-0.5 l 0,-0.5117 c 0.144184,-0.05 0.284518,-0.1057 0.421875,-0.1719 l 0.361328,0.3594 a 0.50005,0.50005 0 0 0 0.707031,0 l 1.060547,-1.0606 a 0.50005,0.50005 0 0 0 0,-0.707 l -0.361328,-0.3613 c 0.06674,-0.1376 0.125768,-0.2773 0.175781,-0.4219 l 0.509766,0 a 0.50005,0.50005 0 0 0 0.5,-0.5 l 0,-1.5 a 0.50005,0.50005 0 0 0 -0.5,-0.5 l -0.511719,0 c -0.0495,-0.1442 -0.105749,-0.2846 -0.171875,-0.4219 l 0.359375,-0.3593 a 0.50005,0.50005 0 0 0 0,-0.7071 l -1.060547,-1.0605 a 0.50005,0.50005 0 0 0 -0.707031,0 l -0.361328,0.3613 c -0.137624,-0.067 -0.277332,-0.1257 -0.421875,-0.1758 l 0,-0.5117 a 0.50005,0.50005 0 0 0 -0.5,-0.5 l -1.5,0 z m 0.5,1 0.5,0 0,0.3379 a 0.50005,0.50005 0 0 0 0.388672,0.4883 c 0.315163,0.072 0.616856,0.1973 0.890625,0.3691 a 0.50005,0.50005 0 0 0 0.619141,-0.07 l 0.238281,-0.2383 0.353515,0.3535 -0.236328,0.2364 a 0.50005,0.50005 0 0 0 -0.07227,0.6172 c 0.17111,0.2743 0.296269,0.577 0.367187,0.8925 a 0.50005,0.50005 0 0 0 0.486328,0.3887 l 0.339844,0 0,0.5 -0.337891,0 a 0.50005,0.50005 0 0 0 -0.488281,0.3906 c -0.07182,0.3151 -0.195329,0.6149 -0.367187,0.8887 a 0.50005,0.50005 0 0 0 0.07031,0.6191 l 0.238281,0.2383 -0.353515,0.3535 -0.236328,-0.2363 a 0.50005,0.50005 0 0 0 -0.619141,-0.07 c -0.274312,0.1711 -0.575199,0.2942 -0.890625,0.3652 a 0.50005,0.50005 0 0 0 -0.390623,0.4883 l 0,0.3379 -0.5,0 0,-0.3379 a 0.50005,0.50005 0 0 0 -0.388672,-0.4863 c -0.315158,-0.072 -0.61685,-0.1974 -0.890625,-0.3692 a 0.50005,0.50005 0 0 0 -0.619141,0.07 l -0.238281,0.2382 -0.353515,-0.3535 0.238281,-0.2363 a 0.50005,0.50005 0 0 0 0.07031,-0.6192 c -0.17111,-0.2743 -0.294315,-0.5752 -0.365234,-0.8906 a 0.50005,0.50005 0 0 0 -0.488279,-0.3906 l -0.339844,0 0,-0.5 0.337891,0 a 0.50005,0.50005 0 0 0 0.488281,-0.3887 c 0.07183,-0.3152 0.195335,-0.6149 0.367187,-0.8886 a 0.50005,0.50005 0 0 0 -0.07031,-0.6192 l -0.238281,-0.2383 0.353515,-0.3535 0.238281,0.2363 a 0.50005,0.50005 0 0 0 0.617188,0.07 c 0.274309,-0.1711 0.575202,-0.2944 0.890625,-0.3653 a 0.50005,0.50005 0 0 0 0.390628,-0.4881 l 0,-0.3398 z m 0.25,1.9805 c -0.90292,0 -1.646484,0.7416 -1.646484,1.6445 0,0.9029 0.7433,1.6465 1.646484,1.6465 0.903179,0 1.646484,-0.7436 1.646484,-1.6465 0,-0.9029 -0.74357,-1.6445 -1.646484,-1.6445 z m 0,1 c 0.356726,0 0.646484,0.2877 0.646484,0.6445 0,0.3567 -0.290023,0.6465 -0.646484,0.6465 -0.356476,0 -0.646484,-0.2898 -0.646484,-0.6465 0,-0.3568 0.289744,-0.6445 0.646484,-0.6445 z m -8.955078,2.5547 a 0.50005,0.50005 0 0 0 -0.5,0.5 l 0,0.5117 c -0.144183,0.049 -0.28452,0.1058 -0.421875,0.1719 l -0.359375,-0.3594 a 0.50005,0.50005 0 0 0 -0.707031,0 l -1.060547,1.0605 a 0.50005,0.50005 0 0 0 0,0.7071 l 0.361328,0.3613 c -0.06674,0.1376 -0.125765,0.2773 -0.175781,0.4219 l -0.511719,0 a 0.50005,0.50005 0 0 0 -0.5,0.5 l 0,1.5 a 0.50005,0.50005 0 0 0 0.5,0.5 l 0.511719,0 c 0.04954,0.1443 0.107624,0.2843 0.173828,0.4218 l -0.359375,0.3594 a 0.50005,0.50005 0 0 0 0,0.709 l 1.060547,1.0605 a 0.50005,0.50005 0 0 0 0.707031,0 l 0.361328,-0.3613 c 0.136899,0.066 0.276187,0.124 0.419922,0.1738 l 0,0.5118 a 0.50005,0.50005 0 0 0 0.5,0.5 l 1.5,0 a 0.50005,0.50005 0 0 0 0.5,-0.5 l 0,-0.5118 c 0.144339,-0.05 0.284377,-0.1076 0.421875,-0.1738 l 0.361328,0.3613 a 0.50005,0.50005 0 0 0 0.707031,0 l 1.060547,-1.0605 a 0.50005,0.50005 0 0 0 0,-0.709 l -0.359375,-0.3594 c 0.0666,-0.1375 0.123896,-0.2775 0.173828,-0.4218 l 0.509766,0 a 0.50005,0.50005 0 0 0 0.5,-0.5 l 0,-1.5 a 0.50005,0.50005 0 0 0 -0.5,-0.5 l -0.511719,0 c -0.04958,-0.1444 -0.107569,-0.2843 -0.173828,-0.4219 l 0.361328,-0.3613 a 0.50005,0.50005 0 0 0 0,-0.7071 l -1.060547,-1.0605 a 0.50005,0.50005 0 0 0 -0.707031,0 l -0.361328,0.3613 c -0.137624,-0.067 -0.277332,-0.1257 -0.421875,-0.1758 l 0,-0.5097 a 0.50005,0.50005 0 0 0 -0.5,-0.5 l -1.5,0 z m 0.5,1 0.5,0 0,0.3378 a 0.50005,0.50005 0 0 0 0.388672,0.4864 c 0.315163,0.072 0.616856,0.1973 0.890625,0.3691 a 0.50005,0.50005 0 0 0 0.61914,-0.07 l 0.238282,-0.2383 0.353515,0.3535 -0.236328,0.2364 a 0.50005,0.50005 0 0 0 -0.07031,0.6191 c 0.17111,0.2743 0.294315,0.5751 0.365234,0.8906 a 0.50005,0.50005 0 0 0 0.488281,0.3907 l 0.337891,0 0,0.5 -0.337891,0 a 0.50005,0.50005 0 0 0 -0.486328,0.3886 c -0.07182,0.3151 -0.197282,0.6149 -0.369141,0.8887 a 0.50005,0.50005 0 0 0 0.07031,0.6211 l 0.238281,0.2363 -0.353515,0.3535 -0.236329,-0.2363 a 0.50005,0.50005 0 0 0 -0.61914,-0.07 c -0.274312,0.1711 -0.575199,0.2942 -0.890625,0.3652 a 0.50005,0.50005 0 0 0 -0.390625,0.4883 l 0,0.3399 -0.5,0 0,-0.3379 a 0.50005,0.50005 0 0 0 -0.388671,-0.4889 c -0.315158,-0.072 -0.614897,-0.1953 -0.888672,-0.3672 a 0.50005,0.50005 0 0 0 -0.61914,0.068 l -0.238282,0.2382 -0.353515,-0.3554 0.236328,-0.2364 a 0.50005,0.50005 0 0 0 0.07031,-0.6171 c -0.17111,-0.2743 -0.294315,-0.5753 -0.365234,-0.8907 a 0.50005,0.50005 0 0 0 -0.488281,-0.3906 l -0.339844,0 0,-0.5 0.337891,0 a 0.50005,0.50005 0 0 0 0.488281,-0.3887 c 0.07183,-0.3151 0.195335,-0.6169 0.367187,-0.8906 a 0.50005,0.50005 0 0 0 -0.06836,-0.6191 l -0.238281,-0.2383 0.353516,-0.3535 0.236328,0.2363 a 0.50005,0.50005 0 0 0 0.617187,0.07 c 0.274309,-0.1711 0.575203,-0.2943 0.890625,-0.3652 a 0.50005,0.50005 0 0 0 0.390625,-0.4883 l 0,-0.3359 z m 11.238281,1.7148 a 0.50004997,0.50004997 0 0 0 -0.5,0.5 l 0,0.8945 c -0.310032,0.096 -0.608586,0.2175 -0.896484,0.3672 l -0.628907,-0.6269 a 0.50004997,0.50004997 0 0 0 -0.707031,0 l -1.542969,1.541 a 0.50004997,0.50004997 0 0 0 0,0.707 l 0.63086,0.6309 c -0.150819,0.288 -0.276279,0.5861 -0.373047,0.8965 l -0.890625,0 a 0.50004997,0.50004997 0 0 0 -0.5,0.5 l 0,2.1816 a 0.50004997,0.50004997 0 0 0 0.5,0.5 l 0.892578,0 c 0.096,0.3108 0.21899,0.6099 0.369141,0.8984 l -0.628907,0.6289 a 0.50004997,0.50004997 0 0 0 0,0.7071 l 1.542969,1.541 a 0.50004997,0.50004997 0 0 0 0.707031,0 l 0.63086,-0.6289 c 0.287053,0.1503 0.58526,0.2725 0.894531,0.3691 l 0,0.8926 a 0.50004997,0.50004997 0 0 0 0.5,0.5 l 2.183594,0 a 0.50004997,0.50004997 0 0 0 0.5,-0.5 l 0,-0.8926 c 0.310032,-0.096 0.608586,-0.2175 0.896484,-0.3672 l 0.628907,0.627 a 0.50004997,0.50004997 0 0 0 0.707031,0 l 1.542969,-1.541 a 0.50004997,0.50004997 0 0 0 0,-0.7071 l -0.63086,-0.6308 c 0.150823,-0.288 0.276283,-0.5861 0.373047,-0.8965 l 0.890625,0 a 0.50004997,0.50004997 0 0 0 0.5,-0.5 l 0,-2.1816 a 0.50004997,0.50004997 0 0 0 -0.5,-0.5 l -0.892578,0 c -0.096,-0.3107 -0.218994,-0.61 -0.369141,-0.8985 l 0.628907,-0.6289 a 0.50004997,0.50004997 0 0 0 0,-0.707 l -1.542969,-1.541 a 0.50004997,0.50004997 0 0 0 -0.707031,0 l -0.63086,0.6289 c -0.287154,-0.1504 -0.585133,-0.2726 -0.894531,-0.3692 l 0,-0.8945 a 0.50004997,0.50004997 0 0 0 -0.5,-0.5 l -2.183594,0 z m -10.988281,0.2637 c -0.90292,0 -1.644531,0.7435 -1.644531,1.6465 0,0.9029 0.741347,1.6464 1.644531,1.6464 0.903178,0 1.646484,-0.7435 1.646484,-1.6464 0,-0.903 -0.74357,-1.6465 -1.646484,-1.6465 z m 11.488281,0.7363 1.183594,0 0,0.7188 a 0.50004997,0.50004997 0 0 0 0.388672,0.4882 c 0.483329,0.1101 0.943428,0.301 1.363281,0.5645 a 0.50004997,0.50004997 0 0 0 0.619141,-0.07 l 0.507812,-0.5059 0.835938,0.834 -0.50586,0.5059 a 0.50004997,0.50004997 0 0 0 -0.07031,0.6191 c 0.262398,0.4207 0.45178,0.8814 0.560547,1.3652 a 0.50004997,0.50004997 0 0 0 0.488281,0.3907 l 0.720703,0 0,1.1816 -0.71875,0 a 0.50004997,0.50004997 0 0 0 -0.488281,0.3887 c -0.110145,0.4833 -0.3009,0.9454 -0.564453,1.3652 a 0.50004997,0.50004997 0 0 0 0.07031,0.6191 l 0.507813,0.5079 -0.835938,0.8339 -0.505859,-0.5039 a 0.50004997,0.50004997 0 0 0 -0.617188,-0.07 c -0.420678,0.2623 -0.883456,0.4518 -1.367187,0.5606 a 0.50004997,0.50004997 0 0 0 -0.388672,0.4863 l 0,0.7207 -1.183594,0 0,-0.7187 a 0.50004997,0.50004997 0 0 0 -0.388672,-0.4864 c -0.483323,-0.1101 -0.943422,-0.3009 -1.363281,-0.5644 a 0.50004997,0.50004997 0 0 0 -0.619141,0.07 l -0.507812,0.5058 -0.835938,-0.8339 0.50586,-0.5059 a 0.50004997,0.50004997 0 0 0 0.07031,-0.6191 c -0.262407,-0.4207 -0.45179,-0.8816 -0.560547,-1.3653 a 0.50004997,0.50004997 0 0 0 -0.488281,-0.3906 l -0.720703,0 0,-1.1816 0.71875,0 a 0.50004997,0.50004997 0 0 0 0.488281,-0.3887 c 0.110154,-0.4833 0.300909,-0.9454 0.564453,-1.3652 a 0.50004997,0.50004997 0 0 0 -0.07031,-0.6192 l -0.507813,-0.5078 0.835938,-0.834 0.505859,0.5039 a 0.50004997,0.50004997 0 0 0 0.617188,0.07 c 0.420678,-0.2624 0.883456,-0.4537 1.367187,-0.5625 a 0.50004997,0.50004997 0 0 0 0.388672,-0.4843 l 0,-0.7227 z m -11.488281,0.2637 c 0.356726,0 0.646484,0.2897 0.646484,0.6465 0,0.3567 -0.290023,0.6464 -0.646484,0.6464 -0.356476,0 -0.644531,-0.2897 -0.644531,-0.6464 0,-0.3569 0.28779,-0.6465 0.644531,-0.6465 z m 12.080078,2.7363 c -1.372104,0 -2.5,1.1278 -2.5,2.5 0,1.3721 1.127532,2.5 2.5,2.5 1.372468,0 2.5,-1.1279 2.5,-2.5 0,-1.3722 -1.127896,-2.5 -2.5,-2.5 z m 0,1 c 0.825996,0 1.5,0.6739 1.5,1.5 0,0.8259 -0.674368,1.5 -1.5,1.5 -0.825632,0 -1.5,-0.6741 -1.5,-1.5 0,-0.8261 0.674004,-1.5 1.5,-1.5 z" color="#000" font-family="sans-serif" font-weight="400" overflow="visible" white-space="normal"/></g></svg>