<svg xmlns="http://www.w3.org/2000/svg" xmlns:xlink="http://www.w3.org/1999/xlink" width="42" height="42" viewBox="0 0 42 42"><defs><linearGradient id="b" x1="1056.035" x2="1031.176" y1="544.13" y2="517.701" gradientTransform="translate(-1384.02 316.47) scale(1.34562)" gradientUnits="userSpaceOnUse" xlink:href="#a"/><linearGradient id="a"><stop offset="0" stop-color="#5a5a5a"/><stop offset="1" stop-color="#656e85"/></linearGradient></defs><g transform="translate(0 -1010.362)"><rect width="42" height="42" y="1010.362" fill="url(#b)" rx="8.876" ry="8.876"/><path style="line-height:normal;text-indent:0;text-align:start;text-decoration-line:none;text-decoration-style:solid;text-decoration-color:#000;text-transform:none;block-progression:tb;isolation:auto;mix-blend-mode:normal" fill="#fff" d="m 9.5,1017.3602 a 0.50005,0.50005 0 0 0 -0.5,0.5 l 0,27.002 a 0.50005,0.50005 0 0 0 0.5,0.5 l 4.1875,0 5.310546,0 9.501954,0 a 0.50005,0.50005 0 0 0 0.5,-0.5 l 0,-3.002 a 0.50005,0.50005 0 1 0 -1,0 l 0,2.502 -9.001954,0 -5.310546,0 -3.6875,0 0,-26.002 14,0 0,3.502 a 0.50005,0.50005 0 0 0 0.5,0.5 l 3.5,0 0,2.4921 0,0.096 a 0.50005,0.50005 0 1 0 1,0 l 0,-0.096 0,-2.9609 a 0.50005,0.50005 0 0 0 0,-0.023 0.50005,0.50005 0 0 0 -0.146485,-0.3614 l -4,-4 a 0.50005,0.50005 0 0 0 -0.361328,-0.1464 0.50005,0.50005 0 0 0 -0.06445,0 0.50005,0.50005 0 0 0 -0.08398,-0.01 l -14.843749,0 z m 15.5,1.709 2.292968,2.293 -2.292968,0 0,-2.293 z m -12.550782,1.293 a 0.50064427,0.50064427 0 0 0 0.05078,1 l 1,0 a 0.50005,0.50005 0 1 0 0,-1 l -1,0 a 0.50005,0.50005 0 0 0 -0.05078,0 z m 3.015625,0 a 0.50064426,0.50064426 0 1 0 0.05078,1 l 3.976563,0 a 0.50005,0.50005 0 1 0 0,-1 l -3.976563,0 a 0.50005,0.50005 0 0 0 -0.05078,0 z m -3.015625,2 a 0.50064427,0.50064427 0 0 0 0.05078,1 l 1,0 a 0.50005,0.50005 0 1 0 0,-1 l -1,0 a 0.50005,0.50005 0 0 0 -0.05078,0 z m 3.015625,0 a 0.50064426,0.50064426 0 1 0 0.05078,1 l 3.976563,0 a 0.50005,0.50005 0 1 0 0,-1 l -3.976563,0 a 0.50005,0.50005 0 0 0 -0.05078,0 z m 1.027344,1.9921 a 0.50004997,0.50004997 0 0 0 -0.492188,0.5059 l 0,13 a 0.50004997,0.50004997 0 0 0 0.5,0.5 l 17.000001,0 a 0.50004997,0.50004997 0 1 0 0,-1 l -0.5,0 0,-4.5 a 0.50005,0.50005 0 0 0 -0.5,-0.5 l -2,0 a 0.50005,0.50005 0 0 0 -0.5,0.5 l 0,4.5 -1,0 0,-7.502 a 0.50005,0.50005 0 0 0 -0.5,-0.5 l -2,0 a 0.50005,0.50005 0 0 0 -0.5,0.5 l 0,7.502 -1,0 0,-6.5 a 0.50004997,0.50004997 0 0 0 -0.5,-0.5 l -2,0 a 0.50004997,0.50004997 0 0 0 -0.5,0.5 l 0,6.5 -1,0 0,-9.5 a 0.50005,0.50005 0 0 0 -0.5,-0.5 l -2,0 a 0.50005,0.50005 0 0 0 -0.5,0.5 l 0,9.5 -1,0 0,-12.5 a 0.50004997,0.50004997 0 0 0 -0.507813,-0.5059 z m 2.011719,0 0,0 a 0.50005,0.50005 0 0 0 -0.289063,0.916 l 4.998047,3.4551 a 0.50005,0.50005 0 0 0 0.466797,0.057 l 3.714844,-1.4433 3.294922,3.0215 -0.179688,0 a 0.50005,0.50005 0 1 0 0,1 l 1.494141,0 a 0.50005,0.50005 0 0 0 0.5,-0.5 l 0,-1.4942 a 0.50005,0.50005 0 0 0 -0.507813,-0.5058 0.50005,0.50005 0 0 0 -0.492187,0.5058 l 0,0.3848 -3.66211,-3.3594 a 0.50005,0.50005 0 0 0 -0.519531,-0.098 l -3.757812,1.4589 -4.779297,-3.3046 a 0.50005,0.50005 0 0 0 -0.28125,-0.096 z M 19,1028.3562 l 1,0 0,8.9863 -1,0 0,-8.9863 z m 8,1.998 1,0 0,6.9883 -1,0 0,-6.9883 z m -4,1.002 1,0 0,5.9863 -1,0 0,-5.9863 z m 8,2 1,0 0,3.9863 -1,0 0,-3.9863 z m -11.548829,6.002 a 0.50059574,0.50059574 0 0 0 0.04883,1 l 10.996094,0 a 0.50005,0.50005 0 1 0 0,-1 l -10.996094,0 a 0.50005,0.50005 0 0 0 -0.04883,0 z" color="#000" font-family="sans-serif" font-weight="400" overflow="visible" white-space="normal"/></g></svg>