<svg xmlns="http://www.w3.org/2000/svg" xmlns:xlink="http://www.w3.org/1999/xlink" width="42" height="42" viewBox="0 0 42 42"><defs><linearGradient id="b" x1="1073.403" x2="1097.116" y1="516.451" y2="544.308" gradientTransform="translate(-1438.388 316.47) scale(1.34562)" gradientUnits="userSpaceOnUse" xlink:href="#a"/><linearGradient id="a"><stop offset="0" stop-color="#16ff6a"/><stop offset="1" stop-color="#0090a5"/></linearGradient></defs><g transform="translate(0 -1010.362)"><rect width="42" height="42" y="1010.362" fill="url(#b)" rx="8.876" ry="8.876"/><path style="line-height:normal;text-indent:0;text-align:start;text-decoration-line:none;text-decoration-style:solid;text-decoration-color:#000;text-transform:none;block-progression:tb;isolation:auto;mix-blend-mode:normal" fill="#fff" fill-rule="evenodd" d="m 30.484375,1017.7802 -0.371094,0.9297 1.00586,0.4023 c -0.948777,0.2851 -4.116251,1.249 -7.796875,2.6563 -2.136984,0.8171 -4.277277,1.7281 -5.910157,2.6406 -0.81644,0.4563 -1.505262,0.9099 -2.017578,1.377 -0.512315,0.4671 -0.894531,0.9649 -0.894531,1.5761 0,0.5833 0.352177,1.0661 0.820312,1.4629 0.468136,0.3969 1.087328,0.7437 1.8125,1.0821 1.450348,0.6768 3.333985,1.3027 5.208985,1.9277 1.875,0.625 3.741362,1.2491 5.103515,1.8848 0.681077,0.3178 1.233761,0.6429 1.585938,0.9414 0.352177,0.2985 0.46875,0.5344 0.46875,0.7011 0,0.125 -0.155769,0.444 -0.599609,0.8262 -0.443841,0.3822 -1.120777,0.811 -1.945313,1.2461 -1.649072,0.8704 -3.886556,1.7736 -6.125,2.582 -4.476887,1.6166 -8.964844,2.8633 -8.964844,2.8633 l 0.269532,0.9629 c 0,0 4.512043,-1.2533 9.035156,-2.8867 2.261556,-0.8167 4.524072,-1.7258 6.25,-2.6367 0.862964,-0.4555 1.592278,-0.9095 2.132812,-1.375 0.540535,-0.4655 0.947266,-0.9571 0.947266,-1.5821 0,-0.5834 -0.352177,-1.068 -0.820312,-1.4648 -0.468137,-0.3968 -1.087327,-0.7436 -1.8125,-1.082 -1.450348,-0.6768 -3.333985,-1.3028 -5.208985,-1.9278 -1.875,-0.625 -3.741363,-1.249 -5.103515,-1.8847 -0.681078,-0.3179 -1.233761,-0.6429 -1.585938,-0.9414 -0.352177,-0.2985 -0.46875,-0.5327 -0.46875,-0.6993 0,-0.1389 0.149034,-0.4553 0.566406,-0.8359 0.417372,-0.3805 1.056675,-0.8097 1.833985,-1.2441 1.55462,-0.8688 3.664327,-1.7703 5.777343,-2.5782 3.929819,-1.5026 7.55889,-2.5894 8.091797,-2.748 l -0.541015,1.3535 0.929687,0.3711 1.113281,-2.7852 -2.787109,-1.1152 z m -14.984375,1.082 0,1 -1,0 0,1 1,0 0,1 1,0 0,-1 1,0 0,-1 -1,0 0,-1 -1,0 z m -4,6.5 c -0.822505,0 -1.499993,0.6775 -1.5,1.5 7e-6,0.8225 0.677495,1.5 1.5,1.5 0.822505,0 1.499993,-0.6775 1.5,-1.5 -7e-6,-0.8225 -0.677495,-1.5 -1.5,-1.5 z m 0,1 c 0.282068,0 0.499997,0.2179 0.5,0.5 -3e-6,0.282 -0.217932,0.5 -0.5,0.5 -0.282068,0 -0.499998,-0.218 -0.5,-0.5 2e-6,-0.2821 0.217932,-0.5 0.5,-0.5 z m 16.5,0.5 0,1 -1,0 0,1 1,0 0,1 1,0 0,-1 1,0 0,-1 -1,0 0,-1 -1,0 z m -14.5,7.5 0,1 -1,0 0,1 1,0 0,1 1,0 0,-1 1,0 0,-1 -1,0 0,-1 -1,0 z m 20,0 c -0.822505,0 -1.500007,0.6775 -1.5,1.5 -7e-6,0.8225 0.677495,1.5 1.5,1.5 0.822505,0 1.500007,-0.6775 1.5,-1.5 7e-6,-0.8225 -0.677495,-1.5 -1.5,-1.5 z m 0,1 c 0.282062,0 0.500002,0.2179 0.5,0.5 2e-6,0.282 -0.217938,0.5 -0.5,0.5 -0.282062,0 -0.500002,-0.218 -0.5,-0.5 -2e-6,-0.2821 0.217938,-0.5 0.5,-0.5 z m -25,5 c -0.8225048,0 -1.5,0.6775 -1.5,1.5 0,0.8225 0.6774952,1.5 1.5,1.5 0.8225048,0 1.5,-0.6775 1.5,-1.5 0,-0.8225 -0.6774952,-1.5 -1.5,-1.5 z m 0,1 c 0.2820647,0 0.5,0.2179 0.5,0.5 0,0.282 -0.2179353,0.5 -0.5,0.5 -0.2820647,0 -0.5,-0.218 -0.5,-0.5 0,-0.2821 0.2179353,-0.5 0.5,-0.5 z m 16,1 0,1 -1,0 0,1 1,0 0,1 1,0 0,-1 1,0 0,-1 -1,0 0,-1 -1,0 z" color="#000" font-family="sans-serif" font-weight="400" overflow="visible" white-space="normal"/></g></svg>