<svg xmlns="http://www.w3.org/2000/svg" xmlns:xlink="http://www.w3.org/1999/xlink" width="42" height="42" viewBox="0 0 42 42"><defs><linearGradient id="b" x1="949.87" x2="974.39" y1="518.014" y2="544.657" gradientTransform="translate(-1272.559 316.47) scale(1.34562)" gradientUnits="userSpaceOnUse" xlink:href="#a"/><linearGradient id="a"><stop offset="0" stop-color="#24f7bc"/><stop offset="1" stop-color="#24c4fc"/></linearGradient></defs><g transform="translate(0 -1010.362)"><rect width="42" height="42" y="1010.362" fill="url(#b)" rx="8.876" ry="8.876"/><path style="line-height:normal;text-indent:0;text-align:start;text-decoration-line:none;text-decoration-style:solid;text-decoration-color:#000;text-transform:none;block-progression:tb;isolation:auto;mix-blend-mode:normal" fill="#fff" fill-rule="evenodd" d="m 20,1016.3622 0,2.0254 c -6.773627,0.2589 -12.2160545,5.7009 -12.4746094,12.4746 l -2.0253906,0 0,1 2.0253906,0 C 7.7843124,1038.6356 13.226601,1044.0779 20,1044.3368 l 0,2.0254 1,0 0,-2.0254 c 6.773399,-0.2589 12.215688,-5.7012 12.474609,-12.4746 l 2.025391,0 0,-1 -2.025391,0 C 33.216055,1024.0885 27.773626,1018.6465 21,1018.3876 l 0,-2.0254 z m 0,3.0254 0,1.9746 1,0 0,-1.9746 c 6.232175,0.2566 11.217992,5.2425 11.474609,11.4746 l -1.974609,0 0,1 1.974609,0 c -0.25701,6.2319 -5.242681,11.218 -11.474609,11.4746 l 0,-1.9746 -1,0 0,1.9746 c -6.231928,-0.2566 -11.2175984,-5.2427 -11.4746094,-11.4746 l 1.9746094,0 0,-1 -1.9746094,0 C 8.7820084,1024.6301 13.767825,1019.6442 20,1019.3876 Z m 0.486328,2.9746 c -2.270477,0 -4.119138,1.8643 -4.11914,4.1445 1e-6,1.2689 0.585303,2.3932 1.484374,3.1543 -2.867779,0.2398 -5.117187,2.6554 -5.117187,5.5996 l 0,3.584 c 2.8e-5,0.2761 0.223869,0.5 0.5,0.5 l 2.773437,0 0.263672,0 8.455078,0 c 0.08631,0.024 0.177364,0.024 0.263672,0 l 2.775391,0 c 0.276131,0 0.499972,-0.2239 0.5,-0.5 l 0,-3.584 c 0,-2.9537 -2.263882,-5.3728 -5.144531,-5.5996 0.898535,-0.7611 1.48242,-1.8854 1.482422,-3.1543 -3e-6,-2.2802 -1.846711,-4.1445 -4.117188,-4.1445 z m 0,1 c 1.726442,0 3.117186,1.4011 3.117188,3.1445 -2e-6,1.7102 -1.340783,3.081 -3.021485,3.1328 l -0.191406,0 c -1.680773,-0.052 -3.023437,-1.4226 -3.023437,-3.1328 0,-1.7434 1.392698,-3.1445 3.11914,-3.1445 z m -2.166016,7.2773 2.072266,0 c 0.03196,8e-4 0.06162,0.01 0.09375,0.01 0.03213,0 0.06179,-0.01 0.09375,-0.01 l 2.09961,0 c 2.54762,0 4.585937,2.0509 4.585937,4.6211 l 0,3.084 -1.90625,0 0,-2.7949 c 0.0033,-0.2815 -0.226308,-0.5103 -0.507813,-0.5059 -0.275388,0 -0.495443,0.2305 -0.492187,0.5059 l 0,2.7949 -7.71875,0 0,-2.7949 c 0.0033,-0.2815 -0.226308,-0.5103 -0.507813,-0.5059 -0.275388,0 -0.495443,0.2305 -0.492187,0.5059 l 0,2.7949 -1.90625,0 0,-3.084 c 0,-2.57 2.03834,-4.6211 4.585937,-4.6211 z" color="#000" font-family="sans-serif" font-weight="400" overflow="visible" white-space="normal"/></g></svg>