<svg xmlns="http://www.w3.org/2000/svg" xmlns:xlink="http://www.w3.org/1999/xlink" width="42" height="42" viewBox="0 0 42 42"><defs><linearGradient id="b" x1="949.87" x2="974.39" y1="518.014" y2="544.657" gradientTransform="translate(-1272.559 316.47) scale(1.34562)" gradientUnits="userSpaceOnUse" xlink:href="#a"/><linearGradient id="a"><stop offset="0" stop-color="#24f7bc"/><stop offset="1" stop-color="#24c4fc"/></linearGradient></defs><g transform="translate(0 -1010.362)"><rect width="42" height="42" y="1010.362" fill="url(#b)" rx="8.876" ry="8.876"/><path fill="#fff" style="line-height:normal;text-indent:0;text-align:start;text-decoration-line:none;text-decoration-style:solid;text-decoration-color:#000;text-transform:none;block-progression:tb;isolation:auto;mix-blend-mode:normal" d="m 21,1015.8615 0,4.0254 c -5.669125,0.2564 -10.218667,4.8054 -10.474609,10.4746 l -4.025391,0 0,1 4.025391,0 c 0.256369,5.6689 4.805752,10.2183 10.474609,10.4746 l 0,4.0254 1,0 0,-4.0254 c 2.656422,-0.1201 5.063699,-1.1819 6.904297,-2.8632 l 2.871094,2.8711 -0.300782,1.5058 a 0.50005,0.50005 0 0 0 0.136719,0.4512 l 1.914063,1.916 a 0.50005,0.50005 0 0 0 0.84375,-0.2559 l 0.287109,-1.4414 1.441406,-0.289 a 0.50005,0.50005 0 0 0 0.25586,-0.8438 l -1.914063,-1.914 a 0.50005,0.50005 0 0 0 -0.361328,-0.1465 0.50005,0.50005 0 0 0 -0.08984,0.01 l -1.505859,0.3008 -1.453125,-1.4532 0.228515,-0.25 0.257813,-0.2832 0.03125,-0.037 0.367187,-0.4941 0.300782,-0.4004 -0.800782,-0.5977 -0.300781,0.4004 -0.33789,0.4551 -0.0098,0.01 -0.248047,0.2754 -0.195312,0.2148 -0.710938,-0.7109 c 1.681573,-1.8407 2.743167,-4.2477 2.863311,-6.9044 l 4.025391,0 0,-1 -4.025391,0 C 32.218667,1024.6923 27.669125,1020.1433 22,1019.8869 l 0,-4.0254 -1,0 z m -0.962891,2.0899 -0.49414,0.074 -0.636719,0.096 -0.05078,0.012 -0.341797,0.088 -0.484375,0.1231 0.248047,0.9687 0.484374,-0.123 0.294922,-0.078 0.0098,0 0.628906,-0.096 0.494141,-0.076 -0.152344,-0.9883 z m 2.886719,0 -0.152344,0.9883 0.494141,0.076 0.628906,0.096 0.0098,0 0.294922,0.078 0.484375,0.123 0.248047,-0.9687 -0.484375,-0.1231 -0.341797,-0.088 -0.05078,-0.012 -0.636719,-0.096 -0.494141,-0.074 z m -5.892578,0.7148 -0.46875,0.1719 -0.09961,0.035 -0.04492,0.021 -0.806641,0.3868 -0.449219,0.2187 0.433594,0.9004 0.449219,-0.2168 0.78125,-0.377 0.08008,-0.029 0.46875,-0.1719 -0.34375,-0.9395 z m 8.898438,0 -0.34375,0.9395 0.46875,0.1719 0.08008,0.029 0.78125,0.377 0.449218,0.2168 0.433594,-0.9004 -0.449219,-0.2187 -0.80664,-0.3868 -0.04492,-0.021 -0.09961,-0.035 -0.46875,-0.1719 z m -11.699219,1.4141 -0.400391,0.3008 -0.580078,0.4355 -0.03711,0.027 -0.203125,0.1855 -0.369141,0.3359 0.671875,0.7403 0.369141,-0.336 0.181641,-0.166 0.566406,-0.4238 0.400391,-0.2988 -0.59961,-0.8008 z m 14.5,0 -0.59961,0.8008 0.400391,0.2988 0.566406,0.4238 0.181641,0.166 0.369141,0.336 0.671874,-0.7403 -0.36914,-0.3359 -0.203125,-0.1855 -0.03711,-0.027 -0.580079,-0.4355 -0.40039,-0.3008 z M 21,1020.8869 l 0,3.0528 1,0 0,-3.0528 c 5.127485,0.2534 9.221207,4.3472 9.474609,9.4746 l -3.050781,0 0,1 3.050781,0 c -0.117914,2.386 -1.064031,4.5455 -2.564453,6.2032 l -2.833984,-2.834 c 0.886332,-1.046 1.423817,-2.3943 1.423828,-3.8692 3.5e-5,-3.3079 -2.692075,-6 -6,-6 -3.307925,0 -6.000035,2.6921 -6,6 2.5e-5,3.3079 2.692118,6 6,6 1.474021,0 2.823386,-0.5384 3.869141,-1.4238 l 2.833984,2.834 c -1.657526,1.4996 -3.81787,2.4466 -6.203125,2.5644 l 0,-3.0507 -1,0 0,3.0507 c -5.127508,-0.2533 -9.221206,-4.347 -9.474609,-9.4746 l 3.050781,0 0,-1 -3.050781,0 c 0.253402,-5.1274 4.347124,-9.2212 9.474609,-9.4746 z m -9.095703,1.2227 -0.335938,0.373 -0.08398,0.092 -0.03125,0.037 -0.523437,0.7012 -0.298828,0.4004 0.800781,0.5996 0.298828,-0.4004 0.494141,-0.664 0.0098,-0.012 0.07422,-0.084 0.335937,-0.3692 -0.740234,-0.6738 z m 19.152344,0 -0.740235,0.6738 0.335938,0.3692 0.07422,0.084 0.0098,0.012 0.494141,0.664 0.298828,0.4004 0.800745,-0.5996 -0.298828,-0.4004 -0.523438,-0.7012 -0.03125,-0.037 -0.08398,-0.092 -0.335937,-0.373 z m -20.984375,2.5488 -0.2167972,0.4492 -0.3242188,0.6719 -0.017578,0.045 -0.087891,0.2403 -0.171875,0.4687 0.939453,0.3438 0.171875,-0.4688 0.07422,-0.207 0.316407,-0.6582 0.216796,-0.4512 -0.90039,-0.4336 z m 22.816406,0 -0.900391,0.4336 0.216797,0.4512 0.316406,0.6582 0.07422,0.207 0.171875,0.4688 0.939453,-0.3438 -0.171875,-0.4687 -0.08789,-0.2403 -0.01758,-0.045 -0.324219,-0.6719 -0.216797,-0.4492 z M 21.5,1025.8615 c 2.767488,0 5.00003,2.2326 5,5 -9e-6,1.2028 -0.438523,2.2891 -1.142578,3.1504 l -2.142578,-2.1426 c 0.176321,-0.2975 0.285162,-0.6392 0.285156,-1.0078 1.7e-5,-1.0986 -0.901345,-2 -2,-2 -1.098655,0 -2.000017,0.9014 -2,2 -1.7e-5,1.0987 0.901345,2 2,2 0.368596,0 0.710219,-0.1088 1.007812,-0.2851 l 2.142579,2.1426 c -0.861169,0.7035 -1.948124,1.1425 -3.150391,1.1425 -2.767452,0 -4.999979,-2.2326 -5,-5 -3e-5,-2.7674 2.232512,-5 5,-5 z m -12.5546875,1.6739 -0.125,0.4843 -0.050781,0.1993 -0.00977,0.049 -0.1191406,0.7851 -0.076172,0.4942 0.9882813,0.1523 0.076172,-0.4941 0.1152344,-0.7598 0.044922,-0.1758 0.1250004,-0.4843 -0.9687504,-0.25 z m 25.0703125,0 -0.96875,0.25 0.125,0.4843 0.04492,0.1758 0.115234,0.7598 0.07617,0.4941 0.988281,-0.1523 -0.07617,-0.4942 -0.11914,-0.7851 -0.0098,-0.049 -0.05078,-0.1993 -0.125,-0.4843 z M 21.5,1029.8615 c 0.558218,0 1.000009,0.4418 1,1 1e-6,0.087 -0.0285,0.1639 -0.04883,0.2442 l -0.597656,-0.5977 a 0.50005,0.50005 0 0 0 -0.359375,-0.1504 0.50005,0.50005 0 0 0 -0.347657,0.8575 l 0.597657,0.5976 c -0.07995,0.02 -0.157335,0.049 -0.244139,0.049 -0.558218,0 -1.000009,-0.4418 -1,-1 -9e-6,-0.5582 0.441782,-1 1,-1 z m -11.9472656,2.42 -0.9882813,0.1503 0.076172,0.4942 0.080078,0.5293 0.00977,0.051 0.1152343,0.4511 0.125,0.4825 0.9687496,-0.2481 -0.1249996,-0.4844 -0.109375,-0.4257 -0.076172,-0.5039 -0.076172,-0.4961 z m 23.8554686,0 -0.07617,0.4961 -0.07617,0.5039 -0.109375,0.4257 -0.125,0.4844 0.96875,0.2481 0.125,-0.4825 0.115235,-0.4511 0.0098,-0.051 0.08008,-0.5293 0.07617,-0.4941 -0.988281,-0.1504 z m -23.228516,2.7832 -0.9023432,0.4336 0.2167968,0.4511 0.4355474,0.9004 0.216796,0.4512 0.900391,-0.4336 -0.216797,-0.4512 -0.433594,-0.9004 -0.216796,-0.4511 z m 22.601563,0 -0.216797,0.4511 -0.433594,0.9004 -0.216797,0.4512 0.900391,0.4336 0.216797,-0.4512 0.435547,-0.9004 0.216797,-0.4511 -0.902344,-0.4336 z m -21.234375,2.5566 -0.800781,0.5977 0.300781,0.4003 0.367188,0.4942 0.03125,0.037 0.257812,0.2832 0.337891,0.3711 0.740234,-0.6738 -0.337891,-0.3692 -0.248046,-0.2754 -0.0098,-0.01 -0.337891,-0.4551 -0.300781,-0.4004 z m 1.917969,2.1738 -0.671875,0.7403 0.36914,0.3359 0.01172,0.01 0.03711,0.031 0.789063,0.5898 0.400391,0.3007 0.597656,-0.8027 -0.400391,-0.2988 -0.761718,-0.5684 -0.0059,-0.01 -0.365235,-0.3281 z m 16.03125,0 -0.365235,0.3282 -0.0059,0.01 -0.761719,0.5683 -0.40039,0.2988 0.597656,0.8028 0.400391,-0.3008 0.789062,-0.5898 0.03711,-0.031 0.01172,-0.01 0.369141,-0.3359 -0.671875,-0.7403 z m -13.705078,1.6407 -0.435547,0.9003 0.451172,0.2168 0.572265,0.2754 0.04492,0.022 0.341797,0.125 0.470703,0.1719 0.34375,-0.9395 -0.470703,-0.1718 -0.324219,-0.1192 -0.544922,-0.2617 -0.449218,-0.2187 z m 11.378906,0 -0.449219,0.2187 -0.544922,0.2617 -0.324219,0.1192 -0.470703,0.1718 0.34375,0.9395 0.470703,-0.1719 0.341797,-0.125 0.04492,-0.022 0.572266,-0.2754 0.451172,-0.2167 -0.435547,-0.9004 z m 6.751953,0.4335 1.064453,1.0645 -0.851562,0.1699 a 0.50005,0.50005 0 0 0 -0.392578,0.3926 l -0.169922,0.8516 -1.064454,-1.0645 0.210938,-1.0586 a 0.50005,0.50005 0 0 0 0.142578,-0.1426 l 1.060547,-0.2129 z m -15.431641,0.6075 -0.248046,0.9687 0.484374,0.1231 0.08984,0.023 0.05078,0.01 0.894531,0.1367 0.49414,0.076 0.150391,-0.9883 -0.494141,-0.076 -0.86914,-0.1328 -0.06836,-0.017 -0.484375,-0.1231 z m 5.980469,0 -0.484375,0.123 -0.06836,0.018 -0.869141,0.1328 -0.49414,0.076 0.15039,0.9883 0.494141,-0.076 0.894531,-0.1367 0.05078,-0.01 0.08984,-0.024 0.484375,-0.123 -0.248047,-0.9688 z" color="#000" font-family="sans-serif" font-weight="400" overflow="visible" white-space="normal"/></g></svg>