<svg xmlns="http://www.w3.org/2000/svg" xmlns:xlink="http://www.w3.org/1999/xlink" width="42" height="42" viewBox="0 0 42 42"><defs><linearGradient id="b" x1="992.183" x2="1019.298" y1="516.081" y2="545.959" gradientTransform="translate(-1332.367 316.47) scale(1.34562)" gradientUnits="userSpaceOnUse" xlink:href="#a"/><linearGradient id="a"><stop offset="0" stop-color="#ff1679"/><stop offset="1" stop-color="#ff770b"/></linearGradient></defs><g transform="translate(0 -1010.362)"><rect width="42" height="42" y="1010.362" fill="url(#b)" rx="8.876" ry="8.876"/><path style="line-height:normal;text-indent:0;text-align:start;text-decoration-line:none;text-decoration-style:solid;text-decoration-color:#000;text-transform:none;block-progression:tb;isolation:auto;mix-blend-mode:normal" fill="#fff" d="m 34.523438,1016.8642 a 0.50004997,0.50004997 0 0 0 -0.04883,0 0.50004997,0.50004997 0 0 0 -0.328125,0.1445 l -3,3 a 0.50004997,0.50004997 0 0 0 -0.121093,0.5117 l 0.402343,1.207 -3.140625,3.1407 c -2.156809,-1.9864 -5.026242,-3.209 -8.185546,-3.209 -6.677928,0 -12.1015971,5.4235 -12.101562,12.1015 2.24e-5,6.6779 5.423675,12.1016 12.101562,12.1016 6.677891,0 12.103494,-5.4237 12.103516,-12.1016 1.7e-5,-3.1593 -1.224122,-6.0292 -3.210937,-8.1855 l 3.140625,-3.1406 1.207031,0.4023 a 0.50004997,0.50004997 0 0 0 0.511719,-0.1211 l 3,-3 a 0.50004997,0.50004997 0 0 0 -0.195313,-0.8281 l -1.263672,-0.4199 -0.419922,-1.2637 a 0.50004997,0.50004997 0 0 0 -0.451171,-0.3418 z m -0.242188,1.4258 0.244141,0.7324 a 0.50004997,0.50004997 0 0 0 0.316406,0.3164 l 0.732422,0.2442 -2.208985,2.2089 -0.96875,-0.3222 -0.324218,-0.9707 2.208984,-2.209 z m -14.179688,4.3711 c 2.888625,0 5.50839,1.1081 7.482422,2.9121 l -1.43164,1.4316 a 9.0799257,9.0799257 0 0 0 -6.050782,-2.3222 9.0799257,9.0799257 0 0 0 -9.080077,9.08 9.0799257,9.0799257 0 0 0 9.080077,9.0782 9.0799257,9.0799257 0 0 0 9.080079,-9.0782 9.0799257,9.0799257 0 0 0 -2.322266,-6.0488 l 1.431641,-1.4336 c 1.804484,1.9736 2.914077,4.5938 2.914062,7.4824 -2.1e-5,6.1374 -4.966064,11.1016 -11.103516,11.1016 -6.137448,0 -11.1015414,-4.9642 -11.101562,-11.1016 -3.23e-5,-6.1375 4.964076,-11.1015 11.101562,-11.1015 z m 0,4.039 a 7.0621669,7.0621669 0 0 1 4.623047,1.7344 l -1.427734,1.4278 a 5.0444195,5.0444195 0 0 0 -3.195313,-1.1446 5.0444195,5.0444195 0 0 0 -5.042968,5.0449 5.0444195,5.0444195 0 0 0 5.042968,5.043 5.0444195,5.0444195 0 0 0 5.044922,-5.043 5.0444195,5.0444195 0 0 0 -1.142578,-3.1933 l 1.431641,-1.4317 a 7.0621669,7.0621669 0 0 1 1.728515,4.625 7.0621669,7.0621669 0 0 1 -7.0625,7.0606 7.0621669,7.0621669 0 0 1 -7.062499,-7.0606 7.0621669,7.0621669 0 0 1 7.062499,-7.0625 z m 0,4.0352 a 3.0266448,3.0266448 0 0 1 1.75586,0.5664 l -1.501953,1.502 c -0.08306,-0.022 -0.163883,-0.051 -0.253907,-0.051 -0.557185,0 -1.007802,0.4525 -1.007812,1.0097 10e-6,0.5572 0.450627,1.0079 1.007812,1.0079 0.557196,0 1.009766,-0.4507 1.009766,-1.0079 0,-0.088 -0.02949,-0.1684 -0.05078,-0.25 l 1.503906,-1.5058 a 3.0266448,3.0266448 0 0 1 0.564453,1.7558 3.0266448,3.0266448 0 0 1 -3.027344,3.0254 3.0266448,3.0266448 0 0 1 -3.02539,-3.0254 3.0266448,3.0266448 0 0 1 3.02539,-3.0273 z" color="#000" font-family="sans-serif" font-weight="400" overflow="visible" white-space="normal"/></g></svg>