<svg xmlns="http://www.w3.org/2000/svg" xmlns:xlink="http://www.w3.org/1999/xlink" width="42" height="42" viewBox="0 0 42 42"><defs><linearGradient id="b" x1="1073.403" x2="1097.116" y1="516.451" y2="544.308" gradientTransform="translate(-1438.388 316.47) scale(1.34562)" gradientUnits="userSpaceOnUse" xlink:href="#a"/><linearGradient id="a"><stop offset="0" stop-color="#16ff6a"/><stop offset="1" stop-color="#0090a5"/></linearGradient></defs><g transform="translate(0 -1010.362)"><rect width="42" height="42" y="1010.362" fill="url(#b)" rx="8.876" ry="8.876"/><path fill="#fff" style="line-height:normal;text-indent:0;text-align:start;text-decoration-line:none;text-decoration-style:solid;text-decoration-color:#000;text-transform:none;block-progression:tb;isolation:auto;mix-blend-mode:normal" d="m 7.5,1017.3622 a 0.50004997,0.50004997 0 0 0 -0.5,0.5 l 0,25 a 0.50004997,0.50004997 0 0 0 0.5,0.5 l 16.185547,0 c 1.126409,2.3603 3.52934,4 6.314453,4 3.860071,0 7,-3.1399 7,-7 0,-3.1651 -2.111799,-5.8443 -5,-6.707 l 0,-11.6934 a 0.50005,0.50005 0 0 0 0,-0.207 l 0,-3.8926 a 0.50004997,0.50004997 0 0 0 -0.5,-0.5 l -24,0 z m 0.5,1 23,0 0,3 -23,0 0,-3 z m 17.5,1 a 0.5,0.5 0 0 0 -0.5,0.5 0.5,0.5 0 0 0 0.5,0.5 0.5,0.5 0 0 0 0.5,-0.5 0.5,0.5 0 0 0 -0.5,-0.5 z m 2,0 a 0.5,0.5 0 0 0 -0.5,0.5 0.5,0.5 0 0 0 0.5,0.5 0.5,0.5 0 0 0 0.5,-0.5 0.5,0.5 0 0 0 -0.5,-0.5 z m 2,0 a 0.5,0.5 0 0 0 -0.5,0.5 0.5,0.5 0 0 0 0.5,0.5 0.5,0.5 0 0 0 0.5,-0.5 0.5,0.5 0 0 0 -0.5,-0.5 z m -21.5,3 23,0 0,11.0781 c -0.327589,-0.047 -0.659546,-0.078 -1,-0.078 -1.312964,0 -2.538738,0.3687 -3.589844,1 l -2.410156,0 0,1 1.109375,0 C 23.810163,1036.6338 23,1038.405 23,1040.3623 l -13,0 0,1 13.080078,0 c 0.04924,0.3414 0.118032,0.6763 0.214844,1 l -15.294922,0 0,-20 z m 3,1 0,1 18,0 0,-1 -18,0 z m 1,2 0,1 16,0 0,-1 -16,0 z m -1.5,2 a 0.50005,0.50005 0 0 0 -0.5,0.5 l 0,4 a 0.50005,0.50005 0 0 0 0.5,0.5 l 4,0 a 0.50005,0.50005 0 0 0 0.5,-0.5 l 0,-4 a 0.50005,0.50005 0 0 0 -0.5,-0.5 l -4,0 z m 7,0 a 0.50004997,0.50004997 0 0 0 -0.5,0.5 l 0,4 a 0.50004997,0.50004997 0 0 0 0.5,0.5 l 4,0 a 0.50004997,0.50004997 0 0 0 0.5,-0.5 l 0,-4 a 0.50004997,0.50004997 0 0 0 -0.5,-0.5 l -4,0 z m 7,0 a 0.50005,0.50005 0 0 0 -0.5,0.5 l 0,4 a 0.50005,0.50005 0 0 0 0.5,0.5 l 4,0 a 0.50005,0.50005 0 0 0 0.5,-0.5 l 0,-4 a 0.50005,0.50005 0 0 0 -0.5,-0.5 l -4,0 z m -13.5,1 3,0 0,3 -3,0 0,-3 z m 7,0 3,0 0,3 -3,0 0,-3 z m 7,0 3,0 0,3 -3,0 0,-3 z m -15,6 0,1 5,0 0,-1 -5,0 z m 7,0 0,1 5,0 0,-1 -5,0 z m 13,0 c 3.319631,0 6,2.6804 6,6 0,3.3197 -2.680369,6 -6,6 -3.319631,0 -6,-2.6803 -6,-6 0,-3.3196 2.680369,-6 6,-6 z m -19,2 0,1 3,0 0,-1 -3,0 z m 7,0 0,1 3,0 0,-1 -3,0 z m 13.005859,0.4941 a 0.50005,0.50005 0 0 0 -0.480468,0.3497 l -2,6 a 0.50005,0.50005 0 1 0 0.949218,0.3144 l 2,-6 a 0.50005,0.50005 0 0 0 -0.46875,-0.6641 z M 27.5,1037.9892 a 0.50005,0.50005 0 0 0 -0.347656,0.1406 l -1.929688,1.8125 a 0.50005,0.50005 0 0 0 -0.08594,0.7597 0.50020812,0.50020812 0 0 0 0.01367,0.014 0.50005,0.50005 0 0 0 0.01172,0.012 l 1.990235,1.8692 a 0.50017753,0.50017753 0 0 0 0.685547,-0.7285 l -1.60156,-1.5059 1.601563,-1.5039 A 0.50005,0.50005 0 0 0 27.5,1037.9892 Z m 4.96875,0 a 0.50005,0.50005 0 0 0 -0.322266,0.8691 l 1.601563,1.5039 -1.601563,1.5059 a 0.50017753,0.50017753 0 0 0 0.685547,0.7285 l 1.986328,-1.8672 a 0.50020812,0.50020812 0 0 0 0.03906,-0.039 0.50005,0.50005 0 0 0 0.02734,-0.035 0.50020812,0.50020812 0 0 0 0.0039,0 0.50005,0.50005 0 0 0 -0.13086,-0.7129 l -1.925768,-1.8086 a 0.50005,0.50005 0 0 0 -0.363281,-0.1406 z M 11,1038.3622 l 0,1 3,0 0,-1 -3,0 z m 7,0 0,1 3,0 0,-1 -3,0 z" color="#000" font-family="sans-serif" font-weight="400" overflow="visible" white-space="normal"/></g></svg>