<svg xmlns="http://www.w3.org/2000/svg" xmlns:xlink="http://www.w3.org/1999/xlink" width="42" height="42" viewBox="0 0 42 42"><defs><linearGradient id="b" x1="868.253" x2="937.656" y1="521.354" y2="588.736" gradientTransform="translate(-1161.097 316.47) scale(1.34562)" gradientUnits="userSpaceOnUse" xlink:href="#a"/><linearGradient id="a"><stop offset="0" stop-color="#24f3d2"/><stop offset=".394" stop-color="#0674f0"/><stop offset=".507" stop-color="#6961b5"/><stop offset=".813" stop-color="#f34660"/><stop offset="1" stop-color="#ee078d"/></linearGradient></defs><g transform="translate(0 -1010.362)"><rect width="42" height="42" y="1010.362" fill="url(#b)" rx="8.876" ry="8.876"/><path style="line-height:normal;text-indent:0;text-align:start;text-decoration-line:none;text-decoration-style:solid;text-decoration-color:#000;text-transform:none;block-progression:tb;isolation:auto;mix-blend-mode:normal" fill="#fff" fill-rule="evenodd" d="m 17.480469,1017.3602 c -3.021901,0 -5.4805,2.4692 -5.480469,5.5 2.9e-5,3.0308 2.45861,5.5 5.480469,5.5 3.021858,0 5.48044,-2.4692 5.480469,-5.5 3.1e-5,-3.0308 -2.458569,-5.5 -5.480469,-5.5 z m 0,1 c 2.479275,0 4.480494,2.0075 4.480469,4.5 -2.4e-5,2.4925 -2.001229,4.5 -4.480469,4.5 -2.47924,0 -4.480445,-2.0075 -4.480469,-4.5 -2.6e-5,-2.4925 2.001193,-4.5 4.480469,-4.5 z m 13.123047,4.7305 c -0.276131,0 -0.499972,0.2239 -0.5,0.5 l 0,0.5117 c -0.144182,0.05 -0.28452,0.1058 -0.421875,0.1719 l -0.361328,-0.3594 c -0.195265,-0.1952 -0.511766,-0.1952 -0.707031,0 l -1.060547,1.0606 c -0.195163,0.1953 -0.195163,0.5117 0,0.707 l 0.361328,0.3613 c -0.06674,0.1376 -0.125765,0.2774 -0.175781,0.4219 l -0.509766,0 c -0.276131,0 -0.499972,0.2239 -0.5,0.5 l 0,1.5 c 2.8e-5,0.2761 0.223869,0.5 0.5,0.5 l 0.511719,0 c 0.0495,0.1442 0.105749,0.2845 0.171875,0.4219 l -0.359375,0.3613 c -0.195163,0.1953 -0.195163,0.5117 0,0.707 l 1.060547,1.0606 c 0.195265,0.1952 0.511766,0.1952 0.707031,0 l 0.361328,-0.3614 c 0.137413,0.067 0.277569,0.124 0.421875,0.1739 l 0,0.5117 c 2.8e-5,0.2761 0.223869,0.5 0.5,0.5 l 1.5,0 c 0.276131,0 0.499972,-0.2239 0.5,-0.5 l 0,-0.5117 c 0.144418,-0.05 0.284307,-0.1076 0.421875,-0.1739 l 0.361328,0.3614 c 0.195265,0.1952 0.511766,0.1952 0.707031,0 l 1.060547,-1.0606 c 0.195163,-0.1953 0.195163,-0.5117 0,-0.707 l -0.361328,-0.3613 c 0.06674,-0.1377 0.125768,-0.2774 0.175781,-0.4219 l 0.509766,0 c 0.276131,0 0.499972,-0.2239 0.5,-0.5 l 0,-1.5 c -2.8e-5,-0.2761 -0.223869,-0.5 -0.5,-0.5 l -0.511719,0 c -0.04958,-0.1444 -0.107569,-0.2843 -0.173828,-0.4219 l 0.361328,-0.3613 c 0.195163,-0.1953 0.195163,-0.5117 0,-0.707 l -1.060547,-1.0606 c -0.195265,-0.1952 -0.511766,-0.1952 -0.707031,0 l -0.361328,0.3613 c -0.137624,-0.067 -0.277332,-0.1257 -0.421875,-0.1757 l 0,-0.5098 c -2.8e-5,-0.2761 -0.223869,-0.5 -0.5,-0.5 z m 0.5,1 0.5,0 0,0.3379 c -3.79e-4,0.2336 0.160976,0.4363 0.388672,0.4883 0.315163,0.072 0.616856,0.1953 0.890625,0.3672 0.197473,0.1238 0.454295,0.095 0.619141,-0.07 l 0.238281,-0.2382 0.353515,0.3535 -0.238281,0.2363 c -0.164854,0.1648 -0.194019,0.4216 -0.07031,0.6191 0.17111,0.2744 0.296269,0.5752 0.367187,0.8907 0.05109,0.2277 0.252927,0.3899 0.486328,0.3906 l 0.339844,0 0,0.5 -0.337891,0 c -0.233564,-4e-4 -0.436272,0.161 -0.488281,0.3887 -0.07182,0.3151 -0.195329,0.6168 -0.367187,0.8906 -0.123709,0.1975 -0.09454,0.4543 0.07031,0.6191 l 0.238281,0.2383 -0.353515,0.3535 -0.236328,-0.2383 c -0.164846,-0.1648 -0.421668,-0.1938 -0.619141,-0.07 -0.274312,0.1711 -0.575199,0.2944 -0.890625,0.3653 -0.228436,0.051 -0.390751,0.2541 -0.390625,0.4882 l 0,0.3399 -0.5,0 0,-0.3379 c 3.79e-4,-0.2336 -0.160976,-0.4363 -0.388672,-0.4883 -0.315158,-0.072 -0.61685,-0.1953 -0.890625,-0.3672 -0.197023,-0.1243 -0.453799,-0.096 -0.619141,0.068 l -0.238281,0.2383 -0.353515,-0.3535 0.238281,-0.2383 c 0.163877,-0.1645 0.192998,-0.4201 0.07031,-0.6172 -0.17111,-0.2743 -0.296269,-0.5751 -0.367187,-0.8906 -0.05105,-0.2278 -0.252897,-0.3899 -0.486328,-0.3907 l -0.339844,0 0,-0.5 0.337891,0 c 0.233534,4e-4 0.436232,-0.1609 0.488281,-0.3886 0.07183,-0.3151 0.195335,-0.6169 0.367187,-0.8907 0.123709,-0.1975 0.09454,-0.4543 -0.07031,-0.6191 l -0.238281,-0.2383 0.353515,-0.3535 0.236328,0.2363 c 0.164348,0.1654 0.421218,0.1953 0.619141,0.072 0.274309,-0.1711 0.575202,-0.2963 0.890625,-0.3672 0.227743,-0.051 0.389864,-0.2529 0.390625,-0.4863 z m 0.25,1.9785 c -0.90292,0 -1.646484,0.7435 -1.646484,1.6465 0,0.9029 0.7433,1.6465 1.646484,1.6465 0.903179,0 1.646484,-0.7436 1.646484,-1.6465 0,-0.903 -0.74357,-1.6465 -1.646484,-1.6465 z m 0,1 c 0.356726,0 0.646484,0.2897 0.646484,0.6465 0,0.3567 -0.290023,0.6465 -0.646484,0.6465 -0.356476,0 -0.646484,-0.2898 -0.646484,-0.6465 0,-0.3568 0.289744,-0.6465 0.646484,-0.6465 z M 14.5,1029.3602 c -4.147629,0 -7.5,3.3682 -7.5,7.5293 l 0,4.5156 c 2.76e-5,0.2762 0.223869,0.5 0.5,0.5 l 3.853516,0 0.292969,0 8.453125,0 c 0.05962,-0.1809 0.148393,-0.3529 0.273437,-0.5058 -0.388526,-0.039 -0.740903,-0.2224 -0.992187,-0.4942 l -7.38086,0 0,-4.0214 c 0.0045,-0.2823 -0.225511,-0.5123 -0.507812,-0.5079 -0.27618,0 -0.496558,0.2317 -0.492188,0.5079 l 0,4.0214 -3,0 0,-4.0156 c 0,-3.6266 2.891267,-6.5293 6.5,-6.5293 l 6,0 c 1.504813,0 2.880829,0.51 3.978516,1.3614 0.250204,-0.2219 0.57051,-0.3614 0.929688,-0.3614 l 0.173828,0 c -1.336161,-1.2385 -3.116693,-2 -5.082032,-2 z m 10.908204,3.002 c -0.276131,0 -0.499972,0.2239 -0.5,0.5 l 0,0.8926 c -0.31027,0.096 -0.608386,0.2192 -0.896485,0.3691 l -0.628906,-0.6289 c -0.195265,-0.1952 -0.511766,-0.1952 -0.707031,0 l -1.542969,1.543 c -0.195163,0.1953 -0.195163,0.5117 0,0.707 l 0.628906,0.6289 c -0.150663,0.2878 -0.274401,0.5864 -0.371094,0.8965 l -0.890625,0 c -0.276131,0 -0.499972,0.2239 -0.5,0.5 l 0,2.1816 c 2.8e-5,0.2761 0.223869,0.5 0.5,0.5 l 0.892578,0 c 0.09585,0.3103 0.217324,0.6103 0.367188,0.8985 l -0.626953,0.6289 c -0.195163,0.1953 -0.195163,0.5117 0,0.707 l 1.542969,1.543 c 0.195265,0.1952 0.511766,0.1952 0.707031,0 l 0.628906,-0.6309 c 0.287913,0.1508 0.586224,0.2744 0.896485,0.3711 l 0,0.8926 c 2.8e-5,0.2761 0.223869,0.5 0.5,0.5 l 2.18164,0 c 0.276131,0 0.499972,-0.2239 0.5,-0.5 l 0,-0.8946 c 0.310309,-0.096 0.610301,-0.2173 0.898438,-0.3671 l 0.628906,0.6289 c 0.195265,0.1952 0.511766,0.1952 0.707031,0 l 1.542969,-1.543 c 0.195163,-0.1953 0.195163,-0.5117 0,-0.707 l -0.63086,-0.6309 c 0.15076,-0.2879 0.274355,-0.5862 0.371094,-0.8965 l 0.892578,0 c 0.276131,0 0.499972,-0.2239 0.5,-0.5 l 0,-2.1816 c -2.8e-5,-0.2761 -0.223869,-0.5 -0.5,-0.5 l -0.894531,0 c -0.0958,-0.31 -0.21748,-0.6086 -0.367187,-0.8965 l 0.628906,-0.6289 c 0.195163,-0.1953 0.195163,-0.5117 0,-0.707 l -1.542969,-1.543 c -0.195265,-0.1952 -0.511766,-0.1952 -0.707031,0 l -0.63086,0.6308 c -0.288008,-0.1509 -0.586107,-0.2762 -0.896484,-0.373 l 0,-0.8906 c -2.8e-5,-0.2761 -0.223869,-0.5 -0.5,-0.5 z m 0.5,1 1.18164,0 0,0.7187 c 5.07e-4,0.2329 0.161669,0.4345 0.388672,0.4864 0.483329,0.1101 0.945382,0.3009 1.365234,0.5644 0.197023,0.1243 0.453799,0.096 0.619141,-0.068 l 0.507813,-0.5078 0.835937,0.836 -0.505859,0.5039 c -0.164854,0.1648 -0.194019,0.4216 -0.07031,0.6191 0.262398,0.4207 0.451781,0.8815 0.560547,1.3653 0.05125,0.2285 0.254149,0.3908 0.488281,0.3906 l 0.720703,0 0,1.1816 -0.71875,0 c -0.233564,-4e-4 -0.436272,0.161 -0.488281,0.3887 -0.110145,0.4833 -0.3009,0.9454 -0.564453,1.3652 -0.123763,0.1976 -0.0946,0.4544 0.07031,0.6192 l 0.507813,0.5078 -0.835937,0.8359 -0.50586,-0.5058 c -0.164538,-0.1638 -0.420151,-0.1928 -0.617187,-0.07 -0.420679,0.2623 -0.883456,0.4518 -1.367188,0.5606 -0.228472,0.051 -0.390798,0.2542 -0.390625,0.4883 l 0,0.7207 -1.18164,0 0,-0.7188 c 3.79e-4,-0.2336 -0.160976,-0.4363 -0.388672,-0.4883 -0.483324,-0.1101 -0.945376,-0.3009 -1.365235,-0.5644 -0.197473,-0.1238 -0.454295,-0.095 -0.61914,0.07 l -0.50586,0.5078 -0.835937,-0.8359 0.503906,-0.5059 c 0.164515,-0.164 0.194453,-0.4197 0.07227,-0.6172 -0.262408,-0.4206 -0.451791,-0.8835 -0.560547,-1.3672 -0.05125,-0.2285 -0.254149,-0.3908 -0.488281,-0.3906 l -0.720704,0 0,-1.1816 0.71875,0 c 0.232833,-5e-4 0.434482,-0.1617 0.486328,-0.3887 0.110155,-0.4833 0.30091,-0.9454 0.564454,-1.3652 0.124267,-0.1971 0.09591,-0.4539 -0.06836,-0.6192 l -0.507812,-0.5058 0.835937,-0.836 0.503907,0.5039 c 0.164348,0.1654 0.421217,0.1953 0.61914,0.072 0.420679,-0.2624 0.881503,-0.4518 1.365234,-0.5605 0.228473,-0.051 0.390799,-0.2542 0.390626,-0.4883 l 0,-0.7207 z m 0.591796,3 c -1.372104,0 -2.5,1.1258 -2.5,2.498 0,1.3721 1.127532,2.502 2.5,2.502 1.372468,0 2.498047,-1.1299 2.498047,-2.502 0,-1.3722 -1.125943,-2.498 -2.498047,-2.498 z m 0,1 c 0.825996,0 1.498047,0.6719 1.498047,1.498 0,0.8259 -0.672415,1.502 -1.498047,1.502 -0.825632,0 -1.5,-0.6761 -1.5,-1.502 0,-0.8261 0.674004,-1.498 1.5,-1.498 z" color="#000" font-family="sans-serif" font-weight="400" overflow="visible" white-space="normal"/></g></svg>