<svg xmlns="http://www.w3.org/2000/svg" xmlns:xlink="http://www.w3.org/1999/xlink" width="42" height="42" viewBox="0 0 42 42"><defs><linearGradient id="b" x1="1073.403" x2="1097.116" y1="516.451" y2="544.308" gradientTransform="translate(-1438.388 316.47) scale(1.34562)" gradientUnits="userSpaceOnUse" xlink:href="#a"/><linearGradient id="a"><stop offset="0" stop-color="#16ff6a"/><stop offset="1" stop-color="#0090a5"/></linearGradient></defs><g transform="translate(0 -1010.362)"><rect width="42" height="42" y="1010.362" fill="url(#b)" rx="8.876" ry="8.876"/><path style="line-height:normal;text-indent:0;text-align:start;text-decoration-line:none;text-decoration-style:solid;text-decoration-color:#000;text-transform:none;block-progression:tb;isolation:auto;mix-blend-mode:normal" fill="#fff" fill-rule="evenodd" d="m 21.480469,1018.7954 c -3.021901,0 -5.4805,2.4692 -5.480469,5.5 2.9e-5,3.0308 2.458611,5.5 5.480469,5.5 3.021858,0 5.48044,-2.4692 5.480469,-5.5 3e-5,-3.0308 -2.458568,-5.5 -5.480469,-5.5 z m 0,1 c 2.479275,0 4.480494,2.0075 4.480469,4.5 -2.4e-5,2.4925 -2.001229,4.5 -4.480469,4.5 -2.47924,0 -4.480445,-2.0075 -4.480469,-4.5 -2.6e-5,-2.4925 2.001194,-4.5 4.480469,-4.5 z m -2.980469,11 c -4.147628,0 -7.5,3.3682 -7.5,7.5293 l 0,4.5156 a 0.50004994,0.50004994 0 0 0 0.5,0.5 l 3.853516,0 a 0.50004994,0.50004994 0 0 0 0.292968,0 l 11.707032,0 a 0.50004994,0.50004994 0 0 0 0.292968,0 l 3.853516,0 a 0.50004994,0.50004994 0 0 0 0.5,-0.5 l 0,-4.5156 c 0,-4.1611 -3.352371,-7.5293 -7.5,-7.5293 l -6,0 z m 0,1 6,0 c 3.608733,0 6.5,2.9027 6.5,6.5293 l 0,4.0156 -3,0 0,-4.0234 A 0.50004994,0.50004994 0 0 0 27.492188,1037.811 0.50004994,0.50004994 0 0 0 27,1038.3169 l 0,4.0234 -11,0 0,-4.0234 A 0.50004994,0.50004994 0 0 0 15.492188,1037.811 0.50004994,0.50004994 0 0 0 15,1038.3169 l 0,4.0234 -3,0 0,-4.0156 c 0,-3.6266 2.891267,-6.5293 6.5,-6.5293 z" color="#000" font-family="sans-serif" font-weight="400" overflow="visible" white-space="normal"/></g></svg>