<svg xmlns="http://www.w3.org/2000/svg" xmlns:xlink="http://www.w3.org/1999/xlink" width="42" height="42" viewBox="0 0 42 42"><defs><linearGradient id="b" x1="868.253" x2="937.656" y1="521.354" y2="588.736" gradientTransform="translate(-1161.097 316.47) scale(1.34562)" gradientUnits="userSpaceOnUse" xlink:href="#a"/><linearGradient id="a"><stop offset="0" stop-color="#24f3d2"/><stop offset=".394" stop-color="#0674f0"/><stop offset=".507" stop-color="#6961b5"/><stop offset=".813" stop-color="#f34660"/><stop offset="1" stop-color="#ee078d"/></linearGradient></defs><g transform="translate(0 -1010.362)"><rect width="42" height="42" y="1010.362" fill="url(#b)" rx="8.876" ry="8.876"/><path style="line-height:normal;text-indent:0;text-align:start;text-decoration-line:none;text-decoration-style:solid;text-decoration-color:#000;text-transform:none;block-progression:tb;isolation:auto;mix-blend-mode:normal" fill="#fff" fill-rule="evenodd" d="m 14.511719,1019.3544 c -0.276131,0 -0.499973,0.2239 -0.5,0.5 l -0.01172,2 c 2.7e-5,0.2761 0.235588,0.5 0.511719,0.5 l 13,0 c 0.276131,0 0.499972,-0.2239 0.5,-0.5 l 0,-2.4844 -0.5,-0.016 0,0 z m 0.488281,1 9.5,0 0,1 -9.5,0 z m 10.5,0 1.5,0 0,1 -1.5,0 z m -4.5,2.9941 c -2.468148,0 -4.476542,2.0222 -4.476562,4.5 -2.5e-5,1.4235 0.674993,2.6802 1.707031,3.5059 l -0.271485,0 c -3.293541,0 -5.958984,2.678 -5.958984,5.9824 l 0,5.5215 c 2.8e-5,0.2761 0.223869,0.5 0.5,0.5 l 2.833984,0 c 0.07077,0.016 0.144075,0.016 0.214844,0 l 2.320313,0 6.226562,0 2.304688,0 c 0.06384,0.013 0.12952,0.013 0.193359,0 l 2.90625,0 c 0.276131,0 0.499972,-0.2239 0.5,-0.5 l 0,-5.5215 c 0,-3.3044 -2.665443,-5.9824 -5.958984,-5.9824 l -0.271485,0 c 1.032038,-0.8257 1.707056,-2.0824 1.707031,-3.5059 -1.9e-5,-2.4778 -2.008414,-4.5 -4.476562,-4.5 z m 0,1 c 1.924579,0 3.476547,1.5595 3.476562,3.5 3.3e-5,1.9404 -1.551948,3.5 -3.476562,3.5 -1.924614,0 -3.476596,-1.5596 -3.476562,-3.5 1.4e-5,-1.9405 1.551983,-3.5 3.476562,-3.5 z m -3.041016,8.0059 1.699219,0 -0.365234,5.332 c -0.01085,0.1502 0.04654,0.2973 0.15625,0.4004 l 1.208984,1.1328 c 0.192291,0.1801 0.491303,0.1801 0.683594,0 l 1.208984,-1.1328 c 0.109709,-0.1031 0.167105,-0.2502 0.15625,-0.4004 l -0.365234,-5.332 1.699219,0 c 2.754478,0 4.958984,2.2123 4.958984,4.9824 l 0,5.0215 -2,0 0,-2.5137 c 0.0033,-0.2815 -0.226323,-0.5102 -0.507812,-0.5058 -0.275373,0 -0.495422,0.2305 -0.492188,0.5058 l 0,2.5137 -1.869141,0 -0.03516,0 -6.191406,0 -1.962891,0 0,-2.5098 c 0.0044,-0.2822 -0.225546,-0.5122 -0.507812,-0.5078 -0.276145,0 -0.496508,0.2317 -0.492188,0.5078 l 0,2.5098 -1.941406,0 0,-5.0215 c 0,-2.7701 2.204506,-4.9824 4.958984,-4.9824 z m 2.703125,0 0.677735,0 0.353515,5.1641 -0.693359,0.6504 -0.693359,-0.6504 z" color="#000" font-family="sans-serif" font-weight="400" overflow="visible" white-space="normal"/></g></svg>