<?xml version="1.0" encoding="UTF-8" standalone="no"?>
<svg xmlns:dc="http://purl.org/dc/elements/1.1/" xmlns:cc="http://creativecommons.org/ns#" xmlns:rdf="http://www.w3.org/1999/02/22-rdf-syntax-ns#" xmlns:svg="http://www.w3.org/2000/svg" xmlns="http://www.w3.org/2000/svg" xmlns:sodipodi="http://sodipodi.sourceforge.net/DTD/sodipodi-0.dtd" xmlns:inkscape="http://www.inkscape.org/namespaces/inkscape" viewBox="0 0 47.5 47.5" style="enable-background:new 0 0 47.5 47.5;" xml:space="preserve" version="1.1" id="svg2" inkscape:version="0.91 r13725" sodipodi:docname="1f358.svg"><sodipodi:namedview pagecolor="#ffffff" bordercolor="#666666" borderopacity="1" objecttolerance="10" gridtolerance="10" guidetolerance="10" inkscape:pageopacity="0" inkscape:pageshadow="2" inkscape:window-width="640" inkscape:window-height="480" id="namedview32" showgrid="false" inkscape:zoom="4.9684211" inkscape:cx="23.75" inkscape:cy="23.75" inkscape:window-x="0" inkscape:window-y="0" inkscape:window-maximized="0" inkscape:current-layer="svg2"/><defs id="defs6"><clipPath id="clipPath16" clipPathUnits="userSpaceOnUse"><path id="path18" d="M 0,38 38,38 38,0 0,0 0,38 Z"/></clipPath><clipPath id="clipPath56" clipPathUnits="userSpaceOnUse"><path id="path58" d="M 2,19 C 2,9.611 9.609,2 19,2 l 0,0 c 9.391,0 17,7.611 17,17 l 0,0 c 0,9.39 -7.609,17 -17,17 l 0,0 C 9.609,36 2,28.39 2,19"/></clipPath></defs><g id="g3420"><g transform="matrix(1.25,0,0,-1.25,45,23.75)" id="g20"><path id="path22" style="fill:#c1694f;fill-opacity:1;fill-rule:nonzero;stroke:none" d="m 0,0 c 0,-9.389 -7.609,-17 -17,-17 -9.391,0 -17,7.611 -17,17 0,9.389 7.609,17 17,17 C -7.609,17 0,9.389 0,0" inkscape:connector-curvature="0"/></g><g transform="matrix(1.25,0,0,-1.25,35.32225,35.802)" id="g24"><path id="path26" style="fill:#e29386;fill-opacity:1;fill-rule:nonzero;stroke:none" d="m 0,0 c -0.461,-0.316 -1.091,-0.199 -1.406,0.263 -0.316,0.46 -0.198,1.091 0.261,1.406 l 1.67,1.144 C 0.985,3.128 1.614,3.011 1.931,2.55 2.246,2.09 2.129,1.459 1.668,1.145 L 0,0 Z" inkscape:connector-curvature="0"/></g><g transform="matrix(1.25,0,0,-1.25,38.370375,26.933625)" id="g28"><path id="path30" style="fill:#e29386;fill-opacity:1;fill-rule:nonzero;stroke:none" d="M 0,0 C -0.512,0.207 -0.758,0.792 -0.549,1.303 -0.34,1.814 0.244,2.06 0.755,1.852 L 2.607,1.097 C 3.118,0.889 3.364,0.306 3.156,-0.206 2.948,-0.718 2.364,-0.964 1.853,-0.755 L 0,0 Z" inkscape:connector-curvature="0"/></g><g transform="matrix(1.25,0,0,-1.25,32.752625,20.36375)" id="g32"><path id="path34" style="fill:#e29386;fill-opacity:1;fill-rule:nonzero;stroke:none" d="m 0,0 c -0.519,0.21 -0.768,0.801 -0.555,1.318 0.209,0.517 0.801,0.766 1.317,0.556 L 2.637,1.11 C 3.152,0.899 3.401,0.31 3.19,-0.208 2.979,-0.725 2.391,-0.974 1.872,-0.763 L 0,0 Z" inkscape:connector-curvature="0"/></g><g transform="matrix(1.25,0,0,-1.25,6.5015,29.11375)" id="g36"><path id="path38" style="fill:#e29386;fill-opacity:1;fill-rule:nonzero;stroke:none" d="m 0,0 c -0.517,0.21 -0.766,0.801 -0.554,1.318 0.21,0.517 0.801,0.766 1.318,0.556 L 2.637,1.11 C 3.154,0.899 3.402,0.31 3.192,-0.208 2.981,-0.726 2.391,-0.975 1.874,-0.764 L 0,0 Z" inkscape:connector-curvature="0"/></g><g transform="matrix(1.25,0,0,-1.25,10.94725,21.427)" id="g40"><path id="path42" style="fill:#e29386;fill-opacity:1;fill-rule:nonzero;stroke:none" d="m 0,0 c -0.461,-0.316 -1.091,-0.199 -1.406,0.264 -0.316,0.46 -0.198,1.09 0.261,1.405 l 1.67,1.144 C 0.985,3.128 1.614,3.011 1.931,2.55 2.246,2.09 2.129,1.459 1.668,1.144 L 0,0 Z" inkscape:connector-curvature="0"/></g><g transform="matrix(1.25,0,0,-1.25,22.232625,26.101125)" id="g44"><path id="path46" style="fill:#e29386;fill-opacity:1;fill-rule:nonzero;stroke:none" d="M 0,0 C -0.768,0.312 -1.137,1.188 -0.824,1.956 -0.51,2.722 0.365,3.091 1.132,2.779 L 3.91,1.646 C 4.677,1.334 5.046,0.46 4.734,-0.308 4.422,-1.075 3.546,-1.444 2.778,-1.132 L 0,0 Z" inkscape:connector-curvature="0"/></g><g transform="matrix(1.25,0,0,-1.25,14.502,33.66575)" id="g48"><path id="path50" style="fill:#e29386;fill-opacity:1;fill-rule:nonzero;stroke:none" d="M 0,0 C 0.522,0.199 1.106,-0.062 1.306,-0.586 1.503,-1.105 1.239,-1.691 0.718,-1.889 l -1.892,-0.72 c -0.518,-0.2 -1.103,0.063 -1.302,0.586 -0.2,0.523 0.063,1.106 0.585,1.306 L 0,0 Z" inkscape:connector-curvature="0"/></g></g>
	
	
	<metadata>
		<rdf:RDF xmlns:rdf="http://www.w3.org/1999/02/22-rdf-syntax-ns#" xmlns:rdfs="http://www.w3.org/2000/01/rdf-schema#" xmlns:dc="http://purl.org/dc/elements/1.1/">
			<rdf:Description about="https://iconscout.com/legal#licenses" dc:title="Rice, Cracker, Lunch, Dish, Food, Emoj, Symbol" dc:description="Rice, Cracker, Lunch, Dish, Food, Emoj, Symbol" dc:publisher="Iconscout" dc:date="2016-12-14" dc:format="image/svg+xml" dc:language="en">
				<dc:creator>
					<rdf:Bag>
						<rdf:li>Twitter Emoji</rdf:li>
					</rdf:Bag>
				</dc:creator>
			</rdf:Description>
		</rdf:RDF>
    </metadata></svg>
